0
SECTION
2
ENTITIES
0
LWPOLYLINE
8
TERRAIN_CONTOURS
90
137
70
1
38
145.5
10
45.15713239812715
20
0.49626709026313165
10
45.15713239812715
20
1.4888012703939069
10
45.15713239812715
20
2.481335450524682
10
45.15713239812715
20
3.4738696306554573
10
45.15713239812715
20
4.466403811181721
10
45.15713239812715
20
5.458937991312496
10
45.15713239812715
20
6.451472171443271
10
45.15713239812715
20
7.444006351969534
10
45.15713239812715
20
8.43654053210031
10
45.15713239812715
20
9.429074712231085
10
45.15713239812715
20
10.42160889236186
10
45.15713239812715
20
11.414143072888123
10
45.15713239812715
20
12.406677253018898
10
45.15713239812715
20
13.399211433149674
10
45.15713239812715
20
14.391745613280449
10
45.15713239812715
20
15.384279793806712
10
45.15713239812715
20
16.376813973937487
10
45.15713239812715
20
17.369348154068263
10
45.15713239812715
20
18.361882334594526
10
45.15713239812715
20
19.3544165147253
10
45.15713239812715
20
20.346950694856076
10
45.15713239812715
20
21.33948487498685
10
44.666294002673865
20
21.835751965249983
10
43.68461721176728
20
21.835751965249983
10
42.702940419492
20
21.835751965249983
10
41.72126362858542
20
21.835751965249983
10
40.739586837678836
20
21.835751965249983
10
39.75791004677225
20
21.835751965249983
10
38.77623325449698
20
21.835751965249983
10
37.794556463590396
20
21.835751965249983
10
36.81287967268381
20
21.835751965249983
10
35.83120288177722
20
21.835751965249983
10
34.84952608950195
20
21.835751965249983
10
33.86784929859537
20
21.835751965249983
10
32.886172507688784
20
21.835751965249983
10
31.904495715413507
20
21.835751965249983
10
30.922818924506924
20
21.835751965249983
10
29.94114213360034
20
21.835751965249983
10
28.959465342693758
20
21.835751965249983
10
27.97778855041848
20
21.835751965249983
10
26.996111759511898
20
21.835751965249983
10
26.014434968605315
20
21.835751965249983
10
25.032758177698728
20
21.835751965249983
10
24.051081385423455
20
21.835751965249983
10
23.06940459451687
20
21.835751965249983
10
22.087727803610285
20
21.835751965249983
10
21.106051012703702
20
21.835751965249983
10
20.12437422042843
20
21.835751965249983
10
19.142697429521842
20
21.835751965249983
10
18.16102063861526
20
21.835751965249983
10
17.179343847708676
20
21.835751965249983
10
16.1976670554334
20
21.835751965249983
10
15.215990264526816
20
21.835751965249983
10
14.234313473620231
20
21.835751965249983
10
13.252636682713648
20
21.835751965249983
10
12.270959890438373
20
21.835751965249983
10
11.289283099531788
20
21.835751965249983
10
10.307606308625205
20
21.835751965249983
10
9.32592951634993
20
21.835751965249983
10
8.344252725443345
20
21.835751965249983
10
7.362575934536762
20
21.835751965249983
10
6.380899143630177
20
21.835751965249983
10
5.399222351354903
20
21.835751965249983
10
4.417545560448319
20
21.835751965249983
10
3.435868769541735
20
21.835751965249983
10
2.454191978635151
20
21.835751965249983
10
1.4725151863598762
20
21.835751965249983
10
0.562399028077911
20
21.33948487498685
10
0.49083839545329205
20
21.291221723220843
10
0
20
20.346950694856076
10
0
20
19.3544165147253
10
0
20
18.361882334594526
10
0
20
17.369348154068263
10
0
20
16.376813973937487
10
0
20
15.384279793806712
10
0
20
14.391745613280449
10
0
20
13.399211433149674
10
0
20
12.406677253018898
10
0
20
11.414143072888123
10
0
20
10.42160889236186
10
0
20
9.429074712231085
10
0
20
8.43654053210031
10
0
20
7.444006351969534
10
0
20
6.451472171443271
10
0
20
5.458937991312496
10
0
20
4.466403811181721
10
0
20
3.4738696306554573
10
0
20
2.481335450524682
10
0
20
1.4888012703939069
10
0
20
0.49626709026313165
10
0.49083839545329205
20
0
10
1.4725151863598762
20
0
10
2.454191978635151
20
0
10
3.435868769541735
20
0
10
4.417545560448319
20
0
10
5.399222351354903
20
0
10
6.380899143630177
20
0
10
7.362575934536762
20
0
10
8.344252725443345
20
0
10
9.32592951634993
20
0
10
10.307606308625205
20
0
10
11.289283099531788
20
0
10
12.270959890438373
20
0
10
13.252636682713648
20
0
10
14.234313473620231
20
0
10
15.215990264526816
20
0
10
16.1976670554334
20
0
10
17.179343847708676
20
0
10
18.16102063861526
20
0
10
19.142697429521842
20
0
10
20.12437422042843
20
0
10
21.106051012703702
20
0
10
22.087727803610285
20
0
10
23.06940459451687
20
0
10
24.051081385423455
20
0
10
25.032758177698728
20
0
10
26.014434968605315
20
0
10
26.996111759511898
20
0
10
27.97778855041848
20
0
10
28.959465342693758
20
0
10
29.94114213360034
20
0
10
30.922818924506924
20
0
10
31.904495715413507
20
0
10
32.886172507688784
20
0
10
33.86784929859537
20
0
10
34.84952608950195
20
0
10
35.83120288177722
20
0
10
36.81287967268381
20
0
10
37.794556463590396
20
0
10
38.77623325449698
20
0
10
39.75791004677225
20
0
10
40.739586837678836
20
0
10
41.72126362858542
20
0
10
42.702940419492
20
0
10
43.68461721176728
20
0
10
44.666294002673865
20
0
10
45.15713239812715
20
0.49626709026313165
0
LWPOLYLINE
8
TERRAIN_CONTOURS
90
7
70
1
38
146
10
33.492694519010996
20
21.33948487498685
10
32.886172507688784
20
21.835751965249983
10
31.904495715413507
20
21.835751965249983
10
31.824301071625968
20
21.33948487498685
10
31.904495715413507
20
21.32688644220707
10
32.886172507688784
20
21.29465950420567
10
33.492694519010996
20
21.33948487498685
0
LWPOLYLINE
8
TERRAIN_CONTOURS
90
161
70
1
38
146
10
45.15713239812715
20
0.49626709026313165
10
45.15713239812715
20
1.4888012703939069
10
45.15713239812715
20
2.481335450524682
10
45.15713239812715
20
3.4738696306554573
10
45.15713239812715
20
4.466403811181721
10
45.15713239812715
20
5.458937991312496
10
45.15713239812715
20
6.451472171443271
10
45.15713239812715
20
7.444006351969534
10
45.15713239812715
20
8.43654053210031
10
45.15713239812715
20
9.429074712231085
10
45.15713239812715
20
10.42160889236186
10
45.15713239812715
20
11.414143072888123
10
45.15713239812715
20
12.406677253018898
10
45.15713239812715
20
13.399211433149674
10
45.15713239812715
20
14.391745613280449
10
45.15713239812715
20
15.384279793806712
10
45.15713239812715
20
16.376813973937487
10
45.15713239812715
20
17.369348154068263
10
45.15713239812715
20
18.361882334594526
10
45.15713239812715
20
19.3544165147253
10
45.15713239812715
20
20.346950694856076
10
45.15713239812715
20
21.33948487498685
10
44.666294002673865
20
21.835751965249983
10
43.68461721176728
20
21.835751965249983
10
42.702940419492
20
21.835751965249983
10
41.72126362858542
20
21.835751965249983
10
40.739586837678836
20
21.835751965249983
10
39.75791004677225
20
21.835751965249983
10
38.77623325449698
20
21.835751965249983
10
37.794556463590396
20
21.835751965249983
10
37.6563810542059
20
21.33948487498685
10
37.794556463590396
20
21.14749033183429
10
38.322680769707766
20
20.346950694856076
10
37.794556463590396
20
20.082025528403022
10
36.81287967268381
20
19.996362282423945
10
35.83120288177722
20
19.942753614805753
10
34.84952608950195
20
19.953860144316593
10
33.86784929859537
20
19.8585164889802
10
32.886172507688784
20
19.366608335920432
10
32.87672809630324
20
19.3544165147253
10
31.904495715413507
20
18.63962571407143
10
31.574042330377768
20
18.361882334594526
10
31.058067757628965
20
17.369348154068263
10
30.922818924506924
20
16.925069598656535
10
30.770000300197612
20
16.376813973937487
10
30.351919151913858
20
15.384279793806712
10
29.94114213360034
20
14.871382697637756
10
29.34206195755912
20
14.391745613280449
10
28.959465342693758
20
13.741721499931572
10
28.461911355514896
20
14.391745613280449
10
28.22154853198182
20
15.384279793806712
10
27.99155760467797
20
16.376813973937487
10
27.97778855041848
20
16.418606534438425
10
27.70423233604531
20
17.369348154068263
10
26.996111759511898
20
18.289707608860652
10
26.933079551797267
20
18.361882334594526
10
26.3633318866744
20
19.3544165147253
10
26.014434968605315
20
19.68854822808609
10
25.032758177698728
20
19.69727350207492
10
24.051081385423455
20
19.727041556966185
10
23.06940459451687
20
20.15700292317618
10
22.296996938785327
20
20.346950694856076
10
22.087727803610285
20
20.46971368755308
10
21.106051012703702
20
20.587075454759542
10
20.12437422042843
20
20.83747185300325
10
19.142697429521842
20
21.28832813582079
10
18.16102063861526
20
21.329083007956484
10
17.179343847708676
20
20.868233973528305
10
16.73819008434122
20
20.346950694856076
10
16.1976670554334
20
19.966665629347347
10
15.404116479327097
20
19.3544165147253
10
15.215990264526816
20
19.244623659032243
10
14.234313473620231
20
18.75393890842446
10
13.693226586693209
20
18.361882334594526
10
13.252636682713648
20
18.14507973813022
10
12.291896019485272
20
17.369348154068263
10
12.270959890438373
20
17.355478758230163
10
11.289283099531788
20
16.8297040344666
10
10.59748123534327
20
16.376813973937487
10
10.307606308625205
20
16.258378859182443
10
9.32592951634993
20
15.965475390303965
10
8.344252725443345
20
15.91653523847171
10
7.362575934536762
20
16.35936516768936
10
7.307310166195347
20
16.376813973937487
10
6.380899143630177
20
16.904114581306402
10
5.584364882654103
20
17.369348154068263
10
5.399222351354903
20
17.494113738263763
10
4.417545560448319
20
18.104080311585733
10
3.688025765311492
20
18.361882334594526
10
3.435868769541735
20
18.443524782124996
10
2.454191978635151
20
18.870976170932465
10
1.4725151863598762
20
19.19851294089554
10
1.1954545948558537
20
19.3544165147253
10
0.49083839545329205
20
19.683802713933574
10
0
20
19.3544165147253
10
0
20
18.361882334594526
10
0
20
17.369348154068263
10
0
20
16.376813973937487
10
0
20
15.384279793806712
10
0
20
14.391745613280449
10
0
20
13.399211433149674
10
0
20
12.406677253018898
10
0
20
11.414143072888123
10
0
20
10.42160889236186
10
0
20
9.429074712231085
10
0
20
8.43654053210031
10
0
20
7.444006351969534
10
0
20
6.451472171443271
10
0
20
5.458937991312496
10
0
20
4.466403811181721
10
0
20
3.4738696306554573
10
0
20
2.481335450524682
10
0
20
1.4888012703939069
10
0
20
0.49626709026313165
10
0.49083839545329205
20
0
10
1.4725151863598762
20
0
10
2.454191978635151
20
0
10
3.435868769541735
20
0
10
4.417545560448319
20
0
10
5.399222351354903
20
0
10
6.380899143630177
20
0
10
7.362575934536762
20
0
10
8.344252725443345
20
0
10
9.32592951634993
20
0
10
10.307606308625205
20
0
10
11.289283099531788
20
0
10
12.270959890438373
20
0
10
13.252636682713648
20
0
10
14.234313473620231
20
0
10
15.215990264526816
20
0
10
16.1976670554334
20
0
10
17.179343847708676
20
0
10
18.16102063861526
20
0
10
19.142697429521842
20
0
10
20.12437422042843
20
0
10
21.106051012703702
20
0
10
22.087727803610285
20
0
10
23.06940459451687
20
0
10
24.051081385423455
20
0
10
25.032758177698728
20
0
10
26.014434968605315
20
0
10
26.996111759511898
20
0
10
27.97778855041848
20
0
10
28.959465342693758
20
0
10
29.94114213360034
20
0
10
30.922818924506924
20
0
10
31.904495715413507
20
0
10
32.886172507688784
20
0
10
33.86784929859537
20
0
10
34.84952608950195
20
0
10
35.83120288177722
20
0
10
36.81287967268381
20
0
10
37.794556463590396
20
0
10
38.77623325449698
20
0
10
39.75791004677225
20
0
10
40.739586837678836
20
0
10
41.72126362858542
20
0
10
42.702940419492
20
0
10
43.68461721176728
20
0
10
44.666294002673865
20
0
10
45.15713239812715
20
0.49626709026313165
0
LWPOLYLINE
8
TERRAIN_CONTOURS
90
173
70
1
38
146.5
10
45.15713239812715
20
0.49626709026313165
10
45.15713239812715
20
1.4888012703939069
10
45.15713239812715
20
2.481335450524682
10
45.15713239812715
20
3.4738696306554573
10
45.15713239812715
20
4.466403811181721
10
45.15713239812715
20
5.458937991312496
10
45.15713239812715
20
6.451472171443271
10
45.15713239812715
20
7.444006351969534
10
45.15713239812715
20
8.43654053210031
10
45.15713239812715
20
9.429074712231085
10
45.15713239812715
20
10.42160889236186
10
45.15713239812715
20
11.414143072888123
10
45.15713239812715
20
12.406677253018898
10
45.15713239812715
20
13.399211433149674
10
45.15713239812715
20
14.391745613280449
10
45.15713239812715
20
15.384279793806712
10
45.15713239812715
20
16.376813973937487
10
45.15713239812715
20
17.369348154068263
10
45.15713239812715
20
18.361882334594526
10
45.15713239812715
20
19.3544165147253
10
45.15713239812715
20
20.346950694856076
10
45.15713239812715
20
21.33948487498685
10
44.666294002673865
20
21.835751965249983
10
43.68461721176728
20
21.835751965249983
10
42.702940419492
20
21.835751965249983
10
41.72126362858542
20
21.835751965249983
10
40.739586837678836
20
21.835751965249983
10
39.75791004677225
20
21.835751965249983
10
39.080192321693644
20
21.33948487498685
10
39.75791004677225
20
20.65835266259782
10
40.18468627307892
20
20.346950694856076
10
40.739586837678836
20
19.390238313274324
10
40.76387291314902
20
19.3544165147253
10
41.25503878010094
20
18.361882334594526
10
41.06001925733759
20
17.369348154068263
10
40.83874889991552
20
16.376813973937487
10
40.80039867369017
20
15.384279793806712
10
40.739586837678836
20
15.259613664582332
10
40.34965847403947
20
15.384279793806712
10
39.75791004677225
20
15.85807505917046
10
39.701218605333786
20
16.376813973937487
10
39.51826408579054
20
17.369348154068263
10
38.830205732215106
20
18.361882334594526
10
38.77623325449698
20
18.38276170931124
10
37.794556463590396
20
18.644322460192484
10
36.81287967268381
20
18.761134805461666
10
35.83120288177722
20
18.86251067724828
10
34.84952608950195
20
18.79141313134255
10
33.86784929859537
20
18.51108773353971
10
33.58620068849064
20
18.361882334594526
10
32.886172507688784
20
17.810982480482522
10
32.50105907509569
20
17.369348154068263
10
31.958205050082245
20
16.376813973937487
10
31.904495715413507
20
16.23830498731209
10
31.57462584689732
20
15.384279793806712
10
30.946803911354813
20
14.391745613280449
10
30.922818924506924
20
14.352626600495313
10
30.444338055631448
20
13.399211433149674
10
30.193799807271322
20
12.406677253018898
10
29.94114213360034
20
11.969177471381869
10
29.304771319438366
20
11.414143072888123
10
28.959465342693758
20
11.054117902212681
10
27.97778855041848
20
11.323673280244009
10
27.953684142595005
20
11.414143072888123
10
27.60429896338409
20
12.406677253018898
10
27.45281108254242
20
13.399211433149674
10
27.210865397293553
20
14.391745613280449
10
27.147647875740965
20
15.384279793806712
10
26.996111759511898
20
15.827893440409468
10
26.785306263877718
20
16.376813973937487
10
26.283961568165704
20
17.369348154068263
10
26.014434968605315
20
17.6706723576622
10
25.24016500016236
20
18.361882334594526
10
25.032758177698728
20
18.48227786323008
10
24.051081385423455
20
18.80870592070437
10
23.06940459451687
20
19.06939977475062
10
22.155371992957303
20
19.3544165147253
10
22.087727803610285
20
19.38174129246633
10
21.106051012703702
20
19.609183814082485
10
20.12437422042843
20
19.777865944554662
10
19.142697429521842
20
19.802960273895422
10
18.16102063861526
20
19.741652738960482
10
17.292085956271475
20
19.3544165147253
10
17.179343847708676
20
19.31611444151102
10
16.1976670554334
20
18.78285486445847
10
15.53221416237464
20
18.361882334594526
10
15.215990264526816
20
18.195838362773173
10
14.234313473620231
20
17.7165584100905
10
13.6959720441538
20
17.369348154068263
10
13.252636682713648
20
17.091422767414457
10
12.270959890438373
20
16.38645453470616
10
12.255764666247217
20
16.376813973937487
10
11.289283099531788
20
15.928248232353042
10
10.307606308625205
20
15.488668062360489
10
10.074450856862569
20
15.384279793806712
10
9.32592951634993
20
15.200644494881885
10
8.344252725443345
20
15.02455810249657
10
7.362575934536762
20
15.187983078251364
10
6.424979061030753
20
15.384279793806712
10
6.380899143630177
20
15.401814137800187
10
5.399222351354903
20
15.665408488027879
10
4.417545560448319
20
16.080154216557077
10
3.9514856911683864
20
16.376813973937487
10
3.435868769541735
20
16.74706111597729
10
2.454191978635151
20
17.31471738743423
10
2.3291281005314772
20
17.369348154068263
10
1.4725151863598762
20
17.70647531476328
10
0.49083839545329205
20
18.01481586182561
10
0
20
17.369348154068263
10
0
20
16.376813973937487
10
0
20
15.384279793806712
10
0
20
14.391745613280449
10
0
20
13.399211433149674
10
0
20
12.406677253018898
10
0
20
11.414143072888123
10
0
20
10.42160889236186
10
0
20
9.429074712231085
10
0
20
8.43654053210031
10
0
20
7.444006351969534
10
0
20
6.451472171443271
10
0
20
5.458937991312496
10
0
20
4.466403811181721
10
0
20
3.4738696306554573
10
0
20
2.481335450524682
10
0
20
1.4888012703939069
10
0
20
0.49626709026313165
10
0.49083839545329205
20
0
10
1.4725151863598762
20
0
10
2.454191978635151
20
0
10
3.435868769541735
20
0
10
4.417545560448319
20
0
10
5.399222351354903
20
0
10
6.380899143630177
20
0
10
7.362575934536762
20
0
10
8.344252725443345
20
0
10
9.32592951634993
20
0
10
10.307606308625205
20
0
10
11.289283099531788
20
0
10
12.270959890438373
20
0
10
13.252636682713648
20
0
10
14.234313473620231
20
0
10
15.215990264526816
20
0
10
16.1976670554334
20
0
10
17.179343847708676
20
0
10
18.16102063861526
20
0
10
19.142697429521842
20
0
10
20.12437422042843
20
0
10
21.106051012703702
20
0
10
22.087727803610285
20
0
10
23.06940459451687
20
0
10
24.051081385423455
20
0
10
25.032758177698728
20
0
10
26.014434968605315
20
0
10
26.996111759511898
20
0
10
27.97778855041848
20
0
10
28.959465342693758
20
0
10
29.94114213360034
20
0
10
30.922818924506924
20
0
10
31.904495715413507
20
0
10
32.886172507688784
20
0
10
33.86784929859537
20
0
10
34.84952608950195
20
0
10
35.83120288177722
20
0
10
36.81287967268381
20
0
10
37.794556463590396
20
0
10
38.77623325449698
20
0
10
39.75791004677225
20
0
10
40.739586837678836
20
0
10
41.72126362858542
20
0
10
42.702940419492
20
0
10
43.68461721176728
20
0
10
44.666294002673865
20
0
10
45.15713239812715
20
0.49626709026313165
0
LWPOLYLINE
8
TERRAIN_CONTOURS
90
39
70
1
38
147
10
45.15713239812715
20
9.429074712231085
10
45.15713239812715
20
10.42160889236186
10
45.15713239812715
20
11.414143072888123
10
45.15713239812715
20
12.406677253018898
10
45.15713239812715
20
13.399211433149674
10
45.15713239812715
20
14.391745613280449
10
45.15713239812715
20
15.384279793806712
10
45.15713239812715
20
16.376813973937487
10
45.15713239812715
20
17.369348154068263
10
45.15713239812715
20
18.361882334594526
10
45.15713239812715
20
19.3544165147253
10
45.15713239812715
20
20.346950694856076
10
45.15713239812715
20
21.33948487498685
10
44.666294002673865
20
21.835751965249983
10
43.68461721176728
20
21.835751965249983
10
42.702940419492
20
21.835751965249983
10
41.72126362858542
20
21.835751965249983
10
40.739586837678836
20
21.835751965249983
10
39.86349349525628
20
21.33948487498685
10
40.739586837678836
20
20.656678508135826
10
41.15077700477322
20
20.346950694856076
10
41.72126362858542
20
19.612545166203574
10
41.90979417506295
20
19.3544165147253
10
42.43182015240504
20
18.361882334594526
10
42.60549930751519
20
17.369348154068263
10
42.702940419492
20
16.707324598376232
10
42.747471550322416
20
16.376813973937487
10
42.702940419492
20
15.930156661301993
10
42.62612182852862
20
15.384279793806712
10
42.266935772095906
20
14.391745613280449
10
42.29660291686979
20
13.399211433149674
10
42.34876255592873
20
12.406677253018898
10
42.63902935787262
20
11.414143072888123
10
42.702940419492
20
11.343401758130653
10
43.68461721176728
20
10.664971321815102
10
43.958435982021655
20
10.42160889236186
10
44.28217966891273
20
9.429074712231085
10
44.666294002673865
20
8.46596119539754
10
45.15713239812715
20
9.429074712231085
0
LWPOLYLINE
8
TERRAIN_CONTOURS
90
153
70
1
38
147
10
45.15713239812715
20
0.49626709026313165
10
45.15713239812715
20
1.4888012703939069
10
45.15713239812715
20
2.481335450524682
10
45.15713239812715
20
3.4738696306554573
10
45.15713239812715
20
4.466403811181721
10
45.15713239812715
20
5.458937991312496
10
44.666294002673865
20
6.338126666041575
10
44.591438387495415
20
6.451472171443271
10
44.211775420915835
20
7.444006351969534
10
43.68461721176728
20
7.951619852274092
10
43.01018350876971
20
8.43654053210031
10
42.702940419492
20
8.795978168047043
10
42.3993245883701
20
9.429074712231085
10
41.72126362858542
20
10.171509903927785
10
41.56116362057179
20
10.42160889236186
10
40.739586837678836
20
11.252176306399235
10
40.641179764233556
20
11.414143072888123
10
40.237105095565894
20
12.406677253018898
10
39.75791004677225
20
13.261879322571275
10
39.69632076997205
20
13.399211433149674
10
39.31388595484341
20
14.391745613280449
10
38.87182344263528
20
15.384279793806712
10
38.77623325449698
20
15.676923535771436
10
38.50951228002757
20
16.376813973937487
10
37.846173861726456
20
17.369348154068263
10
37.794556463590396
20
17.410982003618045
10
36.81287967268381
20
17.772936057886284
10
35.83120288177722
20
17.90360744432448
10
34.84952608950195
20
17.67840113257904
10
34.1982234241382
20
17.369348154068263
10
33.86784929859537
20
17.156614741647047
10
33.212772739060135
20
16.376813973937487
10
32.886172507688784
20
15.63988886859562
10
32.782341308676905
20
15.384279793806712
10
32.23016514012956
20
14.391745613280449
10
31.904495715413507
20
13.887344019245234
10
31.603461493085923
20
13.399211433149674
10
31.298483538531357
20
12.406677253018898
10
30.922818924506924
20
11.807490084796228
10
30.685465595238668
20
11.414143072888123
10
29.985477658040914
20
10.42160889236186
10
29.94114213360034
20
10.340587125812135
10
29.334757448461648
20
9.429074712231085
10
28.959465342693758
20
9.014319717416015
10
28.441242502962425
20
8.43654053210031
10
27.97778855041848
20
7.859764245644811
10
27.20589875512756
20
8.43654053210031
10
26.996111759511898
20
8.63092132697588
10
26.624077451716797
20
9.429074712231085
10
26.699742619898508
20
10.42160889236186
10
26.692926365099414
20
11.414143072888123
10
26.668939099381994
20
12.406677253018898
10
26.647177626750583
20
13.399211433149674
10
26.455522275209947
20
14.391745613280449
10
26.18233232375898
20
15.384279793806712
10
26.014434968605315
20
15.77243350966782
10
25.70188046541622
20
16.376813973937487
10
25.032758177698728
20
17.253627512531722
10
24.916741406159915
20
17.369348154068263
10
24.051081385423455
20
17.964926270839783
10
23.06940459451687
20
18.287400750184588
10
22.77710757302823
20
18.361882334594526
10
22.087727803610285
20
18.537963476084514
10
21.106051012703702
20
18.768828493861918
10
20.12437422042843
20
18.84176773722075
10
19.142697429521842
20
18.77847809430179
10
18.16102063861526
20
18.58729844446472
10
17.425781381895334
20
18.361882334594526
10
17.179343847708676
20
18.303256465163855
10
16.1976670554334
20
17.906717493032573
10
15.215990264526816
20
17.38108411631572
10
15.192330570222422
20
17.369348154068263
10
14.234313473620231
20
16.82526918530243
10
13.445517019014009
20
16.376813973937487
10
13.252636682713648
20
16.28404611748138
10
12.270959890438373
20
15.686941582404614
10
11.631675219253927
20
15.384279793806712
10
11.289283099531788
20
15.264748559694539
10
10.307606308625205
20
15.009030676245771
10
9.32592951634993
20
14.778876676442394
10
8.344252725443345
20
14.493260871283837
10
7.362575934536762
20
14.539047365914115
10
6.380899143630177
20
14.736847663501607
10
5.399222351354903
20
14.78917989885673
10
4.417545560448319
20
14.917917314934357
10
3.435868769541735
20
15.172996875469806
10
2.578217393002
20
15.384279793806712
10
2.454191978635151
20
15.461669105502267
10
1.4725151863598762
20
15.991638652359796
10
0.49083839545329205
20
16.26767148970231
10
0
20
15.384279793806712
10
0
20
14.391745613280449
10
0
20
13.399211433149674
10
0
20
12.406677253018898
10
0
20
11.414143072888123
10
0
20
10.42160889236186
10
0
20
9.429074712231085
10
0
20
8.43654053210031
10
0
20
7.444006351969534
10
0
20
6.451472171443271
10
0
20
5.458937991312496
10
0
20
4.466403811181721
10
0
20
3.4738696306554573
10
0
20
2.481335450524682
10
0
20
1.4888012703939069
10
0
20
0.49626709026313165
10
0.49083839545329205
20
0
10
1.4725151863598762
20
0
10
2.454191978635151
20
0
10
3.435868769541735
20
0
10
4.417545560448319
20
0
10
5.399222351354903
20
0
10
6.380899143630177
20
0
10
7.362575934536762
20
0
10
8.344252725443345
20
0
10
9.32592951634993
20
0
10
10.307606308625205
20
0
10
11.289283099531788
20
0
10
12.270959890438373
20
0
10
13.252636682713648
20
0
10
14.234313473620231
20
0
10
15.215990264526816
20
0
10
16.1976670554334
20
0
10
17.179343847708676
20
0
10
18.16102063861526
20
0
10
19.142697429521842
20
0
10
20.12437422042843
20
0
10
21.106051012703702
20
0
10
22.087727803610285
20
0
10
23.06940459451687
20
0
10
24.051081385423455
20
0
10
25.032758177698728
20
0
10
26.014434968605315
20
0
10
26.996111759511898
20
0
10
27.97778855041848
20
0
10
28.959465342693758
20
0
10
29.94114213360034
20
0
10
30.922818924506924
20
0
10
31.904495715413507
20
0
10
32.886172507688784
20
0
10
33.86784929859537
20
0
10
34.84952608950195
20
0
10
35.83120288177722
20
0
10
36.81287967268381
20
0
10
37.794556463590396
20
0
10
38.77623325449698
20
0
10
39.75791004677225
20
0
10
40.739586837678836
20
0
10
41.72126362858542
20
0
10
42.702940419492
20
0
10
43.68461721176728
20
0
10
44.666294002673865
20
0
10
45.15713239812715
20
0.49626709026313165
0
LWPOLYLINE
8
TERRAIN_CONTOURS
90
31
70
1
38
147.5
10
45.15713239812715
20
12.406677253018898
10
45.15713239812715
20
13.399211433149674
10
45.15713239812715
20
14.391745613280449
10
45.15713239812715
20
15.384279793806712
10
45.15713239812715
20
16.376813973937487
10
45.15713239812715
20
17.369348154068263
10
45.15713239812715
20
18.361882334594526
10
45.15713239812715
20
19.3544165147253
10
45.15713239812715
20
20.346950694856076
10
45.15713239812715
20
21.33948487498685
10
44.666294002673865
20
21.835751965249983
10
43.68461721176728
20
21.835751965249983
10
42.702940419492
20
21.835751965249983
10
41.72126362858542
20
21.835751965249983
10
40.739586837678836
20
21.835751965249983
10
40.688620726767944
20
21.33948487498685
10
40.739586837678836
20
21.299763097622275
10
41.72126362858542
20
20.57599704405618
10
41.943738563593215
20
20.346950694856076
10
42.702940419492
20
19.36476754611249
10
42.71091489980742
20
19.3544165147253
10
43.225391212332006
20
18.361882334594526
10
43.61403083898108
20
17.369348154068263
10
43.68461721176728
20
17.05391041232602
10
43.83433412766414
20
16.376813973937487
10
43.764384420383465
20
15.384279793806712
10
43.849394805482
20
14.391745613280449
10
43.885068641102194
20
13.399211433149674
10
43.87438822699913
20
12.406677253018898
10
44.666294002673865
20
11.502714921367954
10
45.15713239812715
20
12.406677253018898
0
LWPOLYLINE
8
TERRAIN_CONTOURS
90
157
70
1
38
147.5
10
45.15713239812715
20
0.49626709026313165
10
45.15713239812715
20
1.4888012703939069
10
45.15713239812715
20
2.481335450524682
10
45.15713239812715
20
3.4738696306554573
10
45.15713239812715
20
4.466403811181721
10
44.666294002673865
20
4.812841580494052
10
44.08269747084767
20
5.458937991312496
10
43.68461721176728
20
6.0123498983485035
10
43.27792492132325
20
6.451472171443271
10
42.702940419492
20
7.072053313593898
10
42.323754123983875
20
7.444006351969534
10
41.72126362858542
20
8.16702446202541
10
41.54736477129078
20
8.43654053210031
10
41.05839315732308
20
9.429074712231085
10
40.739586837678836
20
9.89340393978651
10
40.40702712980553
20
10.42160889236186
10
39.87958246607253
20
11.414143072888123
10
39.75791004677225
20
11.649732119927734
10
39.321297755582066
20
12.406677253018898
10
38.908285857446906
20
13.399211433149674
10
38.77623325449698
20
13.691907737458564
10
38.39017860225194
20
14.391745613280449
10
37.975621838615446
20
15.384279793806712
10
37.794556463590396
20
15.7567744072405
10
37.307133247713985
20
16.376813973937487
10
36.81287967268381
20
16.752041942377502
10
35.83120288177722
20
16.98314437481727
10
34.84952608950195
20
16.619576798761102
10
34.53387805445691
20
16.376813973937487
10
33.87810171499532
20
15.384279793806712
10
33.86784929859537
20
15.354171735434363
10
33.49099324093838
20
14.391745613280449
10
32.886172507688784
20
13.415863299264004
10
32.87523384497323
20
13.399211433149674
10
32.341766680651006
20
12.406677253018898
10
31.904495715413507
20
11.629353270978697
10
31.77038119541765
20
11.414143072888123
10
31.196594504366747
20
10.42160889236186
10
30.922818924506924
20
9.899219188703938
10
30.652505255420625
20
9.429074712231085
10
29.946351278964354
20
8.43654053210031
10
29.94114213360034
20
8.43045490814788
10
28.959465342693758
20
7.47039448182818
10
28.937341461372334
20
7.444006351969534
10
28.21748185029538
20
6.451472171443271
10
27.97778855041848
20
6.10291301273449
10
27.23084350601374
20
5.458937991312496
10
26.996111759511898
20
5.167888649286709
10
26.42400128718091
20
4.466403811181721
10
26.014434968605315
20
3.9694148195079038
10
25.154235647580563
20
4.466403811181721
10
25.123024754156713
20
5.458937991312496
10
25.49125880269698
20
6.451472171443271
10
25.77843428185125
20
7.444006351969534
10
25.845442251885817
20
8.43654053210031
10
25.584294445156424
20
9.429074712231085
10
25.6323466908327
20
10.42160889236186
10
25.686188056221766
20
11.414143072888123
10
25.829395314920724
20
12.406677253018898
10
25.952293059784637
20
13.399211433149674
10
25.708551459733492
20
14.391745613280449
10
25.322797307573882
20
15.384279793806712
10
25.032758177698728
20
15.831244660916752
10
24.475285043135948
20
16.376813973937487
10
24.051081385423455
20
16.800711290070183
10
23.248612608752417
20
17.369348154068263
10
23.06940459451687
20
17.450140870924145
10
22.087727803610285
20
17.705591634204865
10
21.106051012703702
20
17.940660023155743
10
20.12437422042843
20
17.9357822320803
10
19.142697429521842
20
17.78240832937783
10
18.16102063861526
20
17.608290490808827
10
17.179343847708676
20
17.4676529501248
10
16.918856234272944
20
17.369348154068263
10
16.1976670554334
20
17.073445436028578
10
15.215990264526816
20
16.51409511559322
10
14.986745142101721
20
16.376813973937487
10
14.234313473620231
20
15.955678115007998
10
13.252636682713648
20
15.494893180102451
10
13.05768504288853
20
15.384279793806712
10
12.270959890438373
20
15.049460956280143
10
11.289283099531788
20
14.750935168646606
10
10.307606308625205
20
14.574905444167285
10
9.485876976974001
20
14.391745613280449
10
9.32592951634993
20
14.34542471220908
10
8.344252725443345
20
14.031549237394216
10
7.362575934536762
20
14.057403026858282
10
6.380899143630177
20
14.157586332794523
10
5.399222351354903
20
14.135120100096685
10
4.417545560448319
20
14.155888154013212
10
3.435868769541735
20
14.341551539971533
10
3.1725881174920243
20
14.391745613280449
10
2.454191978635151
20
14.558680016641858
10
1.4725151863598762
20
14.780427276866703
10
0.49083839545329205
20
14.864404196842429
10
0
20
14.391745613280449
10
0
20
13.399211433149674
10
0
20
12.406677253018898
10
0
20
11.414143072888123
10
0
20
10.42160889236186
10
0
20
9.429074712231085
10
0
20
8.43654053210031
10
0
20
7.444006351969534
10
0
20
6.451472171443271
10
0
20
5.458937991312496
10
0
20
4.466403811181721
10
0
20
3.4738696306554573
10
0
20
2.481335450524682
10
0
20
1.4888012703939069
10
0
20
0.49626709026313165
10
0.49083839545329205
20
0
10
1.4725151863598762
20
0
10
2.454191978635151
20
0
10
3.435868769541735
20
0
10
4.417545560448319
20
0
10
5.399222351354903
20
0
10
6.380899143630177
20
0
10
7.362575934536762
20
0
10
8.344252725443345
20
0
10
9.32592951634993
20
0
10
10.307606308625205
20
0
10
11.289283099531788
20
0
10
12.270959890438373
20
0
10
13.252636682713648
20
0
10
14.234313473620231
20
0
10
15.215990264526816
20
0
10
16.1976670554334
20
0
10
17.179343847708676
20
0
10
18.16102063861526
20
0
10
19.142697429521842
20
0
10
20.12437422042843
20
0
10
21.106051012703702
20
0
10
22.087727803610285
20
0
10
23.06940459451687
20
0
10
24.051081385423455
20
0
10
25.032758177698728
20
0
10
26.014434968605315
20
0
10
26.996111759511898
20
0
10
27.97778855041848
20
0
10
28.959465342693758
20
0
10
29.94114213360034
20
0
10
30.922818924506924
20
0
10
31.904495715413507
20
0
10
32.886172507688784
20
0
10
33.86784929859537
20
0
10
34.84952608950195
20
0
10
35.83120288177722
20
0
10
36.81287967268381
20
0
10
37.794556463590396
20
0
10
38.77623325449698
20
0
10
39.75791004677225
20
0
10
40.739586837678836
20
0
10
41.72126362858542
20
0
10
42.702940419492
20
0
10
43.68461721176728
20
0
10
44.666294002673865
20
0
10
45.15713239812715
20
0.49626709026313165
0
LWPOLYLINE
8
TERRAIN_CONTOURS
90
19
70
1
38
148
10
45.15713239812715
20
17.369348154068263
10
45.15713239812715
20
18.361882334594526
10
45.15713239812715
20
19.3544165147253
10
45.15713239812715
20
20.346950694856076
10
45.15713239812715
20
21.33948487498685
10
44.666294002673865
20
21.835751965249983
10
43.68461721176728
20
21.835751965249983
10
42.702940419492
20
21.835751965249983
10
41.72126362858542
20
21.835751965249983
10
41.62164994504916
20
21.33948487498685
10
41.72126362858542
20
21.266338358694696
10
42.614273762738385
20
20.346950694856076
10
42.702940419492
20
20.232242207787436
10
43.37922115650995
20
19.3544165147253
10
43.68461721176728
20
18.81452234105751
10
43.98867253622304
20
18.361882334594526
10
44.49738011157242
20
17.369348154068263
10
44.666294002673865
20
16.811472148755655
10
45.15713239812715
20
17.369348154068263
0
LWPOLYLINE
8
TERRAIN_CONTOURS
90
89
70
1
38
148
10
24.7681963835218
20
0.49626709026313165
10
24.413167718732403
20
1.4888012703939069
10
24.287803558165084
20
2.481335450524682
10
24.051081385423455
20
3.1089956182370315
10
23.955573344714825
20
3.4738696306554573
10
23.734430705269602
20
4.466403811181721
10
23.750135345081556
20
5.458937991312496
10
23.920699600341088
20
6.451472171443271
10
24.051081385423455
20
6.750732897356784
10
24.44182578692124
20
7.444006351969534
10
24.658936391709037
20
8.43654053210031
10
24.668828811051476
20
9.429074712231085
10
24.69516615789359
20
10.42160889236186
10
24.78582633412732
20
11.414143072888123
10
25.032758177698728
20
12.25409413349169
10
25.07524365015658
20
12.406677253018898
10
25.257558811980264
20
13.399211433149674
10
25.032758177698728
20
14.027050588091896
10
24.85906323200733
20
14.391745613280449
10
24.19968347834556
20
15.384279793806712
10
24.051081385423455
20
15.529856048923989
10
23.227374720424923
20
16.376813973937487
10
23.06940459451687
20
16.50166472728344
10
22.087727803610285
20
16.89195453757904
10
21.106051012703702
20
17.121916973631386
10
20.12437422042843
20
17.066403698665624
10
19.142697429521842
20
16.831924617416547
10
18.16102063861526
20
16.723022952600672
10
17.179343847708676
20
16.610666310186986
10
16.650817080913843
20
16.376813973937487
10
16.1976670554334
20
16.162505347495397
10
15.215990264526816
20
15.669297361537957
10
14.691396992154703
20
15.384279793806712
10
14.234313473620231
20
15.192438463134437
10
13.252636682713648
20
14.842864321822447
10
12.270959890438373
20
14.457535211933816
10
12.006184146682745
20
14.391745613280449
10
11.289283099531788
20
14.206276708984262
10
10.307606308625205
20
14.052630216118018
10
9.32592951634993
20
13.78138038401218
10
8.344252725443345
20
13.586273843581722
10
7.362575934536762
20
13.624882779561887
10
6.380899143630177
20
13.664150236031958
10
5.399222351354903
20
13.581634624762273
10
4.417545560448319
20
13.530041751221376
10
3.435868769541735
20
13.638662905038075
10
2.454191978635151
20
13.773538208027816
10
1.4725151863598762
20
13.926727574802555
10
0.49083839545329205
20
13.958496943370307
10
0
20
13.399211433149674
10
0
20
12.406677253018898
10
0
20
11.414143072888123
10
0
20
10.42160889236186
10
0
20
9.429074712231085
10
0
20
8.43654053210031
10
0
20
7.444006351969534
10
0
20
6.451472171443271
10
0
20
5.458937991312496
10
0
20
4.466403811181721
10
0
20
3.4738696306554573
10
0
20
2.481335450524682
10
0
20
1.4888012703939069
10
0
20
0.49626709026313165
10
0.49083839545329205
20
0
10
1.4725151863598762
20
0
10
2.454191978635151
20
0
10
3.435868769541735
20
0
10
4.417545560448319
20
0
10
5.399222351354903
20
0
10
6.380899143630177
20
0
10
7.362575934536762
20
0
10
8.344252725443345
20
0
10
9.32592951634993
20
0
10
10.307606308625205
20
0
10
11.289283099531788
20
0
10
12.270959890438373
20
0
10
13.252636682713648
20
0
10
14.234313473620231
20
0
10
15.215990264526816
20
0
10
16.1976670554334
20
0
10
17.179343847708676
20
0
10
18.16102063861526
20
0
10
19.142697429521842
20
0
10
20.12437422042843
20
0
10
21.106051012703702
20
0
10
22.087727803610285
20
0
10
23.06940459451687
20
0
10
24.051081385423455
20
0
10
24.7681963835218
20
0.49626709026313165
0
LWPOLYLINE
8
TERRAIN_CONTOURS
90
71
70
1
38
148
10
45.15713239812715
20
0.49626709026313165
10
45.15713239812715
20
1.4888012703939069
10
45.15713239812715
20
2.481335450524682
10
45.15713239812715
20
3.4738696306554573
10
44.666294002673865
20
3.781668479662841
10
43.942131391824404
20
4.466403811181721
10
43.68461721176728
20
4.750662388234019
10
43.045917123312215
20
5.458937991312496
10
42.702940419492
20
5.823061584465279
10
41.83377607089755
20
6.451472171443271
10
41.72126362858542
20
6.561838663622694
10
40.75115516915454
20
7.444006351969534
10
40.739586837678836
20
7.466685093862964
10
40.30646485621947
20
8.43654053210031
10
39.87013293441616
20
9.429074712231085
10
39.75791004677225
20
9.637560851137295
10
39.38717587031511
20
10.42160889236186
10
38.90062423375392
20
11.414143072888123
10
38.77623325449698
20
11.66566061460216
10
38.351332146369195
20
12.406677253018898
10
37.82232360328769
20
13.399211433149674
10
37.794556463590396
20
13.458438258592764
10
37.355385267442394
20
14.391745613280449
10
36.94473068122336
20
15.384279793806712
10
36.81287967268381
20
15.541387430325528
10
35.83120288177722
20
15.913820028854389
10
34.99549041763093
20
15.384279793806712
10
34.84952608950195
20
15.08022655512292
10
34.66161971512389
20
14.391745613280449
10
34.00279638612372
20
13.399211433149674
10
33.86784929859537
20
13.164355937413319
10
33.43011837125894
20
12.406677253018898
10
32.886172507688784
20
11.547133678191557
10
32.81400852758927
20
11.414143072888123
10
32.331893454454175
20
10.42160889236186
10
31.904495715413507
20
9.55129264680636
10
31.84703849305976
20
9.429074712231085
10
31.242335018254906
20
8.43654053210031
10
30.922818924506924
20
8.05302328997584
10
30.41638800004179
20
7.444006351969534
10
29.94114213360034
20
6.961447035010053
10
29.499044942883316
20
6.451472171443271
10
28.959465342693758
20
5.5833393475906234
10
28.87719886296089
20
5.458937991312496
10
28.09447514809406
20
4.466403811181721
10
27.97778855041848
20
4.288822987963101
10
27.464014525261092
20
3.4738696306554573
10
27.076372553475608
20
2.481335450524682
10
26.996111759511898
20
2.2150227592049987
10
26.642303237055554
20
1.4888012703939069
10
26.101548380734908
20
0.49626709026313165
10
26.996111759511898
20
0
10
27.97778855041848
20
0
10
28.959465342693758
20
0
10
29.94114213360034
20
0
10
30.922818924506924
20
0
10
31.904495715413507
20
0
10
32.886172507688784
20
0
10
33.86784929859537
20
0
10
34.84952608950195
20
0
10
35.83120288177722
20
0
10
36.81287967268381
20
0
10
37.794556463590396
20
0
10
38.77623325449698
20
0
10
39.75791004677225
20
0
10
40.739586837678836
20
0
10
41.72126362858542
20
0
10
42.702940419492
20
0
10
43.68461721176728
20
0
10
44.666294002673865
20
0
10
45.15713239812715
20
0.49626709026313165
0
LWPOLYLINE
8
TERRAIN_CONTOURS
90
13
70
1
38
148.5
10
45.15713239812715
20
19.3544165147253
10
45.15713239812715
20
20.346950694856076
10
45.15713239812715
20
21.33948487498685
10
44.666294002673865
20
21.835751965249983
10
43.68461721176728
20
21.835751965249983
10
42.702940419492
20
21.835751965249983
10
42.55173441359667
20
21.33948487498685
10
42.702940419492
20
21.182708621099806
10
43.345808606855456
20
20.346950694856076
10
43.68461721176728
20
19.89319483062104
10
44.14898057970412
20
19.3544165147253
10
44.666294002673865
20
18.5550419947468
10
45.15713239812715
20
19.3544165147253
0
LWPOLYLINE
8
TERRAIN_CONTOURS
90
85
70
1
38
148.5
10
22.900530147704327
20
0.49626709026313165
10
23.058285474076932
20
1.4888012703939069
10
23.06940459451687
20
1.6031006420428184
10
23.139351756033385
20
2.481335450524682
10
23.06940459451687
20
2.7946814423296473
10
22.92710107525168
20
3.4738696306554573
10
22.76740629130144
20
4.466403811181721
10
22.842758697300354
20
5.458937991312496
10
22.932880786586598
20
6.451472171443271
10
23.06940459451687
20
6.928168020391325
10
23.246649341436424
20
7.444006351969534
10
23.624785754223645
20
8.43654053210031
10
23.807061579884966
20
9.429074712231085
10
23.863794823865913
20
10.42160889236186
10
23.986061001596074
20
11.414143072888123
10
24.051081385423455
20
11.608849630509752
10
24.29763576607904
20
12.406677253018898
10
24.391036230229687
20
13.399211433149674
10
24.051081385423455
20
14.13403718015445
10
23.915679958376376
20
14.391745613280449
10
23.094709629885546
20
15.384279793806712
10
23.06940459451687
20
15.41025100289275
10
22.087727803610285
20
16.086779559937554
10
21.106051012703702
20
16.307054452818477
10
20.12437422042843
20
16.21199558331199
10
19.142697429521842
20
15.93636156841626
10
18.16102063861526
20
15.779350246693156
10
17.179343847708676
20
15.626563802785682
10
16.585014731407092
20
15.384279793806712
10
16.1976670554334
20
15.253920273058696
10
15.215990264526816
20
14.871717013209178
10
14.234313473620231
20
14.543165924271904
10
13.79130095203036
20
14.391745613280449
10
13.252636682713648
20
14.209097623470939
10
12.270959890438373
20
13.806006858065132
10
11.289283099531788
20
13.589965477295749
10
10.307606308625205
20
13.466021266092554
10
10.051373423988622
20
13.399211433149674
10
9.32592951634993
20
13.18114780195998
10
8.344252725443345
20
13.035066964158233
10
7.362575934536762
20
13.09478014977671
10
6.380899143630177
20
13.113141692302008
10
5.399222351354903
20
12.98873701036456
10
4.417545560448319
20
12.877151547177164
10
3.435868769541735
20
12.913290269313507
10
2.454191978635151
20
13.010080938439046
10
1.4725151863598762
20
13.141610484193933
10
0.49083839545329205
20
13.209752520734384
10
0
20
12.406677253018898
10
0
20
11.414143072888123
10
0
20
10.42160889236186
10
0
20
9.429074712231085
10
0
20
8.43654053210031
10
0
20
7.444006351969534
10
0
20
6.451472171443271
10
0
20
5.458937991312496
10
0
20
4.466403811181721
10
0
20
3.4738696306554573
10
0
20
2.481335450524682
10
0
20
1.4888012703939069
10
0
20
0.49626709026313165
10
0.49083839545329205
20
0
10
1.4725151863598762
20
0
10
2.454191978635151
20
0
10
3.435868769541735
20
0
10
4.417545560448319
20
0
10
5.399222351354903
20
0
10
6.380899143630177
20
0
10
7.362575934536762
20
0
10
8.344252725443345
20
0
10
9.32592951634993
20
0
10
10.307606308625205
20
0
10
11.289283099531788
20
0
10
12.270959890438373
20
0
10
13.252636682713648
20
0
10
14.234313473620231
20
0
10
15.215990264526816
20
0
10
16.1976670554334
20
0
10
17.179343847708676
20
0
10
18.16102063861526
20
0
10
19.142697429521842
20
0
10
20.12437422042843
20
0
10
21.106051012703702
20
0
10
22.087727803610285
20
0
10
22.900530147704327
20
0.49626709026313165
0
LWPOLYLINE
8
TERRAIN_CONTOURS
90
65
70
1
38
148.5
10
45.15713239812715
20
0.49626709026313165
10
45.15713239812715
20
1.4888012703939069
10
45.15713239812715
20
2.481335450524682
10
44.666294002673865
20
2.9450629536343342
10
44.11532833403564
20
3.4738696306554573
10
43.68461721176728
20
3.886884686311163
10
42.85480986521465
20
4.466403811181721
10
42.702940419492
20
4.636176908987721
10
41.72126362858542
20
5.174876687277248
10
41.09803795663464
20
5.458937991312496
10
40.739586837678836
20
5.69647987784478
10
39.786848841576166
20
6.451472171443271
10
39.75791004677225
20
6.488849450344105
10
39.430911660623465
20
7.444006351969534
10
38.837562291240154
20
8.43654053210031
10
38.77623325449698
20
8.577563799038614
10
38.42723770175355
20
9.429074712231085
10
38.19747687457523
20
10.42160889236186
10
37.794556463590396
20
11.367407700301868
10
37.77617286414138
20
11.414143072888123
10
37.19542965352955
20
12.406677253018898
10
36.81287967268381
20
13.201839003840519
10
36.49706580437141
20
13.399211433149674
10
35.83120288177722
20
13.876973090061426
10
35.4636448266927
20
13.399211433149674
10
34.84952608950195
20
12.845605800229265
10
34.585771517448514
20
12.406677253018898
10
34.0474150734483
20
11.414143072888123
10
33.86784929859537
20
10.971191245541405
10
33.60279734900908
20
10.42160889236186
10
33.21120646176603
20
9.429074712231085
10
32.886172507688784
20
8.72360269651523
10
32.74819274301746
20
8.43654053210031
10
31.954972739862253
20
7.444006351969534
10
31.904495715413507
20
7.384416241452669
10
31.08256773477369
20
6.451472171443271
10
30.922818924506924
20
6.278693098014685
10
30.245583493079963
20
5.458937991312496
10
29.94114213360034
20
5.031971216205022
10
29.507510688616012
20
4.466403811181721
10
28.959465342693758
20
3.67157549794797
10
28.832022905124045
20
3.4738696306554573
10
28.56964966196709
20
2.481335450524682
10
28.271281822380395
20
1.4888012703939069
10
27.97778855041848
20
0.656255808848698
10
27.91602915908731
20
0.49626709026313165
10
27.97778855041848
20
0
10
28.959465342693758
20
0
10
29.94114213360034
20
0
10
30.922818924506924
20
0
10
31.904495715413507
20
0
10
32.886172507688784
20
0
10
33.86784929859537
20
0
10
34.84952608950195
20
0
10
35.83120288177722
20
0
10
36.81287967268381
20
0
10
37.794556463590396
20
0
10
38.77623325449698
20
0
10
39.75791004677225
20
0
10
40.739586837678836
20
0
10
41.72126362858542
20
0
10
42.702940419492
20
0
10
43.68461721176728
20
0
10
44.666294002673865
20
0
10
45.15713239812715
20
0.49626709026313165
0
LWPOLYLINE
8
TERRAIN_CONTOURS
90
9
70
1
38
149
10
45.15713239812715
20
20.346950694856076
10
45.15713239812715
20
21.33948487498685
10
44.666294002673865
20
21.835751965249983
10
43.68461721176728
20
21.835751965249983
10
43.57247810166332
20
21.33948487498685
10
43.68461721176728
20
21.17477634185562
10
44.22986714713508
20
20.346950694856076
10
44.666294002673865
20
19.827164876060408
10
45.15713239812715
20
20.346950694856076
0
LWPOLYLINE
8
TERRAIN_CONTOURS
90
83
70
1
38
149
10
21.754463842930353
20
0.49626709026313165
10
21.80284649868356
20
1.4888012703939069
10
21.90815718633069
20
2.481335450524682
10
21.904340786109863
20
3.4738696306554573
10
21.90878259298891
20
4.466403811181721
10
21.97673170602875
20
5.458937991312496
10
21.956160859921724
20
6.451472171443271
10
22.087727803610285
20
7.053874726625935
10
22.172395244165116
20
7.444006351969534
10
22.563819980604624
20
8.43654053210031
10
22.86726671823861
20
9.429074712231085
10
22.986899417914014
20
10.42160889236186
10
23.06940459451687
20
10.930004371485893
10
23.144264096776084
20
11.414143072888123
10
23.41846406236503
20
12.406677253018898
10
23.335507241194858
20
13.399211433149674
10
23.06940459451687
20
13.921847621198253
10
22.85595039140975
20
14.391745613280449
10
22.087727803610285
20
15.238068992291858
10
21.590404060269453
20
15.384279793806712
10
21.106051012703702
20
15.490377071978543
10
20.377113614497674
20
15.384279793806712
10
20.12437422042843
20
15.343776034854244
10
19.142697429521842
20
15.060792912418464
10
18.16102063861526
20
14.837253090971387
10
17.179343847708676
20
14.635495015170932
10
16.1976670554334
20
14.403169272032414
10
16.164258610481443
20
14.391745613280449
10
15.215990264526816
20
14.056071886728176
10
14.234313473620231
20
13.838566654659843
10
13.252636682713648
20
13.56499416531534
10
12.857887847569232
20
13.399211433149674
10
12.270959890438373
20
13.139077281753515
10
11.289283099531788
20
12.951609616260953
10
10.307606308625205
20
12.781104785210431
10
9.32592951634993
20
12.504873993029406
10
8.344252725443345
20
12.407118013022398
10
7.362575934536762
20
12.458215520728686
10
6.380899143630177
20
12.495378856394126
10
5.650309250215098
20
12.406677253018898
10
5.399222351354903
20
12.367823601666288
10
4.417545560448319
20
12.207101602291317
10
3.435868769541735
20
12.178482612724792
10
2.454191978635151
20
12.244058658489507
10
1.5775366218193667
20
12.406677253018898
10
1.4725151863598762
20
12.424320553980266
10
0.49083839545329205
20
12.535315840974022
10
0
20
12.406677253018898
10
0
20
11.414143072888123
10
0
20
10.42160889236186
10
0
20
9.429074712231085
10
0
20
8.43654053210031
10
0
20
7.444006351969534
10
0
20
6.451472171443271
10
0
20
5.458937991312496
10
0
20
4.466403811181721
10
0
20
3.4738696306554573
10
0
20
2.481335450524682
10
0
20
1.4888012703939069
10
0
20
0.49626709026313165
10
0.49083839545329205
20
0
10
1.4725151863598762
20
0
10
2.454191978635151
20
0
10
3.435868769541735
20
0
10
4.417545560448319
20
0
10
5.399222351354903
20
0
10
6.380899143630177
20
0
10
7.362575934536762
20
0
10
8.344252725443345
20
0
10
9.32592951634993
20
0
10
10.307606308625205
20
0
10
11.289283099531788
20
0
10
12.270959890438373
20
0
10
13.252636682713648
20
0
10
14.234313473620231
20
0
10
15.215990264526816
20
0
10
16.1976670554334
20
0
10
17.179343847708676
20
0
10
18.16102063861526
20
0
10
19.142697429521842
20
0
10
20.12437422042843
20
0
10
21.106051012703702
20
0
10
21.754463842930353
20
0.49626709026313165
0
LWPOLYLINE
8
TERRAIN_CONTOURS
90
59
70
1
38
149
10
45.15713239812715
20
0.49626709026313165
10
45.15713239812715
20
1.4888012703939069
10
44.666294002673865
20
2.1390436508494304
10
44.273042554529184
20
2.481335450524682
10
43.68461721176728
20
3.0399680743786917
10
43.018532362866694
20
3.4738696306554573
10
42.702940419492
20
3.676077366127828
10
41.72126362858542
20
4.031514347020675
10
40.739586837678836
20
4.42477614390171
10
40.648748255387645
20
4.466403811181721
10
39.75791004677225
20
4.8898984417400015
10
38.818381306445616
20
5.458937991312496
10
38.77623325449698
20
5.632126163550311
10
38.605141775585736
20
6.451472171443271
10
38.13138624328234
20
7.444006351969534
10
37.794556463590396
20
7.866350974754965
10
37.114156039612524
20
8.43654053210031
10
36.81287967268381
20
9.405087581055227
10
36.80640233300385
20
9.429074712231085
10
36.81287967268381
20
9.468202209422145
10
36.899047507251204
20
10.42160889236186
10
36.81287967268381
20
10.660065011698237
10
36.199608026199485
20
11.414143072888123
10
35.83120288177722
20
11.711703334494672
10
35.50680647327343
20
11.414143072888123
10
34.98738590898926
20
10.42160889236186
10
34.84952608950195
20
9.80608381940641
10
34.78261427133732
20
9.429074712231085
10
34.524271731102026
20
8.43654053210031
10
33.86784929859537
20
7.487457413513994
10
33.82598499259285
20
7.444006351969534
10
32.886172507688784
20
6.84868509047277
10
32.54343296233054
20
6.451472171443271
10
31.904495715413507
20
5.539130965513408
10
31.830965085622154
20
5.458937991312496
10
30.922818924506924
20
4.531123588062798
10
30.87551209363264
20
4.466403811181721
10
30.277670739811185
20
3.4738696306554573
10
29.94114213360034
20
2.522118249260643
10
29.926615699447304
20
2.481335450524682
10
29.487863479963927
20
1.4888012703939069
10
29.101116570115018
20
0.49626709026313165
10
29.94114213360034
20
0
10
30.922818924506924
20
0
10
31.904495715413507
20
0
10
32.886172507688784
20
0
10
33.86784929859537
20
0
10
34.84952608950195
20
0
10
35.83120288177722
20
0
10
36.81287967268381
20
0
10
37.794556463590396
20
0
10
38.77623325449698
20
0
10
39.75791004677225
20
0
10
40.739586837678836
20
0
10
41.72126362858542
20
0
10
42.702940419492
20
0
10
43.68461721176728
20
0
10
44.666294002673865
20
0
10
45.15713239812715
20
0.49626709026313165
0
LWPOLYLINE
8
TERRAIN_CONTOURS
90
5
70
1
38
149.5
10
45.15713239812715
20
21.33948487498685
10
44.666294002673865
20
21.835751965249983
10
44.60034762861273
20
21.33948487498685
10
44.666294002673865
20
21.23825985343018
10
45.15713239812715
20
21.33948487498685
0
LWPOLYLINE
8
TERRAIN_CONTOURS
90
77
70
1
38
149.5
10
20.791228964527665
20
0.49626709026313165
10
20.78993719315073
20
1.4888012703939069
10
20.772609675221492
20
2.481335450524682
10
20.831168700198134
20
3.4738696306554573
10
21.00954431935618
20
4.466403811181721
10
21.06746495017131
20
5.458937991312496
10
20.883299574859432
20
6.451472171443271
10
21.02125538334252
20
7.444006351969534
10
21.106051012703702
20
7.653686249913676
10
21.40388284164626
20
8.43654053210031
10
21.88794054361467
20
9.429074712231085
10
22.087727803610285
20
10.340365956613908
10
22.103393001870717
20
10.42160889236186
10
22.21172303424754
20
11.414143072888123
10
22.355005988369584
20
12.406677253018898
10
22.284610494516546
20
13.399211433149674
10
22.087727803610285
20
13.851802970174703
10
21.443089636759122
20
14.391745613280449
10
21.106051012703702
20
14.511284513533695
10
20.12437422042843
20
14.444570637469809
10
19.92868945116643
20
14.391745613280449
10
19.142697429521842
20
14.151661950521515
10
18.16102063861526
20
13.884648052891748
10
17.179343847708676
20
13.63570903813482
10
16.1976670554334
20
13.443614741022145
10
16.046670544029485
20
13.399211433149674
10
15.215990264526816
20
13.130764698792206
10
14.234313473620231
20
12.985052108253257
10
13.252636682713648
20
12.744659094712887
10
12.270959890438373
20
12.459326413938783
10
11.949890857284327
20
12.406677253018898
10
11.289283099531788
20
12.268900770444304
10
10.307606308625205
20
12.012081225663849
10
9.32592951634993
20
11.751212491531504
10
8.344252725443345
20
11.722397908981321
10
7.362575934536762
20
11.741209115924391
10
6.380899143630177
20
11.687320674892305
10
5.399222351354903
20
11.580466495009603
10
4.417545560448319
20
11.512202557176181
10
3.435868769541735
20
11.448473634170142
10
2.454191978635151
20
11.45204229323653
10
1.4725151863598762
20
11.594402833138702
10
0.49083839545329205
20
11.655856502899127
10
0
20
11.414143072888123
10
0
20
10.42160889236186
10
0
20
9.429074712231085
10
0
20
8.43654053210031
10
0
20
7.444006351969534
10
0
20
6.451472171443271
10
0
20
5.458937991312496
10
0
20
4.466403811181721
10
0
20
3.4738696306554573
10
0
20
2.481335450524682
10
0
20
1.4888012703939069
10
0
20
0.49626709026313165
10
0.49083839545329205
20
0
10
1.4725151863598762
20
0
10
2.454191978635151
20
0
10
3.435868769541735
20
0
10
4.417545560448319
20
0
10
5.399222351354903
20
0
10
6.380899143630177
20
0
10
7.362575934536762
20
0
10
8.344252725443345
20
0
10
9.32592951634993
20
0
10
10.307606308625205
20
0
10
11.289283099531788
20
0
10
12.270959890438373
20
0
10
13.252636682713648
20
0
10
14.234313473620231
20
0
10
15.215990264526816
20
0
10
16.1976670554334
20
0
10
17.179343847708676
20
0
10
18.16102063861526
20
0
10
19.142697429521842
20
0
10
20.12437422042843
20
0
10
20.791228964527665
20
0.49626709026313165
0
LWPOLYLINE
8
TERRAIN_CONTOURS
90
43
70
1
38
149.5
10
45.15713239812715
20
0.49626709026313165
10
44.666294002673865
20
1.2569883962062534
10
44.23009247326846
20
1.4888012703939069
10
43.68461721176728
20
1.912580396493837
10
42.855475652346016
20
2.481335450524682
10
42.702940419492
20
2.567000391565699
10
41.72126362858542
20
2.9902923692824857
10
40.739586837678836
20
3.416881814743249
10
40.519968226792166
20
3.4738696306554573
10
39.75791004677225
20
3.6637095017161414
10
38.77623325449698
20
3.837500358249315
10
37.89793136448756
20
4.466403811181721
10
37.794556463590396
20
4.586485250297585
10
36.81287967268381
20
5.392969709955082
10
36.677777110137114
20
5.458937991312496
10
35.83120288177722
20
5.840619552148638
10
34.84952608950195
20
6.066930133074209
10
33.86784929859537
20
5.472547944197288
10
33.858343450803424
20
5.458937991312496
10
33.19351686773855
20
4.466403811181721
10
32.886172507688784
20
4.276232514381064
10
31.904495715413507
20
3.7462754115561836
10
31.68693515912843
20
3.4738696306554573
10
31.22390642995214
20
2.481335450524682
10
30.922818924506924
20
1.8563361242868837
10
30.755709958296716
20
1.4888012703939069
10
30.347943243144048
20
0.49626709026313165
10
30.922818924506924
20
0
10
31.904495715413507
20
0
10
32.886172507688784
20
0
10
33.86784929859537
20
0
10
34.84952608950195
20
0
10
35.83120288177722
20
0
10
36.81287967268381
20
0
10
37.794556463590396
20
0
10
38.77623325449698
20
0
10
39.75791004677225
20
0
10
40.739586837678836
20
0
10
41.72126362858542
20
0
10
42.702940419492
20
0
10
43.68461721176728
20
0
10
44.666294002673865
20
0
10
45.15713239812715
20
0.49626709026313165
0
LWPOLYLINE
8
TERRAIN_CONTOURS
90
71
70
1
38
150
10
19.773724638174
20
0.49626709026313165
10
19.74384258710682
20
1.4888012703939069
10
19.59906840646057
20
2.481335450524682
10
19.550071713760374
20
3.4738696306554573
10
19.782526120926704
20
4.466403811181721
10
19.881835326963216
20
5.458937991312496
10
19.62372201636635
20
6.451472171443271
10
19.740558768960653
20
7.444006351969534
10
20.12437422042843
20
8.096052349121265
10
20.280319969731092
20
8.43654053210031
10
20.815223856588048
20
9.429074712231085
10
21.104594125253175
20
10.42160889236186
10
21.106051012703702
20
10.431007351143364
10
21.21226804713983
20
11.414143072888123
10
21.239997290537076
20
12.406677253018898
10
21.106051012703702
20
12.777523435722316
10
20.12437422042843
20
13.212106213505166
10
19.142697429521842
20
12.970394463923043
10
18.16102063861526
20
12.728275385736367
10
17.179343847708676
20
12.514205319290141
10
16.749472152849137
20
12.406677253018898
10
16.1976670554334
20
12.258032828218006
10
15.215990264526816
20
12.04940656392779
10
14.234313473620231
20
11.928909376266006
10
13.252636682713648
20
11.792766465934363
10
12.270959890438373
20
11.5933760420522
10
11.341067841969425
20
11.414143072888123
10
11.289283099531788
20
11.400554240253626
10
10.307606308625205
20
11.099195660835193
10
9.32592951634993
20
10.907263079196667
10
8.344252725443345
20
10.903637824994092
10
7.362575934536762
20
10.891767373463352
10
6.380899143630177
20
10.78605792198303
10
5.399222351354903
20
10.675883650064861
10
4.417545560448319
20
10.60296053194179
10
3.435868769541735
20
10.535731757677667
10
2.454191978635151
20
10.513125690279566
10
1.4725151863598762
20
10.471712781335896
10
1.1903528752646808
20
10.42160889236186
10
0.49083839545329205
20
10.01240620423232
10
0
20
9.429074712231085
10
0
20
8.43654053210031
10
0
20
7.444006351969534
10
0
20
6.451472171443271
10
0
20
5.458937991312496
10
0
20
4.466403811181721
10
0
20
3.4738696306554573
10
0
20
2.481335450524682
10
0
20
1.4888012703939069
10
0
20
0.49626709026313165
10
0.49083839545329205
20
0
10
1.4725151863598762
20
0
10
2.454191978635151
20
0
10
3.435868769541735
20
0
10
4.417545560448319
20
0
10
5.399222351354903
20
0
10
6.380899143630177
20
0
10
7.362575934536762
20
0
10
8.344252725443345
20
0
10
9.32592951634993
20
0
10
10.307606308625205
20
0
10
11.289283099531788
20
0
10
12.270959890438373
20
0
10
13.252636682713648
20
0
10
14.234313473620231
20
0
10
15.215990264526816
20
0
10
16.1976670554334
20
0
10
17.179343847708676
20
0
10
18.16102063861526
20
0
10
19.142697429521842
20
0
10
19.773724638174
20
0.49626709026313165
0
LWPOLYLINE
8
TERRAIN_CONTOURS
90
29
70
1
38
150
10
43.81908697535886
20
0.49626709026313165
10
43.68461721176728
20
0.5428274767724872
10
42.702940419492
20
0.9670017745686721
10
42.06597002038507
20
1.4888012703939069
10
41.72126362858542
20
1.6969096541082251
10
40.739586837678836
20
1.7715143037325731
10
39.75791004677225
20
1.782312800623771
10
38.77623325449698
20
2.0397998644345705
10
37.794556463590396
20
2.176936314796336
10
36.81287967268381
20
2.2669889841779423
10
35.83120288177722
20
2.1936144646534217
10
34.84952608950195
20
2.1525611354556418
10
33.86784929859537
20
2.0308388902242314
10
32.886172507688784
20
1.7039414892404636
10
32.68419933687699
20
1.4888012703939069
10
32.378302672152955
20
0.49626709026313165
10
32.886172507688784
20
0
10
33.86784929859537
20
0
10
34.84952608950195
20
0
10
35.83120288177722
20
0
10
36.81287967268381
20
0
10
37.794556463590396
20
0
10
38.77623325449698
20
0
10
39.75791004677225
20
0
10
40.739586837678836
20
0
10
41.72126362858542
20
0
10
42.702940419492
20
0
10
43.68461721176728
20
0
10
43.81908697535886
20
0.49626709026313165
0
LWPOLYLINE
8
TERRAIN_CONTOURS
90
61
70
1
38
150.5
10
18.13898215262585
20
0.49626709026313165
10
17.730516024355847
20
1.4888012703939069
10
17.622806657493665
20
2.481335450524682
10
17.58705125750591
20
3.4738696306554573
10
17.54938171523833
20
4.466403811181721
10
17.427118409020647
20
5.458937991312496
10
17.422990151321383
20
6.451472171443271
10
17.6278893591316
20
7.444006351969534
10
18.16102063861526
20
8.117986919274358
10
18.361946862547068
20
8.43654053210031
10
19.012344403362356
20
9.429074712231085
10
19.12839485426607
20
10.42160889236186
10
18.16102063861526
20
10.800804450678783
10
17.179343847708676
20
10.935500285920625
10
16.1976670554334
20
10.781349400995168
10
15.215990264526816
20
10.717450227882068
10
14.234313473620231
20
10.676975400069608
10
13.252636682713648
20
10.542477957076102
10
12.562226631590146
20
10.42160889236186
10
12.270959890438373
20
10.350713593922336
10
11.289283099531788
20
10.104231220253581
10
10.307606308625205
20
9.876970703441401
10
9.32592951634993
20
9.751066075984767
10
8.344252725443345
20
9.660061848819907
10
7.362575934536762
20
9.561440243867594
10
6.380899143630177
20
9.625329056379286
10
5.399222351354903
20
9.575433971272957
10
4.577242271514655
20
9.429074712231085
10
4.417545560448319
20
9.366153803816246
10
3.435868769541735
20
9.141040463805723
10
2.454191978635151
20
8.939981644163595
10
1.4725151863598762
20
8.573065043349999
10
1.1411081744936367
20
8.43654053210031
10
0.49083839545329205
20
8.178634218883047
10
0
20
7.444006351969534
10
0
20
6.451472171443271
10
0
20
5.458937991312496
10
0
20
4.466403811181721
10
0
20
3.4738696306554573
10
0
20
2.481335450524682
10
0
20
1.4888012703939069
10
0
20
0.49626709026313165
10
0.49083839545329205
20
0
10
1.4725151863598762
20
0
10
2.454191978635151
20
0
10
3.435868769541735
20
0
10
4.417545560448319
20
0
10
5.399222351354903
20
0
10
6.380899143630177
20
0
10
7.362575934536762
20
0
10
8.344252725443345
20
0
10
9.32592951634993
20
0
10
10.307606308625205
20
0
10
11.289283099531788
20
0
10
12.270959890438373
20
0
10
13.252636682713648
20
0
10
14.234313473620231
20
0
10
15.215990264526816
20
0
10
16.1976670554334
20
0
10
17.179343847708676
20
0
10
18.13898215262585
20
0.49626709026313165
0
LWPOLYLINE
8
TERRAIN_CONTOURS
90
49
70
1
38
151
10
14.544745107873398
20
0.49626709026313165
10
14.359500615982162
20
1.4888012703939069
10
14.424560913559256
20
2.481335450524682
10
14.40275392512829
20
3.4738696306554573
10
14.234313473620231
20
4.288618922438161
10
14.148777872738817
20
4.466403811181721
10
14.021263466690007
20
5.458937991312496
10
14.00897259122905
20
6.451472171443271
10
13.434537050590597
20
7.444006351969534
10
13.252636682713648
20
7.563739614843001
10
12.270959890438373
20
7.682548406121299
10
11.746530806167753
20
7.444006351969534
10
11.289283099531788
20
7.098007861557818
10
10.307606308625205
20
6.6436506133922535
10
9.752979064656556
20
6.451472171443271
10
9.32592951634993
20
6.340277572691377
10
8.344252725443345
20
6.403443122917878
10
7.362575934536762
20
6.442081859320865
10
6.380899143630177
20
6.351655586185814
10
5.399222351354903
20
6.32451275313457
10
4.417545560448319
20
6.089555869676815
10
3.435868769541735
20
6.116844818174627
10
2.7570263874477785
20
6.451472171443271
10
2.454191978635151
20
6.546725799058066
10
1.4725151863598762
20
6.476498965260902
10
1.4258133002221927
20
6.451472171443271
10
0.49083839545329205
20
5.660773528596081
10
0
20
5.458937991312496
10
0
20
4.466403811181721
10
0
20
3.4738696306554573
10
0
20
2.481335450524682
10
0
20
1.4888012703939069
10
0
20
0.49626709026313165
10
0.49083839545329205
20
0
10
1.4725151863598762
20
0
10
2.454191978635151
20
0
10
3.435868769541735
20
0
10
4.417545560448319
20
0
10
5.399222351354903
20
0
10
6.380899143630177
20
0
10
7.362575934536762
20
0
10
8.344252725443345
20
0
10
9.32592951634993
20
0
10
10.307606308625205
20
0
10
11.289283099531788
20
0
10
12.270959890438373
20
0
10
13.252636682713648
20
0
10
14.234313473620231
20
0
10
14.544745107873398
20
0.49626709026313165
0
LWPOLYLINE
8
TERRAIN_CONTOURS
90
5
70
1
38
151.5
10
2.5146171596058693
20
0.49626709026313165
10
2.454191978635151
20
0.5212292573725108
10
2.3903510665053163
20
0.49626709026313165
10
2.454191978635151
20
0
10
2.5146171596058693
20
0.49626709026313165
0
LWPOLYLINE
8
TERRAIN_CONTOURS
90
5
70
1
38
151.5
10
6.229657822784904
20
0.49626709026313165
10
5.399222351354903
20
0.7427482474105318
10
5.09812546079955
20
0.49626709026313165
10
5.399222351354903
20
0
10
6.229657822784904
20
0.49626709026313165
0
ENDSEC
0
EOF
