ISO-10303-21;
HEADER;
FILE_DESCRIPTION(('ViewDefinition [CoordinationView]'),'2;1');
FILE_NAME('','2026-07-24T12:13:18',(''),(''),'IfcOpenShell 0.8.5-1c5b825','IfcOpenShell 0.8.5-1c5b825','');
FILE_SCHEMA(('IFC4'));
ENDSEC;
DATA;
#1=IFCSIUNIT(*,.LENGTHUNIT.,$,.METRE.);
#2=IFCUNITASSIGNMENT((#1));
#3=IFCCARTESIANPOINT((0.,0.,0.));
#4=IFCAXIS2PLACEMENT3D(#3,$,$);
#5=IFCGEOMETRICREPRESENTATIONCONTEXT($,'Model',3,1.0000000000000001E-05,#4,$);
#6=IFCGEOMETRICREPRESENTATIONSUBCONTEXT('Body','Model',*,*,*,*,#5,$,.MODEL_VIEW.,$);
#7=IFCPROJECT('2X7gWUHO18x8HwH8OO9dbg',$,'Parcel terrain','USGS 3DEP parcel terrain export (USGS 3DEP)',$,$,$,(#5),#2);
#8=IFCPROJECTEDCRS('local-ENU-metres','local-enu-meters:origin-bbox-sw:equirectangular-coslat; origin WGS84 lon=-97.28789162299995 lat=30.095417637000025 (bbox SW); mesh XYZ are east/north/up metres from that origin','WGS84',$,$,$,#1);
#9=IFCMAPCONVERSION(#5,#8,0.,0.,0.,1.,0.,1.);
#10=IFCCARTESIANPOINT((0.,0.,0.));
#11=IFCAXIS2PLACEMENT3D(#10,$,$);
#12=IFCLOCALPLACEMENT($,#11);
#13=IFCSITE('1bq58R8Az1lAZHSHKwYGMr',$,'Parcel site','Terrain site; georeferenced at DEM bbox southwest origin',$,#12,$,$,.ELEMENT.,(30,5,43,503493),(-97,17,16,409843),0.,$,$);
#14=IFCRELAGGREGATES('3DHgTwDLvEcwLTbkNNpl4f',$,$,$,#7,(#13));
#15=IFCCARTESIANPOINTLIST3D(((0.,21.835752487182617,145.488037109375),(1.0034918785095215,21.835752487182617,145.65214538574219),(0.,20.795953750610352,145.73405456542969),(1.0034918785095215,20.795953750610352,145.66212463378906),(2.006983757019043,21.835752487182617,145.74720764160156),(2.006983757019043,20.795953750610352,145.6898193359375),(3.0104753971099854,21.835752487182617,145.72193908691406),(3.0104753971099854,20.795953750610352,145.68115234375),(4.0139675140380859,21.835752487182617,145.77044677734375),(4.0139675140380859,20.795953750610352,145.6839599609375),(5.0174593925476074,21.835752487182617,145.79316711425781),(5.0174593925476074,20.795953750610352,145.68302917480469),(6.0209507942199707,21.835752487182617,145.74134826660156),(6.0209507942199707,20.795953750610352,145.66339111328125),(7.0244426727294922,21.835752487182617,145.64900207519531),(7.0244426727294922,20.795953750610352,145.64591979980469),(8.0279350280761719,21.835752487182617,145.65609741210938),(8.0279350280761719,20.795953750610352,145.64242553710938),(9.0314264297485352,21.835752487182617,145.69363403320312),(9.0314264297485352,20.795953750610352,145.66691589355469),(10.034918785095215,21.835752487182617,145.755126953125),(10.034918785095215,20.795953750610352,145.70550537109375),(11.038410186767578,21.835752487182617,145.79014587402344),(11.038410186767578,20.795953750610352,145.73855590820312),(12.041901588439941,21.835752487182617,145.7431640625),(12.041901588439941,20.795953750610352,145.76496887207031),(13.045393943786621,21.835752487182617,145.78431701660156),(13.045393943786621,20.795953750610352,145.80131530761719),(14.048885345458984,21.835752487182617,145.71986389160156),(14.048885345458984,20.795953750610352,145.765869140625),(15.052377700805664,21.835752487182617,145.67364501953125),(15.052377700805664,20.795953750610352,145.72117614746094),(16.055870056152344,21.835752487182617,145.75328063964844),(16.055870056152344,20.795953750610352,145.87026977539062),(17.059360504150391,21.835752487182617,145.90428161621094),(17.059360504150391,20.795953750610352,146.10588073730469),(18.06285285949707,21.835752487182617,145.99708557128906),(18.06285285949707,20.795953750610352,146.27517700195312),(19.06634521484375,21.835752487182617,145.98663330078125),(19.06634521484375,20.795953750610352,146.2459716796875),(20.06983757019043,21.835752487182617,145.79736328125),(20.06983757019043,20.795953750610352,146.197998046875),(21.073328018188477,21.835752487182617,145.793212890625),(21.073328018188477,20.795953750610352,146.06599426269531),(22.076820373535156,21.835752487182617,145.85621643066406),(22.076820373535156,20.795953750610352,146.02029418945312),(23.080312728881836,21.835752487182617,145.85690307617188),(23.080312728881836,20.795953750610352,145.92509460449219),(24.083803176879883,21.835752487182617,145.79173278808594),(24.083803176879883,20.795953750610352,145.799560546875),(25.087295532226562,21.835752487182617,145.82089233398438),(25.087295532226562,20.795953750610352,145.8828125),(26.090787887573242,21.835752487182617,145.79434204101562),(26.090787887573242,20.795953750610352,145.87672424316406),(27.094280242919922,21.835752487182617,145.74320983886719),(27.094280242919922,20.795953750610352,145.84170532226562),(28.097770690917969,21.835752487182617,145.68162536621094),(28.097770690917969,20.795953750610352,145.87339782714844),(29.101263046264648,21.835752487182617,145.99691772460938),(29.101263046264648,20.795953750610352,145.82145690917969),(30.104755401611328,21.835752487182617,145.87808227539062),(30.104755401611328,20.795953750610352,145.71333312988281),(31.108245849609375,21.835752487182617,145.97084045410156),(31.108245849609375,20.795953750610352,145.76066589355469),(32.111740112304688,21.835752487182617,146.00259399414062),(32.111740112304688,20.795953750610352,145.79823303222656),(33.115230560302734,21.835752487182617,146.007080078125),(33.115230560302734,20.795953750610352,145.85031127929688),(34.118721008300781,21.835752487182617,145.99562072753906),(34.118721008300781,20.795953750610352,145.87202453613281),(35.122215270996094,21.835752487182617,145.96066284179688),(35.122215270996094,20.795953750610352,145.84588623046875),(36.125705718994141,21.835752487182617,145.93771362304688),(36.125705718994141,20.795953750610352,145.82261657714844),(37.129196166992188,21.835752487182617,145.89399719238281),(37.129196166992188,20.795953750610352,145.87400817871094),(38.1326904296875,21.835752487182617,146.01736450195312),(38.1326904296875,20.795953750610352,145.92759704589844),(39.136180877685547,21.835752487182617,146.304443359375),(39.136180877685547,20.795953750610352,146.06217956542969),(40.139675140380859,21.835752487182617,146.93601989746094),(40.139675140380859,20.795953750610352,146.3006591796875),(41.143165588378906,21.835752487182617,147.5308837890625),(41.143165588378906,20.795953750610352,146.75918579101562),(42.146656036376953,21.835752487182617,148.052978515625),(42.146656036376953,20.795953750610352,147.3341064453125),(43.150150299072266,21.835752487182617,148.58139038085938),(43.150150299072266,20.795953750610352,148.06611633300781),(44.153640747070312,21.835752487182617,149.05398559570312),(44.153640747070312,20.795953750610352,148.72866821289062),(45.157131195068359,21.835752487182617,149.53211975097656),(45.157131195068359,20.795953750610352,149.21717834472656),(0.,19.756156921386719,146.13209533691406),(1.0034918785095215,19.756156921386719,145.94805908203125),(2.006983757019043,19.756156921386719,145.86456298828125),(3.0104753971099854,19.756156921386719,145.78974914550781),(4.0139675140380859,19.756156921386719,145.74998474121094),(5.0174593925476074,19.756156921386719,145.71258544921875),(6.0209507942199707,19.756156921386719,145.68363952636719),(7.0244426727294922,19.756156921386719,145.64340209960938),(8.0279350280761719,19.756156921386719,145.63055419921875),(9.0314264297485352,19.756156921386719,145.64163208007812),(10.034918785095215,19.756156921386719,145.66896057128906),(11.038410186767578,19.756156921386719,145.69987487792969),(12.041901588439941,19.756156921386719,145.73748779296875),(13.045393943786621,19.756156921386719,145.78610229492188),(14.048885345458984,19.756156921386719,145.82736206054688),(15.052377700805664,19.756156921386719,145.95048522949219),(16.055870056152344,19.756156921386719,146.2088623046875),(17.059360504150391,19.756156921386719,146.48133850097656),(18.06285285949707,19.756156921386719,146.64382934570312),(19.06634521484375,19.756156921386719,146.70945739746094),(20.06983757019043,19.756156921386719,146.72471618652344),(21.073328018188477,19.756156921386719,146.64987182617188),(22.076820373535156,19.756156921386719,146.51358032226562),(23.080312728881836,19.756156921386719,146.31649780273438),(24.083803176879883,19.756156921386719,146.1204833984375),(25.087295532226562,19.756156921386719,146.06184387207031),(26.090787887573242,19.756156921386719,146.06256103515625),(27.094280242919922,19.756156921386719,145.88653564453125),(28.097770690917969,19.756156921386719,145.87947082519531),(29.101263046264648,19.756156921386719,145.71696472167969),(30.104755401611328,19.756156921386719,145.65040588378906),(31.108245849609375,19.756156921386719,145.712890625),(32.111740112304688,19.756156921386719,145.80836486816406),(33.115230560302734,19.756156921386719,146.00186157226562),(34.118721008300781,19.756156921386719,146.132080078125),(35.122215270996094,19.756156921386719,146.23501586914062),(36.125705718994141,19.756156921386719,146.25819396972656),(37.129196166992188,19.756156921386719,146.23069763183594),(38.1326904296875,19.756156921386719,146.1988525390625),(39.136180877685547,19.756156921386719,146.17974853515625),(40.139675140380859,19.756156921386719,146.26626586914062),(41.143165588378906,19.756156921386719,146.49029541015625),(42.146656036376953,19.756156921386719,146.882568359375),(43.150150299072266,19.756156921386719,147.49403381347656),(44.153640747070312,19.756156921386719,148.22848510742188),(45.157131195068359,19.756156921386719,148.80247497558594),(0.,18.716358184814453,146.39259338378906),(1.0034918785095215,18.716358184814453,146.27873229980469),(2.006983757019043,18.716358184814453,146.14262390136719),(3.0104753971099854,18.716358184814453,146.01884460449219),(4.0139675140380859,18.716358184814453,145.94548034667969),(5.0174593925476074,18.716358184814453,145.85078430175781),(6.0209507942199707,18.716358184814453,145.75407409667969),(7.0244426727294922,18.716358184814453,145.66098022460938),(8.0279350280761719,18.716358184814453,145.6231689453125),(9.0314264297485352,18.716358184814453,145.62849426269531),(10.034918785095215,18.716358184814453,145.64553833007812),(11.038410186767578,18.716358184814453,145.66096496582031),(12.041901588439941,18.716358184814453,145.72724914550781),(13.045393943786621,18.716358184814453,145.90821838378906),(14.048885345458984,18.716358184814453,146.11271667480469),(15.052377700805664,18.716358184814453,146.39810180664062),(16.055870056152344,18.716358184814453,146.71443176269531),(17.059360504150391,18.716358184814453,146.96492004394531),(18.06285285949707,18.716358184814453,147.10466003417969),(19.06634521484375,18.716358184814453,147.21015930175781),(20.06983757019043,18.716358184814453,147.2576904296875),(21.073328018188477,18.716358184814453,147.24331665039062),(22.076820373535156,18.716358184814453,147.10490417480469),(23.080312728881836,18.716358184814453,146.95552062988281),(24.083803176879883,18.716358184814453,146.81074523925781),(25.087295532226562,18.716358184814453,146.56048583984375),(26.090787887573242,18.716358184814453,146.27420043945312),(27.094280242919922,18.716358184814453,145.98118591308594),(28.097770690917969,18.716358184814453,145.84494018554688),(29.101263046264648,18.716358184814453,145.75387573242188),(30.104755401611328,18.716358184814453,145.71836853027344),(31.108245849609375,18.716358184814453,145.85325622558594),(32.111740112304688,18.716358184814453,146.074462890625),(33.115230560302734,18.716358184814453,146.33821105957031),(34.118721008300781,18.716358184814453,146.56509399414062),(35.122215270996094,18.716358184814453,146.70216369628906),(36.125705718994141,18.716358184814453,146.74609375),(37.129196166992188,18.716358184814453,146.68122863769531),(38.1326904296875,18.716358184814453,146.61978149414062),(39.136180877685547,18.716358184814453,146.50688171386719),(40.139675140380859,18.716358184814453,146.3817138671875),(41.143165588378906,18.716358184814453,146.37921142578125),(42.146656036376953,18.716358184814453,146.6092529296875),(43.150150299072266,18.716358184814453,147.14909362792969),(44.153640747070312,18.716358184814453,147.80844116210938),(45.157131195068359,18.716358184814453,148.42691040039062),(0.,17.67656135559082,146.69975280761719),(1.0034918785095215,17.67656135559082,146.61381530761719),(2.006983757019043,17.67656135559082,146.48338317871094),(3.0104753971099854,17.67656135559082,146.32255554199219),(4.0139675140380859,17.67656135559082,146.15538024902344),(5.0174593925476074,17.67656135559082,146.02145385742188),(6.0209507942199707,17.67656135559082,145.90769958496094),(7.0244426727294922,17.67656135559082,145.79502868652344),(8.0279350280761719,17.67656135559082,145.69898986816406),(9.0314264297485352,17.67656135559082,145.703369140625),(10.034918785095215,17.67656135559082,145.72203063964844),(11.038410186767578,17.67656135559082,145.78121948242188),(12.041901588439941,17.67656135559082,145.99284362792969),(13.045393943786621,17.67656135559082,146.32839965820312),(14.048885345458984,17.67656135559082,146.7083740234375),(15.052377700805664,17.67656135559082,147.0072021484375),(16.055870056152344,17.67656135559082,147.33714294433594),(17.059360504150391,17.67656135559082,147.55882263183594),(18.06285285949707,17.67656135559082,147.62535095214844),(19.06634521484375,17.67656135559082,147.70660400390625),(20.06983757019043,17.67656135559082,147.82211303710938),(21.073328018188477,17.67656135559082,147.84814453125),(22.076820373535156,17.67656135559082,147.70242309570312),(23.080312728881836,17.67656135559082,147.54824829101562),(24.083803176879883,17.67656135559082,147.28395080566406),(25.087295532226562,17.67656135559082,146.96194458007812),(26.090787887573242,17.67656135559082,146.59843444824219),(27.094280242919922,17.67656135559082,146.23991394042969),(28.097770690917969,17.67656135559082,145.90731811523438),(29.101263046264648,17.67656135559082,145.75282287597656),(30.104755401611328,17.67656135559082,145.6895751953125),(31.108245849609375,17.67656135559082,145.95220947265625),(32.111740112304688,17.67656135559082,146.29908752441406),(33.115230560302734,17.67656135559082,146.62969970703125),(34.118721008300781,17.67656135559082,146.93168640136719),(35.122215270996094,17.67656135559082,147.13467407226562),(36.125705718994141,17.67656135559082,147.29600524902344),(37.129196166992188,17.67656135559082,147.21844482421875),(38.1326904296875,17.67656135559082,147.01664733886719),(39.136180877685547,17.67656135559082,146.70004272460938),(40.139675140380859,17.67656135559082,146.43539428710938),(41.143165588378906,17.67656135559082,146.43498229980469),(42.146656036376953,17.67656135559082,146.63417053222656),(43.150150299072266,17.67656135559082,147.04031372070312),(44.153640747070312,17.67656135559082,147.53561401367188),(45.157131195068359,17.67656135559082,148.09651184082031),(0.,16.636762619018555,146.96832275390625),(1.0034918785095215,16.636762619018555,146.89723205566406),(2.006983757019043,16.636762619018555,146.7852783203125),(3.0104753971099854,16.636762619018555,146.60557556152344),(4.0139675140380859,16.636762619018555,146.40457153320312),(5.0174593925476074,16.636762619018555,146.25086975097656),(6.0209507942199707,16.636762619018555,146.1046142578125),(7.0244426727294922,16.636762619018555,145.99375915527344),(8.0279350280761719,16.636762619018555,145.86036682128906),(9.0314264297485352,16.636762619018555,145.80020141601562),(10.034918785095215,16.636762619018555,145.92306518554688),(11.038410186767578,16.636762619018555,146.18360900878906),(12.041901588439941,16.636762619018555,146.50497436523438),(13.045393943786621,16.636762619018555,146.94122314453125),(14.048885345458984,16.636762619018555,147.24037170410156),(15.052377700805664,16.636762619018555,147.5791015625),(16.055870056152344,16.636762619018555,147.88340759277344),(17.059360504150391,16.636762619018555,148.135986328125),(18.06285285949707,16.636762619018555,148.20068359375),(19.06634521484375,16.636762619018555,148.24845886230469),(20.06983757019043,16.636762619018555,148.40492248535156),(21.073328018188477,16.636762619018555,148.45729064941406),(22.076820373535156,16.636762619018555,148.32110595703125),(23.080312728881836,16.636762619018555,148.06500244140625),(24.083803176879883,16.636762619018555,147.66105651855469),(25.087295532226562,16.636762619018555,147.28834533691406),(26.090787887573242,16.636762619018555,146.86531066894531),(27.094280242919922,16.636762619018555,146.40010070800781),(28.097770690917969,16.636762619018555,146.00407409667969),(29.101263046264648,16.636762619018555,145.71360778808594),(30.104755401611328,16.636762619018555,145.68013000488281),(31.108245849609375,16.636762619018555,146.05897521972656),(32.111740112304688,16.636762619018555,146.47828674316406),(33.115230560302734,16.636762619018555,146.87515258789062),(34.118721008300781,16.636762619018555,147.25041198730469),(35.122215270996094,16.636762619018555,147.6182861328125),(36.125705718994141,16.636762619018555,147.82026672363281),(37.129196166992188,16.636762619018555,147.671142578125),(38.1326904296875,16.636762619018555,147.33122253417969),(39.136180877685547,16.636762619018555,146.87643432617188),(40.139675140380859,16.636762619018555,146.4769287109375),(41.143165588378906,16.636762619018555,146.48356628417969),(42.146656036376953,16.636762619018555,146.64625549316406),(43.150150299072266,16.636762619018555,146.97987365722656),(44.153640747070312,16.636762619018555,147.42355346679688),(45.157131195068359,16.636762619018555,147.9248046875),(0.,15.596965789794922,147.25639343261719),(1.0034918785095215,15.596965789794922,147.16204833984375),(2.006983757019043,15.596965789794922,147.01815795898438),(3.0104753971099854,15.596965789794922,146.87443542480469),(4.0139675140380859,15.596965789794922,146.72384643554688),(5.0174593925476074,15.596965789794922,146.59844970703125),(6.0209507942199707,15.596965789794922,146.50711059570312),(7.0244426727294922,15.596965789794922,146.3487548828125),(8.0279350280761719,15.596965789794922,146.16146850585938),(9.0314264297485352,15.596965789794922,146.28230285644531),(10.034918785095215,15.596965789794922,146.56781005859375),(11.038410186767578,15.596965789794922,146.88368225097656),(12.041901588439941,15.596965789794922,147.21717834472656),(13.045393943786621,15.596965789794922,147.57008361816406),(14.048885345458984,15.596965789794922,147.85226440429688),(15.052377700805664,15.596965789794922,148.1695556640625),(16.055870056152344,15.596965789794922,148.42338562011719),(17.059360504150391,15.596965789794922,148.6175537109375),(18.06285285949707,15.596965789794922,148.69792175292969),(19.06634521484375,15.596965789794922,148.81529235839844),(20.06983757019043,15.596965789794922,148.97747802734375),(21.073328018188477,15.596965789794922,149.06495666503906),(22.076820373535156,15.596965789794922,148.93330383300781),(23.080312728881836,15.596965789794922,148.51168823242188),(24.083803176879883,15.596965789794922,148.05825805664062),(25.087295532226562,15.596965789794922,147.67340087890625),(26.090787887573242,15.596965789794922,147.08650207519531),(27.094280242919922,15.596965789794922,146.58073425292969),(28.097770690917969,15.596965789794922,146.05772399902344),(29.101263046264648,15.596965789794922,145.82525634765625),(30.104755401611328,15.596965789794922,145.83058166503906),(31.108245849609375,15.596965789794922,146.23545837402344),(32.111740112304688,15.596965789794922,146.63388061523438),(33.115230560302734,15.596965789794922,147.04330444335938),(34.118721008300781,15.596965789794922,147.49510192871094),(35.122215270996094,15.596965789794922,147.96409606933594),(36.125705718994141,15.596965789794922,148.20556640625),(37.129196166992188,15.596965789794922,148.06184387207031),(38.1326904296875,15.596965789794922,147.60139465332031),(39.136180877685547,15.596965789794922,147.05166625976562),(40.139675140380859,15.596965789794922,146.52107238769531),(41.143165588378906,15.596965789794922,146.48611450195312),(42.146656036376953,15.596965789794922,146.71026611328125),(43.150150299072266,15.596965789794922,147.02459716796875),(44.153640747070312,15.596965789794922,147.46304321289062),(45.157131195068359,15.596965789794922,147.91786193847656),(0.,14.557168006896973,147.72148132324219),(1.0034918785095215,14.557168006896973,147.717529296875),(2.006983757019043,14.557168006896973,147.59742736816406),(3.0104753971099854,14.557168006896973,147.46429443359375),(4.0139675140380859,14.557168006896973,147.31156921386719),(5.0174593925476074,14.557168006896973,147.26817321777344),(6.0209507942199707,14.557168006896973,147.26272583007812),(7.0244426727294922,14.557168006896973,147.11349487304688),(8.0279350280761719,14.557168006896973,147.09553527832031),(9.0314264297485352,14.557168006896973,147.45893859863281),(10.034918785095215,14.557168006896973,147.71095275878906),(11.038410186767578,14.557168006896973,147.84953308105469),(12.041901588439941,14.557168006896973,148.05557250976562),(13.045393943786621,14.557168006896973,148.35821533203125),(14.048885345458984,14.557168006896973,148.61660766601562),(15.052377700805664,14.557168006896973,148.80943298339844),(16.055870056152344,14.557168006896973,149.0067138671875),(17.059360504150391,14.557168006896973,149.12449645996094),(18.06285285949707,14.557168006896973,149.24601745605469),(19.06634521484375,14.557168006896973,149.38201904296875),(20.06983757019043,14.557168006896973,149.52937316894531),(21.073328018188477,14.557168006896973,149.5595703125),(22.076820373535156,14.557168006896973,149.38606262207031),(23.080312728881836,14.557168006896973,148.89273071289062),(24.083803176879883,14.557168006896973,148.43716430664062),(25.087295532226562,14.557168006896973,147.90602111816406),(26.090787887573242,14.557168006896973,147.31622314453125),(27.094280242919922,14.557168006896973,146.61244201660156),(28.097770690917969,14.557168006896973,146.09844970703125),(29.101263046264648,14.557168006896973,145.89881896972656),(30.104755401611328,14.557168006896973,146.15843200683594),(31.108245849609375,14.557168006896973,146.49057006835938),(32.111740112304688,14.557168006896973,146.87652587890625),(33.115230560302734,14.557168006896973,147.24871826171875),(34.118721008300781,14.557168006896973,147.65657043457031),(35.122215270996094,14.557168006896973,148.081298828125),(36.125705718994141,14.557168006896973,148.40470886230469),(37.129196166992188,14.557168006896973,148.23583984375),(38.1326904296875,14.557168006896973,147.80908203125),(39.136180877685547,14.557168006896973,147.29966735839844),(40.139675140380859,14.557168006896973,146.75251770019531),(41.143165588378906,14.557168006896973,146.59666442871094),(42.146656036376953,14.557168006896973,146.85005187988281),(43.150150299072266,14.557168006896973,147.11981201171875),(44.153640747070312,14.557168006896973,147.42337036132812),(45.157131195068359,14.557168006896973,147.87989807128906),(0.,13.517370223999023,148.35954284667969),(1.0034918785095215,13.517370223999023,148.3204345703125),(2.006983757019043,13.517370223999023,148.24375915527344),(3.0104753971099854,13.517370223999023,148.17033386230469),(4.0139675140380859,13.517370223999023,148.10452270507812),(5.0174593925476074,13.517370223999023,148.164794921875),(6.0209507942199707,13.517370223999023,148.26846313476562),(7.0244426727294922,13.517370223999023,148.26087951660156),(8.0279350280761719,13.517370223999023,148.21005249023438),(9.0314264297485352,13.517370223999023,148.33877563476562),(10.034918785095215,13.517370223999023,148.55694580078125),(11.038410186767578,13.517370223999023,148.65475463867188),(12.041901588439941,13.517370223999023,148.80865478515625),(13.045393943786621,13.517370223999023,149.12869262695312),(14.048885345458984,13.517370223999023,149.30450439453125),(15.052377700805664,13.517370223999023,149.37290954589844),(16.055870056152344,13.517370223999023,149.52310180664062),(17.059360504150391,13.517370223999023,149.61746215820312),(18.06285285949707,13.517370223999023,149.74313354492188),(19.06634521484375,13.517370223999023,149.86976623535156),(20.06983757019043,13.517370223999023,149.95863342285156),(21.073328018188477,13.517370223999023,149.89842224121094),(22.076820373535156,13.517370223999023,149.59550476074219),(23.080312728881836,13.517370223999023,149.11930847167969),(24.083803176879883,13.517370223999023,148.67916870117188),(25.087295532226562,13.517370223999023,148.16178894042969),(26.090787887573242,13.517370223999023,147.45527648925781),(27.094280242919922,13.517370223999023,146.74893188476562),(28.097770690917969,13.517370223999023,146.21385192871094),(29.101263046264648,13.517370223999023,146.05331420898438),(30.104755401611328,13.517370223999023,146.25830078125),(31.108245849609375,13.517370223999023,146.72982788085938),(32.111740112304688,13.517370223999023,147.11949157714844),(33.115230560302734,13.517370223999023,147.50428771972656),(34.118721008300781,13.517370223999023,147.94386291503906),(35.122215270996094,13.517370223999023,148.35223388671875),(36.125705718994141,13.517370223999023,148.58843994140625),(37.129196166992188,13.517370223999023,148.45805358886719),(38.1326904296875,13.517370223999023,148.01211547851562),(39.136180877685547,13.517370223999023,147.58378601074219),(40.139675140380859,13.517370223999023,146.96092224121094),(41.143165588378906,13.517370223999023,146.72682189941406),(42.146656036376953,13.517370223999023,146.85392761230469),(43.150150299072266,13.517370223999023,147.10316467285156),(44.153640747070312,13.517370223999023,147.40399169921875),(45.157131195068359,13.517370223999023,147.87417602539062),(0.,12.477572441101074,149.09536743164062),(1.0034918785095215,12.477572441101074,149.01229858398438),(2.006983757019043,12.477572441101074,148.8973388671875),(3.0104753971099854,12.477572441101074,148.84370422363281),(4.0139675140380859,12.477572441101074,148.85639953613281),(5.0174593925476074,12.477572441101074,148.97532653808594),(6.0209507942199707,12.477572441101074,149.07179260253906),(7.0244426727294922,12.477572441101074,149.04048156738281),(8.0279350280761719,12.477572441101074,149.00035095214844),(9.0314264297485352,12.477572441101074,149.07260131835938),(10.034918785095215,12.477572441101074,149.26838684082031),(11.038410186767578,12.477572441101074,149.42031860351562),(12.041901588439941,12.477572441101074,149.53872680664062),(13.045393943786621,12.477572441101074,149.69172668457031),(14.048885345458984,12.477572441101074,149.77301025390625),(15.052377700805664,12.477572441101074,149.84280395507812),(16.055870056152344,12.477572441101074,149.94033813476562),(17.059360504150391,12.477572441101074,150.04647827148438),(18.06285285949707,12.477572441101074,150.12312316894531),(19.06634521484375,12.477572441101074,150.17120361328125),(20.06983757019043,12.477572441101074,150.17807006835938),(21.073328018188477,12.477572441101074,150.06059265136719),(22.076820373535156,12.477572441101074,149.61651611328125),(23.080312728881836,12.477572441101074,149.18856811523438),(24.083803176879883,12.477572441101074,148.65824890136719),(25.087295532226562,12.477572441101074,148.02816772460938),(26.090787887573242,12.477572441101074,147.3773193359375),(27.094280242919922,12.477572441101074,146.81138610839844),(28.097770690917969,12.477572441101074,146.30877685546875),(29.101263046264648,12.477572441101074,146.21786499023438),(30.104755401611328,12.477572441101074,146.38668823242188),(31.108245849609375,12.477572441101074,146.82695007324219),(32.111740112304688,12.477572441101074,147.27915954589844),(33.115230560302734,12.477572441101074,147.77494812011719),(34.118721008300781,12.477572441101074,148.18110656738281),(35.122215270996094,12.477572441101074,148.61715698242188),(36.125705718994141,12.477572441101074,148.85153198242188),(37.129196166992188,12.477572441101074,148.66899108886719),(38.1326904296875,12.477572441101074,148.23533630371094),(39.136180877685547,12.477572441101074,147.82040405273438),(40.139675140380859,12.477572441101074,147.24334716796875),(41.143165588378906,12.477572441101074,146.74482727050781),(42.146656036376953,12.477572441101074,146.82438659667969),(43.150150299072266,12.477572441101074,147.09912109375),(44.153640747070312,12.477572441101074,147.44256591796875),(45.157131195068359,12.477572441101074,147.73966979980469),(0.,11.437774658203125,149.63026428222656),(1.0034918785095215,11.437774658203125,149.60823059082031),(2.006983757019043,11.437774658203125,149.52392578125),(3.0104753971099854,11.437774658203125,149.52351379394531),(4.0139675140380859,11.437774658203125,149.570556640625),(5.0174593925476074,11.437774658203125,149.60562133789062),(6.0209507942199707,11.437774658203125,149.66261291503906),(7.0244426727294922,11.437774658203125,149.72584533691406),(8.0279350280761719,11.437774658203125,149.72508239746094),(9.0314264297485352,11.437774658203125,149.71978759765625),(10.034918785095215,11.437774658203125,149.85096740722656),(11.038410186767578,11.437774658203125,149.99433898925781),(12.041901588439941,11.437774658203125,150.10165405273438),(13.045393943786621,11.437774658203125,150.19012451171875),(14.048885345458984,11.437774658203125,150.24456787109375),(15.052377700805664,11.437774658203125,150.27951049804688),(16.055870056152344,11.437774658203125,150.33871459960938),(17.059360504150391,11.437774658203125,150.39909362792969),(18.06285285949707,11.437774658203125,150.40818786621094),(19.06634521484375,11.437774658203125,150.40080261230469),(20.06983757019043,11.437774658203125,150.32948303222656),(21.073328018188477,11.437774658203125,150.05267333984375),(22.076820373535156,11.437774658203125,149.56585693359375),(23.080312728881836,11.437774658203125,149.04446411132812),(24.083803176879883,11.437774658203125,148.46138000488281),(25.087295532226562,11.437774658203125,147.84494018554688),(26.090787887573242,11.437774658203125,147.32672119140625),(27.094280242919922,11.437774658203125,146.85400390625),(28.097770690917969,11.437774658203125,146.4910888671875),(29.101263046264648,11.437774658203125,146.4219970703125),(30.104755401611328,11.437774658203125,146.64375305175781),(31.108245849609375,11.437774658203125,147.11360168457031),(32.111740112304688,11.437774658203125,147.56114196777344),(33.115230560302734,11.437774658203125,148.03482055664062),(34.118721008300781,11.437774658203125,148.41690063476562),(35.122215270996094,11.437774658203125,148.87120056152344),(36.125705718994141,11.437774658203125,149.06356811523438),(37.129196166992188,11.437774658203125,148.89418029785156),(38.1326904296875,11.437774658203125,148.49247741699219),(39.136180877685547,11.437774658203125,148.06095886230469),(40.139675140380859,11.437774658203125,147.57987976074219),(41.143165588378906,11.437774658203125,146.93539428710938),(42.146656036376953,11.437774658203125,146.80586242675781),(43.150150299072266,11.437774658203125,147.01351928710938),(44.153640747070312,11.437774658203125,147.24139404296875),(45.157131195068359,11.437774658203125,147.47651672363281),(0.,10.397976875305176,149.9483642578125),(1.0034918785095215,10.397976875305176,150.02082824707031),(2.006983757019043,10.397976875305176,150.04835510253906),(3.0104753971099854,10.397976875305176,150.06190490722656),(4.0139675140380859,10.397976875305176,150.09600830078125),(5.0174593925476074,10.397976875305176,150.13583374023438),(6.0209507942199707,10.397976875305176,150.19577026367188),(7.0244426727294922,10.397976875305176,150.24674987792969),(8.0279350280761719,10.397976875305176,150.25958251953125),(9.0314264297485352,10.397976875305176,150.26847839355469),(10.034918785095215,10.397976875305176,150.32063293457031),(11.038410186767578,10.397976875305176,150.40782165527344),(12.041901588439941,10.397976875305176,150.48187255859375),(13.045393943786621,10.397976875305176,150.54296875),(14.048885345458984,10.397976875305176,150.58848571777344),(15.052377700805664,10.397976875305176,150.5936279296875),(16.055870056152344,10.397976875305176,150.59169006347656),(17.059360504150391,10.397976875305176,150.60833740234375),(18.06285285949707,10.397976875305176,150.5567626953125),(19.06634521484375,10.397976875305176,150.49916076660156),(20.06983757019043,10.397976875305176,150.33879089355469),(21.073328018188477,10.397976875305176,149.99949645996094),(22.076820373535156,10.397976875305176,149.50886535644531),(23.080312728881836,10.397976875305176,148.95330810546875),(24.083803176879883,10.397976875305176,148.39312744140625),(25.087295532226562,10.397976875305176,147.7939453125),(26.090787887573242,10.397976875305176,147.31268310546875),(27.094280242919922,10.397976875305176,146.86477661132812),(28.097770690917969,10.397976875305176,146.58885192871094),(29.101263046264648,10.397976875305176,146.63703918457031),(30.104755401611328,10.397976875305176,146.98237609863281),(31.108245849609375,10.397976875305176,147.37260437011719),(32.111740112304688,10.397976875305176,147.82940673828125),(33.115230560302734,10.397976875305176,148.22123718261719),(34.118721008300781,10.397976875305176,148.60310363769531),(35.122215270996094,10.397976875305176,148.967041015625),(36.125705718994141,10.397976875305176,149.20173645019531),(37.129196166992188,10.397976875305176,149.03346252441406),(38.1326904296875,10.397976875305176,148.65223693847656),(39.136180877685547,10.397976875305176,148.28132629394531),(40.139675140380859,10.397976875305176,147.82928466796875),(41.143165588378906,10.397976875305176,147.331298828125),(42.146656036376953,10.397976875305176,146.93544006347656),(43.150150299072266,10.397976875305176,146.82383728027344),(44.153640747070312,10.397976875305176,146.92158508300781),(45.157131195068359,10.397976875305176,147.20271301269531),(0.,9.3581790924072266,150.0736083984375),(1.0034918785095215,9.3581790924072266,150.23460388183594),(2.006983757019043,9.3581790924072266,150.36372375488281),(3.0104753971099854,9.3581790924072266,150.43429565429688),(4.0139675140380859,9.3581790924072266,150.48776245117188),(5.0174593925476074,9.3581790924072266,150.56298828125),(6.0209507942199707,9.3581790924072266,150.57498168945312),(7.0244426727294922,9.3581790924072266,150.53897094726562),(8.0279350280761719,9.3581790924072266,150.57292175292969),(9.0314264297485352,9.3581790924072266,150.61117553710938),(10.034918785095215,9.3581790924072266,150.64750671386719),(11.038410186767578,9.3581790924072266,150.69609069824219),(12.041901588439941,9.3581790924072266,150.73565673828125),(13.045393943786621,9.3581790924072266,150.79067993164062),(14.048885345458984,9.3581790924072266,150.77998352050781),(15.052377700805664,9.3581790924072266,150.71296691894531),(16.055870056152344,9.3581790924072266,150.668212890625),(17.059360504150391,9.3581790924072266,150.6427001953125),(18.06285285949707,9.3581790924072266,150.58221435546875),(19.06634521484375,9.3581790924072266,150.48741149902344),(20.06983757019043,9.3581790924072266,150.26325988769531),(21.073328018188477,9.3581790924072266,149.88917541503906),(22.076820373535156,9.3581790924072266,149.40055847167969),(23.080312728881836,9.3581790924072266,148.89613342285156),(24.083803176879883,9.3581790924072266,148.36895751953125),(25.087295532226562,9.3581790924072266,147.78263854980469),(26.090787887573242,9.3581790924072266,147.27957153320312),(27.094280242919922,9.3581790924072266,146.82939147949219),(28.097770690917969,9.3581790924072266,146.70945739746094),(29.101263046264648,9.3581790924072266,146.87728881835938),(30.104755401611328,9.3581790924072266,147.19827270507812),(31.108245849609375,9.3581790924072266,147.61465454101562),(32.111740112304688,9.3581790924072266,148.02395629882812),(33.115230560302734,9.3581790924072266,148.38911437988281),(34.118721008300781,9.3581790924072266,148.72401428222656),(35.122215270996094,9.3581790924072266,149.02018737792969),(36.125705718994141,9.3581790924072266,149.20675659179688),(37.129196166992188,9.3581790924072266,148.99862670898438),(38.1326904296875,9.3581790924072266,148.72364807128906),(39.136180877685547,9.3581790924072266,148.37663269042969),(40.139675140380859,9.3581790924072266,148.04539489746094),(41.143165588378906,9.3581790924072266,147.64830017089844),(42.146656036376953,9.3581790924072266,147.191650390625),(43.150150299072266,9.3581790924072266,146.9141845703125),(44.153640747070312,9.3581790924072266,146.86167907714844),(45.157131195068359,9.3581790924072266,147.08891296386719),(0.,8.3183813095092773,150.41694641113281),(1.0034918785095215,8.3183813095092773,150.54232788085938),(2.006983757019043,8.3183813095092773,150.64027404785156),(3.0104753971099854,8.3183813095092773,150.66070556640625),(4.0139675140380859,8.3183813095092773,150.68080139160156),(5.0174593925476074,8.3183813095092773,150.74278259277344),(6.0209507942199707,8.3183813095092773,150.76341247558594),(7.0244426727294922,8.3183813095092773,150.75523376464844),(8.0279350280761719,8.3183813095092773,150.79498291015625),(9.0314264297485352,8.3183813095092773,150.84452819824219),(10.034918785095215,8.3183813095092773,150.8603515625),(11.038410186767578,8.3183813095092773,150.88198852539062),(12.041901588439941,8.3183813095092773,150.91453552246094),(13.045393943786621,8.3183813095092773,150.91702270507812),(14.048885345458984,8.3183813095092773,150.86811828613281),(15.052377700805664,8.3183813095092773,150.77467346191406),(16.055870056152344,8.3183813095092773,150.69442749023438),(17.059360504150391,8.3183813095092773,150.615966796875),(18.06285285949707,8.3183813095092773,150.53031921386719),(19.06634521484375,8.3183813095092773,150.38218688964844),(20.06983757019043,8.3183813095092773,150.07003784179688),(21.073328018188477,8.3183813095092773,149.629150390625),(22.076820373535156,8.3183813095092773,149.20346069335938),(23.080312728881836,8.3183813095092773,148.783935546875),(24.083803176879883,8.3183813095092773,148.28205871582031),(25.087295532226562,8.3183813095092773,147.8265380859375),(26.090787887573242,8.3183813095092773,147.43209838867188),(27.094280242919922,8.3183813095092773,147.04154968261719),(28.097770690917969,8.3183813095092773,146.84712219238281),(29.101263046264648,8.3183813095092773,147.17094421386719),(30.104755401611328,8.3183813095092773,147.49790954589844),(31.108245849609375,8.3183813095092773,147.89186096191406),(32.111740112304688,8.3183813095092773,148.22410583496094),(33.115230560302734,8.3183813095092773,148.54512023925781),(34.118721008300781,8.3183813095092773,148.81369018554688),(35.122215270996094,8.3183813095092773,149.09231567382812),(36.125705718994141,8.3183813095092773,149.18354797363281),(37.129196166992188,8.3183813095092773,149.05545043945312),(38.1326904296875,8.3183813095092773,148.87477111816406),(39.136180877685547,8.3183813095092773,148.52043151855469),(40.139675140380859,8.3183813095092773,148.19338989257812),(41.143165588378906,8.3183813095092773,147.84730529785156),(42.146656036376953,8.3183813095092773,147.42523193359375),(43.150150299072266,8.3183813095092773,147.04872131347656),(44.153640747070312,8.3183813095092773,146.89305114746094),(45.157131195068359,8.3183813095092773,146.99728393554688),(0.,7.2785840034484863,150.736572265625),(1.0034918785095215,7.2785840034484863,150.82362365722656),(2.006983757019043,7.2785840034484863,150.84117126464844),(3.0104753971099854,7.2785840034484863,150.80485534667969),(4.0139675140380859,7.2785840034484863,150.82080078125),(5.0174593925476074,7.2785840034484863,150.85990905761719),(6.0209507942199707,7.2785840034484863,150.8817138671875),(7.0244426727294922,7.2785840034484863,150.89445495605469),(8.0279350280761719,7.2785840034484863,150.8974609375),(9.0314264297485352,7.2785840034484863,150.9241943359375),(10.034918785095215,7.2785840034484863,150.947509765625),(11.038410186767578,7.2785840034484863,150.97642517089844),(12.041901588439941,7.2785840034484863,151.02703857421875),(13.045393943786621,7.2785840034484863,151.01138305664062),(14.048885345458984,7.2785840034484863,150.949951171875),(15.052377700805664,7.2785840034484863,150.83641052246094),(16.055870056152344,7.2785840034484863,150.6900634765625),(17.059360504150391,7.2785840034484863,150.55397033691406),(18.06285285949707,7.2785840034484863,150.43585205078125),(19.06634521484375,7.2785840034484863,150.20892333984375),(20.06983757019043,7.2785840034484863,149.86587524414062),(21.073328018188477,7.2785840034484863,149.46540832519531),(22.076820373535156,7.2785840034484863,149.03996276855469),(23.080312728881836,7.2785840034484863,148.57661437988281),(24.083803176879883,7.2785840034484863,148.15228271484375),(25.087295532226562,7.2785840034484863,147.76969909667969),(26.090787887573242,7.2785840034484863,147.41464233398438),(27.094280242919922,7.2785840034484863,147.08914184570312),(28.097770690917969,7.2785840034484863,147.11019897460938),(29.101263046264648,7.2785840034484863,147.50898742675781),(30.104755401611328,7.2785840034484863,147.83885192871094),(31.108245849609375,7.2785840034484863,148.17172241210938),(32.111740112304688,7.2785840034484863,148.4832763671875),(33.115230560302734,7.2785840034484863,148.80851745605469),(34.118721008300781,7.2785840034484863,149.00852966308594),(35.122215270996094,7.2785840034484863,149.22274780273438),(36.125705718994141,7.2785840034484863,149.26544189453125),(37.129196166992188,7.2785840034484863,149.20170593261719),(38.1326904296875,7.2785840034484863,149.09275817871094),(39.136180877685547,7.2785840034484863,148.82241821289062),(40.139675140380859,7.2785840034484863,148.33895874023438),(41.143165588378906,7.2785840034484863,148.00357055664062),(42.146656036376953,7.2785840034484863,147.70057678222656),(43.150150299072266,7.2785840034484863,147.37376403808594),(44.153640747070312,7.2785840034484863,147.11195373535156),(45.157131195068359,7.2785840034484863,146.90347290039062),(0.,6.2387862205505371,150.90866088867188),(1.0034918785095215,6.2387862205505371,151.00456237792969),(2.006983757019043,6.2387862205505371,151.01686096191406),(3.0104753971099854,6.2387862205505371,150.96220397949219),(4.0139675140380859,6.2387862205505371,150.95912170410156),(5.0174593925476074,6.2387862205505371,150.98777770996094),(6.0209507942199707,6.2387862205505371,150.99215698242188),(7.0244426727294922,6.2387862205505371,150.99934387207031),(8.0279350280761719,6.2387862205505371,150.99630737304688),(9.0314264297485352,6.2387862205505371,150.99029541015625),(10.034918785095215,6.2387862205505371,151.01260375976562),(11.038410186767578,6.2387862205505371,151.04405212402344),(12.041901588439941,6.2387862205505371,151.06716918945312),(13.045393943786621,6.2387862205505371,151.05474853515625),(14.048885345458984,6.2387862205505371,150.98368835449219),(15.052377700805664,6.2387862205505371,150.8653564453125),(16.055870056152344,6.2387862205505371,150.70451354980469),(17.059360504150391,6.2387862205505371,150.54403686523438),(18.06285285949707,6.2387862205505371,150.36660766601562),(19.06634521484375,6.2387862205505371,150.14883422851562),(20.06983757019043,6.2387862205505371,149.8450927734375),(21.073328018188477,6.2387862205505371,149.39871215820312),(22.076820373535156,6.2387862205505371,148.93829345703125),(23.080312728881836,6.2387862205505371,148.42919921875),(24.083803176879883,6.2387862205505371,147.93426513671875),(25.087295532226562,6.2387862205505371,147.63575744628906),(26.090787887573242,6.2387862205505371,147.3450927734375),(27.094280242919922,6.2387862205505371,147.20268249511719),(28.097770690917969,6.2387862205505371,147.40562438964844),(29.101263046264648,6.2387862205505371,147.79214477539062),(30.104755401611328,6.2387862205505371,148.17030334472656),(31.108245849609375,6.2387862205505371,148.44911193847656),(32.111740112304688,6.2387862205505371,148.76182556152344),(33.115230560302734,6.2387862205505371,149.12776184082031),(34.118721008300781,6.2387862205505371,149.39463806152344),(35.122215270996094,6.2387862205505371,149.47967529296875),(36.125705718994141,6.2387862205505371,149.41950988769531),(37.129196166992188,6.2387862205505371,149.37718200683594),(38.1326904296875,6.2387862205505371,149.27839660644531),(39.136180877685547,6.2387862205505371,148.94123840332031),(40.139675140380859,6.2387862205505371,148.50630187988281),(41.143165588378906,6.2387862205505371,148.29252624511719),(42.146656036376953,6.2387862205505371,148.03746032714844),(43.150150299072266,6.2387862205505371,147.71061706542969),(44.153640747070312,6.2387862205505371,147.35102844238281),(45.157131195068359,6.2387862205505371,146.97102355957031),(0.,5.1989884376525879,151.0233154296875),(1.0034918785095215,5.1989884376525879,151.10331726074219),(2.006983757019043,5.1989884376525879,151.1065673828125),(3.0104753971099854,5.1989884376525879,151.07431030273438),(4.0139675140380859,5.1989884376525879,151.07122802734375),(5.0174593925476074,5.1989884376525879,151.08332824707031),(6.0209507942199707,5.1989884376525879,151.07014465332031),(7.0244426727294922,5.1989884376525879,151.06869506835938),(8.0279350280761719,5.1989884376525879,151.07261657714844),(9.0314264297485352,5.1989884376525879,151.07691955566406),(10.034918785095215,5.1989884376525879,151.08267211914062),(11.038410186767578,5.1989884376525879,151.0780029296875),(12.041901588439941,5.1989884376525879,151.07948303222656),(13.045393943786621,5.1989884376525879,151.05697631835938),(14.048885345458984,5.1989884376525879,150.98420715332031),(15.052377700805664,5.1989884376525879,150.86628723144531),(16.055870056152344,5.1989884376525879,150.70181274414062),(17.059360504150391,5.1989884376525879,150.53892517089844),(18.06285285949707,5.1989884376525879,150.38470458984375),(19.06634521484375,5.1989884376525879,150.22808837890625),(20.06983757019043,5.1989884376525879,149.92515563964844),(21.073328018188477,5.1989884376525879,149.48260498046875),(22.076820373535156,5.1989884376525879,148.9384765625),(23.080312728881836,5.1989884376525879,148.36837768554688),(24.083803176879883,5.1989884376525879,147.83714294433594),(25.087295532226562,5.1989884376525879,147.51860046386719),(26.090787887573242,5.1989884376525879,147.31631469726562),(27.094280242919922,5.1989884376525879,147.44520568847656),(28.097770690917969,5.1989884376525879,147.67436218261719),(29.101263046264648,5.1989884376525879,148.02978515625),(30.104755401611328,5.1989884376525879,148.39146423339844),(31.108245849609375,5.1989884376525879,148.74143981933594),(32.111740112304688,5.1989884376525879,149.02093505859375),(33.115230560302734,5.1989884376525879,149.35018920898438),(34.118721008300781,5.1989884376525879,149.50146484375),(35.122215270996094,5.1989884376525879,149.53213500976562),(36.125705718994141,5.1989884376525879,149.55029296875),(37.129196166992188,5.1989884376525879,149.49197387695312),(38.1326904296875,5.1989884376525879,149.3212890625),(39.136180877685547,5.1989884376525879,149.01242065429688),(40.139675140380859,5.1989884376525879,148.72312927246094),(41.143165588378906,5.1989884376525879,148.56527709960938),(42.146656036376953,5.1989884376525879,148.38650512695312),(43.150150299072266,5.1989884376525879,148.16767883300781),(44.153640747070312,5.1989884376525879,147.687744140625),(45.157131195068359,5.1989884376525879,147.22476196289062),(0.,4.1591906547546387,151.11302185058594),(1.0034918785095215,4.1591906547546387,151.16004943847656),(2.006983757019043,4.1591906547546387,151.16763305664062),(3.0104753971099854,4.1591906547546387,151.14045715332031),(4.0139675140380859,4.1591906547546387,151.14462280273438),(5.0174593925476074,4.1591906547546387,151.16259765625),(6.0209507942199707,4.1591906547546387,151.15312194824219),(7.0244426727294922,4.1591906547546387,151.11177062988281),(8.0279350280761719,4.1591906547546387,151.09371948242188),(9.0314264297485352,4.1591906547546387,151.12594604492188),(10.034918785095215,4.1591906547546387,151.14158630371094),(11.038410186767578,4.1591906547546387,151.12982177734375),(12.041901588439941,4.1591906547546387,151.09712219238281),(13.045393943786621,4.1591906547546387,151.04827880859375),(14.048885345458984,4.1591906547546387,150.99539184570312),(15.052377700805664,4.1591906547546387,150.8731689453125),(16.055870056152344,4.1591906547546387,150.71554565429688),(17.059360504150391,4.1591906547546387,150.56137084960938),(18.06285285949707,4.1591906547546387,150.3985595703125),(19.06634521484375,4.1591906547546387,150.1900634765625),(20.06983757019043,4.1591906547546387,149.89845275878906),(21.073328018188477,4.1591906547546387,149.45655822753906),(22.076820373535156,4.1591906547546387,148.89822387695312),(23.080312728881836,4.1591906547546387,148.32305908203125),(24.083803176879883,4.1591906547546387,147.84617614746094),(25.087295532226562,4.1591906547546387,147.51335144042969),(26.090787887573242,4.1591906547546387,147.40545654296875),(27.094280242919922,4.1591906547546387,147.63206481933594),(28.097770690917969,4.1591906547546387,147.95706176757812),(29.101263046264648,4.1591906547546387,148.31829833984375),(30.104755401611328,4.1591906547546387,148.64376831054688),(31.108245849609375,4.1591906547546387,149.01803588867188),(32.111740112304688,4.1591906547546387,149.30657958984375),(33.115230560302734,4.1591906547546387,149.45683288574219),(34.118721008300781,4.1591906547546387,149.59471130371094),(35.122215270996094,4.1591906547546387,149.63328552246094),(36.125705718994141,4.1591906547546387,149.65885925292969),(37.129196166992188,4.1591906547546387,149.61273193359375),(38.1326904296875,4.1591906547546387,149.52459716796875),(39.136180877685547,4.1591906547546387,149.291015625),(40.139675140380859,4.1591906547546387,149.2060546875),(41.143165588378906,4.1591906547546387,148.97898864746094),(42.146656036376953,4.1591906547546387,148.78306579589844),(43.150150299072266,4.1591906547546387,148.56857299804688),(44.153640747070312,4.1591906547546387,148.12532043457031),(45.157131195068359,4.1591906547546387,147.6475830078125),(0.,3.1193931102752686,151.01443481445312),(1.0034918785095215,3.1193931102752686,151.15451049804688),(2.006983757019043,3.1193931102752686,151.23680114746094),(3.0104753971099854,3.1193931102752686,151.25032043457031),(4.0139675140380859,3.1193931102752686,151.21910095214844),(5.0174593925476074,3.1193931102752686,151.20198059082031),(6.0209507942199707,3.1193931102752686,151.1826171875),(7.0244426727294922,3.1193931102752686,151.14915466308594),(8.0279350280761719,3.1193931102752686,151.14434814453125),(9.0314264297485352,3.1193931102752686,151.17584228515625),(10.034918785095215,3.1193931102752686,151.21827697753906),(11.038410186767578,3.1193931102752686,151.22398376464844),(12.041901588439941,3.1193931102752686,151.15727233886719),(13.045393943786621,3.1193931102752686,151.08302307128906),(14.048885345458984,3.1193931102752686,151.0211181640625),(15.052377700805664,3.1193931102752686,150.89804077148438),(16.055870056152344,3.1193931102752686,150.74057006835938),(17.059360504150391,3.1193931102752686,150.57827758789062),(18.06285285949707,3.1193931102752686,150.38980102539062),(19.06634521484375,3.1193931102752686,150.13967895507812),(20.06983757019043,3.1193931102752686,149.80308532714844),(21.073328018188477,3.1193931102752686,149.38212585449219),(22.076820373535156,3.1193931102752686,148.91221618652344),(23.080312728881836,3.1193931102752686,148.43011474609375),(24.083803176879883,3.1193931102752686,147.95364379882812),(25.087295532226562,3.1193931102752686,147.62251281738281),(26.090787887573242,3.1193931102752686,147.59426879882812),(27.094280242919922,3.1193931102752686,147.82054138183594),(28.097770690917969,3.1193931102752686,148.19705200195312),(29.101263046264648,3.1193931102752686,148.54519653320312),(30.104755401611328,3.1193931102752686,148.87322998046875),(31.108245849609375,3.1193931102752686,149.24302673339844),(32.111740112304688,3.1193931102752686,149.57316589355469),(33.115230560302734,3.1193931102752686,149.68212890625),(34.118721008300781,3.1193931102752686,149.76182556152344),(35.122215270996094,3.1193931102752686,149.79217529296875),(36.125705718994141,3.1193931102752686,149.81716918945312),(37.129196166992188,3.1193931102752686,149.77725219726562),(38.1326904296875,3.1193931102752686,149.72883605957031),(39.136180877685547,3.1193931102752686,149.62083435058594),(40.139675140380859,3.1193931102752686,149.56951904296875),(41.143165588378906,3.1193931102752686,149.47996520996094),(42.146656036376953,3.1193931102752686,149.27816772460938),(43.150150299072266,3.1193931102752686,149.11038208007812),(44.153640747070312,3.1193931102752686,148.76702880859375),(45.157131195068359,3.1193931102752686,148.15841674804688),(0.,2.0795953273773193,151.11053466796875),(1.0034918785095215,2.0795953273773193,151.21588134765625),(2.006983757019043,2.0795953273773193,151.31233215332031),(3.0104753971099854,2.0795953273773193,151.34550476074219),(4.0139675140380859,2.0795953273773193,151.31910705566406),(5.0174593925476074,2.0795953273773193,151.29072570800781),(6.0209507942199707,2.0795953273773193,151.24760437011719),(7.0244426727294922,2.0795953273773193,151.22148132324219),(8.0279350280761719,2.0795953273773193,151.22064208984375),(9.0314264297485352,2.0795953273773193,151.24186706542969),(10.034918785095215,2.0795953273773193,151.29209899902344),(11.038410186767578,2.0795953273773193,151.31910705566406),(12.041901588439941,2.0795953273773193,151.23300170898438),(13.045393943786621,2.0795953273773193,151.11720275878906),(14.048885345458984,2.0795953273773193,151.0274658203125),(15.052377700805664,2.0795953273773193,150.8857421875),(16.055870056152344,2.0795953273773193,150.74176025390625),(17.059360504150391,2.0795953273773193,150.58912658691406),(18.06285285949707,2.0795953273773193,150.39183044433594),(19.06634521484375,2.0795953273773193,150.16203308105469),(20.06983757019043,2.0795953273773193,149.81349182128906),(21.073328018188477,2.0795953273773193,149.3387451171875),(22.076820373535156,2.0795953273773193,148.92416381835938),(23.080312728881836,2.0795953273773193,148.53224182128906),(24.083803176879883,2.0795953273773193,148.07974243164062),(25.087295532226562,2.0795953273773193,147.74905395507812),(26.090787887573242,2.0795953273773193,147.76910400390625),(27.094280242919922,2.0795953273773193,147.97418212890625),(28.097770690917969,2.0795953273773193,148.28996276855469),(29.101263046264648,2.0795953273773193,148.63833618164062),(30.104755401611328,2.0795953273773193,149.00543212890625),(31.108245849609375,2.0795953273773193,149.38961791992188),(32.111740112304688,2.0795953273773193,149.74951171875),(33.115230560302734,2.0795953273773193,149.88504028320312),(34.118721008300781,2.0795953273773193,149.93038940429688),(35.122215270996094,2.0795953273773193,149.95234680175781),(36.125705718994141,2.0795953273773193,149.94258117675781),(37.129196166992188,2.0795953273773193,149.95779418945312),(38.1326904296875,2.0795953273773193,149.9239501953125),(39.136180877685547,2.0795953273773193,149.8902587890625),(40.139675140380859,2.0795953273773193,149.84133911132812),(41.143165588378906,2.0795953273773193,149.82890319824219),(42.146656036376953,2.0795953273773193,149.73347473144531),(43.150150299072266,2.0795953273773193,149.53680419921875),(44.153640747070312,2.0795953273773193,149.29994201660156),(45.157131195068359,2.0795953273773193,148.79954528808594),(0.,1.0397976636886597,151.1485595703125),(1.0034918785095215,1.0397976636886597,151.36836242675781),(2.006983757019043,1.0397976636886597,151.42311096191406),(3.0104753971099854,1.0397976636886597,151.41911315917969),(4.0139675140380859,1.0397976636886597,151.4466552734375),(5.0174593925476074,1.0397976636886597,151.45866394042969),(6.0209507942199707,1.0397976636886597,151.39295959472656),(7.0244426727294922,1.0397976636886597,151.35099792480469),(8.0279350280761719,1.0397976636886597,151.31610107421875),(9.0314264297485352,1.0397976636886597,151.33244323730469),(10.034918785095215,1.0397976636886597,151.40054321289062),(11.038410186767578,1.0397976636886597,151.36810302734375),(12.041901588439941,1.0397976636886597,151.25027465820312),(13.045393943786621,1.0397976636886597,151.14141845703125),(14.048885345458984,1.0397976636886597,151.01676940917969),(15.052377700805664,1.0397976636886597,150.88526916503906),(16.055870056152344,1.0397976636886597,150.76792907714844),(17.059360504150391,1.0397976636886597,150.6065673828125),(18.06285285949707,1.0397976636886597,150.41676330566406),(19.06634521484375,1.0397976636886597,150.21475219726562),(20.06983757019043,1.0397976636886597,149.86405944824219),(21.073328018188477,1.0397976636886597,149.32708740234375),(22.076820373535156,1.0397976636886597,148.86627197265625),(23.080312728881836,1.0397976636886597,148.49580383300781),(24.083803176879883,1.0397976636886597,148.09577941894531),(25.087295532226562,1.0397976636886597,147.83610534667969),(26.090787887573242,1.0397976636886597,147.87506103515625),(27.094280242919922,1.0397976636886597,148.07040405273438),(28.097770690917969,1.0397976636886597,148.37803649902344),(29.101263046264648,1.0397976636886597,148.78598022460938),(30.104755401611328,1.0397976636886597,149.18359375),(31.108245849609375,1.0397976636886597,149.56491088867188),(32.111740112304688,1.0397976636886597,149.87718200683594),(33.115230560302734,1.0397976636886597,150.03181457519531),(34.118721008300781,1.0397976636886597,150.08375549316406),(35.122215270996094,1.0397976636886597,150.09620666503906),(36.125705718994141,1.0397976636886597,150.14065551757812),(37.129196166992188,1.0397976636886597,150.15322875976562),(38.1326904296875,1.0397976636886597,150.17192077636719),(39.136180877685547,1.0397976636886597,150.13694763183594),(40.139675140380859,1.0397976636886597,150.06661987304688),(41.143165588378906,1.0397976636886597,150.06814575195312),(42.146656036376953,1.0397976636886597,150.07070922851562),(43.150150299072266,1.0397976636886597,149.86933898925781),(44.153640747070312,1.0397976636886597,149.64906311035156),(45.157131195068359,1.0397976636886597,149.38079833984375),(0.,0.,151.22758483886719),(1.0034918785095215,0.,151.47148132324219),(2.006983757019043,0.,151.50198364257812),(3.0104753971099854,0.,151.46975708007812),(4.0139675140380859,0.,151.46913146972656),(5.0174593925476074,0.,151.51365661621094),(6.0209507942199707,0.,151.49751281738281),(7.0244426727294922,0.,151.44184875488281),(8.0279350280761719,0.,151.40870666503906),(9.0314264297485352,0.,151.40534973144531),(10.034918785095215,0.,151.40838623046875),(11.038410186767578,0.,151.34909057617188),(12.041901588439941,0.,151.25434875488281),(13.045393943786621,0.,151.16143798828125),(14.048885345458984,0.,151.04306030273438),(15.052377700805664,0.,150.90689086914062),(16.055870056152344,0.,150.743408203125),(17.059360504150391,0.,150.60630798339844),(18.06285285949707,0.,150.49755859375),(19.06634521484375,0.,150.25759887695312),(20.06983757019043,0.,149.85685729980469),(21.073328018188477,0.,149.33152770996094),(22.076820373535156,0.,148.82960510253906),(23.080312728881836,0.,148.4315185546875),(24.083803176879883,0.,148.10832214355469),(25.087295532226562,0.,147.96003723144531),(26.090787887573242,0.,147.98530578613281),(27.094280242919922,0.,148.15089416503906),(28.097770690917969,0.,148.5234375),(29.101263046264648,0.,148.93984985351562),(30.104755401611328,0.,149.35670471191406),(31.108245849609375,0.,149.70249938964844),(32.111740112304688,0.,149.91531372070312),(33.115230560302734,0.,150.09077453613281),(34.118721008300781,0.,150.16151428222656),(35.122215270996094,0.,150.217041015625),(36.125705718994141,0.,150.32905578613281),(37.129196166992188,0.,150.34330749511719),(38.1326904296875,0.,150.37751770019531),(39.136180877685547,0.,150.36203002929688),(40.139675140380859,0.,150.30024719238281),(41.143165588378906,0.,150.24467468261719),(42.146656036376953,0.,150.27476501464844),(43.150150299072266,0.,150.11787414550781),(44.153640747070312,0.,150.01727294921875),(45.157131195068359,0.,149.89117431640625)));
#16=IFCTRIANGULATEDFACESET(#15,$,.F.,((3,4,2),(3,2,1),(4,6,5),(4,5,2),(6,8,7),(6,7,5),(8,10,9),(8,9,7),(10,12,11),(10,11,9),(12,14,13),(12,13,11),(14,16,15),(14,15,13),(16,18,17),(16,17,15),(18,20,19),(18,19,17),(20,22,21),(20,21,19),(22,24,23),(22,23,21),(24,26,25),(24,25,23),(26,28,27),(26,27,25),(28,30,29),(28,29,27),(30,32,31),(30,31,29),(32,34,33),(32,33,31),(34,36,35),(34,35,33),(36,38,37),(36,37,35),(38,40,39),(38,39,37),(40,42,41),(40,41,39),(42,44,43),(42,43,41),(44,46,45),(44,45,43),(46,48,47),(46,47,45),(48,50,49),(48,49,47),(50,52,51),(50,51,49),(52,54,53),(52,53,51),(54,56,55),(54,55,53),(56,58,57),(56,57,55),(58,60,59),(58,59,57),(60,62,61),(60,61,59),(62,64,63),(62,63,61),(64,66,65),(64,65,63),(66,68,67),(66,67,65),(68,70,69),(68,69,67),(70,72,71),(70,71,69),(72,74,73),(72,73,71),(74,76,75),(74,75,73),(76,78,77),(76,77,75),(78,80,79),(78,79,77),(80,82,81),(80,81,79),(82,84,83),(82,83,81),(84,86,85),(84,85,83),(86,88,87),(86,87,85),(88,90,89),(88,89,87),(90,92,91),(90,91,89),(93,94,4),(93,4,3),(94,95,6),(94,6,4),(95,96,8),(95,8,6),(96,97,10),(96,10,8),(97,98,12),(97,12,10),(98,99,14),(98,14,12),(99,100,16),(99,16,14),(100,101,18),(100,18,16),(101,102,20),(101,20,18),(102,103,22),(102,22,20),(103,104,24),(103,24,22),(104,105,26),(104,26,24),(105,106,28),(105,28,26),(106,107,30),(106,30,28),(107,108,32),(107,32,30),(108,109,34),(108,34,32),(109,110,36),(109,36,34),(110,111,38),(110,38,36),(111,112,40),(111,40,38),(112,113,42),(112,42,40),(113,114,44),(113,44,42),(114,115,46),(114,46,44),(115,116,48),(115,48,46),(116,117,50),(116,50,48),(117,118,52),(117,52,50),(118,119,54),(118,54,52),(119,120,56),(119,56,54),(120,121,58),(120,58,56),(121,122,60),(121,60,58),(122,123,62),(122,62,60),(123,124,64),(123,64,62),(124,125,66),(124,66,64),(125,126,68),(125,68,66),(126,127,70),(126,70,68),(127,128,72),(127,72,70),(128,129,74),(128,74,72),(129,130,76),(129,76,74),(130,131,78),(130,78,76),(131,132,80),(131,80,78),(132,133,82),(132,82,80),(133,134,84),(133,84,82),(134,135,86),(134,86,84),(135,136,88),(135,88,86),(136,137,90),(136,90,88),(137,138,92),(137,92,90),(139,140,94),(139,94,93),(140,141,95),(140,95,94),(141,142,96),(141,96,95),(142,143,97),(142,97,96),(143,144,98),(143,98,97),(144,145,99),(144,99,98),(145,146,100),(145,100,99),(146,147,101),(146,101,100),(147,148,102),(147,102,101),(148,149,103),(148,103,102),(149,150,104),(149,104,103),(150,151,105),(150,105,104),(151,152,106),(151,106,105),(152,153,107),(152,107,106),(153,154,108),(153,108,107),(154,155,109),(154,109,108),(155,156,110),(155,110,109),(156,157,111),(156,111,110),(157,158,112),(157,112,111),(158,159,113),(158,113,112),(159,160,114),(159,114,113),(160,161,115),(160,115,114),(161,162,116),(161,116,115),(162,163,117),(162,117,116),(163,164,118),(163,118,117),(164,165,119),(164,119,118),(165,166,120),(165,120,119),(166,167,121),(166,121,120),(167,168,122),(167,122,121),(168,169,123),(168,123,122),(169,170,124),(169,124,123),(170,171,125),(170,125,124),(171,172,126),(171,126,125),(172,173,127),(172,127,126),(173,174,128),(173,128,127),(174,175,129),(174,129,128),(175,176,130),(175,130,129),(176,177,131),(176,131,130),(177,178,132),(177,132,131),(178,179,133),(178,133,132),(179,180,134),(179,134,133),(180,181,135),(180,135,134),(181,182,136),(181,136,135),(182,183,137),(182,137,136),(183,184,138),(183,138,137),(185,186,140),(185,140,139),(186,187,141),(186,141,140),(187,188,142),(187,142,141),(188,189,143),(188,143,142),(189,190,144),(189,144,143),(190,191,145),(190,145,144),(191,192,146),(191,146,145),(192,193,147),(192,147,146),(193,194,148),(193,148,147),(194,195,149),(194,149,148),(195,196,150),(195,150,149),(196,197,151),(196,151,150),(197,198,152),(197,152,151),(198,199,153),(198,153,152),(199,200,154),(199,154,153),(200,201,155),(200,155,154),(201,202,156),(201,156,155),(202,203,157),(202,157,156),(203,204,158),(203,158,157),(204,205,159),(204,159,158),(205,206,160),(205,160,159),(206,207,161),(206,161,160),(207,208,162),(207,162,161),(208,209,163),(208,163,162),(209,210,164),(209,164,163),(210,211,165),(210,165,164),(211,212,166),(211,166,165),(212,213,167),(212,167,166),(213,214,168),(213,168,167),(214,215,169),(214,169,168),(215,216,170),(215,170,169),(216,217,171),(216,171,170),(217,218,172),(217,172,171),(218,219,173),(218,173,172),(219,220,174),(219,174,173),(220,221,175),(220,175,174),(221,222,176),(221,176,175),(222,223,177),(222,177,176),(223,224,178),(223,178,177),(224,225,179),(224,179,178),(225,226,180),(225,180,179),(226,227,181),(226,181,180),(227,228,182),(227,182,181),(228,229,183),(228,183,182),(229,230,184),(229,184,183),(231,232,186),(231,186,185),(232,233,187),(232,187,186),(233,234,188),(233,188,187),(234,235,189),(234,189,188),(235,236,190),(235,190,189),(236,237,191),(236,191,190),(237,238,192),(237,192,191),(238,239,193),(238,193,192),(239,240,194),(239,194,193),(240,241,195),(240,195,194),(241,242,196),(241,196,195),(242,243,197),(242,197,196),(243,244,198),(243,198,197),(244,245,199),(244,199,198),(245,246,200),(245,200,199),(246,247,201),(246,201,200),(247,248,202),(247,202,201),(248,249,203),(248,203,202),(249,250,204),(249,204,203),(250,251,205),(250,205,204),(251,252,206),(251,206,205),(252,253,207),(252,207,206),(253,254,208),(253,208,207),(254,255,209),(254,209,208),(255,256,210),(255,210,209),(256,257,211),(256,211,210),(257,258,212),(257,212,211),(258,259,213),(258,213,212),(259,260,214),(259,214,213),(260,261,215),(260,215,214),(261,262,216),(261,216,215),(262,263,217),(262,217,216),(263,264,218),(263,218,217),(264,265,219),(264,219,218),(265,266,220),(265,220,219),(266,267,221),(266,221,220),(267,268,222),(267,222,221),(268,269,223),(268,223,222),(269,270,224),(269,224,223),(270,271,225),(270,225,224),(271,272,226),(271,226,225),(272,273,227),(272,227,226),(273,274,228),(273,228,227),(274,275,229),(274,229,228),(275,276,230),(275,230,229),(277,278,232),(277,232,231),(278,279,233),(278,233,232),(279,280,234),(279,234,233),(280,281,235),(280,235,234),(281,282,236),(281,236,235),(282,283,237),(282,237,236),(283,284,238),(283,238,237),(284,285,239),(284,239,238),(285,286,240),(285,240,239),(286,287,241),(286,241,240),(287,288,242),(287,242,241),(288,289,243),(288,243,242),(289,290,244),(289,244,243),(290,291,245),(290,245,244),(291,292,246),(291,246,245),(292,293,247),(292,247,246),(293,294,248),(293,248,247),(294,295,249),(294,249,248),(295,296,250),(295,250,249),(296,297,251),(296,251,250),(297,298,252),(297,252,251),(298,299,253),(298,253,252),(299,300,254),(299,254,253),(300,301,255),(300,255,254),(301,302,256),(301,256,255),(302,303,257),(302,257,256),(303,304,258),(303,258,257),(304,305,259),(304,259,258),(305,306,260),(305,260,259),(306,307,261),(306,261,260),(307,308,262),(307,262,261),(308,309,263),(308,263,262),(309,310,264),(309,264,263),(310,311,265),(310,265,264),(311,312,266),(311,266,265),(312,313,267),(312,267,266),(313,314,268),(313,268,267),(314,315,269),(314,269,268),(315,316,270),(315,270,269),(316,317,271),(316,271,270),(317,318,272),(317,272,271),(318,319,273),(318,273,272),(319,320,274),(319,274,273),(320,321,275),(320,275,274),(321,322,276),(321,276,275),(323,324,278),(323,278,277),(324,325,279),(324,279,278),(325,326,280),(325,280,279),(326,327,281),(326,281,280),(327,328,282),(327,282,281),(328,329,283),(328,283,282),(329,330,284),(329,284,283),(330,331,285),(330,285,284),(331,332,286),(331,286,285),(332,333,287),(332,287,286),(333,334,288),(333,288,287),(334,335,289),(334,289,288),(335,336,290),(335,290,289),(336,337,291),(336,291,290),(337,338,292),(337,292,291),(338,339,293),(338,293,292),(339,340,294),(339,294,293),(340,341,295),(340,295,294),(341,342,296),(341,296,295),(342,343,297),(342,297,296),(343,344,298),(343,298,297),(344,345,299),(344,299,298),(345,346,300),(345,300,299),(346,347,301),(346,301,300),(347,348,302),(347,302,301),(348,349,303),(348,303,302),(349,350,304),(349,304,303),(350,351,305),(350,305,304),(351,352,306),(351,306,305),(352,353,307),(352,307,306),(353,354,308),(353,308,307),(354,355,309),(354,309,308),(355,356,310),(355,310,309),(356,357,311),(356,311,310),(357,358,312),(357,312,311),(358,359,313),(358,313,312),(359,360,314),(359,314,313),(360,361,315),(360,315,314),(361,362,316),(361,316,315),(362,363,317),(362,317,316),(363,364,318),(363,318,317),(364,365,319),(364,319,318),(365,366,320),(365,320,319),(366,367,321),(366,321,320),(367,368,322),(367,322,321),(369,370,324),(369,324,323),(370,371,325),(370,325,324),(371,372,326),(371,326,325),(372,373,327),(372,327,326),(373,374,328),(373,328,327),(374,375,329),(374,329,328),(375,376,330),(375,330,329),(376,377,331),(376,331,330),(377,378,332),(377,332,331),(378,379,333),(378,333,332),(379,380,334),(379,334,333),(380,381,335),(380,335,334),(381,382,336),(381,336,335),(382,383,337),(382,337,336),(383,384,338),(383,338,337),(384,385,339),(384,339,338),(385,386,340),(385,340,339),(386,387,341),(386,341,340),(387,388,342),(387,342,341),(388,389,343),(388,343,342),(389,390,344),(389,344,343),(390,391,345),(390,345,344),(391,392,346),(391,346,345),(392,393,347),(392,347,346),(393,394,348),(393,348,347),(394,395,349),(394,349,348),(395,396,350),(395,350,349),(396,397,351),(396,351,350),(397,398,352),(397,352,351),(398,399,353),(398,353,352),(399,400,354),(399,354,353),(400,401,355),(400,355,354),(401,402,356),(401,356,355),(402,403,357),(402,357,356),(403,404,358),(403,358,357),(404,405,359),(404,359,358),(405,406,360),(405,360,359),(406,407,361),(406,361,360),(407,408,362),(407,362,361),(408,409,363),(408,363,362),(409,410,364),(409,364,363),(410,411,365),(410,365,364),(411,412,366),(411,366,365),(412,413,367),(412,367,366),(413,414,368),(413,368,367),(415,416,370),(415,370,369),(416,417,371),(416,371,370),(417,418,372),(417,372,371),(418,419,373),(418,373,372),(419,420,374),(419,374,373),(420,421,375),(420,375,374),(421,422,376),(421,376,375),(422,423,377),(422,377,376),(423,424,378),(423,378,377),(424,425,379),(424,379,378),(425,426,380),(425,380,379),(426,427,381),(426,381,380),(427,428,382),(427,382,381),(428,429,383),(428,383,382),(429,430,384),(429,384,383),(430,431,385),(430,385,384),(431,432,386),(431,386,385),(432,433,387),(432,387,386),(433,434,388),(433,388,387),(434,435,389),(434,389,388),(435,436,390),(435,390,389),(436,437,391),(436,391,390),(437,438,392),(437,392,391),(438,439,393),(438,393,392),(439,440,394),(439,394,393),(440,441,395),(440,395,394),(441,442,396),(441,396,395),(442,443,397),(442,397,396),(443,444,398),(443,398,397),(444,445,399),(444,399,398),(445,446,400),(445,400,399),(446,447,401),(446,401,400),(447,448,402),(447,402,401),(448,449,403),(448,403,402),(449,450,404),(449,404,403),(450,451,405),(450,405,404),(451,452,406),(451,406,405),(452,453,407),(452,407,406),(453,454,408),(453,408,407),(454,455,409),(454,409,408),(455,456,410),(455,410,409),(456,457,411),(456,411,410),(457,458,412),(457,412,411),(458,459,413),(458,413,412),(459,460,414),(459,414,413),(461,462,416),(461,416,415),(462,463,417),(462,417,416),(463,464,418),(463,418,417),(464,465,419),(464,419,418),(465,466,420),(465,420,419),(466,467,421),(466,421,420),(467,468,422),(467,422,421),(468,469,423),(468,423,422),(469,470,424),(469,424,423),(470,471,425),(470,425,424),(471,472,426),(471,426,425),(472,473,427),(472,427,426),(473,474,428),(473,428,427),(474,475,429),(474,429,428),(475,476,430),(475,430,429),(476,477,431),(476,431,430),(477,478,432),(477,432,431),(478,479,433),(478,433,432),(479,480,434),(479,434,433),(480,481,435),(480,435,434),(481,482,436),(481,436,435),(482,483,437),(482,437,436),(483,484,438),(483,438,437),(484,485,439),(484,439,438),(485,486,440),(485,440,439),(486,487,441),(486,441,440),(487,488,442),(487,442,441),(488,489,443),(488,443,442),(489,490,444),(489,444,443),(490,491,445),(490,445,444),(491,492,446),(491,446,445),(492,493,447),(492,447,446),(493,494,448),(493,448,447),(494,495,449),(494,449,448),(495,496,450),(495,450,449),(496,497,451),(496,451,450),(497,498,452),(497,452,451),(498,499,453),(498,453,452),(499,500,454),(499,454,453),(500,501,455),(500,455,454),(501,502,456),(501,456,455),(502,503,457),(502,457,456),(503,504,458),(503,458,457),(504,505,459),(504,459,458),(505,506,460),(505,460,459),(507,508,462),(507,462,461),(508,509,463),(508,463,462),(509,510,464),(509,464,463),(510,511,465),(510,465,464),(511,512,466),(511,466,465),(512,513,467),(512,467,466),(513,514,468),(513,468,467),(514,515,469),(514,469,468),(515,516,470),(515,470,469),(516,517,471),(516,471,470),(517,518,472),(517,472,471),(518,519,473),(518,473,472),(519,520,474),(519,474,473),(520,521,475),(520,475,474),(521,522,476),(521,476,475),(522,523,477),(522,477,476),(523,524,478),(523,478,477),(524,525,479),(524,479,478),(525,526,480),(525,480,479),(526,527,481),(526,481,480),(527,528,482),(527,482,481),(528,529,483),(528,483,482),(529,530,484),(529,484,483),(530,531,485),(530,485,484),(531,532,486),(531,486,485),(532,533,487),(532,487,486),(533,534,488),(533,488,487),(534,535,489),(534,489,488),(535,536,490),(535,490,489),(536,537,491),(536,491,490),(537,538,492),(537,492,491),(538,539,493),(538,493,492),(539,540,494),(539,494,493),(540,541,495),(540,495,494),(541,542,496),(541,496,495),(542,543,497),(542,497,496),(543,544,498),(543,498,497),(544,545,499),(544,499,498),(545,546,500),(545,500,499),(546,547,501),(546,501,500),(547,548,502),(547,502,501),(548,549,503),(548,503,502),(549,550,504),(549,504,503),(550,551,505),(550,505,504),(551,552,506),(551,506,505),(553,554,508),(553,508,507),(554,555,509),(554,509,508),(555,556,510),(555,510,509),(556,557,511),(556,511,510),(557,558,512),(557,512,511),(558,559,513),(558,513,512),(559,560,514),(559,514,513),(560,561,515),(560,515,514),(561,562,516),(561,516,515),(562,563,517),(562,517,516),(563,564,518),(563,518,517),(564,565,519),(564,519,518),(565,566,520),(565,520,519),(566,567,521),(566,521,520),(567,568,522),(567,522,521),(568,569,523),(568,523,522),(569,570,524),(569,524,523),(570,571,525),(570,525,524),(571,572,526),(571,526,525),(572,573,527),(572,527,526),(573,574,528),(573,528,527),(574,575,529),(574,529,528),(575,576,530),(575,530,529),(576,577,531),(576,531,530),(577,578,532),(577,532,531),(578,579,533),(578,533,532),(579,580,534),(579,534,533),(580,581,535),(580,535,534),(581,582,536),(581,536,535),(582,583,537),(582,537,536),(583,584,538),(583,538,537),(584,585,539),(584,539,538),(585,586,540),(585,540,539),(586,587,541),(586,541,540),(587,588,542),(587,542,541),(588,589,543),(588,543,542),(589,590,544),(589,544,543),(590,591,545),(590,545,544),(591,592,546),(591,546,545),(592,593,547),(592,547,546),(593,594,548),(593,548,547),(594,595,549),(594,549,548),(595,596,550),(595,550,549),(596,597,551),(596,551,550),(597,598,552),(597,552,551),(599,600,554),(599,554,553),(600,601,555),(600,555,554),(601,602,556),(601,556,555),(602,603,557),(602,557,556),(603,604,558),(603,558,557),(604,605,559),(604,559,558),(605,606,560),(605,560,559),(606,607,561),(606,561,560),(607,608,562),(607,562,561),(608,609,563),(608,563,562),(609,610,564),(609,564,563),(610,611,565),(610,565,564),(611,612,566),(611,566,565),(612,613,567),(612,567,566),(613,614,568),(613,568,567),(614,615,569),(614,569,568),(615,616,570),(615,570,569),(616,617,571),(616,571,570),(617,618,572),(617,572,571),(618,619,573),(618,573,572),(619,620,574),(619,574,573),(620,621,575),(620,575,574),(621,622,576),(621,576,575),(622,623,577),(622,577,576),(623,624,578),(623,578,577),(624,625,579),(624,579,578),(625,626,580),(625,580,579),(626,627,581),(626,581,580),(627,628,582),(627,582,581),(628,629,583),(628,583,582),(629,630,584),(629,584,583),(630,631,585),(630,585,584),(631,632,586),(631,586,585),(632,633,587),(632,587,586),(633,634,588),(633,588,587),(634,635,589),(634,589,588),(635,636,590),(635,590,589),(636,637,591),(636,591,590),(637,638,592),(637,592,591),(638,639,593),(638,593,592),(639,640,594),(639,594,593),(640,641,595),(640,595,594),(641,642,596),(641,596,595),(642,643,597),(642,597,596),(643,644,598),(643,598,597),(645,646,600),(645,600,599),(646,647,601),(646,601,600),(647,648,602),(647,602,601),(648,649,603),(648,603,602),(649,650,604),(649,604,603),(650,651,605),(650,605,604),(651,652,606),(651,606,605),(652,653,607),(652,607,606),(653,654,608),(653,608,607),(654,655,609),(654,609,608),(655,656,610),(655,610,609),(656,657,611),(656,611,610),(657,658,612),(657,612,611),(658,659,613),(658,613,612),(659,660,614),(659,614,613),(660,661,615),(660,615,614),(661,662,616),(661,616,615),(662,663,617),(662,617,616),(663,664,618),(663,618,617),(664,665,619),(664,619,618),(665,666,620),(665,620,619),(666,667,621),(666,621,620),(667,668,622),(667,622,621),(668,669,623),(668,623,622),(669,670,624),(669,624,623),(670,671,625),(670,625,624),(671,672,626),(671,626,625),(672,673,627),(672,627,626),(673,674,628),(673,628,627),(674,675,629),(674,629,628),(675,676,630),(675,630,629),(676,677,631),(676,631,630),(677,678,632),(677,632,631),(678,679,633),(678,633,632),(679,680,634),(679,634,633),(680,681,635),(680,635,634),(681,682,636),(681,636,635),(682,683,637),(682,637,636),(683,684,638),(683,638,637),(684,685,639),(684,639,638),(685,686,640),(685,640,639),(686,687,641),(686,641,640),(687,688,642),(687,642,641),(688,689,643),(688,643,642),(689,690,644),(689,644,643),(691,692,646),(691,646,645),(692,693,647),(692,647,646),(693,694,648),(693,648,647),(694,695,649),(694,649,648),(695,696,650),(695,650,649),(696,697,651),(696,651,650),(697,698,652),(697,652,651),(698,699,653),(698,653,652),(699,700,654),(699,654,653),(700,701,655),(700,655,654),(701,702,656),(701,656,655),(702,703,657),(702,657,656),(703,704,658),(703,658,657),(704,705,659),(704,659,658),(705,706,660),(705,660,659),(706,707,661),(706,661,660),(707,708,662),(707,662,661),(708,709,663),(708,663,662),(709,710,664),(709,664,663),(710,711,665),(710,665,664),(711,712,666),(711,666,665),(712,713,667),(712,667,666),(713,714,668),(713,668,667),(714,715,669),(714,669,668),(715,716,670),(715,670,669),(716,717,671),(716,671,670),(717,718,672),(717,672,671),(718,719,673),(718,673,672),(719,720,674),(719,674,673),(720,721,675),(720,675,674),(721,722,676),(721,676,675),(722,723,677),(722,677,676),(723,724,678),(723,678,677),(724,725,679),(724,679,678),(725,726,680),(725,680,679),(726,727,681),(726,681,680),(727,728,682),(727,682,681),(728,729,683),(728,683,682),(729,730,684),(729,684,683),(730,731,685),(730,685,684),(731,732,686),(731,686,685),(732,733,687),(732,687,686),(733,734,688),(733,688,687),(734,735,689),(734,689,688),(735,736,690),(735,690,689),(737,738,692),(737,692,691),(738,739,693),(738,693,692),(739,740,694),(739,694,693),(740,741,695),(740,695,694),(741,742,696),(741,696,695),(742,743,697),(742,697,696),(743,744,698),(743,698,697),(744,745,699),(744,699,698),(745,746,700),(745,700,699),(746,747,701),(746,701,700),(747,748,702),(747,702,701),(748,749,703),(748,703,702),(749,750,704),(749,704,703),(750,751,705),(750,705,704),(751,752,706),(751,706,705),(752,753,707),(752,707,706),(753,754,708),(753,708,707),(754,755,709),(754,709,708),(755,756,710),(755,710,709),(756,757,711),(756,711,710),(757,758,712),(757,712,711),(758,759,713),(758,713,712),(759,760,714),(759,714,713),(760,761,715),(760,715,714),(761,762,716),(761,716,715),(762,763,717),(762,717,716),(763,764,718),(763,718,717),(764,765,719),(764,719,718),(765,766,720),(765,720,719),(766,767,721),(766,721,720),(767,768,722),(767,722,721),(768,769,723),(768,723,722),(769,770,724),(769,724,723),(770,771,725),(770,725,724),(771,772,726),(771,726,725),(772,773,727),(772,727,726),(773,774,728),(773,728,727),(774,775,729),(774,729,728),(775,776,730),(775,730,729),(776,777,731),(776,731,730),(777,778,732),(777,732,731),(778,779,733),(778,733,732),(779,780,734),(779,734,733),(780,781,735),(780,735,734),(781,782,736),(781,736,735),(783,784,738),(783,738,737),(784,785,739),(784,739,738),(785,786,740),(785,740,739),(786,787,741),(786,741,740),(787,788,742),(787,742,741),(788,789,743),(788,743,742),(789,790,744),(789,744,743),(790,791,745),(790,745,744),(791,792,746),(791,746,745),(792,793,747),(792,747,746),(793,794,748),(793,748,747),(794,795,749),(794,749,748),(795,796,750),(795,750,749),(796,797,751),(796,751,750),(797,798,752),(797,752,751),(798,799,753),(798,753,752),(799,800,754),(799,754,753),(800,801,755),(800,755,754),(801,802,756),(801,756,755),(802,803,757),(802,757,756),(803,804,758),(803,758,757),(804,805,759),(804,759,758),(805,806,760),(805,760,759),(806,807,761),(806,761,760),(807,808,762),(807,762,761),(808,809,763),(808,763,762),(809,810,764),(809,764,763),(810,811,765),(810,765,764),(811,812,766),(811,766,765),(812,813,767),(812,767,766),(813,814,768),(813,768,767),(814,815,769),(814,769,768),(815,816,770),(815,770,769),(816,817,771),(816,771,770),(817,818,772),(817,772,771),(818,819,773),(818,773,772),(819,820,774),(819,774,773),(820,821,775),(820,775,774),(821,822,776),(821,776,775),(822,823,777),(822,777,776),(823,824,778),(823,778,777),(824,825,779),(824,779,778),(825,826,780),(825,780,779),(826,827,781),(826,781,780),(827,828,782),(827,782,781),(829,830,784),(829,784,783),(830,831,785),(830,785,784),(831,832,786),(831,786,785),(832,833,787),(832,787,786),(833,834,788),(833,788,787),(834,835,789),(834,789,788),(835,836,790),(835,790,789),(836,837,791),(836,791,790),(837,838,792),(837,792,791),(838,839,793),(838,793,792),(839,840,794),(839,794,793),(840,841,795),(840,795,794),(841,842,796),(841,796,795),(842,843,797),(842,797,796),(843,844,798),(843,798,797),(844,845,799),(844,799,798),(845,846,800),(845,800,799),(846,847,801),(846,801,800),(847,848,802),(847,802,801),(848,849,803),(848,803,802),(849,850,804),(849,804,803),(850,851,805),(850,805,804),(851,852,806),(851,806,805),(852,853,807),(852,807,806),(853,854,808),(853,808,807),(854,855,809),(854,809,808),(855,856,810),(855,810,809),(856,857,811),(856,811,810),(857,858,812),(857,812,811),(858,859,813),(858,813,812),(859,860,814),(859,814,813),(860,861,815),(860,815,814),(861,862,816),(861,816,815),(862,863,817),(862,817,816),(863,864,818),(863,818,817),(864,865,819),(864,819,818),(865,866,820),(865,820,819),(866,867,821),(866,821,820),(867,868,822),(867,822,821),(868,869,823),(868,823,822),(869,870,824),(869,824,823),(870,871,825),(870,825,824),(871,872,826),(871,826,825),(872,873,827),(872,827,826),(873,874,828),(873,828,827),(875,876,830),(875,830,829),(876,877,831),(876,831,830),(877,878,832),(877,832,831),(878,879,833),(878,833,832),(879,880,834),(879,834,833),(880,881,835),(880,835,834),(881,882,836),(881,836,835),(882,883,837),(882,837,836),(883,884,838),(883,838,837),(884,885,839),(884,839,838),(885,886,840),(885,840,839),(886,887,841),(886,841,840),(887,888,842),(887,842,841),(888,889,843),(888,843,842),(889,890,844),(889,844,843),(890,891,845),(890,845,844),(891,892,846),(891,846,845),(892,893,847),(892,847,846),(893,894,848),(893,848,847),(894,895,849),(894,849,848),(895,896,850),(895,850,849),(896,897,851),(896,851,850),(897,898,852),(897,852,851),(898,899,853),(898,853,852),(899,900,854),(899,854,853),(900,901,855),(900,855,854),(901,902,856),(901,856,855),(902,903,857),(902,857,856),(903,904,858),(903,858,857),(904,905,859),(904,859,858),(905,906,860),(905,860,859),(906,907,861),(906,861,860),(907,908,862),(907,862,861),(908,909,863),(908,863,862),(909,910,864),(909,864,863),(910,911,865),(910,865,864),(911,912,866),(911,866,865),(912,913,867),(912,867,866),(913,914,868),(913,868,867),(914,915,869),(914,869,868),(915,916,870),(915,870,869),(916,917,871),(916,871,870),(917,918,872),(917,872,871),(918,919,873),(918,873,872),(919,920,874),(919,874,873),(921,922,876),(921,876,875),(922,923,877),(922,877,876),(923,924,878),(923,878,877),(924,925,879),(924,879,878),(925,926,880),(925,880,879),(926,927,881),(926,881,880),(927,928,882),(927,882,881),(928,929,883),(928,883,882),(929,930,884),(929,884,883),(930,931,885),(930,885,884),(931,932,886),(931,886,885),(932,933,887),(932,887,886),(933,934,888),(933,888,887),(934,935,889),(934,889,888),(935,936,890),(935,890,889),(936,937,891),(936,891,890),(937,938,892),(937,892,891),(938,939,893),(938,893,892),(939,940,894),(939,894,893),(940,941,895),(940,895,894),(941,942,896),(941,896,895),(942,943,897),(942,897,896),(943,944,898),(943,898,897),(944,945,899),(944,899,898),(945,946,900),(945,900,899),(946,947,901),(946,901,900),(947,948,902),(947,902,901),(948,949,903),(948,903,902),(949,950,904),(949,904,903),(950,951,905),(950,905,904),(951,952,906),(951,906,905),(952,953,907),(952,907,906),(953,954,908),(953,908,907),(954,955,909),(954,909,908),(955,956,910),(955,910,909),(956,957,911),(956,911,910),(957,958,912),(957,912,911),(958,959,913),(958,913,912),(959,960,914),(959,914,913),(960,961,915),(960,915,914),(961,962,916),(961,916,915),(962,963,917),(962,917,916),(963,964,918),(963,918,917),(964,965,919),(964,919,918),(965,966,920),(965,920,919),(967,968,922),(967,922,921),(968,969,923),(968,923,922),(969,970,924),(969,924,923),(970,971,925),(970,925,924),(971,972,926),(971,926,925),(972,973,927),(972,927,926),(973,974,928),(973,928,927),(974,975,929),(974,929,928),(975,976,930),(975,930,929),(976,977,931),(976,931,930),(977,978,932),(977,932,931),(978,979,933),(978,933,932),(979,980,934),(979,934,933),(980,981,935),(980,935,934),(981,982,936),(981,936,935),(982,983,937),(982,937,936),(983,984,938),(983,938,937),(984,985,939),(984,939,938),(985,986,940),(985,940,939),(986,987,941),(986,941,940),(987,988,942),(987,942,941),(988,989,943),(988,943,942),(989,990,944),(989,944,943),(990,991,945),(990,945,944),(991,992,946),(991,946,945),(992,993,947),(992,947,946),(993,994,948),(993,948,947),(994,995,949),(994,949,948),(995,996,950),(995,950,949),(996,997,951),(996,951,950),(997,998,952),(997,952,951),(998,999,953),(998,953,952),(999,1000,954),(999,954,953),(1000,1001,955),(1000,955,954),(1001,1002,956),(1001,956,955),(1002,1003,957),(1002,957,956),(1003,1004,958),(1003,958,957),(1004,1005,959),(1004,959,958),(1005,1006,960),(1005,960,959),(1006,1007,961),(1006,961,960),(1007,1008,962),(1007,962,961),(1008,1009,963),(1008,963,962),(1009,1010,964),(1009,964,963),(1010,1011,965),(1010,965,964),(1011,1012,966),(1011,966,965)),$);
#17=IFCSHAPEREPRESENTATION(#6,'Body','Tessellation',(#16));
#18=IFCPRODUCTDEFINITIONSHAPE($,$,(#17));
#19=IFCCARTESIANPOINT((0.,0.,0.));
#20=IFCAXIS2PLACEMENT3D(#19,$,$);
#21=IFCLOCALPLACEMENT(#12,#20);
#22=IFCGEOGRAPHICELEMENT('3BWfcmSgX7_g6m0qP7A90j',$,'Terrain surface','USGS 3DEP',$,#21,#18,$,.TERRAIN.);
#23=IFCRELCONTAINEDINSPATIALSTRUCTURE('1G70i4K$D3889GAzyXe9GU',$,$,$,(#22),#13);
ENDSEC;
END-ISO-10303-21;
