  0
SECTION
  2
HEADER
  9
$ACADVER
  1
AC1015
  9
$ACADMAINTVER
 70
6
  9
$DWGCODEPAGE
  3
ANSI_1252
  9
$INSBASE
 10
0.0
 20
0.0
 30
0.0
  9
$EXTMIN
 10
1e+20
 20
1e+20
 30
1e+20
  9
$EXTMAX
 10
-1e+20
 20
-1e+20
 30
-1e+20
  9
$LIMMIN
 10
0.0
 20
0.0
  9
$LIMMAX
 10
420.0
 20
297.0
  9
$ORTHOMODE
 70
0
  9
$REGENMODE
 70
1
  9
$FILLMODE
 70
1
  9
$QTEXTMODE
 70
0
  9
$MIRRTEXT
 70
1
  9
$LTSCALE
 40
1.0
  9
$ATTMODE
 70
1
  9
$TEXTSIZE
 40
2.5
  9
$TRACEWID
 40
1.0
  9
$TEXTSTYLE
  7
Standard
  9
$CLAYER
  8
0
  9
$CELTYPE
  6
ByLayer
  9
$CECOLOR
 62
256
  9
$CELTSCALE
 40
1.0
  9
$DISPSILH
 70
0
  9
$DIMSCALE
 40
1.0
  9
$DIMASZ
 40
2.5
  9
$DIMEXO
 40
0.625
  9
$DIMDLI
 40
3.75
  9
$DIMRND
 40
0.0
  9
$DIMDLE
 40
0.0
  9
$DIMEXE
 40
1.25
  9
$DIMTP
 40
0.0
  9
$DIMTM
 40
0.0
  9
$DIMTXT
 40
2.5
  9
$DIMCEN
 40
2.5
  9
$DIMTSZ
 40
0.0
  9
$DIMTOL
 70
0
  9
$DIMLIM
 70
0
  9
$DIMTIH
 70
0
  9
$DIMTOH
 70
0
  9
$DIMSE1
 70
0
  9
$DIMSE2
 70
0
  9
$DIMTAD
 70
1
  9
$DIMZIN
 70
8
  9
$DIMBLK
  1

  9
$DIMASO
 70
1
  9
$DIMSHO
 70
1
  9
$DIMPOST
  1

  9
$DIMAPOST
  1

  9
$DIMALT
 70
0
  9
$DIMALTD
 70
3
  9
$DIMALTF
 40
0.03937007874
  9
$DIMLFAC
 40
1.0
  9
$DIMTOFL
 70
1
  9
$DIMTVP
 40
0.0
  9
$DIMTIX
 70
0
  9
$DIMSOXD
 70
0
  9
$DIMSAH
 70
0
  9
$DIMBLK1
  1

  9
$DIMBLK2
  1

  9
$DIMSTYLE
  2
ISO-25
  9
$DIMCLRD
 70
0
  9
$DIMCLRE
 70
0
  9
$DIMCLRT
 70
0
  9
$DIMTFAC
 40
1.0
  9
$DIMGAP
 40
0.625
  9
$DIMJUST
 70
0
  9
$DIMSD1
 70
0
  9
$DIMSD2
 70
0
  9
$DIMTOLJ
 70
0
  9
$DIMTZIN
 70
8
  9
$DIMALTZ
 70
0
  9
$DIMALTTZ
 70
0
  9
$DIMUPT
 70
0
  9
$DIMDEC
 70
2
  9
$DIMTDEC
 70
2
  9
$DIMALTU
 70
2
  9
$DIMALTTD
 70
3
  9
$DIMTXSTY
  7
Standard
  9
$DIMAUNIT
 70
0
  9
$DIMADEC
 70
0
  9
$DIMALTRND
 40
0.0
  9
$DIMAZIN
 70
0
  9
$DIMDSEP
 70
44
  9
$DIMATFIT
 70
3
  9
$DIMFRAC
 70
0
  9
$DIMLDRBLK
  1

  9
$DIMLUNIT
 70
2
  9
$DIMLWD
 70
-2
  9
$DIMLWE
 70
-2
  9
$DIMTMOVE
 70
0
  9
$LUNITS
 70
2
  9
$LUPREC
 70
4
  9
$SKETCHINC
 40
1.0
  9
$FILLETRAD
 40
10.0
  9
$AUNITS
 70
0
  9
$AUPREC
 70
2
  9
$MENU
  1
.
  9
$ELEVATION
 40
0.0
  9
$PELEVATION
 40
0.0
  9
$THICKNESS
 40
0.0
  9
$LIMCHECK
 70
0
  9
$CHAMFERA
 40
0.0
  9
$CHAMFERB
 40
0.0
  9
$CHAMFERC
 40
0.0
  9
$CHAMFERD
 40
0.0
  9
$SKPOLY
 70
0
  9
$TDCREATE
 40
2461246.509189815
  9
$TDUCREATE
 40
2458532.153996898
  9
$TDUPDATE
 40
2461246.509189815
  9
$TDUUPDATE
 40
2458532.1544311
  9
$TDINDWG
 40
0.0
  9
$TDUSRTIMER
 40
0.0
  9
$USRTIMER
 70
1
  9
$ANGBASE
 50
0.0
  9
$ANGDIR
 70
0
  9
$PDMODE
 70
0
  9
$PDSIZE
 40
0.0
  9
$PLINEWID
 40
0.0
  9
$SPLFRAME
 70
0
  9
$SPLINETYPE
 70
6
  9
$SPLINESEGS
 70
8
  9
$HANDSEED
  5
387
  9
$SURFTAB1
 70
6
  9
$SURFTAB2
 70
6
  9
$SURFTYPE
 70
6
  9
$SURFU
 70
6
  9
$SURFV
 70
6
  9
$UCSBASE
  2

  9
$UCSNAME
  2

  9
$UCSORG
 10
0.0
 20
0.0
 30
0.0
  9
$UCSXDIR
 10
1.0
 20
0.0
 30
0.0
  9
$UCSYDIR
 10
0.0
 20
1.0
 30
0.0
  9
$UCSORTHOREF
  2

  9
$UCSORTHOVIEW
 70
0
  9
$UCSORGTOP
 10
0.0
 20
0.0
 30
0.0
  9
$UCSORGBOTTOM
 10
0.0
 20
0.0
 30
0.0
  9
$UCSORGLEFT
 10
0.0
 20
0.0
 30
0.0
  9
$UCSORGRIGHT
 10
0.0
 20
0.0
 30
0.0
  9
$UCSORGFRONT
 10
0.0
 20
0.0
 30
0.0
  9
$UCSORGBACK
 10
0.0
 20
0.0
 30
0.0
  9
$PUCSBASE
  2

  9
$PUCSNAME
  2

  9
$PUCSORG
 10
0.0
 20
0.0
 30
0.0
  9
$PUCSXDIR
 10
1.0
 20
0.0
 30
0.0
  9
$PUCSYDIR
 10
0.0
 20
1.0
 30
0.0
  9
$PUCSORTHOREF
  2

  9
$PUCSORTHOVIEW
 70
0
  9
$PUCSORGTOP
 10
0.0
 20
0.0
 30
0.0
  9
$PUCSORGBOTTOM
 10
0.0
 20
0.0
 30
0.0
  9
$PUCSORGLEFT
 10
0.0
 20
0.0
 30
0.0
  9
$PUCSORGRIGHT
 10
0.0
 20
0.0
 30
0.0
  9
$PUCSORGFRONT
 10
0.0
 20
0.0
 30
0.0
  9
$PUCSORGBACK
 10
0.0
 20
0.0
 30
0.0
  9
$USERI1
 70
0
  9
$USERI2
 70
0
  9
$USERI3
 70
0
  9
$USERI4
 70
0
  9
$USERI5
 70
0
  9
$USERR1
 40
0.0
  9
$USERR2
 40
0.0
  9
$USERR3
 40
0.0
  9
$USERR4
 40
0.0
  9
$USERR5
 40
0.0
  9
$WORLDVIEW
 70
1
  9
$SHADEDGE
 70
3
  9
$SHADEDIF
 70
70
  9
$TILEMODE
 70
1
  9
$MAXACTVP
 70
64
  9
$PINSBASE
 10
0.0
 20
0.0
 30
0.0
  9
$PLIMCHECK
 70
0
  9
$PEXTMIN
 10
1e+20
 20
1e+20
 30
1e+20
  9
$PEXTMAX
 10
-1e+20
 20
-1e+20
 30
-1e+20
  9
$PLIMMIN
 10
0.0
 20
0.0
  9
$PLIMMAX
 10
420.0
 20
297.0
  9
$UNITMODE
 70
0
  9
$VISRETAIN
 70
1
  9
$PLINEGEN
 70
0
  9
$PSLTSCALE
 70
1
  9
$TREEDEPTH
 70
3020
  9
$CMLSTYLE
  2
Standard
  9
$CMLJUST
 70
0
  9
$CMLSCALE
 40
20.0
  9
$PROXYGRAPHICS
 70
1
  9
$MEASUREMENT
 70
1
  9
$CELWEIGHT
370
-1
  9
$ENDCAPS
280
0
  9
$JOINSTYLE
280
0
  9
$LWDISPLAY
290
0
  9
$INSUNITS
 70
6
  9
$HYPERLINKBASE
  1

  9
$STYLESHEET
  1

  9
$XEDIT
290
1
  9
$CEPSNTYPE
380
0
  9
$PSTYLEMODE
290
1
  9
$FINGERPRINTGUID
  2
{9734ECB1-BADE-4ABA-BC18-89765A1B156C}
  9
$VERSIONGUID
  2
{6EE14CDB-9D0C-4A92-97C4-837894FB8069}
  9
$EXTNAMES
290
1
  9
$PSVPSCALE
 40
0.0
  9
$OLESTARTUP
290
0
  0
ENDSEC
  0
SECTION
  2
CLASSES
  0
CLASS
  1
ACDBDICTIONARYWDFLT
  2
AcDbDictionaryWithDefault
  3
ObjectDBX Classes
 90
0
280
0
281
0
  0
CLASS
  1
SUN
  2
AcDbSun
  3
SCENEOE
 90
1153
280
0
281
0
  0
CLASS
  1
VISUALSTYLE
  2
AcDbVisualStyle
  3
ObjectDBX Classes
 90
4095
280
0
281
0
  0
CLASS
  1
MATERIAL
  2
AcDbMaterial
  3
ObjectDBX Classes
 90
1153
280
0
281
0
  0
CLASS
  1
SCALE
  2
AcDbScale
  3
ObjectDBX Classes
 90
1153
280
0
281
0
  0
CLASS
  1
TABLESTYLE
  2
AcDbTableStyle
  3
ObjectDBX Classes
 90
4095
280
0
281
0
  0
CLASS
  1
MLEADERSTYLE
  2
AcDbMLeaderStyle
  3
ACDB_MLEADERSTYLE_CLASS
 90
4095
280
0
281
0
  0
CLASS
  1
DICTIONARYVAR
  2
AcDbDictionaryVar
  3
ObjectDBX Classes
 90
0
280
0
281
0
  0
CLASS
  1
CELLSTYLEMAP
  2
AcDbCellStyleMap
  3
ObjectDBX Classes
 90
1152
280
0
281
0
  0
CLASS
  1
MENTALRAYRENDERSETTINGS
  2
AcDbMentalRayRenderSettings
  3
SCENEOE
 90
1024
280
0
281
0
  0
CLASS
  1
ACDBDETAILVIEWSTYLE
  2
AcDbDetailViewStyle
  3
ObjectDBX Classes
 90
1025
280
0
281
0
  0
CLASS
  1
ACDBSECTIONVIEWSTYLE
  2
AcDbSectionViewStyle
  3
ObjectDBX Classes
 90
1025
280
0
281
0
  0
CLASS
  1
RASTERVARIABLES
  2
AcDbRasterVariables
  3
ISM
 90
0
280
0
281
0
  0
CLASS
  1
ACDBPLACEHOLDER
  2
AcDbPlaceHolder
  3
ObjectDBX Classes
 90
0
280
0
281
0
  0
CLASS
  1
LAYOUT
  2
AcDbLayout
  3
ObjectDBX Classes
 90
0
280
0
281
0
  0
ENDSEC
  0
SECTION
  2
TABLES
  0
TABLE
  2
VPORT
  5
8
330
0
100
AcDbSymbolTable
 70
1
  0
VPORT
  5
23
330
8
100
AcDbSymbolTableRecord
100
AcDbViewportTableRecord
  2
*Active
 70
0
 10
0.0
 20
0.0
 11
1.0
 21
1.0
 12
0.0
 22
0.0
 13
0.0
 23
0.0
 14
0.5
 24
0.5
 15
0.5
 25
0.5
 16
0.0
 26
0.0
 36
1.0
 17
0.0
 27
0.0
 37
0.0
 40
1000.0
 41
1.34
 42
50.0
 43
0.0
 44
0.0
 50
0.0
 51
0.0
 71
0
 72
1000
 73
1
 74
3
 75
0
 76
0
 77
0
 78
0
281
0
 65
0
146
0.0
  0
ENDTAB
  0
TABLE
  2
LTYPE
  5
2
330
0
100
AcDbSymbolTable
 70
3
  0
LTYPE
  5
24
330
2
100
AcDbSymbolTableRecord
100
AcDbLinetypeTableRecord
  2
ByBlock
 70
0
  3

 72
65
 73
0
 40
0.0
  0
LTYPE
  5
25
330
2
100
AcDbSymbolTableRecord
100
AcDbLinetypeTableRecord
  2
ByLayer
 70
0
  3

 72
65
 73
0
 40
0.0
  0
LTYPE
  5
26
330
2
100
AcDbSymbolTableRecord
100
AcDbLinetypeTableRecord
  2
Continuous
 70
0
  3

 72
65
 73
0
 40
0.0
  0
ENDTAB
  0
TABLE
  2
LAYER
  5
1
330
0
100
AcDbSymbolTable
 70
3
  0
LAYER
  5
27
330
1
100
AcDbSymbolTableRecord
100
AcDbLayerTableRecord
  2
0
 70
0
 62
7
  6
Continuous
370
-3
390
13
  0
LAYER
  5
28
330
1
100
AcDbSymbolTableRecord
100
AcDbLayerTableRecord
  2
Defpoints
 70
0
 62
7
  6
Continuous
290
0
370
-3
390
13
  0
LAYER
  5
2F
330
1
100
AcDbSymbolTableRecord
100
AcDbLayerTableRecord
  2
TERRAIN_CONTOURS
 70
0
 62
3
  6
Continuous
370
-3
390
13
  0
ENDTAB
  0
TABLE
  2
STYLE
  5
5
330
0
100
AcDbSymbolTable
 70
1
  0
STYLE
  5
29
330
5
100
AcDbSymbolTableRecord
100
AcDbTextStyleTableRecord
  2
Standard
 70
0
 40
0.0
 41
1.0
 50
0.0
 71
0
 42
2.5
  3
txt
  4

  0
ENDTAB
  0
TABLE
  2
VIEW
  5
7
330
0
100
AcDbSymbolTable
 70
0
  0
ENDTAB
  0
TABLE
  2
UCS
  5
6
330
0
100
AcDbSymbolTable
 70
0
  0
ENDTAB
  0
TABLE
  2
APPID
  5
3
330
0
100
AcDbSymbolTable
 70
3
  0
APPID
  5
2A
330
3
100
AcDbSymbolTableRecord
100
AcDbRegAppTableRecord
  2
ACAD
 70
0
  0
APPID
  5
384
330
3
100
AcDbSymbolTableRecord
100
AcDbRegAppTableRecord
  2
HATCHBACKGROUNDCOLOR
 70
0
  0
APPID
  5
385
330
3
100
AcDbSymbolTableRecord
100
AcDbRegAppTableRecord
  2
EZDXF
 70
0
  0
ENDTAB
  0
TABLE
  2
DIMSTYLE
  5
4
330
0
100
AcDbSymbolTable
 70
1
100
AcDbDimStyleTable
  0
DIMSTYLE
105
2B
330
4
100
AcDbSymbolTableRecord
100
AcDbDimStyleTableRecord
  2
Standard
 70
0
  3

  4

 40
1.0
 41
2.5
 42
0.625
 43
3.75
 44
1.25
 45
0.0
 46
0.0
 47
0.0
 48
0.0
140
2.5
141
2.5
142
0.0
143
0.03937007874
144
1.0
145
0.0
146
1.0
147
0.625
148
0.0
 71
0
 72
0
 73
0
 74
0
 75
0
 76
0
 77
1
 78
8
 79
3
170
0
171
3
172
1
173
0
174
0
175
0
176
0
177
0
178
0
179
2
271
2
272
2
273
2
274
3
275
0
276
0
277
2
278
44
279
0
280
0
281
0
282
0
283
0
284
8
285
0
286
0
288
0
289
3
371
-2
372
-2
  0
ENDTAB
  0
TABLE
  2
BLOCK_RECORD
  5
9
330
0
100
AcDbSymbolTable
 70
2
  0
BLOCK_RECORD
  5
17
330
9
100
AcDbSymbolTableRecord
100
AcDbBlockTableRecord
  2
*Model_Space
340
1A
  0
BLOCK_RECORD
  5
1B
330
9
100
AcDbSymbolTableRecord
100
AcDbBlockTableRecord
  2
*Paper_Space
340
1E
  0
ENDTAB
  0
ENDSEC
  0
SECTION
  2
BLOCKS
  0
BLOCK
  5
18
330
17
100
AcDbEntity
  8
0
100
AcDbBlockBegin
  2
*Model_Space
 70
0
 10
0.0
 20
0.0
 30
0.0
  3
*Model_Space
  1

  0
ENDBLK
  5
19
330
17
100
AcDbEntity
  8
0
100
AcDbBlockEnd
  0
BLOCK
  5
1C
330
1B
100
AcDbEntity
  8
0
100
AcDbBlockBegin
  2
*Paper_Space
 70
0
 10
0.0
 20
0.0
 30
0.0
  3
*Paper_Space
  1

  0
ENDBLK
  5
1D
330
1B
100
AcDbEntity
  8
0
100
AcDbBlockEnd
  0
ENDSEC
  0
SECTION
  2
ENTITIES
  0
POLYLINE
  5
30
330
17
100
AcDbEntity
  8
TERRAIN_CONTOURS
100
AcDb3dPolyline
 66
1
 10
0.0
 20
0.0
 30
0.0
 70
9
  0
VERTEX
  5
32
330
17
100
AcDbEntity
  8
TERRAIN_CONTOURS
100
AcDbVertex
100
AcDb3dPolylineVertex
 10
33.492694519010996
 20
21.33948487498685
 30
146.0
 70
32
  0
VERTEX
  5
33
330
17
100
AcDbEntity
  8
TERRAIN_CONTOURS
100
AcDbVertex
100
AcDb3dPolylineVertex
 10
32.886172507688784
 20
21.835751965249983
 30
146.0
 70
32
  0
VERTEX
  5
34
330
17
100
AcDbEntity
  8
TERRAIN_CONTOURS
100
AcDbVertex
100
AcDb3dPolylineVertex
 10
31.904495715413507
 20
21.835751965249983
 30
146.0
 70
32
  0
VERTEX
  5
35
330
17
100
AcDbEntity
  8
TERRAIN_CONTOURS
100
AcDbVertex
100
AcDb3dPolylineVertex
 10
31.824301071625968
 20
21.33948487498685
 30
146.0
 70
32
  0
VERTEX
  5
36
330
17
100
AcDbEntity
  8
TERRAIN_CONTOURS
100
AcDbVertex
100
AcDb3dPolylineVertex
 10
31.904495715413507
 20
21.32688644220707
 30
146.0
 70
32
  0
VERTEX
  5
37
330
17
100
AcDbEntity
  8
TERRAIN_CONTOURS
100
AcDbVertex
100
AcDb3dPolylineVertex
 10
32.886172507688784
 20
21.29465950420567
 30
146.0
 70
32
  0
SEQEND
  5
31
330
30
100
AcDbEntity
  8
TERRAIN_CONTOURS
  0
POLYLINE
  5
38
330
17
100
AcDbEntity
  8
TERRAIN_CONTOURS
100
AcDb3dPolyline
 66
1
 10
0.0
 20
0.0
 30
0.0
 70
9
  0
VERTEX
  5
3A
330
17
100
AcDbEntity
  8
TERRAIN_CONTOURS
100
AcDbVertex
100
AcDb3dPolylineVertex
 10
45.15713239812715
 20
0.49626709026313165
 30
146.0
 70
32
  0
VERTEX
  5
3B
330
17
100
AcDbEntity
  8
TERRAIN_CONTOURS
100
AcDbVertex
100
AcDb3dPolylineVertex
 10
45.15713239812715
 20
1.4888012703939069
 30
146.0
 70
32
  0
VERTEX
  5
3C
330
17
100
AcDbEntity
  8
TERRAIN_CONTOURS
100
AcDbVertex
100
AcDb3dPolylineVertex
 10
45.15713239812715
 20
2.481335450524682
 30
146.0
 70
32
  0
VERTEX
  5
3D
330
17
100
AcDbEntity
  8
TERRAIN_CONTOURS
100
AcDbVertex
100
AcDb3dPolylineVertex
 10
45.15713239812715
 20
3.4738696306554573
 30
146.0
 70
32
  0
VERTEX
  5
3E
330
17
100
AcDbEntity
  8
TERRAIN_CONTOURS
100
AcDbVertex
100
AcDb3dPolylineVertex
 10
45.15713239812715
 20
4.466403811181721
 30
146.0
 70
32
  0
VERTEX
  5
3F
330
17
100
AcDbEntity
  8
TERRAIN_CONTOURS
100
AcDbVertex
100
AcDb3dPolylineVertex
 10
45.15713239812715
 20
5.458937991312496
 30
146.0
 70
32
  0
VERTEX
  5
40
330
17
100
AcDbEntity
  8
TERRAIN_CONTOURS
100
AcDbVertex
100
AcDb3dPolylineVertex
 10
45.15713239812715
 20
6.451472171443271
 30
146.0
 70
32
  0
VERTEX
  5
41
330
17
100
AcDbEntity
  8
TERRAIN_CONTOURS
100
AcDbVertex
100
AcDb3dPolylineVertex
 10
45.15713239812715
 20
7.444006351969534
 30
146.0
 70
32
  0
VERTEX
  5
42
330
17
100
AcDbEntity
  8
TERRAIN_CONTOURS
100
AcDbVertex
100
AcDb3dPolylineVertex
 10
45.15713239812715
 20
8.43654053210031
 30
146.0
 70
32
  0
VERTEX
  5
43
330
17
100
AcDbEntity
  8
TERRAIN_CONTOURS
100
AcDbVertex
100
AcDb3dPolylineVertex
 10
45.15713239812715
 20
9.429074712231085
 30
146.0
 70
32
  0
VERTEX
  5
44
330
17
100
AcDbEntity
  8
TERRAIN_CONTOURS
100
AcDbVertex
100
AcDb3dPolylineVertex
 10
45.15713239812715
 20
10.42160889236186
 30
146.0
 70
32
  0
VERTEX
  5
45
330
17
100
AcDbEntity
  8
TERRAIN_CONTOURS
100
AcDbVertex
100
AcDb3dPolylineVertex
 10
45.15713239812715
 20
11.414143072888123
 30
146.0
 70
32
  0
VERTEX
  5
46
330
17
100
AcDbEntity
  8
TERRAIN_CONTOURS
100
AcDbVertex
100
AcDb3dPolylineVertex
 10
45.15713239812715
 20
12.406677253018898
 30
146.0
 70
32
  0
VERTEX
  5
47
330
17
100
AcDbEntity
  8
TERRAIN_CONTOURS
100
AcDbVertex
100
AcDb3dPolylineVertex
 10
45.15713239812715
 20
13.399211433149674
 30
146.0
 70
32
  0
VERTEX
  5
48
330
17
100
AcDbEntity
  8
TERRAIN_CONTOURS
100
AcDbVertex
100
AcDb3dPolylineVertex
 10
45.15713239812715
 20
14.391745613280449
 30
146.0
 70
32
  0
VERTEX
  5
49
330
17
100
AcDbEntity
  8
TERRAIN_CONTOURS
100
AcDbVertex
100
AcDb3dPolylineVertex
 10
45.15713239812715
 20
15.384279793806712
 30
146.0
 70
32
  0
VERTEX
  5
4A
330
17
100
AcDbEntity
  8
TERRAIN_CONTOURS
100
AcDbVertex
100
AcDb3dPolylineVertex
 10
45.15713239812715
 20
16.376813973937487
 30
146.0
 70
32
  0
VERTEX
  5
4B
330
17
100
AcDbEntity
  8
TERRAIN_CONTOURS
100
AcDbVertex
100
AcDb3dPolylineVertex
 10
45.15713239812715
 20
17.369348154068263
 30
146.0
 70
32
  0
VERTEX
  5
4C
330
17
100
AcDbEntity
  8
TERRAIN_CONTOURS
100
AcDbVertex
100
AcDb3dPolylineVertex
 10
45.15713239812715
 20
18.361882334594526
 30
146.0
 70
32
  0
VERTEX
  5
4D
330
17
100
AcDbEntity
  8
TERRAIN_CONTOURS
100
AcDbVertex
100
AcDb3dPolylineVertex
 10
45.15713239812715
 20
19.3544165147253
 30
146.0
 70
32
  0
VERTEX
  5
4E
330
17
100
AcDbEntity
  8
TERRAIN_CONTOURS
100
AcDbVertex
100
AcDb3dPolylineVertex
 10
45.15713239812715
 20
20.346950694856076
 30
146.0
 70
32
  0
VERTEX
  5
4F
330
17
100
AcDbEntity
  8
TERRAIN_CONTOURS
100
AcDbVertex
100
AcDb3dPolylineVertex
 10
45.15713239812715
 20
21.33948487498685
 30
146.0
 70
32
  0
VERTEX
  5
50
330
17
100
AcDbEntity
  8
TERRAIN_CONTOURS
100
AcDbVertex
100
AcDb3dPolylineVertex
 10
44.666294002673865
 20
21.835751965249983
 30
146.0
 70
32
  0
VERTEX
  5
51
330
17
100
AcDbEntity
  8
TERRAIN_CONTOURS
100
AcDbVertex
100
AcDb3dPolylineVertex
 10
43.68461721176728
 20
21.835751965249983
 30
146.0
 70
32
  0
VERTEX
  5
52
330
17
100
AcDbEntity
  8
TERRAIN_CONTOURS
100
AcDbVertex
100
AcDb3dPolylineVertex
 10
42.702940419492
 20
21.835751965249983
 30
146.0
 70
32
  0
VERTEX
  5
53
330
17
100
AcDbEntity
  8
TERRAIN_CONTOURS
100
AcDbVertex
100
AcDb3dPolylineVertex
 10
41.72126362858542
 20
21.835751965249983
 30
146.0
 70
32
  0
VERTEX
  5
54
330
17
100
AcDbEntity
  8
TERRAIN_CONTOURS
100
AcDbVertex
100
AcDb3dPolylineVertex
 10
40.739586837678836
 20
21.835751965249983
 30
146.0
 70
32
  0
VERTEX
  5
55
330
17
100
AcDbEntity
  8
TERRAIN_CONTOURS
100
AcDbVertex
100
AcDb3dPolylineVertex
 10
39.75791004677225
 20
21.835751965249983
 30
146.0
 70
32
  0
VERTEX
  5
56
330
17
100
AcDbEntity
  8
TERRAIN_CONTOURS
100
AcDbVertex
100
AcDb3dPolylineVertex
 10
38.77623325449698
 20
21.835751965249983
 30
146.0
 70
32
  0
VERTEX
  5
57
330
17
100
AcDbEntity
  8
TERRAIN_CONTOURS
100
AcDbVertex
100
AcDb3dPolylineVertex
 10
37.794556463590396
 20
21.835751965249983
 30
146.0
 70
32
  0
VERTEX
  5
58
330
17
100
AcDbEntity
  8
TERRAIN_CONTOURS
100
AcDbVertex
100
AcDb3dPolylineVertex
 10
37.6563810542059
 20
21.33948487498685
 30
146.0
 70
32
  0
VERTEX
  5
59
330
17
100
AcDbEntity
  8
TERRAIN_CONTOURS
100
AcDbVertex
100
AcDb3dPolylineVertex
 10
37.794556463590396
 20
21.14749033183429
 30
146.0
 70
32
  0
VERTEX
  5
5A
330
17
100
AcDbEntity
  8
TERRAIN_CONTOURS
100
AcDbVertex
100
AcDb3dPolylineVertex
 10
38.322680769707766
 20
20.346950694856076
 30
146.0
 70
32
  0
VERTEX
  5
5B
330
17
100
AcDbEntity
  8
TERRAIN_CONTOURS
100
AcDbVertex
100
AcDb3dPolylineVertex
 10
37.794556463590396
 20
20.082025528403022
 30
146.0
 70
32
  0
VERTEX
  5
5C
330
17
100
AcDbEntity
  8
TERRAIN_CONTOURS
100
AcDbVertex
100
AcDb3dPolylineVertex
 10
36.81287967268381
 20
19.996362282423945
 30
146.0
 70
32
  0
VERTEX
  5
5D
330
17
100
AcDbEntity
  8
TERRAIN_CONTOURS
100
AcDbVertex
100
AcDb3dPolylineVertex
 10
35.83120288177722
 20
19.942753614805753
 30
146.0
 70
32
  0
VERTEX
  5
5E
330
17
100
AcDbEntity
  8
TERRAIN_CONTOURS
100
AcDbVertex
100
AcDb3dPolylineVertex
 10
34.84952608950195
 20
19.953860144316593
 30
146.0
 70
32
  0
VERTEX
  5
5F
330
17
100
AcDbEntity
  8
TERRAIN_CONTOURS
100
AcDbVertex
100
AcDb3dPolylineVertex
 10
33.86784929859537
 20
19.8585164889802
 30
146.0
 70
32
  0
VERTEX
  5
60
330
17
100
AcDbEntity
  8
TERRAIN_CONTOURS
100
AcDbVertex
100
AcDb3dPolylineVertex
 10
32.886172507688784
 20
19.366608335920432
 30
146.0
 70
32
  0
VERTEX
  5
61
330
17
100
AcDbEntity
  8
TERRAIN_CONTOURS
100
AcDbVertex
100
AcDb3dPolylineVertex
 10
32.87672809630324
 20
19.3544165147253
 30
146.0
 70
32
  0
VERTEX
  5
62
330
17
100
AcDbEntity
  8
TERRAIN_CONTOURS
100
AcDbVertex
100
AcDb3dPolylineVertex
 10
31.904495715413507
 20
18.63962571407143
 30
146.0
 70
32
  0
VERTEX
  5
63
330
17
100
AcDbEntity
  8
TERRAIN_CONTOURS
100
AcDbVertex
100
AcDb3dPolylineVertex
 10
31.574042330377768
 20
18.361882334594526
 30
146.0
 70
32
  0
VERTEX
  5
64
330
17
100
AcDbEntity
  8
TERRAIN_CONTOURS
100
AcDbVertex
100
AcDb3dPolylineVertex
 10
31.058067757628965
 20
17.369348154068263
 30
146.0
 70
32
  0
VERTEX
  5
65
330
17
100
AcDbEntity
  8
TERRAIN_CONTOURS
100
AcDbVertex
100
AcDb3dPolylineVertex
 10
30.922818924506924
 20
16.925069598656535
 30
146.0
 70
32
  0
VERTEX
  5
66
330
17
100
AcDbEntity
  8
TERRAIN_CONTOURS
100
AcDbVertex
100
AcDb3dPolylineVertex
 10
30.770000300197612
 20
16.376813973937487
 30
146.0
 70
32
  0
VERTEX
  5
67
330
17
100
AcDbEntity
  8
TERRAIN_CONTOURS
100
AcDbVertex
100
AcDb3dPolylineVertex
 10
30.351919151913858
 20
15.384279793806712
 30
146.0
 70
32
  0
VERTEX
  5
68
330
17
100
AcDbEntity
  8
TERRAIN_CONTOURS
100
AcDbVertex
100
AcDb3dPolylineVertex
 10
29.94114213360034
 20
14.871382697637756
 30
146.0
 70
32
  0
VERTEX
  5
69
330
17
100
AcDbEntity
  8
TERRAIN_CONTOURS
100
AcDbVertex
100
AcDb3dPolylineVertex
 10
29.34206195755912
 20
14.391745613280449
 30
146.0
 70
32
  0
VERTEX
  5
6A
330
17
100
AcDbEntity
  8
TERRAIN_CONTOURS
100
AcDbVertex
100
AcDb3dPolylineVertex
 10
28.959465342693758
 20
13.741721499931572
 30
146.0
 70
32
  0
VERTEX
  5
6B
330
17
100
AcDbEntity
  8
TERRAIN_CONTOURS
100
AcDbVertex
100
AcDb3dPolylineVertex
 10
28.461911355514896
 20
14.391745613280449
 30
146.0
 70
32
  0
VERTEX
  5
6C
330
17
100
AcDbEntity
  8
TERRAIN_CONTOURS
100
AcDbVertex
100
AcDb3dPolylineVertex
 10
28.22154853198182
 20
15.384279793806712
 30
146.0
 70
32
  0
VERTEX
  5
6D
330
17
100
AcDbEntity
  8
TERRAIN_CONTOURS
100
AcDbVertex
100
AcDb3dPolylineVertex
 10
27.99155760467797
 20
16.376813973937487
 30
146.0
 70
32
  0
VERTEX
  5
6E
330
17
100
AcDbEntity
  8
TERRAIN_CONTOURS
100
AcDbVertex
100
AcDb3dPolylineVertex
 10
27.97778855041848
 20
16.418606534438425
 30
146.0
 70
32
  0
VERTEX
  5
6F
330
17
100
AcDbEntity
  8
TERRAIN_CONTOURS
100
AcDbVertex
100
AcDb3dPolylineVertex
 10
27.70423233604531
 20
17.369348154068263
 30
146.0
 70
32
  0
VERTEX
  5
70
330
17
100
AcDbEntity
  8
TERRAIN_CONTOURS
100
AcDbVertex
100
AcDb3dPolylineVertex
 10
26.996111759511898
 20
18.289707608860652
 30
146.0
 70
32
  0
VERTEX
  5
71
330
17
100
AcDbEntity
  8
TERRAIN_CONTOURS
100
AcDbVertex
100
AcDb3dPolylineVertex
 10
26.933079551797267
 20
18.361882334594526
 30
146.0
 70
32
  0
VERTEX
  5
72
330
17
100
AcDbEntity
  8
TERRAIN_CONTOURS
100
AcDbVertex
100
AcDb3dPolylineVertex
 10
26.3633318866744
 20
19.3544165147253
 30
146.0
 70
32
  0
VERTEX
  5
73
330
17
100
AcDbEntity
  8
TERRAIN_CONTOURS
100
AcDbVertex
100
AcDb3dPolylineVertex
 10
26.014434968605315
 20
19.68854822808609
 30
146.0
 70
32
  0
VERTEX
  5
74
330
17
100
AcDbEntity
  8
TERRAIN_CONTOURS
100
AcDbVertex
100
AcDb3dPolylineVertex
 10
25.032758177698728
 20
19.69727350207492
 30
146.0
 70
32
  0
VERTEX
  5
75
330
17
100
AcDbEntity
  8
TERRAIN_CONTOURS
100
AcDbVertex
100
AcDb3dPolylineVertex
 10
24.051081385423455
 20
19.727041556966185
 30
146.0
 70
32
  0
VERTEX
  5
76
330
17
100
AcDbEntity
  8
TERRAIN_CONTOURS
100
AcDbVertex
100
AcDb3dPolylineVertex
 10
23.06940459451687
 20
20.15700292317618
 30
146.0
 70
32
  0
VERTEX
  5
77
330
17
100
AcDbEntity
  8
TERRAIN_CONTOURS
100
AcDbVertex
100
AcDb3dPolylineVertex
 10
22.296996938785327
 20
20.346950694856076
 30
146.0
 70
32
  0
VERTEX
  5
78
330
17
100
AcDbEntity
  8
TERRAIN_CONTOURS
100
AcDbVertex
100
AcDb3dPolylineVertex
 10
22.087727803610285
 20
20.46971368755308
 30
146.0
 70
32
  0
VERTEX
  5
79
330
17
100
AcDbEntity
  8
TERRAIN_CONTOURS
100
AcDbVertex
100
AcDb3dPolylineVertex
 10
21.106051012703702
 20
20.587075454759542
 30
146.0
 70
32
  0
VERTEX
  5
7A
330
17
100
AcDbEntity
  8
TERRAIN_CONTOURS
100
AcDbVertex
100
AcDb3dPolylineVertex
 10
20.12437422042843
 20
20.83747185300325
 30
146.0
 70
32
  0
VERTEX
  5
7B
330
17
100
AcDbEntity
  8
TERRAIN_CONTOURS
100
AcDbVertex
100
AcDb3dPolylineVertex
 10
19.142697429521842
 20
21.28832813582079
 30
146.0
 70
32
  0
VERTEX
  5
7C
330
17
100
AcDbEntity
  8
TERRAIN_CONTOURS
100
AcDbVertex
100
AcDb3dPolylineVertex
 10
18.16102063861526
 20
21.329083007956484
 30
146.0
 70
32
  0
VERTEX
  5
7D
330
17
100
AcDbEntity
  8
TERRAIN_CONTOURS
100
AcDbVertex
100
AcDb3dPolylineVertex
 10
17.179343847708676
 20
20.868233973528305
 30
146.0
 70
32
  0
VERTEX
  5
7E
330
17
100
AcDbEntity
  8
TERRAIN_CONTOURS
100
AcDbVertex
100
AcDb3dPolylineVertex
 10
16.73819008434122
 20
20.346950694856076
 30
146.0
 70
32
  0
VERTEX
  5
7F
330
17
100
AcDbEntity
  8
TERRAIN_CONTOURS
100
AcDbVertex
100
AcDb3dPolylineVertex
 10
16.1976670554334
 20
19.966665629347347
 30
146.0
 70
32
  0
VERTEX
  5
80
330
17
100
AcDbEntity
  8
TERRAIN_CONTOURS
100
AcDbVertex
100
AcDb3dPolylineVertex
 10
15.404116479327097
 20
19.3544165147253
 30
146.0
 70
32
  0
VERTEX
  5
81
330
17
100
AcDbEntity
  8
TERRAIN_CONTOURS
100
AcDbVertex
100
AcDb3dPolylineVertex
 10
15.215990264526816
 20
19.244623659032243
 30
146.0
 70
32
  0
VERTEX
  5
82
330
17
100
AcDbEntity
  8
TERRAIN_CONTOURS
100
AcDbVertex
100
AcDb3dPolylineVertex
 10
14.234313473620231
 20
18.75393890842446
 30
146.0
 70
32
  0
VERTEX
  5
83
330
17
100
AcDbEntity
  8
TERRAIN_CONTOURS
100
AcDbVertex
100
AcDb3dPolylineVertex
 10
13.693226586693209
 20
18.361882334594526
 30
146.0
 70
32
  0
VERTEX
  5
84
330
17
100
AcDbEntity
  8
TERRAIN_CONTOURS
100
AcDbVertex
100
AcDb3dPolylineVertex
 10
13.252636682713648
 20
18.14507973813022
 30
146.0
 70
32
  0
VERTEX
  5
85
330
17
100
AcDbEntity
  8
TERRAIN_CONTOURS
100
AcDbVertex
100
AcDb3dPolylineVertex
 10
12.291896019485272
 20
17.369348154068263
 30
146.0
 70
32
  0
VERTEX
  5
86
330
17
100
AcDbEntity
  8
TERRAIN_CONTOURS
100
AcDbVertex
100
AcDb3dPolylineVertex
 10
12.270959890438373
 20
17.355478758230163
 30
146.0
 70
32
  0
VERTEX
  5
87
330
17
100
AcDbEntity
  8
TERRAIN_CONTOURS
100
AcDbVertex
100
AcDb3dPolylineVertex
 10
11.289283099531788
 20
16.8297040344666
 30
146.0
 70
32
  0
VERTEX
  5
88
330
17
100
AcDbEntity
  8
TERRAIN_CONTOURS
100
AcDbVertex
100
AcDb3dPolylineVertex
 10
10.59748123534327
 20
16.376813973937487
 30
146.0
 70
32
  0
VERTEX
  5
89
330
17
100
AcDbEntity
  8
TERRAIN_CONTOURS
100
AcDbVertex
100
AcDb3dPolylineVertex
 10
10.307606308625205
 20
16.258378859182443
 30
146.0
 70
32
  0
VERTEX
  5
8A
330
17
100
AcDbEntity
  8
TERRAIN_CONTOURS
100
AcDbVertex
100
AcDb3dPolylineVertex
 10
9.32592951634993
 20
15.965475390303965
 30
146.0
 70
32
  0
VERTEX
  5
8B
330
17
100
AcDbEntity
  8
TERRAIN_CONTOURS
100
AcDbVertex
100
AcDb3dPolylineVertex
 10
8.344252725443345
 20
15.91653523847171
 30
146.0
 70
32
  0
VERTEX
  5
8C
330
17
100
AcDbEntity
  8
TERRAIN_CONTOURS
100
AcDbVertex
100
AcDb3dPolylineVertex
 10
7.362575934536762
 20
16.35936516768936
 30
146.0
 70
32
  0
VERTEX
  5
8D
330
17
100
AcDbEntity
  8
TERRAIN_CONTOURS
100
AcDbVertex
100
AcDb3dPolylineVertex
 10
7.307310166195347
 20
16.376813973937487
 30
146.0
 70
32
  0
VERTEX
  5
8E
330
17
100
AcDbEntity
  8
TERRAIN_CONTOURS
100
AcDbVertex
100
AcDb3dPolylineVertex
 10
6.380899143630177
 20
16.904114581306402
 30
146.0
 70
32
  0
VERTEX
  5
8F
330
17
100
AcDbEntity
  8
TERRAIN_CONTOURS
100
AcDbVertex
100
AcDb3dPolylineVertex
 10
5.584364882654103
 20
17.369348154068263
 30
146.0
 70
32
  0
VERTEX
  5
90
330
17
100
AcDbEntity
  8
TERRAIN_CONTOURS
100
AcDbVertex
100
AcDb3dPolylineVertex
 10
5.399222351354903
 20
17.494113738263763
 30
146.0
 70
32
  0
VERTEX
  5
91
330
17
100
AcDbEntity
  8
TERRAIN_CONTOURS
100
AcDbVertex
100
AcDb3dPolylineVertex
 10
4.417545560448319
 20
18.104080311585733
 30
146.0
 70
32
  0
VERTEX
  5
92
330
17
100
AcDbEntity
  8
TERRAIN_CONTOURS
100
AcDbVertex
100
AcDb3dPolylineVertex
 10
3.688025765311492
 20
18.361882334594526
 30
146.0
 70
32
  0
VERTEX
  5
93
330
17
100
AcDbEntity
  8
TERRAIN_CONTOURS
100
AcDbVertex
100
AcDb3dPolylineVertex
 10
3.435868769541735
 20
18.443524782124996
 30
146.0
 70
32
  0
VERTEX
  5
94
330
17
100
AcDbEntity
  8
TERRAIN_CONTOURS
100
AcDbVertex
100
AcDb3dPolylineVertex
 10
2.454191978635151
 20
18.870976170932465
 30
146.0
 70
32
  0
VERTEX
  5
95
330
17
100
AcDbEntity
  8
TERRAIN_CONTOURS
100
AcDbVertex
100
AcDb3dPolylineVertex
 10
1.4725151863598762
 20
19.19851294089554
 30
146.0
 70
32
  0
VERTEX
  5
96
330
17
100
AcDbEntity
  8
TERRAIN_CONTOURS
100
AcDbVertex
100
AcDb3dPolylineVertex
 10
1.1954545948558537
 20
19.3544165147253
 30
146.0
 70
32
  0
VERTEX
  5
97
330
17
100
AcDbEntity
  8
TERRAIN_CONTOURS
100
AcDbVertex
100
AcDb3dPolylineVertex
 10
0.49083839545329205
 20
19.683802713933574
 30
146.0
 70
32
  0
VERTEX
  5
98
330
17
100
AcDbEntity
  8
TERRAIN_CONTOURS
100
AcDbVertex
100
AcDb3dPolylineVertex
 10
0.0
 20
19.3544165147253
 30
146.0
 70
32
  0
VERTEX
  5
99
330
17
100
AcDbEntity
  8
TERRAIN_CONTOURS
100
AcDbVertex
100
AcDb3dPolylineVertex
 10
0.0
 20
18.361882334594526
 30
146.0
 70
32
  0
VERTEX
  5
9A
330
17
100
AcDbEntity
  8
TERRAIN_CONTOURS
100
AcDbVertex
100
AcDb3dPolylineVertex
 10
0.0
 20
17.369348154068263
 30
146.0
 70
32
  0
VERTEX
  5
9B
330
17
100
AcDbEntity
  8
TERRAIN_CONTOURS
100
AcDbVertex
100
AcDb3dPolylineVertex
 10
0.0
 20
16.376813973937487
 30
146.0
 70
32
  0
VERTEX
  5
9C
330
17
100
AcDbEntity
  8
TERRAIN_CONTOURS
100
AcDbVertex
100
AcDb3dPolylineVertex
 10
0.0
 20
15.384279793806712
 30
146.0
 70
32
  0
VERTEX
  5
9D
330
17
100
AcDbEntity
  8
TERRAIN_CONTOURS
100
AcDbVertex
100
AcDb3dPolylineVertex
 10
0.0
 20
14.391745613280449
 30
146.0
 70
32
  0
VERTEX
  5
9E
330
17
100
AcDbEntity
  8
TERRAIN_CONTOURS
100
AcDbVertex
100
AcDb3dPolylineVertex
 10
0.0
 20
13.399211433149674
 30
146.0
 70
32
  0
VERTEX
  5
9F
330
17
100
AcDbEntity
  8
TERRAIN_CONTOURS
100
AcDbVertex
100
AcDb3dPolylineVertex
 10
0.0
 20
12.406677253018898
 30
146.0
 70
32
  0
VERTEX
  5
A0
330
17
100
AcDbEntity
  8
TERRAIN_CONTOURS
100
AcDbVertex
100
AcDb3dPolylineVertex
 10
0.0
 20
11.414143072888123
 30
146.0
 70
32
  0
VERTEX
  5
A1
330
17
100
AcDbEntity
  8
TERRAIN_CONTOURS
100
AcDbVertex
100
AcDb3dPolylineVertex
 10
0.0
 20
10.42160889236186
 30
146.0
 70
32
  0
VERTEX
  5
A2
330
17
100
AcDbEntity
  8
TERRAIN_CONTOURS
100
AcDbVertex
100
AcDb3dPolylineVertex
 10
0.0
 20
9.429074712231085
 30
146.0
 70
32
  0
VERTEX
  5
A3
330
17
100
AcDbEntity
  8
TERRAIN_CONTOURS
100
AcDbVertex
100
AcDb3dPolylineVertex
 10
0.0
 20
8.43654053210031
 30
146.0
 70
32
  0
VERTEX
  5
A4
330
17
100
AcDbEntity
  8
TERRAIN_CONTOURS
100
AcDbVertex
100
AcDb3dPolylineVertex
 10
0.0
 20
7.444006351969534
 30
146.0
 70
32
  0
VERTEX
  5
A5
330
17
100
AcDbEntity
  8
TERRAIN_CONTOURS
100
AcDbVertex
100
AcDb3dPolylineVertex
 10
0.0
 20
6.451472171443271
 30
146.0
 70
32
  0
VERTEX
  5
A6
330
17
100
AcDbEntity
  8
TERRAIN_CONTOURS
100
AcDbVertex
100
AcDb3dPolylineVertex
 10
0.0
 20
5.458937991312496
 30
146.0
 70
32
  0
VERTEX
  5
A7
330
17
100
AcDbEntity
  8
TERRAIN_CONTOURS
100
AcDbVertex
100
AcDb3dPolylineVertex
 10
0.0
 20
4.466403811181721
 30
146.0
 70
32
  0
VERTEX
  5
A8
330
17
100
AcDbEntity
  8
TERRAIN_CONTOURS
100
AcDbVertex
100
AcDb3dPolylineVertex
 10
0.0
 20
3.4738696306554573
 30
146.0
 70
32
  0
VERTEX
  5
A9
330
17
100
AcDbEntity
  8
TERRAIN_CONTOURS
100
AcDbVertex
100
AcDb3dPolylineVertex
 10
0.0
 20
2.481335450524682
 30
146.0
 70
32
  0
VERTEX
  5
AA
330
17
100
AcDbEntity
  8
TERRAIN_CONTOURS
100
AcDbVertex
100
AcDb3dPolylineVertex
 10
0.0
 20
1.4888012703939069
 30
146.0
 70
32
  0
VERTEX
  5
AB
330
17
100
AcDbEntity
  8
TERRAIN_CONTOURS
100
AcDbVertex
100
AcDb3dPolylineVertex
 10
0.0
 20
0.49626709026313165
 30
146.0
 70
32
  0
VERTEX
  5
AC
330
17
100
AcDbEntity
  8
TERRAIN_CONTOURS
100
AcDbVertex
100
AcDb3dPolylineVertex
 10
0.49083839545329205
 20
0.0
 30
146.0
 70
32
  0
VERTEX
  5
AD
330
17
100
AcDbEntity
  8
TERRAIN_CONTOURS
100
AcDbVertex
100
AcDb3dPolylineVertex
 10
1.4725151863598762
 20
0.0
 30
146.0
 70
32
  0
VERTEX
  5
AE
330
17
100
AcDbEntity
  8
TERRAIN_CONTOURS
100
AcDbVertex
100
AcDb3dPolylineVertex
 10
2.454191978635151
 20
0.0
 30
146.0
 70
32
  0
VERTEX
  5
AF
330
17
100
AcDbEntity
  8
TERRAIN_CONTOURS
100
AcDbVertex
100
AcDb3dPolylineVertex
 10
3.435868769541735
 20
0.0
 30
146.0
 70
32
  0
VERTEX
  5
B0
330
17
100
AcDbEntity
  8
TERRAIN_CONTOURS
100
AcDbVertex
100
AcDb3dPolylineVertex
 10
4.417545560448319
 20
0.0
 30
146.0
 70
32
  0
VERTEX
  5
B1
330
17
100
AcDbEntity
  8
TERRAIN_CONTOURS
100
AcDbVertex
100
AcDb3dPolylineVertex
 10
5.399222351354903
 20
0.0
 30
146.0
 70
32
  0
VERTEX
  5
B2
330
17
100
AcDbEntity
  8
TERRAIN_CONTOURS
100
AcDbVertex
100
AcDb3dPolylineVertex
 10
6.380899143630177
 20
0.0
 30
146.0
 70
32
  0
VERTEX
  5
B3
330
17
100
AcDbEntity
  8
TERRAIN_CONTOURS
100
AcDbVertex
100
AcDb3dPolylineVertex
 10
7.362575934536762
 20
0.0
 30
146.0
 70
32
  0
VERTEX
  5
B4
330
17
100
AcDbEntity
  8
TERRAIN_CONTOURS
100
AcDbVertex
100
AcDb3dPolylineVertex
 10
8.344252725443345
 20
0.0
 30
146.0
 70
32
  0
VERTEX
  5
B5
330
17
100
AcDbEntity
  8
TERRAIN_CONTOURS
100
AcDbVertex
100
AcDb3dPolylineVertex
 10
9.32592951634993
 20
0.0
 30
146.0
 70
32
  0
VERTEX
  5
B6
330
17
100
AcDbEntity
  8
TERRAIN_CONTOURS
100
AcDbVertex
100
AcDb3dPolylineVertex
 10
10.307606308625205
 20
0.0
 30
146.0
 70
32
  0
VERTEX
  5
B7
330
17
100
AcDbEntity
  8
TERRAIN_CONTOURS
100
AcDbVertex
100
AcDb3dPolylineVertex
 10
11.289283099531788
 20
0.0
 30
146.0
 70
32
  0
VERTEX
  5
B8
330
17
100
AcDbEntity
  8
TERRAIN_CONTOURS
100
AcDbVertex
100
AcDb3dPolylineVertex
 10
12.270959890438373
 20
0.0
 30
146.0
 70
32
  0
VERTEX
  5
B9
330
17
100
AcDbEntity
  8
TERRAIN_CONTOURS
100
AcDbVertex
100
AcDb3dPolylineVertex
 10
13.252636682713648
 20
0.0
 30
146.0
 70
32
  0
VERTEX
  5
BA
330
17
100
AcDbEntity
  8
TERRAIN_CONTOURS
100
AcDbVertex
100
AcDb3dPolylineVertex
 10
14.234313473620231
 20
0.0
 30
146.0
 70
32
  0
VERTEX
  5
BB
330
17
100
AcDbEntity
  8
TERRAIN_CONTOURS
100
AcDbVertex
100
AcDb3dPolylineVertex
 10
15.215990264526816
 20
0.0
 30
146.0
 70
32
  0
VERTEX
  5
BC
330
17
100
AcDbEntity
  8
TERRAIN_CONTOURS
100
AcDbVertex
100
AcDb3dPolylineVertex
 10
16.1976670554334
 20
0.0
 30
146.0
 70
32
  0
VERTEX
  5
BD
330
17
100
AcDbEntity
  8
TERRAIN_CONTOURS
100
AcDbVertex
100
AcDb3dPolylineVertex
 10
17.179343847708676
 20
0.0
 30
146.0
 70
32
  0
VERTEX
  5
BE
330
17
100
AcDbEntity
  8
TERRAIN_CONTOURS
100
AcDbVertex
100
AcDb3dPolylineVertex
 10
18.16102063861526
 20
0.0
 30
146.0
 70
32
  0
VERTEX
  5
BF
330
17
100
AcDbEntity
  8
TERRAIN_CONTOURS
100
AcDbVertex
100
AcDb3dPolylineVertex
 10
19.142697429521842
 20
0.0
 30
146.0
 70
32
  0
VERTEX
  5
C0
330
17
100
AcDbEntity
  8
TERRAIN_CONTOURS
100
AcDbVertex
100
AcDb3dPolylineVertex
 10
20.12437422042843
 20
0.0
 30
146.0
 70
32
  0
VERTEX
  5
C1
330
17
100
AcDbEntity
  8
TERRAIN_CONTOURS
100
AcDbVertex
100
AcDb3dPolylineVertex
 10
21.106051012703702
 20
0.0
 30
146.0
 70
32
  0
VERTEX
  5
C2
330
17
100
AcDbEntity
  8
TERRAIN_CONTOURS
100
AcDbVertex
100
AcDb3dPolylineVertex
 10
22.087727803610285
 20
0.0
 30
146.0
 70
32
  0
VERTEX
  5
C3
330
17
100
AcDbEntity
  8
TERRAIN_CONTOURS
100
AcDbVertex
100
AcDb3dPolylineVertex
 10
23.06940459451687
 20
0.0
 30
146.0
 70
32
  0
VERTEX
  5
C4
330
17
100
AcDbEntity
  8
TERRAIN_CONTOURS
100
AcDbVertex
100
AcDb3dPolylineVertex
 10
24.051081385423455
 20
0.0
 30
146.0
 70
32
  0
VERTEX
  5
C5
330
17
100
AcDbEntity
  8
TERRAIN_CONTOURS
100
AcDbVertex
100
AcDb3dPolylineVertex
 10
25.032758177698728
 20
0.0
 30
146.0
 70
32
  0
VERTEX
  5
C6
330
17
100
AcDbEntity
  8
TERRAIN_CONTOURS
100
AcDbVertex
100
AcDb3dPolylineVertex
 10
26.014434968605315
 20
0.0
 30
146.0
 70
32
  0
VERTEX
  5
C7
330
17
100
AcDbEntity
  8
TERRAIN_CONTOURS
100
AcDbVertex
100
AcDb3dPolylineVertex
 10
26.996111759511898
 20
0.0
 30
146.0
 70
32
  0
VERTEX
  5
C8
330
17
100
AcDbEntity
  8
TERRAIN_CONTOURS
100
AcDbVertex
100
AcDb3dPolylineVertex
 10
27.97778855041848
 20
0.0
 30
146.0
 70
32
  0
VERTEX
  5
C9
330
17
100
AcDbEntity
  8
TERRAIN_CONTOURS
100
AcDbVertex
100
AcDb3dPolylineVertex
 10
28.959465342693758
 20
0.0
 30
146.0
 70
32
  0
VERTEX
  5
CA
330
17
100
AcDbEntity
  8
TERRAIN_CONTOURS
100
AcDbVertex
100
AcDb3dPolylineVertex
 10
29.94114213360034
 20
0.0
 30
146.0
 70
32
  0
VERTEX
  5
CB
330
17
100
AcDbEntity
  8
TERRAIN_CONTOURS
100
AcDbVertex
100
AcDb3dPolylineVertex
 10
30.922818924506924
 20
0.0
 30
146.0
 70
32
  0
VERTEX
  5
CC
330
17
100
AcDbEntity
  8
TERRAIN_CONTOURS
100
AcDbVertex
100
AcDb3dPolylineVertex
 10
31.904495715413507
 20
0.0
 30
146.0
 70
32
  0
VERTEX
  5
CD
330
17
100
AcDbEntity
  8
TERRAIN_CONTOURS
100
AcDbVertex
100
AcDb3dPolylineVertex
 10
32.886172507688784
 20
0.0
 30
146.0
 70
32
  0
VERTEX
  5
CE
330
17
100
AcDbEntity
  8
TERRAIN_CONTOURS
100
AcDbVertex
100
AcDb3dPolylineVertex
 10
33.86784929859537
 20
0.0
 30
146.0
 70
32
  0
VERTEX
  5
CF
330
17
100
AcDbEntity
  8
TERRAIN_CONTOURS
100
AcDbVertex
100
AcDb3dPolylineVertex
 10
34.84952608950195
 20
0.0
 30
146.0
 70
32
  0
VERTEX
  5
D0
330
17
100
AcDbEntity
  8
TERRAIN_CONTOURS
100
AcDbVertex
100
AcDb3dPolylineVertex
 10
35.83120288177722
 20
0.0
 30
146.0
 70
32
  0
VERTEX
  5
D1
330
17
100
AcDbEntity
  8
TERRAIN_CONTOURS
100
AcDbVertex
100
AcDb3dPolylineVertex
 10
36.81287967268381
 20
0.0
 30
146.0
 70
32
  0
VERTEX
  5
D2
330
17
100
AcDbEntity
  8
TERRAIN_CONTOURS
100
AcDbVertex
100
AcDb3dPolylineVertex
 10
37.794556463590396
 20
0.0
 30
146.0
 70
32
  0
VERTEX
  5
D3
330
17
100
AcDbEntity
  8
TERRAIN_CONTOURS
100
AcDbVertex
100
AcDb3dPolylineVertex
 10
38.77623325449698
 20
0.0
 30
146.0
 70
32
  0
VERTEX
  5
D4
330
17
100
AcDbEntity
  8
TERRAIN_CONTOURS
100
AcDbVertex
100
AcDb3dPolylineVertex
 10
39.75791004677225
 20
0.0
 30
146.0
 70
32
  0
VERTEX
  5
D5
330
17
100
AcDbEntity
  8
TERRAIN_CONTOURS
100
AcDbVertex
100
AcDb3dPolylineVertex
 10
40.739586837678836
 20
0.0
 30
146.0
 70
32
  0
VERTEX
  5
D6
330
17
100
AcDbEntity
  8
TERRAIN_CONTOURS
100
AcDbVertex
100
AcDb3dPolylineVertex
 10
41.72126362858542
 20
0.0
 30
146.0
 70
32
  0
VERTEX
  5
D7
330
17
100
AcDbEntity
  8
TERRAIN_CONTOURS
100
AcDbVertex
100
AcDb3dPolylineVertex
 10
42.702940419492
 20
0.0
 30
146.0
 70
32
  0
VERTEX
  5
D8
330
17
100
AcDbEntity
  8
TERRAIN_CONTOURS
100
AcDbVertex
100
AcDb3dPolylineVertex
 10
43.68461721176728
 20
0.0
 30
146.0
 70
32
  0
VERTEX
  5
D9
330
17
100
AcDbEntity
  8
TERRAIN_CONTOURS
100
AcDbVertex
100
AcDb3dPolylineVertex
 10
44.666294002673865
 20
0.0
 30
146.0
 70
32
  0
SEQEND
  5
39
330
38
100
AcDbEntity
  8
TERRAIN_CONTOURS
  0
POLYLINE
  5
DA
330
17
100
AcDbEntity
  8
TERRAIN_CONTOURS
100
AcDb3dPolyline
 66
1
 10
0.0
 20
0.0
 30
0.0
 70
9
  0
VERTEX
  5
DC
330
17
100
AcDbEntity
  8
TERRAIN_CONTOURS
100
AcDbVertex
100
AcDb3dPolylineVertex
 10
45.15713239812715
 20
9.429074712231085
 30
147.0
 70
32
  0
VERTEX
  5
DD
330
17
100
AcDbEntity
  8
TERRAIN_CONTOURS
100
AcDbVertex
100
AcDb3dPolylineVertex
 10
45.15713239812715
 20
10.42160889236186
 30
147.0
 70
32
  0
VERTEX
  5
DE
330
17
100
AcDbEntity
  8
TERRAIN_CONTOURS
100
AcDbVertex
100
AcDb3dPolylineVertex
 10
45.15713239812715
 20
11.414143072888123
 30
147.0
 70
32
  0
VERTEX
  5
DF
330
17
100
AcDbEntity
  8
TERRAIN_CONTOURS
100
AcDbVertex
100
AcDb3dPolylineVertex
 10
45.15713239812715
 20
12.406677253018898
 30
147.0
 70
32
  0
VERTEX
  5
E0
330
17
100
AcDbEntity
  8
TERRAIN_CONTOURS
100
AcDbVertex
100
AcDb3dPolylineVertex
 10
45.15713239812715
 20
13.399211433149674
 30
147.0
 70
32
  0
VERTEX
  5
E1
330
17
100
AcDbEntity
  8
TERRAIN_CONTOURS
100
AcDbVertex
100
AcDb3dPolylineVertex
 10
45.15713239812715
 20
14.391745613280449
 30
147.0
 70
32
  0
VERTEX
  5
E2
330
17
100
AcDbEntity
  8
TERRAIN_CONTOURS
100
AcDbVertex
100
AcDb3dPolylineVertex
 10
45.15713239812715
 20
15.384279793806712
 30
147.0
 70
32
  0
VERTEX
  5
E3
330
17
100
AcDbEntity
  8
TERRAIN_CONTOURS
100
AcDbVertex
100
AcDb3dPolylineVertex
 10
45.15713239812715
 20
16.376813973937487
 30
147.0
 70
32
  0
VERTEX
  5
E4
330
17
100
AcDbEntity
  8
TERRAIN_CONTOURS
100
AcDbVertex
100
AcDb3dPolylineVertex
 10
45.15713239812715
 20
17.369348154068263
 30
147.0
 70
32
  0
VERTEX
  5
E5
330
17
100
AcDbEntity
  8
TERRAIN_CONTOURS
100
AcDbVertex
100
AcDb3dPolylineVertex
 10
45.15713239812715
 20
18.361882334594526
 30
147.0
 70
32
  0
VERTEX
  5
E6
330
17
100
AcDbEntity
  8
TERRAIN_CONTOURS
100
AcDbVertex
100
AcDb3dPolylineVertex
 10
45.15713239812715
 20
19.3544165147253
 30
147.0
 70
32
  0
VERTEX
  5
E7
330
17
100
AcDbEntity
  8
TERRAIN_CONTOURS
100
AcDbVertex
100
AcDb3dPolylineVertex
 10
45.15713239812715
 20
20.346950694856076
 30
147.0
 70
32
  0
VERTEX
  5
E8
330
17
100
AcDbEntity
  8
TERRAIN_CONTOURS
100
AcDbVertex
100
AcDb3dPolylineVertex
 10
45.15713239812715
 20
21.33948487498685
 30
147.0
 70
32
  0
VERTEX
  5
E9
330
17
100
AcDbEntity
  8
TERRAIN_CONTOURS
100
AcDbVertex
100
AcDb3dPolylineVertex
 10
44.666294002673865
 20
21.835751965249983
 30
147.0
 70
32
  0
VERTEX
  5
EA
330
17
100
AcDbEntity
  8
TERRAIN_CONTOURS
100
AcDbVertex
100
AcDb3dPolylineVertex
 10
43.68461721176728
 20
21.835751965249983
 30
147.0
 70
32
  0
VERTEX
  5
EB
330
17
100
AcDbEntity
  8
TERRAIN_CONTOURS
100
AcDbVertex
100
AcDb3dPolylineVertex
 10
42.702940419492
 20
21.835751965249983
 30
147.0
 70
32
  0
VERTEX
  5
EC
330
17
100
AcDbEntity
  8
TERRAIN_CONTOURS
100
AcDbVertex
100
AcDb3dPolylineVertex
 10
41.72126362858542
 20
21.835751965249983
 30
147.0
 70
32
  0
VERTEX
  5
ED
330
17
100
AcDbEntity
  8
TERRAIN_CONTOURS
100
AcDbVertex
100
AcDb3dPolylineVertex
 10
40.739586837678836
 20
21.835751965249983
 30
147.0
 70
32
  0
VERTEX
  5
EE
330
17
100
AcDbEntity
  8
TERRAIN_CONTOURS
100
AcDbVertex
100
AcDb3dPolylineVertex
 10
39.86349349525628
 20
21.33948487498685
 30
147.0
 70
32
  0
VERTEX
  5
EF
330
17
100
AcDbEntity
  8
TERRAIN_CONTOURS
100
AcDbVertex
100
AcDb3dPolylineVertex
 10
40.739586837678836
 20
20.656678508135826
 30
147.0
 70
32
  0
VERTEX
  5
F0
330
17
100
AcDbEntity
  8
TERRAIN_CONTOURS
100
AcDbVertex
100
AcDb3dPolylineVertex
 10
41.15077700477322
 20
20.346950694856076
 30
147.0
 70
32
  0
VERTEX
  5
F1
330
17
100
AcDbEntity
  8
TERRAIN_CONTOURS
100
AcDbVertex
100
AcDb3dPolylineVertex
 10
41.72126362858542
 20
19.612545166203574
 30
147.0
 70
32
  0
VERTEX
  5
F2
330
17
100
AcDbEntity
  8
TERRAIN_CONTOURS
100
AcDbVertex
100
AcDb3dPolylineVertex
 10
41.90979417506295
 20
19.3544165147253
 30
147.0
 70
32
  0
VERTEX
  5
F3
330
17
100
AcDbEntity
  8
TERRAIN_CONTOURS
100
AcDbVertex
100
AcDb3dPolylineVertex
 10
42.43182015240504
 20
18.361882334594526
 30
147.0
 70
32
  0
VERTEX
  5
F4
330
17
100
AcDbEntity
  8
TERRAIN_CONTOURS
100
AcDbVertex
100
AcDb3dPolylineVertex
 10
42.60549930751519
 20
17.369348154068263
 30
147.0
 70
32
  0
VERTEX
  5
F5
330
17
100
AcDbEntity
  8
TERRAIN_CONTOURS
100
AcDbVertex
100
AcDb3dPolylineVertex
 10
42.702940419492
 20
16.707324598376232
 30
147.0
 70
32
  0
VERTEX
  5
F6
330
17
100
AcDbEntity
  8
TERRAIN_CONTOURS
100
AcDbVertex
100
AcDb3dPolylineVertex
 10
42.747471550322416
 20
16.376813973937487
 30
147.0
 70
32
  0
VERTEX
  5
F7
330
17
100
AcDbEntity
  8
TERRAIN_CONTOURS
100
AcDbVertex
100
AcDb3dPolylineVertex
 10
42.702940419492
 20
15.930156661301993
 30
147.0
 70
32
  0
VERTEX
  5
F8
330
17
100
AcDbEntity
  8
TERRAIN_CONTOURS
100
AcDbVertex
100
AcDb3dPolylineVertex
 10
42.62612182852862
 20
15.384279793806712
 30
147.0
 70
32
  0
VERTEX
  5
F9
330
17
100
AcDbEntity
  8
TERRAIN_CONTOURS
100
AcDbVertex
100
AcDb3dPolylineVertex
 10
42.266935772095906
 20
14.391745613280449
 30
147.0
 70
32
  0
VERTEX
  5
FA
330
17
100
AcDbEntity
  8
TERRAIN_CONTOURS
100
AcDbVertex
100
AcDb3dPolylineVertex
 10
42.29660291686979
 20
13.399211433149674
 30
147.0
 70
32
  0
VERTEX
  5
FB
330
17
100
AcDbEntity
  8
TERRAIN_CONTOURS
100
AcDbVertex
100
AcDb3dPolylineVertex
 10
42.34876255592873
 20
12.406677253018898
 30
147.0
 70
32
  0
VERTEX
  5
FC
330
17
100
AcDbEntity
  8
TERRAIN_CONTOURS
100
AcDbVertex
100
AcDb3dPolylineVertex
 10
42.63902935787262
 20
11.414143072888123
 30
147.0
 70
32
  0
VERTEX
  5
FD
330
17
100
AcDbEntity
  8
TERRAIN_CONTOURS
100
AcDbVertex
100
AcDb3dPolylineVertex
 10
42.702940419492
 20
11.343401758130653
 30
147.0
 70
32
  0
VERTEX
  5
FE
330
17
100
AcDbEntity
  8
TERRAIN_CONTOURS
100
AcDbVertex
100
AcDb3dPolylineVertex
 10
43.68461721176728
 20
10.664971321815102
 30
147.0
 70
32
  0
VERTEX
  5
FF
330
17
100
AcDbEntity
  8
TERRAIN_CONTOURS
100
AcDbVertex
100
AcDb3dPolylineVertex
 10
43.958435982021655
 20
10.42160889236186
 30
147.0
 70
32
  0
VERTEX
  5
100
330
17
100
AcDbEntity
  8
TERRAIN_CONTOURS
100
AcDbVertex
100
AcDb3dPolylineVertex
 10
44.28217966891273
 20
9.429074712231085
 30
147.0
 70
32
  0
VERTEX
  5
101
330
17
100
AcDbEntity
  8
TERRAIN_CONTOURS
100
AcDbVertex
100
AcDb3dPolylineVertex
 10
44.666294002673865
 20
8.46596119539754
 30
147.0
 70
32
  0
SEQEND
  5
DB
330
DA
100
AcDbEntity
  8
TERRAIN_CONTOURS
  0
POLYLINE
  5
102
330
17
100
AcDbEntity
  8
TERRAIN_CONTOURS
100
AcDb3dPolyline
 66
1
 10
0.0
 20
0.0
 30
0.0
 70
9
  0
VERTEX
  5
104
330
17
100
AcDbEntity
  8
TERRAIN_CONTOURS
100
AcDbVertex
100
AcDb3dPolylineVertex
 10
45.15713239812715
 20
0.49626709026313165
 30
147.0
 70
32
  0
VERTEX
  5
105
330
17
100
AcDbEntity
  8
TERRAIN_CONTOURS
100
AcDbVertex
100
AcDb3dPolylineVertex
 10
45.15713239812715
 20
1.4888012703939069
 30
147.0
 70
32
  0
VERTEX
  5
106
330
17
100
AcDbEntity
  8
TERRAIN_CONTOURS
100
AcDbVertex
100
AcDb3dPolylineVertex
 10
45.15713239812715
 20
2.481335450524682
 30
147.0
 70
32
  0
VERTEX
  5
107
330
17
100
AcDbEntity
  8
TERRAIN_CONTOURS
100
AcDbVertex
100
AcDb3dPolylineVertex
 10
45.15713239812715
 20
3.4738696306554573
 30
147.0
 70
32
  0
VERTEX
  5
108
330
17
100
AcDbEntity
  8
TERRAIN_CONTOURS
100
AcDbVertex
100
AcDb3dPolylineVertex
 10
45.15713239812715
 20
4.466403811181721
 30
147.0
 70
32
  0
VERTEX
  5
109
330
17
100
AcDbEntity
  8
TERRAIN_CONTOURS
100
AcDbVertex
100
AcDb3dPolylineVertex
 10
45.15713239812715
 20
5.458937991312496
 30
147.0
 70
32
  0
VERTEX
  5
10A
330
17
100
AcDbEntity
  8
TERRAIN_CONTOURS
100
AcDbVertex
100
AcDb3dPolylineVertex
 10
44.666294002673865
 20
6.338126666041575
 30
147.0
 70
32
  0
VERTEX
  5
10B
330
17
100
AcDbEntity
  8
TERRAIN_CONTOURS
100
AcDbVertex
100
AcDb3dPolylineVertex
 10
44.591438387495415
 20
6.451472171443271
 30
147.0
 70
32
  0
VERTEX
  5
10C
330
17
100
AcDbEntity
  8
TERRAIN_CONTOURS
100
AcDbVertex
100
AcDb3dPolylineVertex
 10
44.211775420915835
 20
7.444006351969534
 30
147.0
 70
32
  0
VERTEX
  5
10D
330
17
100
AcDbEntity
  8
TERRAIN_CONTOURS
100
AcDbVertex
100
AcDb3dPolylineVertex
 10
43.68461721176728
 20
7.951619852274092
 30
147.0
 70
32
  0
VERTEX
  5
10E
330
17
100
AcDbEntity
  8
TERRAIN_CONTOURS
100
AcDbVertex
100
AcDb3dPolylineVertex
 10
43.01018350876971
 20
8.43654053210031
 30
147.0
 70
32
  0
VERTEX
  5
10F
330
17
100
AcDbEntity
  8
TERRAIN_CONTOURS
100
AcDbVertex
100
AcDb3dPolylineVertex
 10
42.702940419492
 20
8.795978168047043
 30
147.0
 70
32
  0
VERTEX
  5
110
330
17
100
AcDbEntity
  8
TERRAIN_CONTOURS
100
AcDbVertex
100
AcDb3dPolylineVertex
 10
42.3993245883701
 20
9.429074712231085
 30
147.0
 70
32
  0
VERTEX
  5
111
330
17
100
AcDbEntity
  8
TERRAIN_CONTOURS
100
AcDbVertex
100
AcDb3dPolylineVertex
 10
41.72126362858542
 20
10.171509903927785
 30
147.0
 70
32
  0
VERTEX
  5
112
330
17
100
AcDbEntity
  8
TERRAIN_CONTOURS
100
AcDbVertex
100
AcDb3dPolylineVertex
 10
41.56116362057179
 20
10.42160889236186
 30
147.0
 70
32
  0
VERTEX
  5
113
330
17
100
AcDbEntity
  8
TERRAIN_CONTOURS
100
AcDbVertex
100
AcDb3dPolylineVertex
 10
40.739586837678836
 20
11.252176306399235
 30
147.0
 70
32
  0
VERTEX
  5
114
330
17
100
AcDbEntity
  8
TERRAIN_CONTOURS
100
AcDbVertex
100
AcDb3dPolylineVertex
 10
40.641179764233556
 20
11.414143072888123
 30
147.0
 70
32
  0
VERTEX
  5
115
330
17
100
AcDbEntity
  8
TERRAIN_CONTOURS
100
AcDbVertex
100
AcDb3dPolylineVertex
 10
40.237105095565894
 20
12.406677253018898
 30
147.0
 70
32
  0
VERTEX
  5
116
330
17
100
AcDbEntity
  8
TERRAIN_CONTOURS
100
AcDbVertex
100
AcDb3dPolylineVertex
 10
39.75791004677225
 20
13.261879322571275
 30
147.0
 70
32
  0
VERTEX
  5
117
330
17
100
AcDbEntity
  8
TERRAIN_CONTOURS
100
AcDbVertex
100
AcDb3dPolylineVertex
 10
39.69632076997205
 20
13.399211433149674
 30
147.0
 70
32
  0
VERTEX
  5
118
330
17
100
AcDbEntity
  8
TERRAIN_CONTOURS
100
AcDbVertex
100
AcDb3dPolylineVertex
 10
39.31388595484341
 20
14.391745613280449
 30
147.0
 70
32
  0
VERTEX
  5
119
330
17
100
AcDbEntity
  8
TERRAIN_CONTOURS
100
AcDbVertex
100
AcDb3dPolylineVertex
 10
38.87182344263528
 20
15.384279793806712
 30
147.0
 70
32
  0
VERTEX
  5
11A
330
17
100
AcDbEntity
  8
TERRAIN_CONTOURS
100
AcDbVertex
100
AcDb3dPolylineVertex
 10
38.77623325449698
 20
15.676923535771436
 30
147.0
 70
32
  0
VERTEX
  5
11B
330
17
100
AcDbEntity
  8
TERRAIN_CONTOURS
100
AcDbVertex
100
AcDb3dPolylineVertex
 10
38.50951228002757
 20
16.376813973937487
 30
147.0
 70
32
  0
VERTEX
  5
11C
330
17
100
AcDbEntity
  8
TERRAIN_CONTOURS
100
AcDbVertex
100
AcDb3dPolylineVertex
 10
37.846173861726456
 20
17.369348154068263
 30
147.0
 70
32
  0
VERTEX
  5
11D
330
17
100
AcDbEntity
  8
TERRAIN_CONTOURS
100
AcDbVertex
100
AcDb3dPolylineVertex
 10
37.794556463590396
 20
17.410982003618045
 30
147.0
 70
32
  0
VERTEX
  5
11E
330
17
100
AcDbEntity
  8
TERRAIN_CONTOURS
100
AcDbVertex
100
AcDb3dPolylineVertex
 10
36.81287967268381
 20
17.772936057886284
 30
147.0
 70
32
  0
VERTEX
  5
11F
330
17
100
AcDbEntity
  8
TERRAIN_CONTOURS
100
AcDbVertex
100
AcDb3dPolylineVertex
 10
35.83120288177722
 20
17.90360744432448
 30
147.0
 70
32
  0
VERTEX
  5
120
330
17
100
AcDbEntity
  8
TERRAIN_CONTOURS
100
AcDbVertex
100
AcDb3dPolylineVertex
 10
34.84952608950195
 20
17.67840113257904
 30
147.0
 70
32
  0
VERTEX
  5
121
330
17
100
AcDbEntity
  8
TERRAIN_CONTOURS
100
AcDbVertex
100
AcDb3dPolylineVertex
 10
34.1982234241382
 20
17.369348154068263
 30
147.0
 70
32
  0
VERTEX
  5
122
330
17
100
AcDbEntity
  8
TERRAIN_CONTOURS
100
AcDbVertex
100
AcDb3dPolylineVertex
 10
33.86784929859537
 20
17.156614741647047
 30
147.0
 70
32
  0
VERTEX
  5
123
330
17
100
AcDbEntity
  8
TERRAIN_CONTOURS
100
AcDbVertex
100
AcDb3dPolylineVertex
 10
33.212772739060135
 20
16.376813973937487
 30
147.0
 70
32
  0
VERTEX
  5
124
330
17
100
AcDbEntity
  8
TERRAIN_CONTOURS
100
AcDbVertex
100
AcDb3dPolylineVertex
 10
32.886172507688784
 20
15.63988886859562
 30
147.0
 70
32
  0
VERTEX
  5
125
330
17
100
AcDbEntity
  8
TERRAIN_CONTOURS
100
AcDbVertex
100
AcDb3dPolylineVertex
 10
32.782341308676905
 20
15.384279793806712
 30
147.0
 70
32
  0
VERTEX
  5
126
330
17
100
AcDbEntity
  8
TERRAIN_CONTOURS
100
AcDbVertex
100
AcDb3dPolylineVertex
 10
32.23016514012956
 20
14.391745613280449
 30
147.0
 70
32
  0
VERTEX
  5
127
330
17
100
AcDbEntity
  8
TERRAIN_CONTOURS
100
AcDbVertex
100
AcDb3dPolylineVertex
 10
31.904495715413507
 20
13.887344019245234
 30
147.0
 70
32
  0
VERTEX
  5
128
330
17
100
AcDbEntity
  8
TERRAIN_CONTOURS
100
AcDbVertex
100
AcDb3dPolylineVertex
 10
31.603461493085923
 20
13.399211433149674
 30
147.0
 70
32
  0
VERTEX
  5
129
330
17
100
AcDbEntity
  8
TERRAIN_CONTOURS
100
AcDbVertex
100
AcDb3dPolylineVertex
 10
31.298483538531357
 20
12.406677253018898
 30
147.0
 70
32
  0
VERTEX
  5
12A
330
17
100
AcDbEntity
  8
TERRAIN_CONTOURS
100
AcDbVertex
100
AcDb3dPolylineVertex
 10
30.922818924506924
 20
11.807490084796228
 30
147.0
 70
32
  0
VERTEX
  5
12B
330
17
100
AcDbEntity
  8
TERRAIN_CONTOURS
100
AcDbVertex
100
AcDb3dPolylineVertex
 10
30.685465595238668
 20
11.414143072888123
 30
147.0
 70
32
  0
VERTEX
  5
12C
330
17
100
AcDbEntity
  8
TERRAIN_CONTOURS
100
AcDbVertex
100
AcDb3dPolylineVertex
 10
29.985477658040914
 20
10.42160889236186
 30
147.0
 70
32
  0
VERTEX
  5
12D
330
17
100
AcDbEntity
  8
TERRAIN_CONTOURS
100
AcDbVertex
100
AcDb3dPolylineVertex
 10
29.94114213360034
 20
10.340587125812135
 30
147.0
 70
32
  0
VERTEX
  5
12E
330
17
100
AcDbEntity
  8
TERRAIN_CONTOURS
100
AcDbVertex
100
AcDb3dPolylineVertex
 10
29.334757448461648
 20
9.429074712231085
 30
147.0
 70
32
  0
VERTEX
  5
12F
330
17
100
AcDbEntity
  8
TERRAIN_CONTOURS
100
AcDbVertex
100
AcDb3dPolylineVertex
 10
28.959465342693758
 20
9.014319717416015
 30
147.0
 70
32
  0
VERTEX
  5
130
330
17
100
AcDbEntity
  8
TERRAIN_CONTOURS
100
AcDbVertex
100
AcDb3dPolylineVertex
 10
28.441242502962425
 20
8.43654053210031
 30
147.0
 70
32
  0
VERTEX
  5
131
330
17
100
AcDbEntity
  8
TERRAIN_CONTOURS
100
AcDbVertex
100
AcDb3dPolylineVertex
 10
27.97778855041848
 20
7.859764245644811
 30
147.0
 70
32
  0
VERTEX
  5
132
330
17
100
AcDbEntity
  8
TERRAIN_CONTOURS
100
AcDbVertex
100
AcDb3dPolylineVertex
 10
27.20589875512756
 20
8.43654053210031
 30
147.0
 70
32
  0
VERTEX
  5
133
330
17
100
AcDbEntity
  8
TERRAIN_CONTOURS
100
AcDbVertex
100
AcDb3dPolylineVertex
 10
26.996111759511898
 20
8.63092132697588
 30
147.0
 70
32
  0
VERTEX
  5
134
330
17
100
AcDbEntity
  8
TERRAIN_CONTOURS
100
AcDbVertex
100
AcDb3dPolylineVertex
 10
26.624077451716797
 20
9.429074712231085
 30
147.0
 70
32
  0
VERTEX
  5
135
330
17
100
AcDbEntity
  8
TERRAIN_CONTOURS
100
AcDbVertex
100
AcDb3dPolylineVertex
 10
26.699742619898508
 20
10.42160889236186
 30
147.0
 70
32
  0
VERTEX
  5
136
330
17
100
AcDbEntity
  8
TERRAIN_CONTOURS
100
AcDbVertex
100
AcDb3dPolylineVertex
 10
26.692926365099414
 20
11.414143072888123
 30
147.0
 70
32
  0
VERTEX
  5
137
330
17
100
AcDbEntity
  8
TERRAIN_CONTOURS
100
AcDbVertex
100
AcDb3dPolylineVertex
 10
26.668939099381994
 20
12.406677253018898
 30
147.0
 70
32
  0
VERTEX
  5
138
330
17
100
AcDbEntity
  8
TERRAIN_CONTOURS
100
AcDbVertex
100
AcDb3dPolylineVertex
 10
26.647177626750583
 20
13.399211433149674
 30
147.0
 70
32
  0
VERTEX
  5
139
330
17
100
AcDbEntity
  8
TERRAIN_CONTOURS
100
AcDbVertex
100
AcDb3dPolylineVertex
 10
26.455522275209947
 20
14.391745613280449
 30
147.0
 70
32
  0
VERTEX
  5
13A
330
17
100
AcDbEntity
  8
TERRAIN_CONTOURS
100
AcDbVertex
100
AcDb3dPolylineVertex
 10
26.18233232375898
 20
15.384279793806712
 30
147.0
 70
32
  0
VERTEX
  5
13B
330
17
100
AcDbEntity
  8
TERRAIN_CONTOURS
100
AcDbVertex
100
AcDb3dPolylineVertex
 10
26.014434968605315
 20
15.77243350966782
 30
147.0
 70
32
  0
VERTEX
  5
13C
330
17
100
AcDbEntity
  8
TERRAIN_CONTOURS
100
AcDbVertex
100
AcDb3dPolylineVertex
 10
25.70188046541622
 20
16.376813973937487
 30
147.0
 70
32
  0
VERTEX
  5
13D
330
17
100
AcDbEntity
  8
TERRAIN_CONTOURS
100
AcDbVertex
100
AcDb3dPolylineVertex
 10
25.032758177698728
 20
17.253627512531722
 30
147.0
 70
32
  0
VERTEX
  5
13E
330
17
100
AcDbEntity
  8
TERRAIN_CONTOURS
100
AcDbVertex
100
AcDb3dPolylineVertex
 10
24.916741406159915
 20
17.369348154068263
 30
147.0
 70
32
  0
VERTEX
  5
13F
330
17
100
AcDbEntity
  8
TERRAIN_CONTOURS
100
AcDbVertex
100
AcDb3dPolylineVertex
 10
24.051081385423455
 20
17.964926270839783
 30
147.0
 70
32
  0
VERTEX
  5
140
330
17
100
AcDbEntity
  8
TERRAIN_CONTOURS
100
AcDbVertex
100
AcDb3dPolylineVertex
 10
23.06940459451687
 20
18.287400750184588
 30
147.0
 70
32
  0
VERTEX
  5
141
330
17
100
AcDbEntity
  8
TERRAIN_CONTOURS
100
AcDbVertex
100
AcDb3dPolylineVertex
 10
22.77710757302823
 20
18.361882334594526
 30
147.0
 70
32
  0
VERTEX
  5
142
330
17
100
AcDbEntity
  8
TERRAIN_CONTOURS
100
AcDbVertex
100
AcDb3dPolylineVertex
 10
22.087727803610285
 20
18.537963476084514
 30
147.0
 70
32
  0
VERTEX
  5
143
330
17
100
AcDbEntity
  8
TERRAIN_CONTOURS
100
AcDbVertex
100
AcDb3dPolylineVertex
 10
21.106051012703702
 20
18.768828493861918
 30
147.0
 70
32
  0
VERTEX
  5
144
330
17
100
AcDbEntity
  8
TERRAIN_CONTOURS
100
AcDbVertex
100
AcDb3dPolylineVertex
 10
20.12437422042843
 20
18.84176773722075
 30
147.0
 70
32
  0
VERTEX
  5
145
330
17
100
AcDbEntity
  8
TERRAIN_CONTOURS
100
AcDbVertex
100
AcDb3dPolylineVertex
 10
19.142697429521842
 20
18.77847809430179
 30
147.0
 70
32
  0
VERTEX
  5
146
330
17
100
AcDbEntity
  8
TERRAIN_CONTOURS
100
AcDbVertex
100
AcDb3dPolylineVertex
 10
18.16102063861526
 20
18.58729844446472
 30
147.0
 70
32
  0
VERTEX
  5
147
330
17
100
AcDbEntity
  8
TERRAIN_CONTOURS
100
AcDbVertex
100
AcDb3dPolylineVertex
 10
17.425781381895334
 20
18.361882334594526
 30
147.0
 70
32
  0
VERTEX
  5
148
330
17
100
AcDbEntity
  8
TERRAIN_CONTOURS
100
AcDbVertex
100
AcDb3dPolylineVertex
 10
17.179343847708676
 20
18.303256465163855
 30
147.0
 70
32
  0
VERTEX
  5
149
330
17
100
AcDbEntity
  8
TERRAIN_CONTOURS
100
AcDbVertex
100
AcDb3dPolylineVertex
 10
16.1976670554334
 20
17.906717493032573
 30
147.0
 70
32
  0
VERTEX
  5
14A
330
17
100
AcDbEntity
  8
TERRAIN_CONTOURS
100
AcDbVertex
100
AcDb3dPolylineVertex
 10
15.215990264526816
 20
17.38108411631572
 30
147.0
 70
32
  0
VERTEX
  5
14B
330
17
100
AcDbEntity
  8
TERRAIN_CONTOURS
100
AcDbVertex
100
AcDb3dPolylineVertex
 10
15.192330570222422
 20
17.369348154068263
 30
147.0
 70
32
  0
VERTEX
  5
14C
330
17
100
AcDbEntity
  8
TERRAIN_CONTOURS
100
AcDbVertex
100
AcDb3dPolylineVertex
 10
14.234313473620231
 20
16.82526918530243
 30
147.0
 70
32
  0
VERTEX
  5
14D
330
17
100
AcDbEntity
  8
TERRAIN_CONTOURS
100
AcDbVertex
100
AcDb3dPolylineVertex
 10
13.445517019014009
 20
16.376813973937487
 30
147.0
 70
32
  0
VERTEX
  5
14E
330
17
100
AcDbEntity
  8
TERRAIN_CONTOURS
100
AcDbVertex
100
AcDb3dPolylineVertex
 10
13.252636682713648
 20
16.28404611748138
 30
147.0
 70
32
  0
VERTEX
  5
14F
330
17
100
AcDbEntity
  8
TERRAIN_CONTOURS
100
AcDbVertex
100
AcDb3dPolylineVertex
 10
12.270959890438373
 20
15.686941582404614
 30
147.0
 70
32
  0
VERTEX
  5
150
330
17
100
AcDbEntity
  8
TERRAIN_CONTOURS
100
AcDbVertex
100
AcDb3dPolylineVertex
 10
11.631675219253927
 20
15.384279793806712
 30
147.0
 70
32
  0
VERTEX
  5
151
330
17
100
AcDbEntity
  8
TERRAIN_CONTOURS
100
AcDbVertex
100
AcDb3dPolylineVertex
 10
11.289283099531788
 20
15.264748559694539
 30
147.0
 70
32
  0
VERTEX
  5
152
330
17
100
AcDbEntity
  8
TERRAIN_CONTOURS
100
AcDbVertex
100
AcDb3dPolylineVertex
 10
10.307606308625205
 20
15.009030676245771
 30
147.0
 70
32
  0
VERTEX
  5
153
330
17
100
AcDbEntity
  8
TERRAIN_CONTOURS
100
AcDbVertex
100
AcDb3dPolylineVertex
 10
9.32592951634993
 20
14.778876676442394
 30
147.0
 70
32
  0
VERTEX
  5
154
330
17
100
AcDbEntity
  8
TERRAIN_CONTOURS
100
AcDbVertex
100
AcDb3dPolylineVertex
 10
8.344252725443345
 20
14.493260871283837
 30
147.0
 70
32
  0
VERTEX
  5
155
330
17
100
AcDbEntity
  8
TERRAIN_CONTOURS
100
AcDbVertex
100
AcDb3dPolylineVertex
 10
7.362575934536762
 20
14.539047365914115
 30
147.0
 70
32
  0
VERTEX
  5
156
330
17
100
AcDbEntity
  8
TERRAIN_CONTOURS
100
AcDbVertex
100
AcDb3dPolylineVertex
 10
6.380899143630177
 20
14.736847663501607
 30
147.0
 70
32
  0
VERTEX
  5
157
330
17
100
AcDbEntity
  8
TERRAIN_CONTOURS
100
AcDbVertex
100
AcDb3dPolylineVertex
 10
5.399222351354903
 20
14.78917989885673
 30
147.0
 70
32
  0
VERTEX
  5
158
330
17
100
AcDbEntity
  8
TERRAIN_CONTOURS
100
AcDbVertex
100
AcDb3dPolylineVertex
 10
4.417545560448319
 20
14.917917314934357
 30
147.0
 70
32
  0
VERTEX
  5
159
330
17
100
AcDbEntity
  8
TERRAIN_CONTOURS
100
AcDbVertex
100
AcDb3dPolylineVertex
 10
3.435868769541735
 20
15.172996875469806
 30
147.0
 70
32
  0
VERTEX
  5
15A
330
17
100
AcDbEntity
  8
TERRAIN_CONTOURS
100
AcDbVertex
100
AcDb3dPolylineVertex
 10
2.578217393002
 20
15.384279793806712
 30
147.0
 70
32
  0
VERTEX
  5
15B
330
17
100
AcDbEntity
  8
TERRAIN_CONTOURS
100
AcDbVertex
100
AcDb3dPolylineVertex
 10
2.454191978635151
 20
15.461669105502267
 30
147.0
 70
32
  0
VERTEX
  5
15C
330
17
100
AcDbEntity
  8
TERRAIN_CONTOURS
100
AcDbVertex
100
AcDb3dPolylineVertex
 10
1.4725151863598762
 20
15.991638652359796
 30
147.0
 70
32
  0
VERTEX
  5
15D
330
17
100
AcDbEntity
  8
TERRAIN_CONTOURS
100
AcDbVertex
100
AcDb3dPolylineVertex
 10
0.49083839545329205
 20
16.26767148970231
 30
147.0
 70
32
  0
VERTEX
  5
15E
330
17
100
AcDbEntity
  8
TERRAIN_CONTOURS
100
AcDbVertex
100
AcDb3dPolylineVertex
 10
0.0
 20
15.384279793806712
 30
147.0
 70
32
  0
VERTEX
  5
15F
330
17
100
AcDbEntity
  8
TERRAIN_CONTOURS
100
AcDbVertex
100
AcDb3dPolylineVertex
 10
0.0
 20
14.391745613280449
 30
147.0
 70
32
  0
VERTEX
  5
160
330
17
100
AcDbEntity
  8
TERRAIN_CONTOURS
100
AcDbVertex
100
AcDb3dPolylineVertex
 10
0.0
 20
13.399211433149674
 30
147.0
 70
32
  0
VERTEX
  5
161
330
17
100
AcDbEntity
  8
TERRAIN_CONTOURS
100
AcDbVertex
100
AcDb3dPolylineVertex
 10
0.0
 20
12.406677253018898
 30
147.0
 70
32
  0
VERTEX
  5
162
330
17
100
AcDbEntity
  8
TERRAIN_CONTOURS
100
AcDbVertex
100
AcDb3dPolylineVertex
 10
0.0
 20
11.414143072888123
 30
147.0
 70
32
  0
VERTEX
  5
163
330
17
100
AcDbEntity
  8
TERRAIN_CONTOURS
100
AcDbVertex
100
AcDb3dPolylineVertex
 10
0.0
 20
10.42160889236186
 30
147.0
 70
32
  0
VERTEX
  5
164
330
17
100
AcDbEntity
  8
TERRAIN_CONTOURS
100
AcDbVertex
100
AcDb3dPolylineVertex
 10
0.0
 20
9.429074712231085
 30
147.0
 70
32
  0
VERTEX
  5
165
330
17
100
AcDbEntity
  8
TERRAIN_CONTOURS
100
AcDbVertex
100
AcDb3dPolylineVertex
 10
0.0
 20
8.43654053210031
 30
147.0
 70
32
  0
VERTEX
  5
166
330
17
100
AcDbEntity
  8
TERRAIN_CONTOURS
100
AcDbVertex
100
AcDb3dPolylineVertex
 10
0.0
 20
7.444006351969534
 30
147.0
 70
32
  0
VERTEX
  5
167
330
17
100
AcDbEntity
  8
TERRAIN_CONTOURS
100
AcDbVertex
100
AcDb3dPolylineVertex
 10
0.0
 20
6.451472171443271
 30
147.0
 70
32
  0
VERTEX
  5
168
330
17
100
AcDbEntity
  8
TERRAIN_CONTOURS
100
AcDbVertex
100
AcDb3dPolylineVertex
 10
0.0
 20
5.458937991312496
 30
147.0
 70
32
  0
VERTEX
  5
169
330
17
100
AcDbEntity
  8
TERRAIN_CONTOURS
100
AcDbVertex
100
AcDb3dPolylineVertex
 10
0.0
 20
4.466403811181721
 30
147.0
 70
32
  0
VERTEX
  5
16A
330
17
100
AcDbEntity
  8
TERRAIN_CONTOURS
100
AcDbVertex
100
AcDb3dPolylineVertex
 10
0.0
 20
3.4738696306554573
 30
147.0
 70
32
  0
VERTEX
  5
16B
330
17
100
AcDbEntity
  8
TERRAIN_CONTOURS
100
AcDbVertex
100
AcDb3dPolylineVertex
 10
0.0
 20
2.481335450524682
 30
147.0
 70
32
  0
VERTEX
  5
16C
330
17
100
AcDbEntity
  8
TERRAIN_CONTOURS
100
AcDbVertex
100
AcDb3dPolylineVertex
 10
0.0
 20
1.4888012703939069
 30
147.0
 70
32
  0
VERTEX
  5
16D
330
17
100
AcDbEntity
  8
TERRAIN_CONTOURS
100
AcDbVertex
100
AcDb3dPolylineVertex
 10
0.0
 20
0.49626709026313165
 30
147.0
 70
32
  0
VERTEX
  5
16E
330
17
100
AcDbEntity
  8
TERRAIN_CONTOURS
100
AcDbVertex
100
AcDb3dPolylineVertex
 10
0.49083839545329205
 20
0.0
 30
147.0
 70
32
  0
VERTEX
  5
16F
330
17
100
AcDbEntity
  8
TERRAIN_CONTOURS
100
AcDbVertex
100
AcDb3dPolylineVertex
 10
1.4725151863598762
 20
0.0
 30
147.0
 70
32
  0
VERTEX
  5
170
330
17
100
AcDbEntity
  8
TERRAIN_CONTOURS
100
AcDbVertex
100
AcDb3dPolylineVertex
 10
2.454191978635151
 20
0.0
 30
147.0
 70
32
  0
VERTEX
  5
171
330
17
100
AcDbEntity
  8
TERRAIN_CONTOURS
100
AcDbVertex
100
AcDb3dPolylineVertex
 10
3.435868769541735
 20
0.0
 30
147.0
 70
32
  0
VERTEX
  5
172
330
17
100
AcDbEntity
  8
TERRAIN_CONTOURS
100
AcDbVertex
100
AcDb3dPolylineVertex
 10
4.417545560448319
 20
0.0
 30
147.0
 70
32
  0
VERTEX
  5
173
330
17
100
AcDbEntity
  8
TERRAIN_CONTOURS
100
AcDbVertex
100
AcDb3dPolylineVertex
 10
5.399222351354903
 20
0.0
 30
147.0
 70
32
  0
VERTEX
  5
174
330
17
100
AcDbEntity
  8
TERRAIN_CONTOURS
100
AcDbVertex
100
AcDb3dPolylineVertex
 10
6.380899143630177
 20
0.0
 30
147.0
 70
32
  0
VERTEX
  5
175
330
17
100
AcDbEntity
  8
TERRAIN_CONTOURS
100
AcDbVertex
100
AcDb3dPolylineVertex
 10
7.362575934536762
 20
0.0
 30
147.0
 70
32
  0
VERTEX
  5
176
330
17
100
AcDbEntity
  8
TERRAIN_CONTOURS
100
AcDbVertex
100
AcDb3dPolylineVertex
 10
8.344252725443345
 20
0.0
 30
147.0
 70
32
  0
VERTEX
  5
177
330
17
100
AcDbEntity
  8
TERRAIN_CONTOURS
100
AcDbVertex
100
AcDb3dPolylineVertex
 10
9.32592951634993
 20
0.0
 30
147.0
 70
32
  0
VERTEX
  5
178
330
17
100
AcDbEntity
  8
TERRAIN_CONTOURS
100
AcDbVertex
100
AcDb3dPolylineVertex
 10
10.307606308625205
 20
0.0
 30
147.0
 70
32
  0
VERTEX
  5
179
330
17
100
AcDbEntity
  8
TERRAIN_CONTOURS
100
AcDbVertex
100
AcDb3dPolylineVertex
 10
11.289283099531788
 20
0.0
 30
147.0
 70
32
  0
VERTEX
  5
17A
330
17
100
AcDbEntity
  8
TERRAIN_CONTOURS
100
AcDbVertex
100
AcDb3dPolylineVertex
 10
12.270959890438373
 20
0.0
 30
147.0
 70
32
  0
VERTEX
  5
17B
330
17
100
AcDbEntity
  8
TERRAIN_CONTOURS
100
AcDbVertex
100
AcDb3dPolylineVertex
 10
13.252636682713648
 20
0.0
 30
147.0
 70
32
  0
VERTEX
  5
17C
330
17
100
AcDbEntity
  8
TERRAIN_CONTOURS
100
AcDbVertex
100
AcDb3dPolylineVertex
 10
14.234313473620231
 20
0.0
 30
147.0
 70
32
  0
VERTEX
  5
17D
330
17
100
AcDbEntity
  8
TERRAIN_CONTOURS
100
AcDbVertex
100
AcDb3dPolylineVertex
 10
15.215990264526816
 20
0.0
 30
147.0
 70
32
  0
VERTEX
  5
17E
330
17
100
AcDbEntity
  8
TERRAIN_CONTOURS
100
AcDbVertex
100
AcDb3dPolylineVertex
 10
16.1976670554334
 20
0.0
 30
147.0
 70
32
  0
VERTEX
  5
17F
330
17
100
AcDbEntity
  8
TERRAIN_CONTOURS
100
AcDbVertex
100
AcDb3dPolylineVertex
 10
17.179343847708676
 20
0.0
 30
147.0
 70
32
  0
VERTEX
  5
180
330
17
100
AcDbEntity
  8
TERRAIN_CONTOURS
100
AcDbVertex
100
AcDb3dPolylineVertex
 10
18.16102063861526
 20
0.0
 30
147.0
 70
32
  0
VERTEX
  5
181
330
17
100
AcDbEntity
  8
TERRAIN_CONTOURS
100
AcDbVertex
100
AcDb3dPolylineVertex
 10
19.142697429521842
 20
0.0
 30
147.0
 70
32
  0
VERTEX
  5
182
330
17
100
AcDbEntity
  8
TERRAIN_CONTOURS
100
AcDbVertex
100
AcDb3dPolylineVertex
 10
20.12437422042843
 20
0.0
 30
147.0
 70
32
  0
VERTEX
  5
183
330
17
100
AcDbEntity
  8
TERRAIN_CONTOURS
100
AcDbVertex
100
AcDb3dPolylineVertex
 10
21.106051012703702
 20
0.0
 30
147.0
 70
32
  0
VERTEX
  5
184
330
17
100
AcDbEntity
  8
TERRAIN_CONTOURS
100
AcDbVertex
100
AcDb3dPolylineVertex
 10
22.087727803610285
 20
0.0
 30
147.0
 70
32
  0
VERTEX
  5
185
330
17
100
AcDbEntity
  8
TERRAIN_CONTOURS
100
AcDbVertex
100
AcDb3dPolylineVertex
 10
23.06940459451687
 20
0.0
 30
147.0
 70
32
  0
VERTEX
  5
186
330
17
100
AcDbEntity
  8
TERRAIN_CONTOURS
100
AcDbVertex
100
AcDb3dPolylineVertex
 10
24.051081385423455
 20
0.0
 30
147.0
 70
32
  0
VERTEX
  5
187
330
17
100
AcDbEntity
  8
TERRAIN_CONTOURS
100
AcDbVertex
100
AcDb3dPolylineVertex
 10
25.032758177698728
 20
0.0
 30
147.0
 70
32
  0
VERTEX
  5
188
330
17
100
AcDbEntity
  8
TERRAIN_CONTOURS
100
AcDbVertex
100
AcDb3dPolylineVertex
 10
26.014434968605315
 20
0.0
 30
147.0
 70
32
  0
VERTEX
  5
189
330
17
100
AcDbEntity
  8
TERRAIN_CONTOURS
100
AcDbVertex
100
AcDb3dPolylineVertex
 10
26.996111759511898
 20
0.0
 30
147.0
 70
32
  0
VERTEX
  5
18A
330
17
100
AcDbEntity
  8
TERRAIN_CONTOURS
100
AcDbVertex
100
AcDb3dPolylineVertex
 10
27.97778855041848
 20
0.0
 30
147.0
 70
32
  0
VERTEX
  5
18B
330
17
100
AcDbEntity
  8
TERRAIN_CONTOURS
100
AcDbVertex
100
AcDb3dPolylineVertex
 10
28.959465342693758
 20
0.0
 30
147.0
 70
32
  0
VERTEX
  5
18C
330
17
100
AcDbEntity
  8
TERRAIN_CONTOURS
100
AcDbVertex
100
AcDb3dPolylineVertex
 10
29.94114213360034
 20
0.0
 30
147.0
 70
32
  0
VERTEX
  5
18D
330
17
100
AcDbEntity
  8
TERRAIN_CONTOURS
100
AcDbVertex
100
AcDb3dPolylineVertex
 10
30.922818924506924
 20
0.0
 30
147.0
 70
32
  0
VERTEX
  5
18E
330
17
100
AcDbEntity
  8
TERRAIN_CONTOURS
100
AcDbVertex
100
AcDb3dPolylineVertex
 10
31.904495715413507
 20
0.0
 30
147.0
 70
32
  0
VERTEX
  5
18F
330
17
100
AcDbEntity
  8
TERRAIN_CONTOURS
100
AcDbVertex
100
AcDb3dPolylineVertex
 10
32.886172507688784
 20
0.0
 30
147.0
 70
32
  0
VERTEX
  5
190
330
17
100
AcDbEntity
  8
TERRAIN_CONTOURS
100
AcDbVertex
100
AcDb3dPolylineVertex
 10
33.86784929859537
 20
0.0
 30
147.0
 70
32
  0
VERTEX
  5
191
330
17
100
AcDbEntity
  8
TERRAIN_CONTOURS
100
AcDbVertex
100
AcDb3dPolylineVertex
 10
34.84952608950195
 20
0.0
 30
147.0
 70
32
  0
VERTEX
  5
192
330
17
100
AcDbEntity
  8
TERRAIN_CONTOURS
100
AcDbVertex
100
AcDb3dPolylineVertex
 10
35.83120288177722
 20
0.0
 30
147.0
 70
32
  0
VERTEX
  5
193
330
17
100
AcDbEntity
  8
TERRAIN_CONTOURS
100
AcDbVertex
100
AcDb3dPolylineVertex
 10
36.81287967268381
 20
0.0
 30
147.0
 70
32
  0
VERTEX
  5
194
330
17
100
AcDbEntity
  8
TERRAIN_CONTOURS
100
AcDbVertex
100
AcDb3dPolylineVertex
 10
37.794556463590396
 20
0.0
 30
147.0
 70
32
  0
VERTEX
  5
195
330
17
100
AcDbEntity
  8
TERRAIN_CONTOURS
100
AcDbVertex
100
AcDb3dPolylineVertex
 10
38.77623325449698
 20
0.0
 30
147.0
 70
32
  0
VERTEX
  5
196
330
17
100
AcDbEntity
  8
TERRAIN_CONTOURS
100
AcDbVertex
100
AcDb3dPolylineVertex
 10
39.75791004677225
 20
0.0
 30
147.0
 70
32
  0
VERTEX
  5
197
330
17
100
AcDbEntity
  8
TERRAIN_CONTOURS
100
AcDbVertex
100
AcDb3dPolylineVertex
 10
40.739586837678836
 20
0.0
 30
147.0
 70
32
  0
VERTEX
  5
198
330
17
100
AcDbEntity
  8
TERRAIN_CONTOURS
100
AcDbVertex
100
AcDb3dPolylineVertex
 10
41.72126362858542
 20
0.0
 30
147.0
 70
32
  0
VERTEX
  5
199
330
17
100
AcDbEntity
  8
TERRAIN_CONTOURS
100
AcDbVertex
100
AcDb3dPolylineVertex
 10
42.702940419492
 20
0.0
 30
147.0
 70
32
  0
VERTEX
  5
19A
330
17
100
AcDbEntity
  8
TERRAIN_CONTOURS
100
AcDbVertex
100
AcDb3dPolylineVertex
 10
43.68461721176728
 20
0.0
 30
147.0
 70
32
  0
VERTEX
  5
19B
330
17
100
AcDbEntity
  8
TERRAIN_CONTOURS
100
AcDbVertex
100
AcDb3dPolylineVertex
 10
44.666294002673865
 20
0.0
 30
147.0
 70
32
  0
SEQEND
  5
103
330
102
100
AcDbEntity
  8
TERRAIN_CONTOURS
  0
POLYLINE
  5
19C
330
17
100
AcDbEntity
  8
TERRAIN_CONTOURS
100
AcDb3dPolyline
 66
1
 10
0.0
 20
0.0
 30
0.0
 70
9
  0
VERTEX
  5
19E
330
17
100
AcDbEntity
  8
TERRAIN_CONTOURS
100
AcDbVertex
100
AcDb3dPolylineVertex
 10
45.15713239812715
 20
17.369348154068263
 30
148.0
 70
32
  0
VERTEX
  5
19F
330
17
100
AcDbEntity
  8
TERRAIN_CONTOURS
100
AcDbVertex
100
AcDb3dPolylineVertex
 10
45.15713239812715
 20
18.361882334594526
 30
148.0
 70
32
  0
VERTEX
  5
1A0
330
17
100
AcDbEntity
  8
TERRAIN_CONTOURS
100
AcDbVertex
100
AcDb3dPolylineVertex
 10
45.15713239812715
 20
19.3544165147253
 30
148.0
 70
32
  0
VERTEX
  5
1A1
330
17
100
AcDbEntity
  8
TERRAIN_CONTOURS
100
AcDbVertex
100
AcDb3dPolylineVertex
 10
45.15713239812715
 20
20.346950694856076
 30
148.0
 70
32
  0
VERTEX
  5
1A2
330
17
100
AcDbEntity
  8
TERRAIN_CONTOURS
100
AcDbVertex
100
AcDb3dPolylineVertex
 10
45.15713239812715
 20
21.33948487498685
 30
148.0
 70
32
  0
VERTEX
  5
1A3
330
17
100
AcDbEntity
  8
TERRAIN_CONTOURS
100
AcDbVertex
100
AcDb3dPolylineVertex
 10
44.666294002673865
 20
21.835751965249983
 30
148.0
 70
32
  0
VERTEX
  5
1A4
330
17
100
AcDbEntity
  8
TERRAIN_CONTOURS
100
AcDbVertex
100
AcDb3dPolylineVertex
 10
43.68461721176728
 20
21.835751965249983
 30
148.0
 70
32
  0
VERTEX
  5
1A5
330
17
100
AcDbEntity
  8
TERRAIN_CONTOURS
100
AcDbVertex
100
AcDb3dPolylineVertex
 10
42.702940419492
 20
21.835751965249983
 30
148.0
 70
32
  0
VERTEX
  5
1A6
330
17
100
AcDbEntity
  8
TERRAIN_CONTOURS
100
AcDbVertex
100
AcDb3dPolylineVertex
 10
41.72126362858542
 20
21.835751965249983
 30
148.0
 70
32
  0
VERTEX
  5
1A7
330
17
100
AcDbEntity
  8
TERRAIN_CONTOURS
100
AcDbVertex
100
AcDb3dPolylineVertex
 10
41.62164994504916
 20
21.33948487498685
 30
148.0
 70
32
  0
VERTEX
  5
1A8
330
17
100
AcDbEntity
  8
TERRAIN_CONTOURS
100
AcDbVertex
100
AcDb3dPolylineVertex
 10
41.72126362858542
 20
21.266338358694696
 30
148.0
 70
32
  0
VERTEX
  5
1A9
330
17
100
AcDbEntity
  8
TERRAIN_CONTOURS
100
AcDbVertex
100
AcDb3dPolylineVertex
 10
42.614273762738385
 20
20.346950694856076
 30
148.0
 70
32
  0
VERTEX
  5
1AA
330
17
100
AcDbEntity
  8
TERRAIN_CONTOURS
100
AcDbVertex
100
AcDb3dPolylineVertex
 10
42.702940419492
 20
20.232242207787436
 30
148.0
 70
32
  0
VERTEX
  5
1AB
330
17
100
AcDbEntity
  8
TERRAIN_CONTOURS
100
AcDbVertex
100
AcDb3dPolylineVertex
 10
43.37922115650995
 20
19.3544165147253
 30
148.0
 70
32
  0
VERTEX
  5
1AC
330
17
100
AcDbEntity
  8
TERRAIN_CONTOURS
100
AcDbVertex
100
AcDb3dPolylineVertex
 10
43.68461721176728
 20
18.81452234105751
 30
148.0
 70
32
  0
VERTEX
  5
1AD
330
17
100
AcDbEntity
  8
TERRAIN_CONTOURS
100
AcDbVertex
100
AcDb3dPolylineVertex
 10
43.98867253622304
 20
18.361882334594526
 30
148.0
 70
32
  0
VERTEX
  5
1AE
330
17
100
AcDbEntity
  8
TERRAIN_CONTOURS
100
AcDbVertex
100
AcDb3dPolylineVertex
 10
44.49738011157242
 20
17.369348154068263
 30
148.0
 70
32
  0
VERTEX
  5
1AF
330
17
100
AcDbEntity
  8
TERRAIN_CONTOURS
100
AcDbVertex
100
AcDb3dPolylineVertex
 10
44.666294002673865
 20
16.811472148755655
 30
148.0
 70
32
  0
SEQEND
  5
19D
330
19C
100
AcDbEntity
  8
TERRAIN_CONTOURS
  0
POLYLINE
  5
1B0
330
17
100
AcDbEntity
  8
TERRAIN_CONTOURS
100
AcDb3dPolyline
 66
1
 10
0.0
 20
0.0
 30
0.0
 70
9
  0
VERTEX
  5
1B2
330
17
100
AcDbEntity
  8
TERRAIN_CONTOURS
100
AcDbVertex
100
AcDb3dPolylineVertex
 10
24.7681963835218
 20
0.49626709026313165
 30
148.0
 70
32
  0
VERTEX
  5
1B3
330
17
100
AcDbEntity
  8
TERRAIN_CONTOURS
100
AcDbVertex
100
AcDb3dPolylineVertex
 10
24.413167718732403
 20
1.4888012703939069
 30
148.0
 70
32
  0
VERTEX
  5
1B4
330
17
100
AcDbEntity
  8
TERRAIN_CONTOURS
100
AcDbVertex
100
AcDb3dPolylineVertex
 10
24.287803558165084
 20
2.481335450524682
 30
148.0
 70
32
  0
VERTEX
  5
1B5
330
17
100
AcDbEntity
  8
TERRAIN_CONTOURS
100
AcDbVertex
100
AcDb3dPolylineVertex
 10
24.051081385423455
 20
3.1089956182370315
 30
148.0
 70
32
  0
VERTEX
  5
1B6
330
17
100
AcDbEntity
  8
TERRAIN_CONTOURS
100
AcDbVertex
100
AcDb3dPolylineVertex
 10
23.955573344714825
 20
3.4738696306554573
 30
148.0
 70
32
  0
VERTEX
  5
1B7
330
17
100
AcDbEntity
  8
TERRAIN_CONTOURS
100
AcDbVertex
100
AcDb3dPolylineVertex
 10
23.734430705269602
 20
4.466403811181721
 30
148.0
 70
32
  0
VERTEX
  5
1B8
330
17
100
AcDbEntity
  8
TERRAIN_CONTOURS
100
AcDbVertex
100
AcDb3dPolylineVertex
 10
23.750135345081556
 20
5.458937991312496
 30
148.0
 70
32
  0
VERTEX
  5
1B9
330
17
100
AcDbEntity
  8
TERRAIN_CONTOURS
100
AcDbVertex
100
AcDb3dPolylineVertex
 10
23.920699600341088
 20
6.451472171443271
 30
148.0
 70
32
  0
VERTEX
  5
1BA
330
17
100
AcDbEntity
  8
TERRAIN_CONTOURS
100
AcDbVertex
100
AcDb3dPolylineVertex
 10
24.051081385423455
 20
6.750732897356784
 30
148.0
 70
32
  0
VERTEX
  5
1BB
330
17
100
AcDbEntity
  8
TERRAIN_CONTOURS
100
AcDbVertex
100
AcDb3dPolylineVertex
 10
24.44182578692124
 20
7.444006351969534
 30
148.0
 70
32
  0
VERTEX
  5
1BC
330
17
100
AcDbEntity
  8
TERRAIN_CONTOURS
100
AcDbVertex
100
AcDb3dPolylineVertex
 10
24.658936391709037
 20
8.43654053210031
 30
148.0
 70
32
  0
VERTEX
  5
1BD
330
17
100
AcDbEntity
  8
TERRAIN_CONTOURS
100
AcDbVertex
100
AcDb3dPolylineVertex
 10
24.668828811051476
 20
9.429074712231085
 30
148.0
 70
32
  0
VERTEX
  5
1BE
330
17
100
AcDbEntity
  8
TERRAIN_CONTOURS
100
AcDbVertex
100
AcDb3dPolylineVertex
 10
24.69516615789359
 20
10.42160889236186
 30
148.0
 70
32
  0
VERTEX
  5
1BF
330
17
100
AcDbEntity
  8
TERRAIN_CONTOURS
100
AcDbVertex
100
AcDb3dPolylineVertex
 10
24.78582633412732
 20
11.414143072888123
 30
148.0
 70
32
  0
VERTEX
  5
1C0
330
17
100
AcDbEntity
  8
TERRAIN_CONTOURS
100
AcDbVertex
100
AcDb3dPolylineVertex
 10
25.032758177698728
 20
12.25409413349169
 30
148.0
 70
32
  0
VERTEX
  5
1C1
330
17
100
AcDbEntity
  8
TERRAIN_CONTOURS
100
AcDbVertex
100
AcDb3dPolylineVertex
 10
25.07524365015658
 20
12.406677253018898
 30
148.0
 70
32
  0
VERTEX
  5
1C2
330
17
100
AcDbEntity
  8
TERRAIN_CONTOURS
100
AcDbVertex
100
AcDb3dPolylineVertex
 10
25.257558811980264
 20
13.399211433149674
 30
148.0
 70
32
  0
VERTEX
  5
1C3
330
17
100
AcDbEntity
  8
TERRAIN_CONTOURS
100
AcDbVertex
100
AcDb3dPolylineVertex
 10
25.032758177698728
 20
14.027050588091896
 30
148.0
 70
32
  0
VERTEX
  5
1C4
330
17
100
AcDbEntity
  8
TERRAIN_CONTOURS
100
AcDbVertex
100
AcDb3dPolylineVertex
 10
24.85906323200733
 20
14.391745613280449
 30
148.0
 70
32
  0
VERTEX
  5
1C5
330
17
100
AcDbEntity
  8
TERRAIN_CONTOURS
100
AcDbVertex
100
AcDb3dPolylineVertex
 10
24.19968347834556
 20
15.384279793806712
 30
148.0
 70
32
  0
VERTEX
  5
1C6
330
17
100
AcDbEntity
  8
TERRAIN_CONTOURS
100
AcDbVertex
100
AcDb3dPolylineVertex
 10
24.051081385423455
 20
15.529856048923989
 30
148.0
 70
32
  0
VERTEX
  5
1C7
330
17
100
AcDbEntity
  8
TERRAIN_CONTOURS
100
AcDbVertex
100
AcDb3dPolylineVertex
 10
23.227374720424923
 20
16.376813973937487
 30
148.0
 70
32
  0
VERTEX
  5
1C8
330
17
100
AcDbEntity
  8
TERRAIN_CONTOURS
100
AcDbVertex
100
AcDb3dPolylineVertex
 10
23.06940459451687
 20
16.50166472728344
 30
148.0
 70
32
  0
VERTEX
  5
1C9
330
17
100
AcDbEntity
  8
TERRAIN_CONTOURS
100
AcDbVertex
100
AcDb3dPolylineVertex
 10
22.087727803610285
 20
16.89195453757904
 30
148.0
 70
32
  0
VERTEX
  5
1CA
330
17
100
AcDbEntity
  8
TERRAIN_CONTOURS
100
AcDbVertex
100
AcDb3dPolylineVertex
 10
21.106051012703702
 20
17.121916973631386
 30
148.0
 70
32
  0
VERTEX
  5
1CB
330
17
100
AcDbEntity
  8
TERRAIN_CONTOURS
100
AcDbVertex
100
AcDb3dPolylineVertex
 10
20.12437422042843
 20
17.066403698665624
 30
148.0
 70
32
  0
VERTEX
  5
1CC
330
17
100
AcDbEntity
  8
TERRAIN_CONTOURS
100
AcDbVertex
100
AcDb3dPolylineVertex
 10
19.142697429521842
 20
16.831924617416547
 30
148.0
 70
32
  0
VERTEX
  5
1CD
330
17
100
AcDbEntity
  8
TERRAIN_CONTOURS
100
AcDbVertex
100
AcDb3dPolylineVertex
 10
18.16102063861526
 20
16.723022952600672
 30
148.0
 70
32
  0
VERTEX
  5
1CE
330
17
100
AcDbEntity
  8
TERRAIN_CONTOURS
100
AcDbVertex
100
AcDb3dPolylineVertex
 10
17.179343847708676
 20
16.610666310186986
 30
148.0
 70
32
  0
VERTEX
  5
1CF
330
17
100
AcDbEntity
  8
TERRAIN_CONTOURS
100
AcDbVertex
100
AcDb3dPolylineVertex
 10
16.650817080913843
 20
16.376813973937487
 30
148.0
 70
32
  0
VERTEX
  5
1D0
330
17
100
AcDbEntity
  8
TERRAIN_CONTOURS
100
AcDbVertex
100
AcDb3dPolylineVertex
 10
16.1976670554334
 20
16.162505347495397
 30
148.0
 70
32
  0
VERTEX
  5
1D1
330
17
100
AcDbEntity
  8
TERRAIN_CONTOURS
100
AcDbVertex
100
AcDb3dPolylineVertex
 10
15.215990264526816
 20
15.669297361537957
 30
148.0
 70
32
  0
VERTEX
  5
1D2
330
17
100
AcDbEntity
  8
TERRAIN_CONTOURS
100
AcDbVertex
100
AcDb3dPolylineVertex
 10
14.691396992154703
 20
15.384279793806712
 30
148.0
 70
32
  0
VERTEX
  5
1D3
330
17
100
AcDbEntity
  8
TERRAIN_CONTOURS
100
AcDbVertex
100
AcDb3dPolylineVertex
 10
14.234313473620231
 20
15.192438463134437
 30
148.0
 70
32
  0
VERTEX
  5
1D4
330
17
100
AcDbEntity
  8
TERRAIN_CONTOURS
100
AcDbVertex
100
AcDb3dPolylineVertex
 10
13.252636682713648
 20
14.842864321822447
 30
148.0
 70
32
  0
VERTEX
  5
1D5
330
17
100
AcDbEntity
  8
TERRAIN_CONTOURS
100
AcDbVertex
100
AcDb3dPolylineVertex
 10
12.270959890438373
 20
14.457535211933816
 30
148.0
 70
32
  0
VERTEX
  5
1D6
330
17
100
AcDbEntity
  8
TERRAIN_CONTOURS
100
AcDbVertex
100
AcDb3dPolylineVertex
 10
12.006184146682745
 20
14.391745613280449
 30
148.0
 70
32
  0
VERTEX
  5
1D7
330
17
100
AcDbEntity
  8
TERRAIN_CONTOURS
100
AcDbVertex
100
AcDb3dPolylineVertex
 10
11.289283099531788
 20
14.206276708984262
 30
148.0
 70
32
  0
VERTEX
  5
1D8
330
17
100
AcDbEntity
  8
TERRAIN_CONTOURS
100
AcDbVertex
100
AcDb3dPolylineVertex
 10
10.307606308625205
 20
14.052630216118018
 30
148.0
 70
32
  0
VERTEX
  5
1D9
330
17
100
AcDbEntity
  8
TERRAIN_CONTOURS
100
AcDbVertex
100
AcDb3dPolylineVertex
 10
9.32592951634993
 20
13.78138038401218
 30
148.0
 70
32
  0
VERTEX
  5
1DA
330
17
100
AcDbEntity
  8
TERRAIN_CONTOURS
100
AcDbVertex
100
AcDb3dPolylineVertex
 10
8.344252725443345
 20
13.586273843581722
 30
148.0
 70
32
  0
VERTEX
  5
1DB
330
17
100
AcDbEntity
  8
TERRAIN_CONTOURS
100
AcDbVertex
100
AcDb3dPolylineVertex
 10
7.362575934536762
 20
13.624882779561887
 30
148.0
 70
32
  0
VERTEX
  5
1DC
330
17
100
AcDbEntity
  8
TERRAIN_CONTOURS
100
AcDbVertex
100
AcDb3dPolylineVertex
 10
6.380899143630177
 20
13.664150236031958
 30
148.0
 70
32
  0
VERTEX
  5
1DD
330
17
100
AcDbEntity
  8
TERRAIN_CONTOURS
100
AcDbVertex
100
AcDb3dPolylineVertex
 10
5.399222351354903
 20
13.581634624762273
 30
148.0
 70
32
  0
VERTEX
  5
1DE
330
17
100
AcDbEntity
  8
TERRAIN_CONTOURS
100
AcDbVertex
100
AcDb3dPolylineVertex
 10
4.417545560448319
 20
13.530041751221376
 30
148.0
 70
32
  0
VERTEX
  5
1DF
330
17
100
AcDbEntity
  8
TERRAIN_CONTOURS
100
AcDbVertex
100
AcDb3dPolylineVertex
 10
3.435868769541735
 20
13.638662905038075
 30
148.0
 70
32
  0
VERTEX
  5
1E0
330
17
100
AcDbEntity
  8
TERRAIN_CONTOURS
100
AcDbVertex
100
AcDb3dPolylineVertex
 10
2.454191978635151
 20
13.773538208027816
 30
148.0
 70
32
  0
VERTEX
  5
1E1
330
17
100
AcDbEntity
  8
TERRAIN_CONTOURS
100
AcDbVertex
100
AcDb3dPolylineVertex
 10
1.4725151863598762
 20
13.926727574802555
 30
148.0
 70
32
  0
VERTEX
  5
1E2
330
17
100
AcDbEntity
  8
TERRAIN_CONTOURS
100
AcDbVertex
100
AcDb3dPolylineVertex
 10
0.49083839545329205
 20
13.958496943370307
 30
148.0
 70
32
  0
VERTEX
  5
1E3
330
17
100
AcDbEntity
  8
TERRAIN_CONTOURS
100
AcDbVertex
100
AcDb3dPolylineVertex
 10
0.0
 20
13.399211433149674
 30
148.0
 70
32
  0
VERTEX
  5
1E4
330
17
100
AcDbEntity
  8
TERRAIN_CONTOURS
100
AcDbVertex
100
AcDb3dPolylineVertex
 10
0.0
 20
12.406677253018898
 30
148.0
 70
32
  0
VERTEX
  5
1E5
330
17
100
AcDbEntity
  8
TERRAIN_CONTOURS
100
AcDbVertex
100
AcDb3dPolylineVertex
 10
0.0
 20
11.414143072888123
 30
148.0
 70
32
  0
VERTEX
  5
1E6
330
17
100
AcDbEntity
  8
TERRAIN_CONTOURS
100
AcDbVertex
100
AcDb3dPolylineVertex
 10
0.0
 20
10.42160889236186
 30
148.0
 70
32
  0
VERTEX
  5
1E7
330
17
100
AcDbEntity
  8
TERRAIN_CONTOURS
100
AcDbVertex
100
AcDb3dPolylineVertex
 10
0.0
 20
9.429074712231085
 30
148.0
 70
32
  0
VERTEX
  5
1E8
330
17
100
AcDbEntity
  8
TERRAIN_CONTOURS
100
AcDbVertex
100
AcDb3dPolylineVertex
 10
0.0
 20
8.43654053210031
 30
148.0
 70
32
  0
VERTEX
  5
1E9
330
17
100
AcDbEntity
  8
TERRAIN_CONTOURS
100
AcDbVertex
100
AcDb3dPolylineVertex
 10
0.0
 20
7.444006351969534
 30
148.0
 70
32
  0
VERTEX
  5
1EA
330
17
100
AcDbEntity
  8
TERRAIN_CONTOURS
100
AcDbVertex
100
AcDb3dPolylineVertex
 10
0.0
 20
6.451472171443271
 30
148.0
 70
32
  0
VERTEX
  5
1EB
330
17
100
AcDbEntity
  8
TERRAIN_CONTOURS
100
AcDbVertex
100
AcDb3dPolylineVertex
 10
0.0
 20
5.458937991312496
 30
148.0
 70
32
  0
VERTEX
  5
1EC
330
17
100
AcDbEntity
  8
TERRAIN_CONTOURS
100
AcDbVertex
100
AcDb3dPolylineVertex
 10
0.0
 20
4.466403811181721
 30
148.0
 70
32
  0
VERTEX
  5
1ED
330
17
100
AcDbEntity
  8
TERRAIN_CONTOURS
100
AcDbVertex
100
AcDb3dPolylineVertex
 10
0.0
 20
3.4738696306554573
 30
148.0
 70
32
  0
VERTEX
  5
1EE
330
17
100
AcDbEntity
  8
TERRAIN_CONTOURS
100
AcDbVertex
100
AcDb3dPolylineVertex
 10
0.0
 20
2.481335450524682
 30
148.0
 70
32
  0
VERTEX
  5
1EF
330
17
100
AcDbEntity
  8
TERRAIN_CONTOURS
100
AcDbVertex
100
AcDb3dPolylineVertex
 10
0.0
 20
1.4888012703939069
 30
148.0
 70
32
  0
VERTEX
  5
1F0
330
17
100
AcDbEntity
  8
TERRAIN_CONTOURS
100
AcDbVertex
100
AcDb3dPolylineVertex
 10
0.0
 20
0.49626709026313165
 30
148.0
 70
32
  0
VERTEX
  5
1F1
330
17
100
AcDbEntity
  8
TERRAIN_CONTOURS
100
AcDbVertex
100
AcDb3dPolylineVertex
 10
0.49083839545329205
 20
0.0
 30
148.0
 70
32
  0
VERTEX
  5
1F2
330
17
100
AcDbEntity
  8
TERRAIN_CONTOURS
100
AcDbVertex
100
AcDb3dPolylineVertex
 10
1.4725151863598762
 20
0.0
 30
148.0
 70
32
  0
VERTEX
  5
1F3
330
17
100
AcDbEntity
  8
TERRAIN_CONTOURS
100
AcDbVertex
100
AcDb3dPolylineVertex
 10
2.454191978635151
 20
0.0
 30
148.0
 70
32
  0
VERTEX
  5
1F4
330
17
100
AcDbEntity
  8
TERRAIN_CONTOURS
100
AcDbVertex
100
AcDb3dPolylineVertex
 10
3.435868769541735
 20
0.0
 30
148.0
 70
32
  0
VERTEX
  5
1F5
330
17
100
AcDbEntity
  8
TERRAIN_CONTOURS
100
AcDbVertex
100
AcDb3dPolylineVertex
 10
4.417545560448319
 20
0.0
 30
148.0
 70
32
  0
VERTEX
  5
1F6
330
17
100
AcDbEntity
  8
TERRAIN_CONTOURS
100
AcDbVertex
100
AcDb3dPolylineVertex
 10
5.399222351354903
 20
0.0
 30
148.0
 70
32
  0
VERTEX
  5
1F7
330
17
100
AcDbEntity
  8
TERRAIN_CONTOURS
100
AcDbVertex
100
AcDb3dPolylineVertex
 10
6.380899143630177
 20
0.0
 30
148.0
 70
32
  0
VERTEX
  5
1F8
330
17
100
AcDbEntity
  8
TERRAIN_CONTOURS
100
AcDbVertex
100
AcDb3dPolylineVertex
 10
7.362575934536762
 20
0.0
 30
148.0
 70
32
  0
VERTEX
  5
1F9
330
17
100
AcDbEntity
  8
TERRAIN_CONTOURS
100
AcDbVertex
100
AcDb3dPolylineVertex
 10
8.344252725443345
 20
0.0
 30
148.0
 70
32
  0
VERTEX
  5
1FA
330
17
100
AcDbEntity
  8
TERRAIN_CONTOURS
100
AcDbVertex
100
AcDb3dPolylineVertex
 10
9.32592951634993
 20
0.0
 30
148.0
 70
32
  0
VERTEX
  5
1FB
330
17
100
AcDbEntity
  8
TERRAIN_CONTOURS
100
AcDbVertex
100
AcDb3dPolylineVertex
 10
10.307606308625205
 20
0.0
 30
148.0
 70
32
  0
VERTEX
  5
1FC
330
17
100
AcDbEntity
  8
TERRAIN_CONTOURS
100
AcDbVertex
100
AcDb3dPolylineVertex
 10
11.289283099531788
 20
0.0
 30
148.0
 70
32
  0
VERTEX
  5
1FD
330
17
100
AcDbEntity
  8
TERRAIN_CONTOURS
100
AcDbVertex
100
AcDb3dPolylineVertex
 10
12.270959890438373
 20
0.0
 30
148.0
 70
32
  0
VERTEX
  5
1FE
330
17
100
AcDbEntity
  8
TERRAIN_CONTOURS
100
AcDbVertex
100
AcDb3dPolylineVertex
 10
13.252636682713648
 20
0.0
 30
148.0
 70
32
  0
VERTEX
  5
1FF
330
17
100
AcDbEntity
  8
TERRAIN_CONTOURS
100
AcDbVertex
100
AcDb3dPolylineVertex
 10
14.234313473620231
 20
0.0
 30
148.0
 70
32
  0
VERTEX
  5
200
330
17
100
AcDbEntity
  8
TERRAIN_CONTOURS
100
AcDbVertex
100
AcDb3dPolylineVertex
 10
15.215990264526816
 20
0.0
 30
148.0
 70
32
  0
VERTEX
  5
201
330
17
100
AcDbEntity
  8
TERRAIN_CONTOURS
100
AcDbVertex
100
AcDb3dPolylineVertex
 10
16.1976670554334
 20
0.0
 30
148.0
 70
32
  0
VERTEX
  5
202
330
17
100
AcDbEntity
  8
TERRAIN_CONTOURS
100
AcDbVertex
100
AcDb3dPolylineVertex
 10
17.179343847708676
 20
0.0
 30
148.0
 70
32
  0
VERTEX
  5
203
330
17
100
AcDbEntity
  8
TERRAIN_CONTOURS
100
AcDbVertex
100
AcDb3dPolylineVertex
 10
18.16102063861526
 20
0.0
 30
148.0
 70
32
  0
VERTEX
  5
204
330
17
100
AcDbEntity
  8
TERRAIN_CONTOURS
100
AcDbVertex
100
AcDb3dPolylineVertex
 10
19.142697429521842
 20
0.0
 30
148.0
 70
32
  0
VERTEX
  5
205
330
17
100
AcDbEntity
  8
TERRAIN_CONTOURS
100
AcDbVertex
100
AcDb3dPolylineVertex
 10
20.12437422042843
 20
0.0
 30
148.0
 70
32
  0
VERTEX
  5
206
330
17
100
AcDbEntity
  8
TERRAIN_CONTOURS
100
AcDbVertex
100
AcDb3dPolylineVertex
 10
21.106051012703702
 20
0.0
 30
148.0
 70
32
  0
VERTEX
  5
207
330
17
100
AcDbEntity
  8
TERRAIN_CONTOURS
100
AcDbVertex
100
AcDb3dPolylineVertex
 10
22.087727803610285
 20
0.0
 30
148.0
 70
32
  0
VERTEX
  5
208
330
17
100
AcDbEntity
  8
TERRAIN_CONTOURS
100
AcDbVertex
100
AcDb3dPolylineVertex
 10
23.06940459451687
 20
0.0
 30
148.0
 70
32
  0
VERTEX
  5
209
330
17
100
AcDbEntity
  8
TERRAIN_CONTOURS
100
AcDbVertex
100
AcDb3dPolylineVertex
 10
24.051081385423455
 20
0.0
 30
148.0
 70
32
  0
SEQEND
  5
1B1
330
1B0
100
AcDbEntity
  8
TERRAIN_CONTOURS
  0
POLYLINE
  5
20A
330
17
100
AcDbEntity
  8
TERRAIN_CONTOURS
100
AcDb3dPolyline
 66
1
 10
0.0
 20
0.0
 30
0.0
 70
9
  0
VERTEX
  5
20C
330
17
100
AcDbEntity
  8
TERRAIN_CONTOURS
100
AcDbVertex
100
AcDb3dPolylineVertex
 10
45.15713239812715
 20
0.49626709026313165
 30
148.0
 70
32
  0
VERTEX
  5
20D
330
17
100
AcDbEntity
  8
TERRAIN_CONTOURS
100
AcDbVertex
100
AcDb3dPolylineVertex
 10
45.15713239812715
 20
1.4888012703939069
 30
148.0
 70
32
  0
VERTEX
  5
20E
330
17
100
AcDbEntity
  8
TERRAIN_CONTOURS
100
AcDbVertex
100
AcDb3dPolylineVertex
 10
45.15713239812715
 20
2.481335450524682
 30
148.0
 70
32
  0
VERTEX
  5
20F
330
17
100
AcDbEntity
  8
TERRAIN_CONTOURS
100
AcDbVertex
100
AcDb3dPolylineVertex
 10
45.15713239812715
 20
3.4738696306554573
 30
148.0
 70
32
  0
VERTEX
  5
210
330
17
100
AcDbEntity
  8
TERRAIN_CONTOURS
100
AcDbVertex
100
AcDb3dPolylineVertex
 10
44.666294002673865
 20
3.781668479662841
 30
148.0
 70
32
  0
VERTEX
  5
211
330
17
100
AcDbEntity
  8
TERRAIN_CONTOURS
100
AcDbVertex
100
AcDb3dPolylineVertex
 10
43.942131391824404
 20
4.466403811181721
 30
148.0
 70
32
  0
VERTEX
  5
212
330
17
100
AcDbEntity
  8
TERRAIN_CONTOURS
100
AcDbVertex
100
AcDb3dPolylineVertex
 10
43.68461721176728
 20
4.750662388234019
 30
148.0
 70
32
  0
VERTEX
  5
213
330
17
100
AcDbEntity
  8
TERRAIN_CONTOURS
100
AcDbVertex
100
AcDb3dPolylineVertex
 10
43.045917123312215
 20
5.458937991312496
 30
148.0
 70
32
  0
VERTEX
  5
214
330
17
100
AcDbEntity
  8
TERRAIN_CONTOURS
100
AcDbVertex
100
AcDb3dPolylineVertex
 10
42.702940419492
 20
5.823061584465279
 30
148.0
 70
32
  0
VERTEX
  5
215
330
17
100
AcDbEntity
  8
TERRAIN_CONTOURS
100
AcDbVertex
100
AcDb3dPolylineVertex
 10
41.83377607089755
 20
6.451472171443271
 30
148.0
 70
32
  0
VERTEX
  5
216
330
17
100
AcDbEntity
  8
TERRAIN_CONTOURS
100
AcDbVertex
100
AcDb3dPolylineVertex
 10
41.72126362858542
 20
6.561838663622694
 30
148.0
 70
32
  0
VERTEX
  5
217
330
17
100
AcDbEntity
  8
TERRAIN_CONTOURS
100
AcDbVertex
100
AcDb3dPolylineVertex
 10
40.75115516915454
 20
7.444006351969534
 30
148.0
 70
32
  0
VERTEX
  5
218
330
17
100
AcDbEntity
  8
TERRAIN_CONTOURS
100
AcDbVertex
100
AcDb3dPolylineVertex
 10
40.739586837678836
 20
7.466685093862964
 30
148.0
 70
32
  0
VERTEX
  5
219
330
17
100
AcDbEntity
  8
TERRAIN_CONTOURS
100
AcDbVertex
100
AcDb3dPolylineVertex
 10
40.30646485621947
 20
8.43654053210031
 30
148.0
 70
32
  0
VERTEX
  5
21A
330
17
100
AcDbEntity
  8
TERRAIN_CONTOURS
100
AcDbVertex
100
AcDb3dPolylineVertex
 10
39.87013293441616
 20
9.429074712231085
 30
148.0
 70
32
  0
VERTEX
  5
21B
330
17
100
AcDbEntity
  8
TERRAIN_CONTOURS
100
AcDbVertex
100
AcDb3dPolylineVertex
 10
39.75791004677225
 20
9.637560851137295
 30
148.0
 70
32
  0
VERTEX
  5
21C
330
17
100
AcDbEntity
  8
TERRAIN_CONTOURS
100
AcDbVertex
100
AcDb3dPolylineVertex
 10
39.38717587031511
 20
10.42160889236186
 30
148.0
 70
32
  0
VERTEX
  5
21D
330
17
100
AcDbEntity
  8
TERRAIN_CONTOURS
100
AcDbVertex
100
AcDb3dPolylineVertex
 10
38.90062423375392
 20
11.414143072888123
 30
148.0
 70
32
  0
VERTEX
  5
21E
330
17
100
AcDbEntity
  8
TERRAIN_CONTOURS
100
AcDbVertex
100
AcDb3dPolylineVertex
 10
38.77623325449698
 20
11.66566061460216
 30
148.0
 70
32
  0
VERTEX
  5
21F
330
17
100
AcDbEntity
  8
TERRAIN_CONTOURS
100
AcDbVertex
100
AcDb3dPolylineVertex
 10
38.351332146369195
 20
12.406677253018898
 30
148.0
 70
32
  0
VERTEX
  5
220
330
17
100
AcDbEntity
  8
TERRAIN_CONTOURS
100
AcDbVertex
100
AcDb3dPolylineVertex
 10
37.82232360328769
 20
13.399211433149674
 30
148.0
 70
32
  0
VERTEX
  5
221
330
17
100
AcDbEntity
  8
TERRAIN_CONTOURS
100
AcDbVertex
100
AcDb3dPolylineVertex
 10
37.794556463590396
 20
13.458438258592764
 30
148.0
 70
32
  0
VERTEX
  5
222
330
17
100
AcDbEntity
  8
TERRAIN_CONTOURS
100
AcDbVertex
100
AcDb3dPolylineVertex
 10
37.355385267442394
 20
14.391745613280449
 30
148.0
 70
32
  0
VERTEX
  5
223
330
17
100
AcDbEntity
  8
TERRAIN_CONTOURS
100
AcDbVertex
100
AcDb3dPolylineVertex
 10
36.94473068122336
 20
15.384279793806712
 30
148.0
 70
32
  0
VERTEX
  5
224
330
17
100
AcDbEntity
  8
TERRAIN_CONTOURS
100
AcDbVertex
100
AcDb3dPolylineVertex
 10
36.81287967268381
 20
15.541387430325528
 30
148.0
 70
32
  0
VERTEX
  5
225
330
17
100
AcDbEntity
  8
TERRAIN_CONTOURS
100
AcDbVertex
100
AcDb3dPolylineVertex
 10
35.83120288177722
 20
15.913820028854389
 30
148.0
 70
32
  0
VERTEX
  5
226
330
17
100
AcDbEntity
  8
TERRAIN_CONTOURS
100
AcDbVertex
100
AcDb3dPolylineVertex
 10
34.99549041763093
 20
15.384279793806712
 30
148.0
 70
32
  0
VERTEX
  5
227
330
17
100
AcDbEntity
  8
TERRAIN_CONTOURS
100
AcDbVertex
100
AcDb3dPolylineVertex
 10
34.84952608950195
 20
15.08022655512292
 30
148.0
 70
32
  0
VERTEX
  5
228
330
17
100
AcDbEntity
  8
TERRAIN_CONTOURS
100
AcDbVertex
100
AcDb3dPolylineVertex
 10
34.66161971512389
 20
14.391745613280449
 30
148.0
 70
32
  0
VERTEX
  5
229
330
17
100
AcDbEntity
  8
TERRAIN_CONTOURS
100
AcDbVertex
100
AcDb3dPolylineVertex
 10
34.00279638612372
 20
13.399211433149674
 30
148.0
 70
32
  0
VERTEX
  5
22A
330
17
100
AcDbEntity
  8
TERRAIN_CONTOURS
100
AcDbVertex
100
AcDb3dPolylineVertex
 10
33.86784929859537
 20
13.164355937413319
 30
148.0
 70
32
  0
VERTEX
  5
22B
330
17
100
AcDbEntity
  8
TERRAIN_CONTOURS
100
AcDbVertex
100
AcDb3dPolylineVertex
 10
33.43011837125894
 20
12.406677253018898
 30
148.0
 70
32
  0
VERTEX
  5
22C
330
17
100
AcDbEntity
  8
TERRAIN_CONTOURS
100
AcDbVertex
100
AcDb3dPolylineVertex
 10
32.886172507688784
 20
11.547133678191557
 30
148.0
 70
32
  0
VERTEX
  5
22D
330
17
100
AcDbEntity
  8
TERRAIN_CONTOURS
100
AcDbVertex
100
AcDb3dPolylineVertex
 10
32.81400852758927
 20
11.414143072888123
 30
148.0
 70
32
  0
VERTEX
  5
22E
330
17
100
AcDbEntity
  8
TERRAIN_CONTOURS
100
AcDbVertex
100
AcDb3dPolylineVertex
 10
32.331893454454175
 20
10.42160889236186
 30
148.0
 70
32
  0
VERTEX
  5
22F
330
17
100
AcDbEntity
  8
TERRAIN_CONTOURS
100
AcDbVertex
100
AcDb3dPolylineVertex
 10
31.904495715413507
 20
9.55129264680636
 30
148.0
 70
32
  0
VERTEX
  5
230
330
17
100
AcDbEntity
  8
TERRAIN_CONTOURS
100
AcDbVertex
100
AcDb3dPolylineVertex
 10
31.84703849305976
 20
9.429074712231085
 30
148.0
 70
32
  0
VERTEX
  5
231
330
17
100
AcDbEntity
  8
TERRAIN_CONTOURS
100
AcDbVertex
100
AcDb3dPolylineVertex
 10
31.242335018254906
 20
8.43654053210031
 30
148.0
 70
32
  0
VERTEX
  5
232
330
17
100
AcDbEntity
  8
TERRAIN_CONTOURS
100
AcDbVertex
100
AcDb3dPolylineVertex
 10
30.922818924506924
 20
8.05302328997584
 30
148.0
 70
32
  0
VERTEX
  5
233
330
17
100
AcDbEntity
  8
TERRAIN_CONTOURS
100
AcDbVertex
100
AcDb3dPolylineVertex
 10
30.41638800004179
 20
7.444006351969534
 30
148.0
 70
32
  0
VERTEX
  5
234
330
17
100
AcDbEntity
  8
TERRAIN_CONTOURS
100
AcDbVertex
100
AcDb3dPolylineVertex
 10
29.94114213360034
 20
6.961447035010053
 30
148.0
 70
32
  0
VERTEX
  5
235
330
17
100
AcDbEntity
  8
TERRAIN_CONTOURS
100
AcDbVertex
100
AcDb3dPolylineVertex
 10
29.499044942883316
 20
6.451472171443271
 30
148.0
 70
32
  0
VERTEX
  5
236
330
17
100
AcDbEntity
  8
TERRAIN_CONTOURS
100
AcDbVertex
100
AcDb3dPolylineVertex
 10
28.959465342693758
 20
5.5833393475906234
 30
148.0
 70
32
  0
VERTEX
  5
237
330
17
100
AcDbEntity
  8
TERRAIN_CONTOURS
100
AcDbVertex
100
AcDb3dPolylineVertex
 10
28.87719886296089
 20
5.458937991312496
 30
148.0
 70
32
  0
VERTEX
  5
238
330
17
100
AcDbEntity
  8
TERRAIN_CONTOURS
100
AcDbVertex
100
AcDb3dPolylineVertex
 10
28.09447514809406
 20
4.466403811181721
 30
148.0
 70
32
  0
VERTEX
  5
239
330
17
100
AcDbEntity
  8
TERRAIN_CONTOURS
100
AcDbVertex
100
AcDb3dPolylineVertex
 10
27.97778855041848
 20
4.288822987963101
 30
148.0
 70
32
  0
VERTEX
  5
23A
330
17
100
AcDbEntity
  8
TERRAIN_CONTOURS
100
AcDbVertex
100
AcDb3dPolylineVertex
 10
27.464014525261092
 20
3.4738696306554573
 30
148.0
 70
32
  0
VERTEX
  5
23B
330
17
100
AcDbEntity
  8
TERRAIN_CONTOURS
100
AcDbVertex
100
AcDb3dPolylineVertex
 10
27.076372553475608
 20
2.481335450524682
 30
148.0
 70
32
  0
VERTEX
  5
23C
330
17
100
AcDbEntity
  8
TERRAIN_CONTOURS
100
AcDbVertex
100
AcDb3dPolylineVertex
 10
26.996111759511898
 20
2.2150227592049987
 30
148.0
 70
32
  0
VERTEX
  5
23D
330
17
100
AcDbEntity
  8
TERRAIN_CONTOURS
100
AcDbVertex
100
AcDb3dPolylineVertex
 10
26.642303237055554
 20
1.4888012703939069
 30
148.0
 70
32
  0
VERTEX
  5
23E
330
17
100
AcDbEntity
  8
TERRAIN_CONTOURS
100
AcDbVertex
100
AcDb3dPolylineVertex
 10
26.101548380734908
 20
0.49626709026313165
 30
148.0
 70
32
  0
VERTEX
  5
23F
330
17
100
AcDbEntity
  8
TERRAIN_CONTOURS
100
AcDbVertex
100
AcDb3dPolylineVertex
 10
26.996111759511898
 20
0.0
 30
148.0
 70
32
  0
VERTEX
  5
240
330
17
100
AcDbEntity
  8
TERRAIN_CONTOURS
100
AcDbVertex
100
AcDb3dPolylineVertex
 10
27.97778855041848
 20
0.0
 30
148.0
 70
32
  0
VERTEX
  5
241
330
17
100
AcDbEntity
  8
TERRAIN_CONTOURS
100
AcDbVertex
100
AcDb3dPolylineVertex
 10
28.959465342693758
 20
0.0
 30
148.0
 70
32
  0
VERTEX
  5
242
330
17
100
AcDbEntity
  8
TERRAIN_CONTOURS
100
AcDbVertex
100
AcDb3dPolylineVertex
 10
29.94114213360034
 20
0.0
 30
148.0
 70
32
  0
VERTEX
  5
243
330
17
100
AcDbEntity
  8
TERRAIN_CONTOURS
100
AcDbVertex
100
AcDb3dPolylineVertex
 10
30.922818924506924
 20
0.0
 30
148.0
 70
32
  0
VERTEX
  5
244
330
17
100
AcDbEntity
  8
TERRAIN_CONTOURS
100
AcDbVertex
100
AcDb3dPolylineVertex
 10
31.904495715413507
 20
0.0
 30
148.0
 70
32
  0
VERTEX
  5
245
330
17
100
AcDbEntity
  8
TERRAIN_CONTOURS
100
AcDbVertex
100
AcDb3dPolylineVertex
 10
32.886172507688784
 20
0.0
 30
148.0
 70
32
  0
VERTEX
  5
246
330
17
100
AcDbEntity
  8
TERRAIN_CONTOURS
100
AcDbVertex
100
AcDb3dPolylineVertex
 10
33.86784929859537
 20
0.0
 30
148.0
 70
32
  0
VERTEX
  5
247
330
17
100
AcDbEntity
  8
TERRAIN_CONTOURS
100
AcDbVertex
100
AcDb3dPolylineVertex
 10
34.84952608950195
 20
0.0
 30
148.0
 70
32
  0
VERTEX
  5
248
330
17
100
AcDbEntity
  8
TERRAIN_CONTOURS
100
AcDbVertex
100
AcDb3dPolylineVertex
 10
35.83120288177722
 20
0.0
 30
148.0
 70
32
  0
VERTEX
  5
249
330
17
100
AcDbEntity
  8
TERRAIN_CONTOURS
100
AcDbVertex
100
AcDb3dPolylineVertex
 10
36.81287967268381
 20
0.0
 30
148.0
 70
32
  0
VERTEX
  5
24A
330
17
100
AcDbEntity
  8
TERRAIN_CONTOURS
100
AcDbVertex
100
AcDb3dPolylineVertex
 10
37.794556463590396
 20
0.0
 30
148.0
 70
32
  0
VERTEX
  5
24B
330
17
100
AcDbEntity
  8
TERRAIN_CONTOURS
100
AcDbVertex
100
AcDb3dPolylineVertex
 10
38.77623325449698
 20
0.0
 30
148.0
 70
32
  0
VERTEX
  5
24C
330
17
100
AcDbEntity
  8
TERRAIN_CONTOURS
100
AcDbVertex
100
AcDb3dPolylineVertex
 10
39.75791004677225
 20
0.0
 30
148.0
 70
32
  0
VERTEX
  5
24D
330
17
100
AcDbEntity
  8
TERRAIN_CONTOURS
100
AcDbVertex
100
AcDb3dPolylineVertex
 10
40.739586837678836
 20
0.0
 30
148.0
 70
32
  0
VERTEX
  5
24E
330
17
100
AcDbEntity
  8
TERRAIN_CONTOURS
100
AcDbVertex
100
AcDb3dPolylineVertex
 10
41.72126362858542
 20
0.0
 30
148.0
 70
32
  0
VERTEX
  5
24F
330
17
100
AcDbEntity
  8
TERRAIN_CONTOURS
100
AcDbVertex
100
AcDb3dPolylineVertex
 10
42.702940419492
 20
0.0
 30
148.0
 70
32
  0
VERTEX
  5
250
330
17
100
AcDbEntity
  8
TERRAIN_CONTOURS
100
AcDbVertex
100
AcDb3dPolylineVertex
 10
43.68461721176728
 20
0.0
 30
148.0
 70
32
  0
VERTEX
  5
251
330
17
100
AcDbEntity
  8
TERRAIN_CONTOURS
100
AcDbVertex
100
AcDb3dPolylineVertex
 10
44.666294002673865
 20
0.0
 30
148.0
 70
32
  0
SEQEND
  5
20B
330
20A
100
AcDbEntity
  8
TERRAIN_CONTOURS
  0
POLYLINE
  5
252
330
17
100
AcDbEntity
  8
TERRAIN_CONTOURS
100
AcDb3dPolyline
 66
1
 10
0.0
 20
0.0
 30
0.0
 70
9
  0
VERTEX
  5
254
330
17
100
AcDbEntity
  8
TERRAIN_CONTOURS
100
AcDbVertex
100
AcDb3dPolylineVertex
 10
45.15713239812715
 20
20.346950694856076
 30
149.0
 70
32
  0
VERTEX
  5
255
330
17
100
AcDbEntity
  8
TERRAIN_CONTOURS
100
AcDbVertex
100
AcDb3dPolylineVertex
 10
45.15713239812715
 20
21.33948487498685
 30
149.0
 70
32
  0
VERTEX
  5
256
330
17
100
AcDbEntity
  8
TERRAIN_CONTOURS
100
AcDbVertex
100
AcDb3dPolylineVertex
 10
44.666294002673865
 20
21.835751965249983
 30
149.0
 70
32
  0
VERTEX
  5
257
330
17
100
AcDbEntity
  8
TERRAIN_CONTOURS
100
AcDbVertex
100
AcDb3dPolylineVertex
 10
43.68461721176728
 20
21.835751965249983
 30
149.0
 70
32
  0
VERTEX
  5
258
330
17
100
AcDbEntity
  8
TERRAIN_CONTOURS
100
AcDbVertex
100
AcDb3dPolylineVertex
 10
43.57247810166332
 20
21.33948487498685
 30
149.0
 70
32
  0
VERTEX
  5
259
330
17
100
AcDbEntity
  8
TERRAIN_CONTOURS
100
AcDbVertex
100
AcDb3dPolylineVertex
 10
43.68461721176728
 20
21.17477634185562
 30
149.0
 70
32
  0
VERTEX
  5
25A
330
17
100
AcDbEntity
  8
TERRAIN_CONTOURS
100
AcDbVertex
100
AcDb3dPolylineVertex
 10
44.22986714713508
 20
20.346950694856076
 30
149.0
 70
32
  0
VERTEX
  5
25B
330
17
100
AcDbEntity
  8
TERRAIN_CONTOURS
100
AcDbVertex
100
AcDb3dPolylineVertex
 10
44.666294002673865
 20
19.827164876060408
 30
149.0
 70
32
  0
SEQEND
  5
253
330
252
100
AcDbEntity
  8
TERRAIN_CONTOURS
  0
POLYLINE
  5
25C
330
17
100
AcDbEntity
  8
TERRAIN_CONTOURS
100
AcDb3dPolyline
 66
1
 10
0.0
 20
0.0
 30
0.0
 70
9
  0
VERTEX
  5
25E
330
17
100
AcDbEntity
  8
TERRAIN_CONTOURS
100
AcDbVertex
100
AcDb3dPolylineVertex
 10
21.754463842930353
 20
0.49626709026313165
 30
149.0
 70
32
  0
VERTEX
  5
25F
330
17
100
AcDbEntity
  8
TERRAIN_CONTOURS
100
AcDbVertex
100
AcDb3dPolylineVertex
 10
21.80284649868356
 20
1.4888012703939069
 30
149.0
 70
32
  0
VERTEX
  5
260
330
17
100
AcDbEntity
  8
TERRAIN_CONTOURS
100
AcDbVertex
100
AcDb3dPolylineVertex
 10
21.90815718633069
 20
2.481335450524682
 30
149.0
 70
32
  0
VERTEX
  5
261
330
17
100
AcDbEntity
  8
TERRAIN_CONTOURS
100
AcDbVertex
100
AcDb3dPolylineVertex
 10
21.904340786109863
 20
3.4738696306554573
 30
149.0
 70
32
  0
VERTEX
  5
262
330
17
100
AcDbEntity
  8
TERRAIN_CONTOURS
100
AcDbVertex
100
AcDb3dPolylineVertex
 10
21.90878259298891
 20
4.466403811181721
 30
149.0
 70
32
  0
VERTEX
  5
263
330
17
100
AcDbEntity
  8
TERRAIN_CONTOURS
100
AcDbVertex
100
AcDb3dPolylineVertex
 10
21.97673170602875
 20
5.458937991312496
 30
149.0
 70
32
  0
VERTEX
  5
264
330
17
100
AcDbEntity
  8
TERRAIN_CONTOURS
100
AcDbVertex
100
AcDb3dPolylineVertex
 10
21.956160859921724
 20
6.451472171443271
 30
149.0
 70
32
  0
VERTEX
  5
265
330
17
100
AcDbEntity
  8
TERRAIN_CONTOURS
100
AcDbVertex
100
AcDb3dPolylineVertex
 10
22.087727803610285
 20
7.053874726625935
 30
149.0
 70
32
  0
VERTEX
  5
266
330
17
100
AcDbEntity
  8
TERRAIN_CONTOURS
100
AcDbVertex
100
AcDb3dPolylineVertex
 10
22.172395244165116
 20
7.444006351969534
 30
149.0
 70
32
  0
VERTEX
  5
267
330
17
100
AcDbEntity
  8
TERRAIN_CONTOURS
100
AcDbVertex
100
AcDb3dPolylineVertex
 10
22.563819980604624
 20
8.43654053210031
 30
149.0
 70
32
  0
VERTEX
  5
268
330
17
100
AcDbEntity
  8
TERRAIN_CONTOURS
100
AcDbVertex
100
AcDb3dPolylineVertex
 10
22.86726671823861
 20
9.429074712231085
 30
149.0
 70
32
  0
VERTEX
  5
269
330
17
100
AcDbEntity
  8
TERRAIN_CONTOURS
100
AcDbVertex
100
AcDb3dPolylineVertex
 10
22.986899417914014
 20
10.42160889236186
 30
149.0
 70
32
  0
VERTEX
  5
26A
330
17
100
AcDbEntity
  8
TERRAIN_CONTOURS
100
AcDbVertex
100
AcDb3dPolylineVertex
 10
23.06940459451687
 20
10.930004371485893
 30
149.0
 70
32
  0
VERTEX
  5
26B
330
17
100
AcDbEntity
  8
TERRAIN_CONTOURS
100
AcDbVertex
100
AcDb3dPolylineVertex
 10
23.144264096776084
 20
11.414143072888123
 30
149.0
 70
32
  0
VERTEX
  5
26C
330
17
100
AcDbEntity
  8
TERRAIN_CONTOURS
100
AcDbVertex
100
AcDb3dPolylineVertex
 10
23.41846406236503
 20
12.406677253018898
 30
149.0
 70
32
  0
VERTEX
  5
26D
330
17
100
AcDbEntity
  8
TERRAIN_CONTOURS
100
AcDbVertex
100
AcDb3dPolylineVertex
 10
23.335507241194858
 20
13.399211433149674
 30
149.0
 70
32
  0
VERTEX
  5
26E
330
17
100
AcDbEntity
  8
TERRAIN_CONTOURS
100
AcDbVertex
100
AcDb3dPolylineVertex
 10
23.06940459451687
 20
13.921847621198253
 30
149.0
 70
32
  0
VERTEX
  5
26F
330
17
100
AcDbEntity
  8
TERRAIN_CONTOURS
100
AcDbVertex
100
AcDb3dPolylineVertex
 10
22.85595039140975
 20
14.391745613280449
 30
149.0
 70
32
  0
VERTEX
  5
270
330
17
100
AcDbEntity
  8
TERRAIN_CONTOURS
100
AcDbVertex
100
AcDb3dPolylineVertex
 10
22.087727803610285
 20
15.238068992291858
 30
149.0
 70
32
  0
VERTEX
  5
271
330
17
100
AcDbEntity
  8
TERRAIN_CONTOURS
100
AcDbVertex
100
AcDb3dPolylineVertex
 10
21.590404060269453
 20
15.384279793806712
 30
149.0
 70
32
  0
VERTEX
  5
272
330
17
100
AcDbEntity
  8
TERRAIN_CONTOURS
100
AcDbVertex
100
AcDb3dPolylineVertex
 10
21.106051012703702
 20
15.490377071978543
 30
149.0
 70
32
  0
VERTEX
  5
273
330
17
100
AcDbEntity
  8
TERRAIN_CONTOURS
100
AcDbVertex
100
AcDb3dPolylineVertex
 10
20.377113614497674
 20
15.384279793806712
 30
149.0
 70
32
  0
VERTEX
  5
274
330
17
100
AcDbEntity
  8
TERRAIN_CONTOURS
100
AcDbVertex
100
AcDb3dPolylineVertex
 10
20.12437422042843
 20
15.343776034854244
 30
149.0
 70
32
  0
VERTEX
  5
275
330
17
100
AcDbEntity
  8
TERRAIN_CONTOURS
100
AcDbVertex
100
AcDb3dPolylineVertex
 10
19.142697429521842
 20
15.060792912418464
 30
149.0
 70
32
  0
VERTEX
  5
276
330
17
100
AcDbEntity
  8
TERRAIN_CONTOURS
100
AcDbVertex
100
AcDb3dPolylineVertex
 10
18.16102063861526
 20
14.837253090971387
 30
149.0
 70
32
  0
VERTEX
  5
277
330
17
100
AcDbEntity
  8
TERRAIN_CONTOURS
100
AcDbVertex
100
AcDb3dPolylineVertex
 10
17.179343847708676
 20
14.635495015170932
 30
149.0
 70
32
  0
VERTEX
  5
278
330
17
100
AcDbEntity
  8
TERRAIN_CONTOURS
100
AcDbVertex
100
AcDb3dPolylineVertex
 10
16.1976670554334
 20
14.403169272032414
 30
149.0
 70
32
  0
VERTEX
  5
279
330
17
100
AcDbEntity
  8
TERRAIN_CONTOURS
100
AcDbVertex
100
AcDb3dPolylineVertex
 10
16.164258610481443
 20
14.391745613280449
 30
149.0
 70
32
  0
VERTEX
  5
27A
330
17
100
AcDbEntity
  8
TERRAIN_CONTOURS
100
AcDbVertex
100
AcDb3dPolylineVertex
 10
15.215990264526816
 20
14.056071886728176
 30
149.0
 70
32
  0
VERTEX
  5
27B
330
17
100
AcDbEntity
  8
TERRAIN_CONTOURS
100
AcDbVertex
100
AcDb3dPolylineVertex
 10
14.234313473620231
 20
13.838566654659843
 30
149.0
 70
32
  0
VERTEX
  5
27C
330
17
100
AcDbEntity
  8
TERRAIN_CONTOURS
100
AcDbVertex
100
AcDb3dPolylineVertex
 10
13.252636682713648
 20
13.56499416531534
 30
149.0
 70
32
  0
VERTEX
  5
27D
330
17
100
AcDbEntity
  8
TERRAIN_CONTOURS
100
AcDbVertex
100
AcDb3dPolylineVertex
 10
12.857887847569232
 20
13.399211433149674
 30
149.0
 70
32
  0
VERTEX
  5
27E
330
17
100
AcDbEntity
  8
TERRAIN_CONTOURS
100
AcDbVertex
100
AcDb3dPolylineVertex
 10
12.270959890438373
 20
13.139077281753515
 30
149.0
 70
32
  0
VERTEX
  5
27F
330
17
100
AcDbEntity
  8
TERRAIN_CONTOURS
100
AcDbVertex
100
AcDb3dPolylineVertex
 10
11.289283099531788
 20
12.951609616260953
 30
149.0
 70
32
  0
VERTEX
  5
280
330
17
100
AcDbEntity
  8
TERRAIN_CONTOURS
100
AcDbVertex
100
AcDb3dPolylineVertex
 10
10.307606308625205
 20
12.781104785210431
 30
149.0
 70
32
  0
VERTEX
  5
281
330
17
100
AcDbEntity
  8
TERRAIN_CONTOURS
100
AcDbVertex
100
AcDb3dPolylineVertex
 10
9.32592951634993
 20
12.504873993029406
 30
149.0
 70
32
  0
VERTEX
  5
282
330
17
100
AcDbEntity
  8
TERRAIN_CONTOURS
100
AcDbVertex
100
AcDb3dPolylineVertex
 10
8.344252725443345
 20
12.407118013022398
 30
149.0
 70
32
  0
VERTEX
  5
283
330
17
100
AcDbEntity
  8
TERRAIN_CONTOURS
100
AcDbVertex
100
AcDb3dPolylineVertex
 10
7.362575934536762
 20
12.458215520728686
 30
149.0
 70
32
  0
VERTEX
  5
284
330
17
100
AcDbEntity
  8
TERRAIN_CONTOURS
100
AcDbVertex
100
AcDb3dPolylineVertex
 10
6.380899143630177
 20
12.495378856394126
 30
149.0
 70
32
  0
VERTEX
  5
285
330
17
100
AcDbEntity
  8
TERRAIN_CONTOURS
100
AcDbVertex
100
AcDb3dPolylineVertex
 10
5.650309250215098
 20
12.406677253018898
 30
149.0
 70
32
  0
VERTEX
  5
286
330
17
100
AcDbEntity
  8
TERRAIN_CONTOURS
100
AcDbVertex
100
AcDb3dPolylineVertex
 10
5.399222351354903
 20
12.367823601666288
 30
149.0
 70
32
  0
VERTEX
  5
287
330
17
100
AcDbEntity
  8
TERRAIN_CONTOURS
100
AcDbVertex
100
AcDb3dPolylineVertex
 10
4.417545560448319
 20
12.207101602291317
 30
149.0
 70
32
  0
VERTEX
  5
288
330
17
100
AcDbEntity
  8
TERRAIN_CONTOURS
100
AcDbVertex
100
AcDb3dPolylineVertex
 10
3.435868769541735
 20
12.178482612724792
 30
149.0
 70
32
  0
VERTEX
  5
289
330
17
100
AcDbEntity
  8
TERRAIN_CONTOURS
100
AcDbVertex
100
AcDb3dPolylineVertex
 10
2.454191978635151
 20
12.244058658489507
 30
149.0
 70
32
  0
VERTEX
  5
28A
330
17
100
AcDbEntity
  8
TERRAIN_CONTOURS
100
AcDbVertex
100
AcDb3dPolylineVertex
 10
1.5775366218193667
 20
12.406677253018898
 30
149.0
 70
32
  0
VERTEX
  5
28B
330
17
100
AcDbEntity
  8
TERRAIN_CONTOURS
100
AcDbVertex
100
AcDb3dPolylineVertex
 10
1.4725151863598762
 20
12.424320553980266
 30
149.0
 70
32
  0
VERTEX
  5
28C
330
17
100
AcDbEntity
  8
TERRAIN_CONTOURS
100
AcDbVertex
100
AcDb3dPolylineVertex
 10
0.49083839545329205
 20
12.535315840974022
 30
149.0
 70
32
  0
VERTEX
  5
28D
330
17
100
AcDbEntity
  8
TERRAIN_CONTOURS
100
AcDbVertex
100
AcDb3dPolylineVertex
 10
0.0
 20
12.406677253018898
 30
149.0
 70
32
  0
VERTEX
  5
28E
330
17
100
AcDbEntity
  8
TERRAIN_CONTOURS
100
AcDbVertex
100
AcDb3dPolylineVertex
 10
0.0
 20
11.414143072888123
 30
149.0
 70
32
  0
VERTEX
  5
28F
330
17
100
AcDbEntity
  8
TERRAIN_CONTOURS
100
AcDbVertex
100
AcDb3dPolylineVertex
 10
0.0
 20
10.42160889236186
 30
149.0
 70
32
  0
VERTEX
  5
290
330
17
100
AcDbEntity
  8
TERRAIN_CONTOURS
100
AcDbVertex
100
AcDb3dPolylineVertex
 10
0.0
 20
9.429074712231085
 30
149.0
 70
32
  0
VERTEX
  5
291
330
17
100
AcDbEntity
  8
TERRAIN_CONTOURS
100
AcDbVertex
100
AcDb3dPolylineVertex
 10
0.0
 20
8.43654053210031
 30
149.0
 70
32
  0
VERTEX
  5
292
330
17
100
AcDbEntity
  8
TERRAIN_CONTOURS
100
AcDbVertex
100
AcDb3dPolylineVertex
 10
0.0
 20
7.444006351969534
 30
149.0
 70
32
  0
VERTEX
  5
293
330
17
100
AcDbEntity
  8
TERRAIN_CONTOURS
100
AcDbVertex
100
AcDb3dPolylineVertex
 10
0.0
 20
6.451472171443271
 30
149.0
 70
32
  0
VERTEX
  5
294
330
17
100
AcDbEntity
  8
TERRAIN_CONTOURS
100
AcDbVertex
100
AcDb3dPolylineVertex
 10
0.0
 20
5.458937991312496
 30
149.0
 70
32
  0
VERTEX
  5
295
330
17
100
AcDbEntity
  8
TERRAIN_CONTOURS
100
AcDbVertex
100
AcDb3dPolylineVertex
 10
0.0
 20
4.466403811181721
 30
149.0
 70
32
  0
VERTEX
  5
296
330
17
100
AcDbEntity
  8
TERRAIN_CONTOURS
100
AcDbVertex
100
AcDb3dPolylineVertex
 10
0.0
 20
3.4738696306554573
 30
149.0
 70
32
  0
VERTEX
  5
297
330
17
100
AcDbEntity
  8
TERRAIN_CONTOURS
100
AcDbVertex
100
AcDb3dPolylineVertex
 10
0.0
 20
2.481335450524682
 30
149.0
 70
32
  0
VERTEX
  5
298
330
17
100
AcDbEntity
  8
TERRAIN_CONTOURS
100
AcDbVertex
100
AcDb3dPolylineVertex
 10
0.0
 20
1.4888012703939069
 30
149.0
 70
32
  0
VERTEX
  5
299
330
17
100
AcDbEntity
  8
TERRAIN_CONTOURS
100
AcDbVertex
100
AcDb3dPolylineVertex
 10
0.0
 20
0.49626709026313165
 30
149.0
 70
32
  0
VERTEX
  5
29A
330
17
100
AcDbEntity
  8
TERRAIN_CONTOURS
100
AcDbVertex
100
AcDb3dPolylineVertex
 10
0.49083839545329205
 20
0.0
 30
149.0
 70
32
  0
VERTEX
  5
29B
330
17
100
AcDbEntity
  8
TERRAIN_CONTOURS
100
AcDbVertex
100
AcDb3dPolylineVertex
 10
1.4725151863598762
 20
0.0
 30
149.0
 70
32
  0
VERTEX
  5
29C
330
17
100
AcDbEntity
  8
TERRAIN_CONTOURS
100
AcDbVertex
100
AcDb3dPolylineVertex
 10
2.454191978635151
 20
0.0
 30
149.0
 70
32
  0
VERTEX
  5
29D
330
17
100
AcDbEntity
  8
TERRAIN_CONTOURS
100
AcDbVertex
100
AcDb3dPolylineVertex
 10
3.435868769541735
 20
0.0
 30
149.0
 70
32
  0
VERTEX
  5
29E
330
17
100
AcDbEntity
  8
TERRAIN_CONTOURS
100
AcDbVertex
100
AcDb3dPolylineVertex
 10
4.417545560448319
 20
0.0
 30
149.0
 70
32
  0
VERTEX
  5
29F
330
17
100
AcDbEntity
  8
TERRAIN_CONTOURS
100
AcDbVertex
100
AcDb3dPolylineVertex
 10
5.399222351354903
 20
0.0
 30
149.0
 70
32
  0
VERTEX
  5
2A0
330
17
100
AcDbEntity
  8
TERRAIN_CONTOURS
100
AcDbVertex
100
AcDb3dPolylineVertex
 10
6.380899143630177
 20
0.0
 30
149.0
 70
32
  0
VERTEX
  5
2A1
330
17
100
AcDbEntity
  8
TERRAIN_CONTOURS
100
AcDbVertex
100
AcDb3dPolylineVertex
 10
7.362575934536762
 20
0.0
 30
149.0
 70
32
  0
VERTEX
  5
2A2
330
17
100
AcDbEntity
  8
TERRAIN_CONTOURS
100
AcDbVertex
100
AcDb3dPolylineVertex
 10
8.344252725443345
 20
0.0
 30
149.0
 70
32
  0
VERTEX
  5
2A3
330
17
100
AcDbEntity
  8
TERRAIN_CONTOURS
100
AcDbVertex
100
AcDb3dPolylineVertex
 10
9.32592951634993
 20
0.0
 30
149.0
 70
32
  0
VERTEX
  5
2A4
330
17
100
AcDbEntity
  8
TERRAIN_CONTOURS
100
AcDbVertex
100
AcDb3dPolylineVertex
 10
10.307606308625205
 20
0.0
 30
149.0
 70
32
  0
VERTEX
  5
2A5
330
17
100
AcDbEntity
  8
TERRAIN_CONTOURS
100
AcDbVertex
100
AcDb3dPolylineVertex
 10
11.289283099531788
 20
0.0
 30
149.0
 70
32
  0
VERTEX
  5
2A6
330
17
100
AcDbEntity
  8
TERRAIN_CONTOURS
100
AcDbVertex
100
AcDb3dPolylineVertex
 10
12.270959890438373
 20
0.0
 30
149.0
 70
32
  0
VERTEX
  5
2A7
330
17
100
AcDbEntity
  8
TERRAIN_CONTOURS
100
AcDbVertex
100
AcDb3dPolylineVertex
 10
13.252636682713648
 20
0.0
 30
149.0
 70
32
  0
VERTEX
  5
2A8
330
17
100
AcDbEntity
  8
TERRAIN_CONTOURS
100
AcDbVertex
100
AcDb3dPolylineVertex
 10
14.234313473620231
 20
0.0
 30
149.0
 70
32
  0
VERTEX
  5
2A9
330
17
100
AcDbEntity
  8
TERRAIN_CONTOURS
100
AcDbVertex
100
AcDb3dPolylineVertex
 10
15.215990264526816
 20
0.0
 30
149.0
 70
32
  0
VERTEX
  5
2AA
330
17
100
AcDbEntity
  8
TERRAIN_CONTOURS
100
AcDbVertex
100
AcDb3dPolylineVertex
 10
16.1976670554334
 20
0.0
 30
149.0
 70
32
  0
VERTEX
  5
2AB
330
17
100
AcDbEntity
  8
TERRAIN_CONTOURS
100
AcDbVertex
100
AcDb3dPolylineVertex
 10
17.179343847708676
 20
0.0
 30
149.0
 70
32
  0
VERTEX
  5
2AC
330
17
100
AcDbEntity
  8
TERRAIN_CONTOURS
100
AcDbVertex
100
AcDb3dPolylineVertex
 10
18.16102063861526
 20
0.0
 30
149.0
 70
32
  0
VERTEX
  5
2AD
330
17
100
AcDbEntity
  8
TERRAIN_CONTOURS
100
AcDbVertex
100
AcDb3dPolylineVertex
 10
19.142697429521842
 20
0.0
 30
149.0
 70
32
  0
VERTEX
  5
2AE
330
17
100
AcDbEntity
  8
TERRAIN_CONTOURS
100
AcDbVertex
100
AcDb3dPolylineVertex
 10
20.12437422042843
 20
0.0
 30
149.0
 70
32
  0
VERTEX
  5
2AF
330
17
100
AcDbEntity
  8
TERRAIN_CONTOURS
100
AcDbVertex
100
AcDb3dPolylineVertex
 10
21.106051012703702
 20
0.0
 30
149.0
 70
32
  0
SEQEND
  5
25D
330
25C
100
AcDbEntity
  8
TERRAIN_CONTOURS
  0
POLYLINE
  5
2B0
330
17
100
AcDbEntity
  8
TERRAIN_CONTOURS
100
AcDb3dPolyline
 66
1
 10
0.0
 20
0.0
 30
0.0
 70
9
  0
VERTEX
  5
2B2
330
17
100
AcDbEntity
  8
TERRAIN_CONTOURS
100
AcDbVertex
100
AcDb3dPolylineVertex
 10
45.15713239812715
 20
0.49626709026313165
 30
149.0
 70
32
  0
VERTEX
  5
2B3
330
17
100
AcDbEntity
  8
TERRAIN_CONTOURS
100
AcDbVertex
100
AcDb3dPolylineVertex
 10
45.15713239812715
 20
1.4888012703939069
 30
149.0
 70
32
  0
VERTEX
  5
2B4
330
17
100
AcDbEntity
  8
TERRAIN_CONTOURS
100
AcDbVertex
100
AcDb3dPolylineVertex
 10
44.666294002673865
 20
2.1390436508494304
 30
149.0
 70
32
  0
VERTEX
  5
2B5
330
17
100
AcDbEntity
  8
TERRAIN_CONTOURS
100
AcDbVertex
100
AcDb3dPolylineVertex
 10
44.273042554529184
 20
2.481335450524682
 30
149.0
 70
32
  0
VERTEX
  5
2B6
330
17
100
AcDbEntity
  8
TERRAIN_CONTOURS
100
AcDbVertex
100
AcDb3dPolylineVertex
 10
43.68461721176728
 20
3.0399680743786917
 30
149.0
 70
32
  0
VERTEX
  5
2B7
330
17
100
AcDbEntity
  8
TERRAIN_CONTOURS
100
AcDbVertex
100
AcDb3dPolylineVertex
 10
43.018532362866694
 20
3.4738696306554573
 30
149.0
 70
32
  0
VERTEX
  5
2B8
330
17
100
AcDbEntity
  8
TERRAIN_CONTOURS
100
AcDbVertex
100
AcDb3dPolylineVertex
 10
42.702940419492
 20
3.676077366127828
 30
149.0
 70
32
  0
VERTEX
  5
2B9
330
17
100
AcDbEntity
  8
TERRAIN_CONTOURS
100
AcDbVertex
100
AcDb3dPolylineVertex
 10
41.72126362858542
 20
4.031514347020675
 30
149.0
 70
32
  0
VERTEX
  5
2BA
330
17
100
AcDbEntity
  8
TERRAIN_CONTOURS
100
AcDbVertex
100
AcDb3dPolylineVertex
 10
40.739586837678836
 20
4.42477614390171
 30
149.0
 70
32
  0
VERTEX
  5
2BB
330
17
100
AcDbEntity
  8
TERRAIN_CONTOURS
100
AcDbVertex
100
AcDb3dPolylineVertex
 10
40.648748255387645
 20
4.466403811181721
 30
149.0
 70
32
  0
VERTEX
  5
2BC
330
17
100
AcDbEntity
  8
TERRAIN_CONTOURS
100
AcDbVertex
100
AcDb3dPolylineVertex
 10
39.75791004677225
 20
4.8898984417400015
 30
149.0
 70
32
  0
VERTEX
  5
2BD
330
17
100
AcDbEntity
  8
TERRAIN_CONTOURS
100
AcDbVertex
100
AcDb3dPolylineVertex
 10
38.818381306445616
 20
5.458937991312496
 30
149.0
 70
32
  0
VERTEX
  5
2BE
330
17
100
AcDbEntity
  8
TERRAIN_CONTOURS
100
AcDbVertex
100
AcDb3dPolylineVertex
 10
38.77623325449698
 20
5.632126163550311
 30
149.0
 70
32
  0
VERTEX
  5
2BF
330
17
100
AcDbEntity
  8
TERRAIN_CONTOURS
100
AcDbVertex
100
AcDb3dPolylineVertex
 10
38.605141775585736
 20
6.451472171443271
 30
149.0
 70
32
  0
VERTEX
  5
2C0
330
17
100
AcDbEntity
  8
TERRAIN_CONTOURS
100
AcDbVertex
100
AcDb3dPolylineVertex
 10
38.13138624328234
 20
7.444006351969534
 30
149.0
 70
32
  0
VERTEX
  5
2C1
330
17
100
AcDbEntity
  8
TERRAIN_CONTOURS
100
AcDbVertex
100
AcDb3dPolylineVertex
 10
37.794556463590396
 20
7.866350974754965
 30
149.0
 70
32
  0
VERTEX
  5
2C2
330
17
100
AcDbEntity
  8
TERRAIN_CONTOURS
100
AcDbVertex
100
AcDb3dPolylineVertex
 10
37.114156039612524
 20
8.43654053210031
 30
149.0
 70
32
  0
VERTEX
  5
2C3
330
17
100
AcDbEntity
  8
TERRAIN_CONTOURS
100
AcDbVertex
100
AcDb3dPolylineVertex
 10
36.81287967268381
 20
9.405087581055227
 30
149.0
 70
32
  0
VERTEX
  5
2C4
330
17
100
AcDbEntity
  8
TERRAIN_CONTOURS
100
AcDbVertex
100
AcDb3dPolylineVertex
 10
36.80640233300385
 20
9.429074712231085
 30
149.0
 70
32
  0
VERTEX
  5
2C5
330
17
100
AcDbEntity
  8
TERRAIN_CONTOURS
100
AcDbVertex
100
AcDb3dPolylineVertex
 10
36.81287967268381
 20
9.468202209422145
 30
149.0
 70
32
  0
VERTEX
  5
2C6
330
17
100
AcDbEntity
  8
TERRAIN_CONTOURS
100
AcDbVertex
100
AcDb3dPolylineVertex
 10
36.899047507251204
 20
10.42160889236186
 30
149.0
 70
32
  0
VERTEX
  5
2C7
330
17
100
AcDbEntity
  8
TERRAIN_CONTOURS
100
AcDbVertex
100
AcDb3dPolylineVertex
 10
36.81287967268381
 20
10.660065011698237
 30
149.0
 70
32
  0
VERTEX
  5
2C8
330
17
100
AcDbEntity
  8
TERRAIN_CONTOURS
100
AcDbVertex
100
AcDb3dPolylineVertex
 10
36.199608026199485
 20
11.414143072888123
 30
149.0
 70
32
  0
VERTEX
  5
2C9
330
17
100
AcDbEntity
  8
TERRAIN_CONTOURS
100
AcDbVertex
100
AcDb3dPolylineVertex
 10
35.83120288177722
 20
11.711703334494672
 30
149.0
 70
32
  0
VERTEX
  5
2CA
330
17
100
AcDbEntity
  8
TERRAIN_CONTOURS
100
AcDbVertex
100
AcDb3dPolylineVertex
 10
35.50680647327343
 20
11.414143072888123
 30
149.0
 70
32
  0
VERTEX
  5
2CB
330
17
100
AcDbEntity
  8
TERRAIN_CONTOURS
100
AcDbVertex
100
AcDb3dPolylineVertex
 10
34.98738590898926
 20
10.42160889236186
 30
149.0
 70
32
  0
VERTEX
  5
2CC
330
17
100
AcDbEntity
  8
TERRAIN_CONTOURS
100
AcDbVertex
100
AcDb3dPolylineVertex
 10
34.84952608950195
 20
9.80608381940641
 30
149.0
 70
32
  0
VERTEX
  5
2CD
330
17
100
AcDbEntity
  8
TERRAIN_CONTOURS
100
AcDbVertex
100
AcDb3dPolylineVertex
 10
34.78261427133732
 20
9.429074712231085
 30
149.0
 70
32
  0
VERTEX
  5
2CE
330
17
100
AcDbEntity
  8
TERRAIN_CONTOURS
100
AcDbVertex
100
AcDb3dPolylineVertex
 10
34.524271731102026
 20
8.43654053210031
 30
149.0
 70
32
  0
VERTEX
  5
2CF
330
17
100
AcDbEntity
  8
TERRAIN_CONTOURS
100
AcDbVertex
100
AcDb3dPolylineVertex
 10
33.86784929859537
 20
7.487457413513994
 30
149.0
 70
32
  0
VERTEX
  5
2D0
330
17
100
AcDbEntity
  8
TERRAIN_CONTOURS
100
AcDbVertex
100
AcDb3dPolylineVertex
 10
33.82598499259285
 20
7.444006351969534
 30
149.0
 70
32
  0
VERTEX
  5
2D1
330
17
100
AcDbEntity
  8
TERRAIN_CONTOURS
100
AcDbVertex
100
AcDb3dPolylineVertex
 10
32.886172507688784
 20
6.84868509047277
 30
149.0
 70
32
  0
VERTEX
  5
2D2
330
17
100
AcDbEntity
  8
TERRAIN_CONTOURS
100
AcDbVertex
100
AcDb3dPolylineVertex
 10
32.54343296233054
 20
6.451472171443271
 30
149.0
 70
32
  0
VERTEX
  5
2D3
330
17
100
AcDbEntity
  8
TERRAIN_CONTOURS
100
AcDbVertex
100
AcDb3dPolylineVertex
 10
31.904495715413507
 20
5.539130965513408
 30
149.0
 70
32
  0
VERTEX
  5
2D4
330
17
100
AcDbEntity
  8
TERRAIN_CONTOURS
100
AcDbVertex
100
AcDb3dPolylineVertex
 10
31.830965085622154
 20
5.458937991312496
 30
149.0
 70
32
  0
VERTEX
  5
2D5
330
17
100
AcDbEntity
  8
TERRAIN_CONTOURS
100
AcDbVertex
100
AcDb3dPolylineVertex
 10
30.922818924506924
 20
4.531123588062798
 30
149.0
 70
32
  0
VERTEX
  5
2D6
330
17
100
AcDbEntity
  8
TERRAIN_CONTOURS
100
AcDbVertex
100
AcDb3dPolylineVertex
 10
30.87551209363264
 20
4.466403811181721
 30
149.0
 70
32
  0
VERTEX
  5
2D7
330
17
100
AcDbEntity
  8
TERRAIN_CONTOURS
100
AcDbVertex
100
AcDb3dPolylineVertex
 10
30.277670739811185
 20
3.4738696306554573
 30
149.0
 70
32
  0
VERTEX
  5
2D8
330
17
100
AcDbEntity
  8
TERRAIN_CONTOURS
100
AcDbVertex
100
AcDb3dPolylineVertex
 10
29.94114213360034
 20
2.522118249260643
 30
149.0
 70
32
  0
VERTEX
  5
2D9
330
17
100
AcDbEntity
  8
TERRAIN_CONTOURS
100
AcDbVertex
100
AcDb3dPolylineVertex
 10
29.926615699447304
 20
2.481335450524682
 30
149.0
 70
32
  0
VERTEX
  5
2DA
330
17
100
AcDbEntity
  8
TERRAIN_CONTOURS
100
AcDbVertex
100
AcDb3dPolylineVertex
 10
29.487863479963927
 20
1.4888012703939069
 30
149.0
 70
32
  0
VERTEX
  5
2DB
330
17
100
AcDbEntity
  8
TERRAIN_CONTOURS
100
AcDbVertex
100
AcDb3dPolylineVertex
 10
29.101116570115018
 20
0.49626709026313165
 30
149.0
 70
32
  0
VERTEX
  5
2DC
330
17
100
AcDbEntity
  8
TERRAIN_CONTOURS
100
AcDbVertex
100
AcDb3dPolylineVertex
 10
29.94114213360034
 20
0.0
 30
149.0
 70
32
  0
VERTEX
  5
2DD
330
17
100
AcDbEntity
  8
TERRAIN_CONTOURS
100
AcDbVertex
100
AcDb3dPolylineVertex
 10
30.922818924506924
 20
0.0
 30
149.0
 70
32
  0
VERTEX
  5
2DE
330
17
100
AcDbEntity
  8
TERRAIN_CONTOURS
100
AcDbVertex
100
AcDb3dPolylineVertex
 10
31.904495715413507
 20
0.0
 30
149.0
 70
32
  0
VERTEX
  5
2DF
330
17
100
AcDbEntity
  8
TERRAIN_CONTOURS
100
AcDbVertex
100
AcDb3dPolylineVertex
 10
32.886172507688784
 20
0.0
 30
149.0
 70
32
  0
VERTEX
  5
2E0
330
17
100
AcDbEntity
  8
TERRAIN_CONTOURS
100
AcDbVertex
100
AcDb3dPolylineVertex
 10
33.86784929859537
 20
0.0
 30
149.0
 70
32
  0
VERTEX
  5
2E1
330
17
100
AcDbEntity
  8
TERRAIN_CONTOURS
100
AcDbVertex
100
AcDb3dPolylineVertex
 10
34.84952608950195
 20
0.0
 30
149.0
 70
32
  0
VERTEX
  5
2E2
330
17
100
AcDbEntity
  8
TERRAIN_CONTOURS
100
AcDbVertex
100
AcDb3dPolylineVertex
 10
35.83120288177722
 20
0.0
 30
149.0
 70
32
  0
VERTEX
  5
2E3
330
17
100
AcDbEntity
  8
TERRAIN_CONTOURS
100
AcDbVertex
100
AcDb3dPolylineVertex
 10
36.81287967268381
 20
0.0
 30
149.0
 70
32
  0
VERTEX
  5
2E4
330
17
100
AcDbEntity
  8
TERRAIN_CONTOURS
100
AcDbVertex
100
AcDb3dPolylineVertex
 10
37.794556463590396
 20
0.0
 30
149.0
 70
32
  0
VERTEX
  5
2E5
330
17
100
AcDbEntity
  8
TERRAIN_CONTOURS
100
AcDbVertex
100
AcDb3dPolylineVertex
 10
38.77623325449698
 20
0.0
 30
149.0
 70
32
  0
VERTEX
  5
2E6
330
17
100
AcDbEntity
  8
TERRAIN_CONTOURS
100
AcDbVertex
100
AcDb3dPolylineVertex
 10
39.75791004677225
 20
0.0
 30
149.0
 70
32
  0
VERTEX
  5
2E7
330
17
100
AcDbEntity
  8
TERRAIN_CONTOURS
100
AcDbVertex
100
AcDb3dPolylineVertex
 10
40.739586837678836
 20
0.0
 30
149.0
 70
32
  0
VERTEX
  5
2E8
330
17
100
AcDbEntity
  8
TERRAIN_CONTOURS
100
AcDbVertex
100
AcDb3dPolylineVertex
 10
41.72126362858542
 20
0.0
 30
149.0
 70
32
  0
VERTEX
  5
2E9
330
17
100
AcDbEntity
  8
TERRAIN_CONTOURS
100
AcDbVertex
100
AcDb3dPolylineVertex
 10
42.702940419492
 20
0.0
 30
149.0
 70
32
  0
VERTEX
  5
2EA
330
17
100
AcDbEntity
  8
TERRAIN_CONTOURS
100
AcDbVertex
100
AcDb3dPolylineVertex
 10
43.68461721176728
 20
0.0
 30
149.0
 70
32
  0
VERTEX
  5
2EB
330
17
100
AcDbEntity
  8
TERRAIN_CONTOURS
100
AcDbVertex
100
AcDb3dPolylineVertex
 10
44.666294002673865
 20
0.0
 30
149.0
 70
32
  0
SEQEND
  5
2B1
330
2B0
100
AcDbEntity
  8
TERRAIN_CONTOURS
  0
POLYLINE
  5
2EC
330
17
100
AcDbEntity
  8
TERRAIN_CONTOURS
100
AcDb3dPolyline
 66
1
 10
0.0
 20
0.0
 30
0.0
 70
9
  0
VERTEX
  5
2EE
330
17
100
AcDbEntity
  8
TERRAIN_CONTOURS
100
AcDbVertex
100
AcDb3dPolylineVertex
 10
19.773724638174
 20
0.49626709026313165
 30
150.0
 70
32
  0
VERTEX
  5
2EF
330
17
100
AcDbEntity
  8
TERRAIN_CONTOURS
100
AcDbVertex
100
AcDb3dPolylineVertex
 10
19.74384258710682
 20
1.4888012703939069
 30
150.0
 70
32
  0
VERTEX
  5
2F0
330
17
100
AcDbEntity
  8
TERRAIN_CONTOURS
100
AcDbVertex
100
AcDb3dPolylineVertex
 10
19.59906840646057
 20
2.481335450524682
 30
150.0
 70
32
  0
VERTEX
  5
2F1
330
17
100
AcDbEntity
  8
TERRAIN_CONTOURS
100
AcDbVertex
100
AcDb3dPolylineVertex
 10
19.550071713760374
 20
3.4738696306554573
 30
150.0
 70
32
  0
VERTEX
  5
2F2
330
17
100
AcDbEntity
  8
TERRAIN_CONTOURS
100
AcDbVertex
100
AcDb3dPolylineVertex
 10
19.782526120926704
 20
4.466403811181721
 30
150.0
 70
32
  0
VERTEX
  5
2F3
330
17
100
AcDbEntity
  8
TERRAIN_CONTOURS
100
AcDbVertex
100
AcDb3dPolylineVertex
 10
19.881835326963216
 20
5.458937991312496
 30
150.0
 70
32
  0
VERTEX
  5
2F4
330
17
100
AcDbEntity
  8
TERRAIN_CONTOURS
100
AcDbVertex
100
AcDb3dPolylineVertex
 10
19.62372201636635
 20
6.451472171443271
 30
150.0
 70
32
  0
VERTEX
  5
2F5
330
17
100
AcDbEntity
  8
TERRAIN_CONTOURS
100
AcDbVertex
100
AcDb3dPolylineVertex
 10
19.740558768960653
 20
7.444006351969534
 30
150.0
 70
32
  0
VERTEX
  5
2F6
330
17
100
AcDbEntity
  8
TERRAIN_CONTOURS
100
AcDbVertex
100
AcDb3dPolylineVertex
 10
20.12437422042843
 20
8.096052349121265
 30
150.0
 70
32
  0
VERTEX
  5
2F7
330
17
100
AcDbEntity
  8
TERRAIN_CONTOURS
100
AcDbVertex
100
AcDb3dPolylineVertex
 10
20.280319969731092
 20
8.43654053210031
 30
150.0
 70
32
  0
VERTEX
  5
2F8
330
17
100
AcDbEntity
  8
TERRAIN_CONTOURS
100
AcDbVertex
100
AcDb3dPolylineVertex
 10
20.815223856588048
 20
9.429074712231085
 30
150.0
 70
32
  0
VERTEX
  5
2F9
330
17
100
AcDbEntity
  8
TERRAIN_CONTOURS
100
AcDbVertex
100
AcDb3dPolylineVertex
 10
21.104594125253175
 20
10.42160889236186
 30
150.0
 70
32
  0
VERTEX
  5
2FA
330
17
100
AcDbEntity
  8
TERRAIN_CONTOURS
100
AcDbVertex
100
AcDb3dPolylineVertex
 10
21.106051012703702
 20
10.431007351143364
 30
150.0
 70
32
  0
VERTEX
  5
2FB
330
17
100
AcDbEntity
  8
TERRAIN_CONTOURS
100
AcDbVertex
100
AcDb3dPolylineVertex
 10
21.21226804713983
 20
11.414143072888123
 30
150.0
 70
32
  0
VERTEX
  5
2FC
330
17
100
AcDbEntity
  8
TERRAIN_CONTOURS
100
AcDbVertex
100
AcDb3dPolylineVertex
 10
21.239997290537076
 20
12.406677253018898
 30
150.0
 70
32
  0
VERTEX
  5
2FD
330
17
100
AcDbEntity
  8
TERRAIN_CONTOURS
100
AcDbVertex
100
AcDb3dPolylineVertex
 10
21.106051012703702
 20
12.777523435722316
 30
150.0
 70
32
  0
VERTEX
  5
2FE
330
17
100
AcDbEntity
  8
TERRAIN_CONTOURS
100
AcDbVertex
100
AcDb3dPolylineVertex
 10
20.12437422042843
 20
13.212106213505166
 30
150.0
 70
32
  0
VERTEX
  5
2FF
330
17
100
AcDbEntity
  8
TERRAIN_CONTOURS
100
AcDbVertex
100
AcDb3dPolylineVertex
 10
19.142697429521842
 20
12.970394463923043
 30
150.0
 70
32
  0
VERTEX
  5
300
330
17
100
AcDbEntity
  8
TERRAIN_CONTOURS
100
AcDbVertex
100
AcDb3dPolylineVertex
 10
18.16102063861526
 20
12.728275385736367
 30
150.0
 70
32
  0
VERTEX
  5
301
330
17
100
AcDbEntity
  8
TERRAIN_CONTOURS
100
AcDbVertex
100
AcDb3dPolylineVertex
 10
17.179343847708676
 20
12.514205319290141
 30
150.0
 70
32
  0
VERTEX
  5
302
330
17
100
AcDbEntity
  8
TERRAIN_CONTOURS
100
AcDbVertex
100
AcDb3dPolylineVertex
 10
16.749472152849137
 20
12.406677253018898
 30
150.0
 70
32
  0
VERTEX
  5
303
330
17
100
AcDbEntity
  8
TERRAIN_CONTOURS
100
AcDbVertex
100
AcDb3dPolylineVertex
 10
16.1976670554334
 20
12.258032828218006
 30
150.0
 70
32
  0
VERTEX
  5
304
330
17
100
AcDbEntity
  8
TERRAIN_CONTOURS
100
AcDbVertex
100
AcDb3dPolylineVertex
 10
15.215990264526816
 20
12.04940656392779
 30
150.0
 70
32
  0
VERTEX
  5
305
330
17
100
AcDbEntity
  8
TERRAIN_CONTOURS
100
AcDbVertex
100
AcDb3dPolylineVertex
 10
14.234313473620231
 20
11.928909376266006
 30
150.0
 70
32
  0
VERTEX
  5
306
330
17
100
AcDbEntity
  8
TERRAIN_CONTOURS
100
AcDbVertex
100
AcDb3dPolylineVertex
 10
13.252636682713648
 20
11.792766465934363
 30
150.0
 70
32
  0
VERTEX
  5
307
330
17
100
AcDbEntity
  8
TERRAIN_CONTOURS
100
AcDbVertex
100
AcDb3dPolylineVertex
 10
12.270959890438373
 20
11.5933760420522
 30
150.0
 70
32
  0
VERTEX
  5
308
330
17
100
AcDbEntity
  8
TERRAIN_CONTOURS
100
AcDbVertex
100
AcDb3dPolylineVertex
 10
11.341067841969425
 20
11.414143072888123
 30
150.0
 70
32
  0
VERTEX
  5
309
330
17
100
AcDbEntity
  8
TERRAIN_CONTOURS
100
AcDbVertex
100
AcDb3dPolylineVertex
 10
11.289283099531788
 20
11.400554240253626
 30
150.0
 70
32
  0
VERTEX
  5
30A
330
17
100
AcDbEntity
  8
TERRAIN_CONTOURS
100
AcDbVertex
100
AcDb3dPolylineVertex
 10
10.307606308625205
 20
11.099195660835193
 30
150.0
 70
32
  0
VERTEX
  5
30B
330
17
100
AcDbEntity
  8
TERRAIN_CONTOURS
100
AcDbVertex
100
AcDb3dPolylineVertex
 10
9.32592951634993
 20
10.907263079196667
 30
150.0
 70
32
  0
VERTEX
  5
30C
330
17
100
AcDbEntity
  8
TERRAIN_CONTOURS
100
AcDbVertex
100
AcDb3dPolylineVertex
 10
8.344252725443345
 20
10.903637824994092
 30
150.0
 70
32
  0
VERTEX
  5
30D
330
17
100
AcDbEntity
  8
TERRAIN_CONTOURS
100
AcDbVertex
100
AcDb3dPolylineVertex
 10
7.362575934536762
 20
10.891767373463352
 30
150.0
 70
32
  0
VERTEX
  5
30E
330
17
100
AcDbEntity
  8
TERRAIN_CONTOURS
100
AcDbVertex
100
AcDb3dPolylineVertex
 10
6.380899143630177
 20
10.78605792198303
 30
150.0
 70
32
  0
VERTEX
  5
30F
330
17
100
AcDbEntity
  8
TERRAIN_CONTOURS
100
AcDbVertex
100
AcDb3dPolylineVertex
 10
5.399222351354903
 20
10.675883650064861
 30
150.0
 70
32
  0
VERTEX
  5
310
330
17
100
AcDbEntity
  8
TERRAIN_CONTOURS
100
AcDbVertex
100
AcDb3dPolylineVertex
 10
4.417545560448319
 20
10.60296053194179
 30
150.0
 70
32
  0
VERTEX
  5
311
330
17
100
AcDbEntity
  8
TERRAIN_CONTOURS
100
AcDbVertex
100
AcDb3dPolylineVertex
 10
3.435868769541735
 20
10.535731757677667
 30
150.0
 70
32
  0
VERTEX
  5
312
330
17
100
AcDbEntity
  8
TERRAIN_CONTOURS
100
AcDbVertex
100
AcDb3dPolylineVertex
 10
2.454191978635151
 20
10.513125690279566
 30
150.0
 70
32
  0
VERTEX
  5
313
330
17
100
AcDbEntity
  8
TERRAIN_CONTOURS
100
AcDbVertex
100
AcDb3dPolylineVertex
 10
1.4725151863598762
 20
10.471712781335896
 30
150.0
 70
32
  0
VERTEX
  5
314
330
17
100
AcDbEntity
  8
TERRAIN_CONTOURS
100
AcDbVertex
100
AcDb3dPolylineVertex
 10
1.1903528752646808
 20
10.42160889236186
 30
150.0
 70
32
  0
VERTEX
  5
315
330
17
100
AcDbEntity
  8
TERRAIN_CONTOURS
100
AcDbVertex
100
AcDb3dPolylineVertex
 10
0.49083839545329205
 20
10.01240620423232
 30
150.0
 70
32
  0
VERTEX
  5
316
330
17
100
AcDbEntity
  8
TERRAIN_CONTOURS
100
AcDbVertex
100
AcDb3dPolylineVertex
 10
0.0
 20
9.429074712231085
 30
150.0
 70
32
  0
VERTEX
  5
317
330
17
100
AcDbEntity
  8
TERRAIN_CONTOURS
100
AcDbVertex
100
AcDb3dPolylineVertex
 10
0.0
 20
8.43654053210031
 30
150.0
 70
32
  0
VERTEX
  5
318
330
17
100
AcDbEntity
  8
TERRAIN_CONTOURS
100
AcDbVertex
100
AcDb3dPolylineVertex
 10
0.0
 20
7.444006351969534
 30
150.0
 70
32
  0
VERTEX
  5
319
330
17
100
AcDbEntity
  8
TERRAIN_CONTOURS
100
AcDbVertex
100
AcDb3dPolylineVertex
 10
0.0
 20
6.451472171443271
 30
150.0
 70
32
  0
VERTEX
  5
31A
330
17
100
AcDbEntity
  8
TERRAIN_CONTOURS
100
AcDbVertex
100
AcDb3dPolylineVertex
 10
0.0
 20
5.458937991312496
 30
150.0
 70
32
  0
VERTEX
  5
31B
330
17
100
AcDbEntity
  8
TERRAIN_CONTOURS
100
AcDbVertex
100
AcDb3dPolylineVertex
 10
0.0
 20
4.466403811181721
 30
150.0
 70
32
  0
VERTEX
  5
31C
330
17
100
AcDbEntity
  8
TERRAIN_CONTOURS
100
AcDbVertex
100
AcDb3dPolylineVertex
 10
0.0
 20
3.4738696306554573
 30
150.0
 70
32
  0
VERTEX
  5
31D
330
17
100
AcDbEntity
  8
TERRAIN_CONTOURS
100
AcDbVertex
100
AcDb3dPolylineVertex
 10
0.0
 20
2.481335450524682
 30
150.0
 70
32
  0
VERTEX
  5
31E
330
17
100
AcDbEntity
  8
TERRAIN_CONTOURS
100
AcDbVertex
100
AcDb3dPolylineVertex
 10
0.0
 20
1.4888012703939069
 30
150.0
 70
32
  0
VERTEX
  5
31F
330
17
100
AcDbEntity
  8
TERRAIN_CONTOURS
100
AcDbVertex
100
AcDb3dPolylineVertex
 10
0.0
 20
0.49626709026313165
 30
150.0
 70
32
  0
VERTEX
  5
320
330
17
100
AcDbEntity
  8
TERRAIN_CONTOURS
100
AcDbVertex
100
AcDb3dPolylineVertex
 10
0.49083839545329205
 20
0.0
 30
150.0
 70
32
  0
VERTEX
  5
321
330
17
100
AcDbEntity
  8
TERRAIN_CONTOURS
100
AcDbVertex
100
AcDb3dPolylineVertex
 10
1.4725151863598762
 20
0.0
 30
150.0
 70
32
  0
VERTEX
  5
322
330
17
100
AcDbEntity
  8
TERRAIN_CONTOURS
100
AcDbVertex
100
AcDb3dPolylineVertex
 10
2.454191978635151
 20
0.0
 30
150.0
 70
32
  0
VERTEX
  5
323
330
17
100
AcDbEntity
  8
TERRAIN_CONTOURS
100
AcDbVertex
100
AcDb3dPolylineVertex
 10
3.435868769541735
 20
0.0
 30
150.0
 70
32
  0
VERTEX
  5
324
330
17
100
AcDbEntity
  8
TERRAIN_CONTOURS
100
AcDbVertex
100
AcDb3dPolylineVertex
 10
4.417545560448319
 20
0.0
 30
150.0
 70
32
  0
VERTEX
  5
325
330
17
100
AcDbEntity
  8
TERRAIN_CONTOURS
100
AcDbVertex
100
AcDb3dPolylineVertex
 10
5.399222351354903
 20
0.0
 30
150.0
 70
32
  0
VERTEX
  5
326
330
17
100
AcDbEntity
  8
TERRAIN_CONTOURS
100
AcDbVertex
100
AcDb3dPolylineVertex
 10
6.380899143630177
 20
0.0
 30
150.0
 70
32
  0
VERTEX
  5
327
330
17
100
AcDbEntity
  8
TERRAIN_CONTOURS
100
AcDbVertex
100
AcDb3dPolylineVertex
 10
7.362575934536762
 20
0.0
 30
150.0
 70
32
  0
VERTEX
  5
328
330
17
100
AcDbEntity
  8
TERRAIN_CONTOURS
100
AcDbVertex
100
AcDb3dPolylineVertex
 10
8.344252725443345
 20
0.0
 30
150.0
 70
32
  0
VERTEX
  5
329
330
17
100
AcDbEntity
  8
TERRAIN_CONTOURS
100
AcDbVertex
100
AcDb3dPolylineVertex
 10
9.32592951634993
 20
0.0
 30
150.0
 70
32
  0
VERTEX
  5
32A
330
17
100
AcDbEntity
  8
TERRAIN_CONTOURS
100
AcDbVertex
100
AcDb3dPolylineVertex
 10
10.307606308625205
 20
0.0
 30
150.0
 70
32
  0
VERTEX
  5
32B
330
17
100
AcDbEntity
  8
TERRAIN_CONTOURS
100
AcDbVertex
100
AcDb3dPolylineVertex
 10
11.289283099531788
 20
0.0
 30
150.0
 70
32
  0
VERTEX
  5
32C
330
17
100
AcDbEntity
  8
TERRAIN_CONTOURS
100
AcDbVertex
100
AcDb3dPolylineVertex
 10
12.270959890438373
 20
0.0
 30
150.0
 70
32
  0
VERTEX
  5
32D
330
17
100
AcDbEntity
  8
TERRAIN_CONTOURS
100
AcDbVertex
100
AcDb3dPolylineVertex
 10
13.252636682713648
 20
0.0
 30
150.0
 70
32
  0
VERTEX
  5
32E
330
17
100
AcDbEntity
  8
TERRAIN_CONTOURS
100
AcDbVertex
100
AcDb3dPolylineVertex
 10
14.234313473620231
 20
0.0
 30
150.0
 70
32
  0
VERTEX
  5
32F
330
17
100
AcDbEntity
  8
TERRAIN_CONTOURS
100
AcDbVertex
100
AcDb3dPolylineVertex
 10
15.215990264526816
 20
0.0
 30
150.0
 70
32
  0
VERTEX
  5
330
330
17
100
AcDbEntity
  8
TERRAIN_CONTOURS
100
AcDbVertex
100
AcDb3dPolylineVertex
 10
16.1976670554334
 20
0.0
 30
150.0
 70
32
  0
VERTEX
  5
331
330
17
100
AcDbEntity
  8
TERRAIN_CONTOURS
100
AcDbVertex
100
AcDb3dPolylineVertex
 10
17.179343847708676
 20
0.0
 30
150.0
 70
32
  0
VERTEX
  5
332
330
17
100
AcDbEntity
  8
TERRAIN_CONTOURS
100
AcDbVertex
100
AcDb3dPolylineVertex
 10
18.16102063861526
 20
0.0
 30
150.0
 70
32
  0
VERTEX
  5
333
330
17
100
AcDbEntity
  8
TERRAIN_CONTOURS
100
AcDbVertex
100
AcDb3dPolylineVertex
 10
19.142697429521842
 20
0.0
 30
150.0
 70
32
  0
SEQEND
  5
2ED
330
2EC
100
AcDbEntity
  8
TERRAIN_CONTOURS
  0
POLYLINE
  5
334
330
17
100
AcDbEntity
  8
TERRAIN_CONTOURS
100
AcDb3dPolyline
 66
1
 10
0.0
 20
0.0
 30
0.0
 70
9
  0
VERTEX
  5
336
330
17
100
AcDbEntity
  8
TERRAIN_CONTOURS
100
AcDbVertex
100
AcDb3dPolylineVertex
 10
43.81908697535886
 20
0.49626709026313165
 30
150.0
 70
32
  0
VERTEX
  5
337
330
17
100
AcDbEntity
  8
TERRAIN_CONTOURS
100
AcDbVertex
100
AcDb3dPolylineVertex
 10
43.68461721176728
 20
0.5428274767724872
 30
150.0
 70
32
  0
VERTEX
  5
338
330
17
100
AcDbEntity
  8
TERRAIN_CONTOURS
100
AcDbVertex
100
AcDb3dPolylineVertex
 10
42.702940419492
 20
0.9670017745686721
 30
150.0
 70
32
  0
VERTEX
  5
339
330
17
100
AcDbEntity
  8
TERRAIN_CONTOURS
100
AcDbVertex
100
AcDb3dPolylineVertex
 10
42.06597002038507
 20
1.4888012703939069
 30
150.0
 70
32
  0
VERTEX
  5
33A
330
17
100
AcDbEntity
  8
TERRAIN_CONTOURS
100
AcDbVertex
100
AcDb3dPolylineVertex
 10
41.72126362858542
 20
1.6969096541082251
 30
150.0
 70
32
  0
VERTEX
  5
33B
330
17
100
AcDbEntity
  8
TERRAIN_CONTOURS
100
AcDbVertex
100
AcDb3dPolylineVertex
 10
40.739586837678836
 20
1.7715143037325731
 30
150.0
 70
32
  0
VERTEX
  5
33C
330
17
100
AcDbEntity
  8
TERRAIN_CONTOURS
100
AcDbVertex
100
AcDb3dPolylineVertex
 10
39.75791004677225
 20
1.782312800623771
 30
150.0
 70
32
  0
VERTEX
  5
33D
330
17
100
AcDbEntity
  8
TERRAIN_CONTOURS
100
AcDbVertex
100
AcDb3dPolylineVertex
 10
38.77623325449698
 20
2.0397998644345705
 30
150.0
 70
32
  0
VERTEX
  5
33E
330
17
100
AcDbEntity
  8
TERRAIN_CONTOURS
100
AcDbVertex
100
AcDb3dPolylineVertex
 10
37.794556463590396
 20
2.176936314796336
 30
150.0
 70
32
  0
VERTEX
  5
33F
330
17
100
AcDbEntity
  8
TERRAIN_CONTOURS
100
AcDbVertex
100
AcDb3dPolylineVertex
 10
36.81287967268381
 20
2.2669889841779423
 30
150.0
 70
32
  0
VERTEX
  5
340
330
17
100
AcDbEntity
  8
TERRAIN_CONTOURS
100
AcDbVertex
100
AcDb3dPolylineVertex
 10
35.83120288177722
 20
2.1936144646534217
 30
150.0
 70
32
  0
VERTEX
  5
341
330
17
100
AcDbEntity
  8
TERRAIN_CONTOURS
100
AcDbVertex
100
AcDb3dPolylineVertex
 10
34.84952608950195
 20
2.1525611354556418
 30
150.0
 70
32
  0
VERTEX
  5
342
330
17
100
AcDbEntity
  8
TERRAIN_CONTOURS
100
AcDbVertex
100
AcDb3dPolylineVertex
 10
33.86784929859537
 20
2.0308388902242314
 30
150.0
 70
32
  0
VERTEX
  5
343
330
17
100
AcDbEntity
  8
TERRAIN_CONTOURS
100
AcDbVertex
100
AcDb3dPolylineVertex
 10
32.886172507688784
 20
1.7039414892404636
 30
150.0
 70
32
  0
VERTEX
  5
344
330
17
100
AcDbEntity
  8
TERRAIN_CONTOURS
100
AcDbVertex
100
AcDb3dPolylineVertex
 10
32.68419933687699
 20
1.4888012703939069
 30
150.0
 70
32
  0
VERTEX
  5
345
330
17
100
AcDbEntity
  8
TERRAIN_CONTOURS
100
AcDbVertex
100
AcDb3dPolylineVertex
 10
32.378302672152955
 20
0.49626709026313165
 30
150.0
 70
32
  0
VERTEX
  5
346
330
17
100
AcDbEntity
  8
TERRAIN_CONTOURS
100
AcDbVertex
100
AcDb3dPolylineVertex
 10
32.886172507688784
 20
0.0
 30
150.0
 70
32
  0
VERTEX
  5
347
330
17
100
AcDbEntity
  8
TERRAIN_CONTOURS
100
AcDbVertex
100
AcDb3dPolylineVertex
 10
33.86784929859537
 20
0.0
 30
150.0
 70
32
  0
VERTEX
  5
348
330
17
100
AcDbEntity
  8
TERRAIN_CONTOURS
100
AcDbVertex
100
AcDb3dPolylineVertex
 10
34.84952608950195
 20
0.0
 30
150.0
 70
32
  0
VERTEX
  5
349
330
17
100
AcDbEntity
  8
TERRAIN_CONTOURS
100
AcDbVertex
100
AcDb3dPolylineVertex
 10
35.83120288177722
 20
0.0
 30
150.0
 70
32
  0
VERTEX
  5
34A
330
17
100
AcDbEntity
  8
TERRAIN_CONTOURS
100
AcDbVertex
100
AcDb3dPolylineVertex
 10
36.81287967268381
 20
0.0
 30
150.0
 70
32
  0
VERTEX
  5
34B
330
17
100
AcDbEntity
  8
TERRAIN_CONTOURS
100
AcDbVertex
100
AcDb3dPolylineVertex
 10
37.794556463590396
 20
0.0
 30
150.0
 70
32
  0
VERTEX
  5
34C
330
17
100
AcDbEntity
  8
TERRAIN_CONTOURS
100
AcDbVertex
100
AcDb3dPolylineVertex
 10
38.77623325449698
 20
0.0
 30
150.0
 70
32
  0
VERTEX
  5
34D
330
17
100
AcDbEntity
  8
TERRAIN_CONTOURS
100
AcDbVertex
100
AcDb3dPolylineVertex
 10
39.75791004677225
 20
0.0
 30
150.0
 70
32
  0
VERTEX
  5
34E
330
17
100
AcDbEntity
  8
TERRAIN_CONTOURS
100
AcDbVertex
100
AcDb3dPolylineVertex
 10
40.739586837678836
 20
0.0
 30
150.0
 70
32
  0
VERTEX
  5
34F
330
17
100
AcDbEntity
  8
TERRAIN_CONTOURS
100
AcDbVertex
100
AcDb3dPolylineVertex
 10
41.72126362858542
 20
0.0
 30
150.0
 70
32
  0
VERTEX
  5
350
330
17
100
AcDbEntity
  8
TERRAIN_CONTOURS
100
AcDbVertex
100
AcDb3dPolylineVertex
 10
42.702940419492
 20
0.0
 30
150.0
 70
32
  0
VERTEX
  5
351
330
17
100
AcDbEntity
  8
TERRAIN_CONTOURS
100
AcDbVertex
100
AcDb3dPolylineVertex
 10
43.68461721176728
 20
0.0
 30
150.0
 70
32
  0
SEQEND
  5
335
330
334
100
AcDbEntity
  8
TERRAIN_CONTOURS
  0
POLYLINE
  5
352
330
17
100
AcDbEntity
  8
TERRAIN_CONTOURS
100
AcDb3dPolyline
 66
1
 10
0.0
 20
0.0
 30
0.0
 70
9
  0
VERTEX
  5
354
330
17
100
AcDbEntity
  8
TERRAIN_CONTOURS
100
AcDbVertex
100
AcDb3dPolylineVertex
 10
14.544745107873398
 20
0.49626709026313165
 30
151.0
 70
32
  0
VERTEX
  5
355
330
17
100
AcDbEntity
  8
TERRAIN_CONTOURS
100
AcDbVertex
100
AcDb3dPolylineVertex
 10
14.359500615982162
 20
1.4888012703939069
 30
151.0
 70
32
  0
VERTEX
  5
356
330
17
100
AcDbEntity
  8
TERRAIN_CONTOURS
100
AcDbVertex
100
AcDb3dPolylineVertex
 10
14.424560913559256
 20
2.481335450524682
 30
151.0
 70
32
  0
VERTEX
  5
357
330
17
100
AcDbEntity
  8
TERRAIN_CONTOURS
100
AcDbVertex
100
AcDb3dPolylineVertex
 10
14.40275392512829
 20
3.4738696306554573
 30
151.0
 70
32
  0
VERTEX
  5
358
330
17
100
AcDbEntity
  8
TERRAIN_CONTOURS
100
AcDbVertex
100
AcDb3dPolylineVertex
 10
14.234313473620231
 20
4.288618922438161
 30
151.0
 70
32
  0
VERTEX
  5
359
330
17
100
AcDbEntity
  8
TERRAIN_CONTOURS
100
AcDbVertex
100
AcDb3dPolylineVertex
 10
14.148777872738817
 20
4.466403811181721
 30
151.0
 70
32
  0
VERTEX
  5
35A
330
17
100
AcDbEntity
  8
TERRAIN_CONTOURS
100
AcDbVertex
100
AcDb3dPolylineVertex
 10
14.021263466690007
 20
5.458937991312496
 30
151.0
 70
32
  0
VERTEX
  5
35B
330
17
100
AcDbEntity
  8
TERRAIN_CONTOURS
100
AcDbVertex
100
AcDb3dPolylineVertex
 10
14.00897259122905
 20
6.451472171443271
 30
151.0
 70
32
  0
VERTEX
  5
35C
330
17
100
AcDbEntity
  8
TERRAIN_CONTOURS
100
AcDbVertex
100
AcDb3dPolylineVertex
 10
13.434537050590597
 20
7.444006351969534
 30
151.0
 70
32
  0
VERTEX
  5
35D
330
17
100
AcDbEntity
  8
TERRAIN_CONTOURS
100
AcDbVertex
100
AcDb3dPolylineVertex
 10
13.252636682713648
 20
7.563739614843001
 30
151.0
 70
32
  0
VERTEX
  5
35E
330
17
100
AcDbEntity
  8
TERRAIN_CONTOURS
100
AcDbVertex
100
AcDb3dPolylineVertex
 10
12.270959890438373
 20
7.682548406121299
 30
151.0
 70
32
  0
VERTEX
  5
35F
330
17
100
AcDbEntity
  8
TERRAIN_CONTOURS
100
AcDbVertex
100
AcDb3dPolylineVertex
 10
11.746530806167753
 20
7.444006351969534
 30
151.0
 70
32
  0
VERTEX
  5
360
330
17
100
AcDbEntity
  8
TERRAIN_CONTOURS
100
AcDbVertex
100
AcDb3dPolylineVertex
 10
11.289283099531788
 20
7.098007861557818
 30
151.0
 70
32
  0
VERTEX
  5
361
330
17
100
AcDbEntity
  8
TERRAIN_CONTOURS
100
AcDbVertex
100
AcDb3dPolylineVertex
 10
10.307606308625205
 20
6.6436506133922535
 30
151.0
 70
32
  0
VERTEX
  5
362
330
17
100
AcDbEntity
  8
TERRAIN_CONTOURS
100
AcDbVertex
100
AcDb3dPolylineVertex
 10
9.752979064656556
 20
6.451472171443271
 30
151.0
 70
32
  0
VERTEX
  5
363
330
17
100
AcDbEntity
  8
TERRAIN_CONTOURS
100
AcDbVertex
100
AcDb3dPolylineVertex
 10
9.32592951634993
 20
6.340277572691377
 30
151.0
 70
32
  0
VERTEX
  5
364
330
17
100
AcDbEntity
  8
TERRAIN_CONTOURS
100
AcDbVertex
100
AcDb3dPolylineVertex
 10
8.344252725443345
 20
6.403443122917878
 30
151.0
 70
32
  0
VERTEX
  5
365
330
17
100
AcDbEntity
  8
TERRAIN_CONTOURS
100
AcDbVertex
100
AcDb3dPolylineVertex
 10
7.362575934536762
 20
6.442081859320865
 30
151.0
 70
32
  0
VERTEX
  5
366
330
17
100
AcDbEntity
  8
TERRAIN_CONTOURS
100
AcDbVertex
100
AcDb3dPolylineVertex
 10
6.380899143630177
 20
6.351655586185814
 30
151.0
 70
32
  0
VERTEX
  5
367
330
17
100
AcDbEntity
  8
TERRAIN_CONTOURS
100
AcDbVertex
100
AcDb3dPolylineVertex
 10
5.399222351354903
 20
6.32451275313457
 30
151.0
 70
32
  0
VERTEX
  5
368
330
17
100
AcDbEntity
  8
TERRAIN_CONTOURS
100
AcDbVertex
100
AcDb3dPolylineVertex
 10
4.417545560448319
 20
6.089555869676815
 30
151.0
 70
32
  0
VERTEX
  5
369
330
17
100
AcDbEntity
  8
TERRAIN_CONTOURS
100
AcDbVertex
100
AcDb3dPolylineVertex
 10
3.435868769541735
 20
6.116844818174627
 30
151.0
 70
32
  0
VERTEX
  5
36A
330
17
100
AcDbEntity
  8
TERRAIN_CONTOURS
100
AcDbVertex
100
AcDb3dPolylineVertex
 10
2.7570263874477785
 20
6.451472171443271
 30
151.0
 70
32
  0
VERTEX
  5
36B
330
17
100
AcDbEntity
  8
TERRAIN_CONTOURS
100
AcDbVertex
100
AcDb3dPolylineVertex
 10
2.454191978635151
 20
6.546725799058066
 30
151.0
 70
32
  0
VERTEX
  5
36C
330
17
100
AcDbEntity
  8
TERRAIN_CONTOURS
100
AcDbVertex
100
AcDb3dPolylineVertex
 10
1.4725151863598762
 20
6.476498965260902
 30
151.0
 70
32
  0
VERTEX
  5
36D
330
17
100
AcDbEntity
  8
TERRAIN_CONTOURS
100
AcDbVertex
100
AcDb3dPolylineVertex
 10
1.4258133002221927
 20
6.451472171443271
 30
151.0
 70
32
  0
VERTEX
  5
36E
330
17
100
AcDbEntity
  8
TERRAIN_CONTOURS
100
AcDbVertex
100
AcDb3dPolylineVertex
 10
0.49083839545329205
 20
5.660773528596081
 30
151.0
 70
32
  0
VERTEX
  5
36F
330
17
100
AcDbEntity
  8
TERRAIN_CONTOURS
100
AcDbVertex
100
AcDb3dPolylineVertex
 10
0.0
 20
5.458937991312496
 30
151.0
 70
32
  0
VERTEX
  5
370
330
17
100
AcDbEntity
  8
TERRAIN_CONTOURS
100
AcDbVertex
100
AcDb3dPolylineVertex
 10
0.0
 20
4.466403811181721
 30
151.0
 70
32
  0
VERTEX
  5
371
330
17
100
AcDbEntity
  8
TERRAIN_CONTOURS
100
AcDbVertex
100
AcDb3dPolylineVertex
 10
0.0
 20
3.4738696306554573
 30
151.0
 70
32
  0
VERTEX
  5
372
330
17
100
AcDbEntity
  8
TERRAIN_CONTOURS
100
AcDbVertex
100
AcDb3dPolylineVertex
 10
0.0
 20
2.481335450524682
 30
151.0
 70
32
  0
VERTEX
  5
373
330
17
100
AcDbEntity
  8
TERRAIN_CONTOURS
100
AcDbVertex
100
AcDb3dPolylineVertex
 10
0.0
 20
1.4888012703939069
 30
151.0
 70
32
  0
VERTEX
  5
374
330
17
100
AcDbEntity
  8
TERRAIN_CONTOURS
100
AcDbVertex
100
AcDb3dPolylineVertex
 10
0.0
 20
0.49626709026313165
 30
151.0
 70
32
  0
VERTEX
  5
375
330
17
100
AcDbEntity
  8
TERRAIN_CONTOURS
100
AcDbVertex
100
AcDb3dPolylineVertex
 10
0.49083839545329205
 20
0.0
 30
151.0
 70
32
  0
VERTEX
  5
376
330
17
100
AcDbEntity
  8
TERRAIN_CONTOURS
100
AcDbVertex
100
AcDb3dPolylineVertex
 10
1.4725151863598762
 20
0.0
 30
151.0
 70
32
  0
VERTEX
  5
377
330
17
100
AcDbEntity
  8
TERRAIN_CONTOURS
100
AcDbVertex
100
AcDb3dPolylineVertex
 10
2.454191978635151
 20
0.0
 30
151.0
 70
32
  0
VERTEX
  5
378
330
17
100
AcDbEntity
  8
TERRAIN_CONTOURS
100
AcDbVertex
100
AcDb3dPolylineVertex
 10
3.435868769541735
 20
0.0
 30
151.0
 70
32
  0
VERTEX
  5
379
330
17
100
AcDbEntity
  8
TERRAIN_CONTOURS
100
AcDbVertex
100
AcDb3dPolylineVertex
 10
4.417545560448319
 20
0.0
 30
151.0
 70
32
  0
VERTEX
  5
37A
330
17
100
AcDbEntity
  8
TERRAIN_CONTOURS
100
AcDbVertex
100
AcDb3dPolylineVertex
 10
5.399222351354903
 20
0.0
 30
151.0
 70
32
  0
VERTEX
  5
37B
330
17
100
AcDbEntity
  8
TERRAIN_CONTOURS
100
AcDbVertex
100
AcDb3dPolylineVertex
 10
6.380899143630177
 20
0.0
 30
151.0
 70
32
  0
VERTEX
  5
37C
330
17
100
AcDbEntity
  8
TERRAIN_CONTOURS
100
AcDbVertex
100
AcDb3dPolylineVertex
 10
7.362575934536762
 20
0.0
 30
151.0
 70
32
  0
VERTEX
  5
37D
330
17
100
AcDbEntity
  8
TERRAIN_CONTOURS
100
AcDbVertex
100
AcDb3dPolylineVertex
 10
8.344252725443345
 20
0.0
 30
151.0
 70
32
  0
VERTEX
  5
37E
330
17
100
AcDbEntity
  8
TERRAIN_CONTOURS
100
AcDbVertex
100
AcDb3dPolylineVertex
 10
9.32592951634993
 20
0.0
 30
151.0
 70
32
  0
VERTEX
  5
37F
330
17
100
AcDbEntity
  8
TERRAIN_CONTOURS
100
AcDbVertex
100
AcDb3dPolylineVertex
 10
10.307606308625205
 20
0.0
 30
151.0
 70
32
  0
VERTEX
  5
380
330
17
100
AcDbEntity
  8
TERRAIN_CONTOURS
100
AcDbVertex
100
AcDb3dPolylineVertex
 10
11.289283099531788
 20
0.0
 30
151.0
 70
32
  0
VERTEX
  5
381
330
17
100
AcDbEntity
  8
TERRAIN_CONTOURS
100
AcDbVertex
100
AcDb3dPolylineVertex
 10
12.270959890438373
 20
0.0
 30
151.0
 70
32
  0
VERTEX
  5
382
330
17
100
AcDbEntity
  8
TERRAIN_CONTOURS
100
AcDbVertex
100
AcDb3dPolylineVertex
 10
13.252636682713648
 20
0.0
 30
151.0
 70
32
  0
VERTEX
  5
383
330
17
100
AcDbEntity
  8
TERRAIN_CONTOURS
100
AcDbVertex
100
AcDb3dPolylineVertex
 10
14.234313473620231
 20
0.0
 30
151.0
 70
32
  0
SEQEND
  5
353
330
352
100
AcDbEntity
  8
TERRAIN_CONTOURS
  0
ENDSEC
  0
SECTION
  2
OBJECTS
  0
DICTIONARY
  5
A
330
0
100
AcDbDictionary
281
1
  3
ACAD_COLOR
350
B
  3
ACAD_GROUP
350
C
  3
ACAD_LAYOUT
350
D
  3
ACAD_MATERIAL
350
E
  3
ACAD_MLEADERSTYLE
350
F
  3
ACAD_MLINESTYLE
350
10
  3
ACAD_PLOTSETTINGS
350
11
  3
ACAD_PLOTSTYLENAME
350
12
  3
ACAD_SCALELIST
350
14
  3
ACAD_TABLESTYLE
350
15
  3
ACAD_VISUALSTYLE
350
16
  3
EZDXF_META
350
2D
  0
DICTIONARY
  5
B
330
A
100
AcDbDictionary
281
1
  0
DICTIONARY
  5
C
330
A
100
AcDbDictionary
281
1
  0
DICTIONARY
  5
D
330
A
100
AcDbDictionary
281
1
  3
Model
350
1A
  3
Layout1
350
1E
  0
DICTIONARY
  5
E
330
A
100
AcDbDictionary
281
1
  3
ByBlock
350
1F
  3
ByLayer
350
20
  3
Global
350
21
  0
DICTIONARY
  5
F
330
A
100
AcDbDictionary
281
1
  3
Standard
350
2C
  0
DICTIONARY
  5
10
330
A
100
AcDbDictionary
281
1
  3
Standard
350
22
  0
DICTIONARY
  5
11
330
A
100
AcDbDictionary
281
1
  0
ACDBDICTIONARYWDFLT
  5
12
330
A
100
AcDbDictionary
281
1
  3
Normal
350
13
100
AcDbDictionaryWithDefault
340
13
  0
ACDBPLACEHOLDER
  5
13
330
12
  0
DICTIONARY
  5
14
330
A
100
AcDbDictionary
281
1
  0
DICTIONARY
  5
15
330
A
100
AcDbDictionary
281
1
  0
DICTIONARY
  5
16
330
A
100
AcDbDictionary
281
1
  0
LAYOUT
  5
1A
330
D
100
AcDbPlotSettings
  1

  4
A3
  6

 40
7.5
 41
20.0
 42
7.5
 43
20.0
 44
420.0
 45
297.0
 46
0.0
 47
0.0
 48
0.0
 49
0.0
140
0.0
141
0.0
142
1.0
143
1.0
 70
1024
 72
1
 73
0
 74
5
  7

 75
16
 76
0
 77
2
 78
300
147
1.0
148
0.0
149
0.0
100
AcDbLayout
  1
Model
 70
1
 71
0
 10
0.0
 20
0.0
 11
420.0
 21
297.0
 12
0.0
 22
0.0
 32
0.0
 14
1e+20
 24
1e+20
 34
1e+20
 15
-1e+20
 25
-1e+20
 35
-1e+20
146
0.0
 13
0.0
 23
0.0
 33
0.0
 16
1.0
 26
0.0
 36
0.0
 17
0.0
 27
1.0
 37
0.0
 76
1
330
17
  0
LAYOUT
  5
1E
330
D
100
AcDbPlotSettings
  1

  4
A3
  6

 40
7.5
 41
20.0
 42
7.5
 43
20.0
 44
420.0
 45
297.0
 46
0.0
 47
0.0
 48
0.0
 49
0.0
140
0.0
141
0.0
142
1.0
143
1.0
 70
0
 72
1
 73
0
 74
5
  7

 75
16
 76
0
 77
2
 78
300
147
1.0
148
0.0
149
0.0
100
AcDbLayout
  1
Layout1
 70
1
 71
1
 10
0.0
 20
0.0
 11
420.0
 21
297.0
 12
0.0
 22
0.0
 32
0.0
 14
1e+20
 24
1e+20
 34
1e+20
 15
-1e+20
 25
-1e+20
 35
-1e+20
146
0.0
 13
0.0
 23
0.0
 33
0.0
 16
1.0
 26
0.0
 36
0.0
 17
0.0
 27
1.0
 37
0.0
 76
1
330
1B
  0
MATERIAL
  5
1F
102
{ACAD_REACTORS
330
E
102
}
330
E
100
AcDbMaterial
  1
ByBlock
  2

 70
0
 40
1.0
 71
1
 41
1.0
 91
-1023410177
 42
1.0
 72
1
  3

 73
1
 74
1
 75
1
 44
0.5
 73
0
 45
1.0
 46
1.0
 77
1
  4

 78
1
 79
1
170
1
 48
1.0
171
1
  6

172
1
173
1
174
1
140
1.0
141
1.0
175
1
  7

176
1
177
1
178
1
143
1.0
179
1
  8

270
1
271
1
272
1
145
1.0
146
1.0
273
1
  9

274
1
275
1
276
1
 42
1.0
 72
1
  3

 73
1
 74
1
 75
1
 94
63
  0
MATERIAL
  5
20
102
{ACAD_REACTORS
330
E
102
}
330
E
100
AcDbMaterial
  1
ByLayer
  2

 70
0
 40
1.0
 71
1
 41
1.0
 91
-1023410177
 42
1.0
 72
1
  3

 73
1
 74
1
 75
1
 44
0.5
 73
0
 45
1.0
 46
1.0
 77
1
  4

 78
1
 79
1
170
1
 48
1.0
171
1
  6

172
1
173
1
174
1
140
1.0
141
1.0
175
1
  7

176
1
177
1
178
1
143
1.0
179
1
  8

270
1
271
1
272
1
145
1.0
146
1.0
273
1
  9

274
1
275
1
276
1
 42
1.0
 72
1
  3

 73
1
 74
1
 75
1
 94
63
  0
MATERIAL
  5
21
102
{ACAD_REACTORS
330
E
102
}
330
E
100
AcDbMaterial
  1
Global
  2

 70
0
 40
1.0
 71
1
 41
1.0
 91
-1023410177
 42
1.0
 72
1
  3

 73
1
 74
1
 75
1
 44
0.5
 73
0
 45
1.0
 46
1.0
 77
1
  4

 78
1
 79
1
170
1
 48
1.0
171
1
  6

172
1
173
1
174
1
140
1.0
141
1.0
175
1
  7

176
1
177
1
178
1
143
1.0
179
1
  8

270
1
271
1
272
1
145
1.0
146
1.0
273
1
  9

274
1
275
1
276
1
 42
1.0
 72
1
  3

 73
1
 74
1
 75
1
 94
63
  0
MLINESTYLE
  5
22
102
{ACAD_REACTORS
330
10
102
}
330
10
100
AcDbMlineStyle
  2
Standard
 70
0
  3

 62
256
 51
90.0
 52
90.0
 71
2
 49
0.5
 62
256
  6
BYLAYER
 49
-0.5
 62
256
  6
BYLAYER
  0
MLEADERSTYLE
  5
2C
102
{ACAD_REACTORS
330
F
102
}
330
F
100
AcDbMLeaderStyle
179
2
170
2
171
1
172
0
 90
2
 40
0.0
 41
0.0
173
1
 91
-1056964608
 92
-2
290
1
 42
2.0
291
1
 43
8.0
  3
Standard
 44
4.0
300

342
29
174
1
175
1
176
0
178
1
 93
-1056964608
 45
4.0
292
0
297
0
 46
4.0
 94
-1056964608
 47
1.0
 49
1.0
140
1.0
294
1
141
0.0
177
0
142
1.0
295
0
296
0
143
3.75
271
0
272
9
273
9
  0
DICTIONARY
  5
2D
330
A
100
AcDbDictionary
280
1
281
1
  3
CREATED_BY_EZDXF
350
2E
  3
WRITTEN_BY_EZDXF
350
386
  0
DICTIONARYVAR
  5
2E
330
2D
100
DictionaryVariables
280
0
  1
1.4.4 @ 2026-07-24T12:13:14.858177+00:00
  0
DICTIONARYVAR
  5
386
330
2D
100
DictionaryVariables
280
0
  1
1.4.4 @ 2026-07-24T12:13:14.877276+00:00
  0
ENDSEC
  0
EOF
