0
SECTION
2
HEADER
9
$ACADVER
1
AC1015
9
$INSUNITS
70
6
9
$MEASUREMENT
70
1
0
ENDSEC
0
SECTION
2
TABLES
0
TABLE
2
LAYER
70
2
0
LAYER
2
0
70
0
62
7
6
CONTINUOUS
0
LAYER
2
TERRAIN_CONTOURS
70
0
62
3
6
CONTINUOUS
0
ENDTAB
0
ENDSEC
0
SECTION
2
ENTITIES
0
LWPOLYLINE
8
TERRAIN_CONTOURS
90
7
70
1
38
146
10
33.492694519010996
20
21.33948487498685
10
32.886172507688784
20
21.835751965249983
10
31.904495715413507
20
21.835751965249983
10
31.824301071625968
20
21.33948487498685
10
31.904495715413507
20
21.32688644220707
10
32.886172507688784
20
21.29465950420567
10
33.492694519010996
20
21.33948487498685
0
LWPOLYLINE
8
TERRAIN_CONTOURS
90
161
70
1
38
146
10
45.15713239812715
20
0.49626709026313165
10
45.15713239812715
20
1.4888012703939069
10
45.15713239812715
20
2.481335450524682
10
45.15713239812715
20
3.4738696306554573
10
45.15713239812715
20
4.466403811181721
10
45.15713239812715
20
5.458937991312496
10
45.15713239812715
20
6.451472171443271
10
45.15713239812715
20
7.444006351969534
10
45.15713239812715
20
8.43654053210031
10
45.15713239812715
20
9.429074712231085
10
45.15713239812715
20
10.42160889236186
10
45.15713239812715
20
11.414143072888123
10
45.15713239812715
20
12.406677253018898
10
45.15713239812715
20
13.399211433149674
10
45.15713239812715
20
14.391745613280449
10
45.15713239812715
20
15.384279793806712
10
45.15713239812715
20
16.376813973937487
10
45.15713239812715
20
17.369348154068263
10
45.15713239812715
20
18.361882334594526
10
45.15713239812715
20
19.3544165147253
10
45.15713239812715
20
20.346950694856076
10
45.15713239812715
20
21.33948487498685
10
44.666294002673865
20
21.835751965249983
10
43.68461721176728
20
21.835751965249983
10
42.702940419492
20
21.835751965249983
10
41.72126362858542
20
21.835751965249983
10
40.739586837678836
20
21.835751965249983
10
39.75791004677225
20
21.835751965249983
10
38.77623325449698
20
21.835751965249983
10
37.794556463590396
20
21.835751965249983
10
37.6563810542059
20
21.33948487498685
10
37.794556463590396
20
21.14749033183429
10
38.322680769707766
20
20.346950694856076
10
37.794556463590396
20
20.082025528403022
10
36.81287967268381
20
19.996362282423945
10
35.83120288177722
20
19.942753614805753
10
34.84952608950195
20
19.953860144316593
10
33.86784929859537
20
19.8585164889802
10
32.886172507688784
20
19.366608335920432
10
32.87672809630324
20
19.3544165147253
10
31.904495715413507
20
18.63962571407143
10
31.574042330377768
20
18.361882334594526
10
31.058067757628965
20
17.369348154068263
10
30.922818924506924
20
16.925069598656535
10
30.770000300197612
20
16.376813973937487
10
30.351919151913858
20
15.384279793806712
10
29.94114213360034
20
14.871382697637756
10
29.34206195755912
20
14.391745613280449
10
28.959465342693758
20
13.741721499931572
10
28.461911355514896
20
14.391745613280449
10
28.22154853198182
20
15.384279793806712
10
27.99155760467797
20
16.376813973937487
10
27.97778855041848
20
16.418606534438425
10
27.70423233604531
20
17.369348154068263
10
26.996111759511898
20
18.289707608860652
10
26.933079551797267
20
18.361882334594526
10
26.3633318866744
20
19.3544165147253
10
26.014434968605315
20
19.68854822808609
10
25.032758177698728
20
19.69727350207492
10
24.051081385423455
20
19.727041556966185
10
23.06940459451687
20
20.15700292317618
10
22.296996938785327
20
20.346950694856076
10
22.087727803610285
20
20.46971368755308
10
21.106051012703702
20
20.587075454759542
10
20.12437422042843
20
20.83747185300325
10
19.142697429521842
20
21.28832813582079
10
18.16102063861526
20
21.329083007956484
10
17.179343847708676
20
20.868233973528305
10
16.73819008434122
20
20.346950694856076
10
16.1976670554334
20
19.966665629347347
10
15.404116479327097
20
19.3544165147253
10
15.215990264526816
20
19.244623659032243
10
14.234313473620231
20
18.75393890842446
10
13.693226586693209
20
18.361882334594526
10
13.252636682713648
20
18.14507973813022
10
12.291896019485272
20
17.369348154068263
10
12.270959890438373
20
17.355478758230163
10
11.289283099531788
20
16.8297040344666
10
10.59748123534327
20
16.376813973937487
10
10.307606308625205
20
16.258378859182443
10
9.32592951634993
20
15.965475390303965
10
8.344252725443345
20
15.91653523847171
10
7.362575934536762
20
16.35936516768936
10
7.307310166195347
20
16.376813973937487
10
6.380899143630177
20
16.904114581306402
10
5.584364882654103
20
17.369348154068263
10
5.399222351354903
20
17.494113738263763
10
4.417545560448319
20
18.104080311585733
10
3.688025765311492
20
18.361882334594526
10
3.435868769541735
20
18.443524782124996
10
2.454191978635151
20
18.870976170932465
10
1.4725151863598762
20
19.19851294089554
10
1.1954545948558537
20
19.3544165147253
10
0.49083839545329205
20
19.683802713933574
10
0
20
19.3544165147253
10
0
20
18.361882334594526
10
0
20
17.369348154068263
10
0
20
16.376813973937487
10
0
20
15.384279793806712
10
0
20
14.391745613280449
10
0
20
13.399211433149674
10
0
20
12.406677253018898
10
0
20
11.414143072888123
10
0
20
10.42160889236186
10
0
20
9.429074712231085
10
0
20
8.43654053210031
10
0
20
7.444006351969534
10
0
20
6.451472171443271
10
0
20
5.458937991312496
10
0
20
4.466403811181721
10
0
20
3.4738696306554573
10
0
20
2.481335450524682
10
0
20
1.4888012703939069
10
0
20
0.49626709026313165
10
0.49083839545329205
20
0
10
1.4725151863598762
20
0
10
2.454191978635151
20
0
10
3.435868769541735
20
0
10
4.417545560448319
20
0
10
5.399222351354903
20
0
10
6.380899143630177
20
0
10
7.362575934536762
20
0
10
8.344252725443345
20
0
10
9.32592951634993
20
0
10
10.307606308625205
20
0
10
11.289283099531788
20
0
10
12.270959890438373
20
0
10
13.252636682713648
20
0
10
14.234313473620231
20
0
10
15.215990264526816
20
0
10
16.1976670554334
20
0
10
17.179343847708676
20
0
10
18.16102063861526
20
0
10
19.142697429521842
20
0
10
20.12437422042843
20
0
10
21.106051012703702
20
0
10
22.087727803610285
20
0
10
23.06940459451687
20
0
10
24.051081385423455
20
0
10
25.032758177698728
20
0
10
26.014434968605315
20
0
10
26.996111759511898
20
0
10
27.97778855041848
20
0
10
28.959465342693758
20
0
10
29.94114213360034
20
0
10
30.922818924506924
20
0
10
31.904495715413507
20
0
10
32.886172507688784
20
0
10
33.86784929859537
20
0
10
34.84952608950195
20
0
10
35.83120288177722
20
0
10
36.81287967268381
20
0
10
37.794556463590396
20
0
10
38.77623325449698
20
0
10
39.75791004677225
20
0
10
40.739586837678836
20
0
10
41.72126362858542
20
0
10
42.702940419492
20
0
10
43.68461721176728
20
0
10
44.666294002673865
20
0
10
45.15713239812715
20
0.49626709026313165
0
LWPOLYLINE
8
TERRAIN_CONTOURS
90
39
70
1
38
147
10
45.15713239812715
20
9.429074712231085
10
45.15713239812715
20
10.42160889236186
10
45.15713239812715
20
11.414143072888123
10
45.15713239812715
20
12.406677253018898
10
45.15713239812715
20
13.399211433149674
10
45.15713239812715
20
14.391745613280449
10
45.15713239812715
20
15.384279793806712
10
45.15713239812715
20
16.376813973937487
10
45.15713239812715
20
17.369348154068263
10
45.15713239812715
20
18.361882334594526
10
45.15713239812715
20
19.3544165147253
10
45.15713239812715
20
20.346950694856076
10
45.15713239812715
20
21.33948487498685
10
44.666294002673865
20
21.835751965249983
10
43.68461721176728
20
21.835751965249983
10
42.702940419492
20
21.835751965249983
10
41.72126362858542
20
21.835751965249983
10
40.739586837678836
20
21.835751965249983
10
39.86349349525628
20
21.33948487498685
10
40.739586837678836
20
20.656678508135826
10
41.15077700477322
20
20.346950694856076
10
41.72126362858542
20
19.612545166203574
10
41.90979417506295
20
19.3544165147253
10
42.43182015240504
20
18.361882334594526
10
42.60549930751519
20
17.369348154068263
10
42.702940419492
20
16.707324598376232
10
42.747471550322416
20
16.376813973937487
10
42.702940419492
20
15.930156661301993
10
42.62612182852862
20
15.384279793806712
10
42.266935772095906
20
14.391745613280449
10
42.29660291686979
20
13.399211433149674
10
42.34876255592873
20
12.406677253018898
10
42.63902935787262
20
11.414143072888123
10
42.702940419492
20
11.343401758130653
10
43.68461721176728
20
10.664971321815102
10
43.958435982021655
20
10.42160889236186
10
44.28217966891273
20
9.429074712231085
10
44.666294002673865
20
8.46596119539754
10
45.15713239812715
20
9.429074712231085
0
LWPOLYLINE
8
TERRAIN_CONTOURS
90
153
70
1
38
147
10
45.15713239812715
20
0.49626709026313165
10
45.15713239812715
20
1.4888012703939069
10
45.15713239812715
20
2.481335450524682
10
45.15713239812715
20
3.4738696306554573
10
45.15713239812715
20
4.466403811181721
10
45.15713239812715
20
5.458937991312496
10
44.666294002673865
20
6.338126666041575
10
44.591438387495415
20
6.451472171443271
10
44.211775420915835
20
7.444006351969534
10
43.68461721176728
20
7.951619852274092
10
43.01018350876971
20
8.43654053210031
10
42.702940419492
20
8.795978168047043
10
42.3993245883701
20
9.429074712231085
10
41.72126362858542
20
10.171509903927785
10
41.56116362057179
20
10.42160889236186
10
40.739586837678836
20
11.252176306399235
10
40.641179764233556
20
11.414143072888123
10
40.237105095565894
20
12.406677253018898
10
39.75791004677225
20
13.261879322571275
10
39.69632076997205
20
13.399211433149674
10
39.31388595484341
20
14.391745613280449
10
38.87182344263528
20
15.384279793806712
10
38.77623325449698
20
15.676923535771436
10
38.50951228002757
20
16.376813973937487
10
37.846173861726456
20
17.369348154068263
10
37.794556463590396
20
17.410982003618045
10
36.81287967268381
20
17.772936057886284
10
35.83120288177722
20
17.90360744432448
10
34.84952608950195
20
17.67840113257904
10
34.1982234241382
20
17.369348154068263
10
33.86784929859537
20
17.156614741647047
10
33.212772739060135
20
16.376813973937487
10
32.886172507688784
20
15.63988886859562
10
32.782341308676905
20
15.384279793806712
10
32.23016514012956
20
14.391745613280449
10
31.904495715413507
20
13.887344019245234
10
31.603461493085923
20
13.399211433149674
10
31.298483538531357
20
12.406677253018898
10
30.922818924506924
20
11.807490084796228
10
30.685465595238668
20
11.414143072888123
10
29.985477658040914
20
10.42160889236186
10
29.94114213360034
20
10.340587125812135
10
29.334757448461648
20
9.429074712231085
10
28.959465342693758
20
9.014319717416015
10
28.441242502962425
20
8.43654053210031
10
27.97778855041848
20
7.859764245644811
10
27.20589875512756
20
8.43654053210031
10
26.996111759511898
20
8.63092132697588
10
26.624077451716797
20
9.429074712231085
10
26.699742619898508
20
10.42160889236186
10
26.692926365099414
20
11.414143072888123
10
26.668939099381994
20
12.406677253018898
10
26.647177626750583
20
13.399211433149674
10
26.455522275209947
20
14.391745613280449
10
26.18233232375898
20
15.384279793806712
10
26.014434968605315
20
15.77243350966782
10
25.70188046541622
20
16.376813973937487
10
25.032758177698728
20
17.253627512531722
10
24.916741406159915
20
17.369348154068263
10
24.051081385423455
20
17.964926270839783
10
23.06940459451687
20
18.287400750184588
10
22.77710757302823
20
18.361882334594526
10
22.087727803610285
20
18.537963476084514
10
21.106051012703702
20
18.768828493861918
10
20.12437422042843
20
18.84176773722075
10
19.142697429521842
20
18.77847809430179
10
18.16102063861526
20
18.58729844446472
10
17.425781381895334
20
18.361882334594526
10
17.179343847708676
20
18.303256465163855
10
16.1976670554334
20
17.906717493032573
10
15.215990264526816
20
17.38108411631572
10
15.192330570222422
20
17.369348154068263
10
14.234313473620231
20
16.82526918530243
10
13.445517019014009
20
16.376813973937487
10
13.252636682713648
20
16.28404611748138
10
12.270959890438373
20
15.686941582404614
10
11.631675219253927
20
15.384279793806712
10
11.289283099531788
20
15.264748559694539
10
10.307606308625205
20
15.009030676245771
10
9.32592951634993
20
14.778876676442394
10
8.344252725443345
20
14.493260871283837
10
7.362575934536762
20
14.539047365914115
10
6.380899143630177
20
14.736847663501607
10
5.399222351354903
20
14.78917989885673
10
4.417545560448319
20
14.917917314934357
10
3.435868769541735
20
15.172996875469806
10
2.578217393002
20
15.384279793806712
10
2.454191978635151
20
15.461669105502267
10
1.4725151863598762
20
15.991638652359796
10
0.49083839545329205
20
16.26767148970231
10
0
20
15.384279793806712
10
0
20
14.391745613280449
10
0
20
13.399211433149674
10
0
20
12.406677253018898
10
0
20
11.414143072888123
10
0
20
10.42160889236186
10
0
20
9.429074712231085
10
0
20
8.43654053210031
10
0
20
7.444006351969534
10
0
20
6.451472171443271
10
0
20
5.458937991312496
10
0
20
4.466403811181721
10
0
20
3.4738696306554573
10
0
20
2.481335450524682
10
0
20
1.4888012703939069
10
0
20
0.49626709026313165
10
0.49083839545329205
20
0
10
1.4725151863598762
20
0
10
2.454191978635151
20
0
10
3.435868769541735
20
0
10
4.417545560448319
20
0
10
5.399222351354903
20
0
10
6.380899143630177
20
0
10
7.362575934536762
20
0
10
8.344252725443345
20
0
10
9.32592951634993
20
0
10
10.307606308625205
20
0
10
11.289283099531788
20
0
10
12.270959890438373
20
0
10
13.252636682713648
20
0
10
14.234313473620231
20
0
10
15.215990264526816
20
0
10
16.1976670554334
20
0
10
17.179343847708676
20
0
10
18.16102063861526
20
0
10
19.142697429521842
20
0
10
20.12437422042843
20
0
10
21.106051012703702
20
0
10
22.087727803610285
20
0
10
23.06940459451687
20
0
10
24.051081385423455
20
0
10
25.032758177698728
20
0
10
26.014434968605315
20
0
10
26.996111759511898
20
0
10
27.97778855041848
20
0
10
28.959465342693758
20
0
10
29.94114213360034
20
0
10
30.922818924506924
20
0
10
31.904495715413507
20
0
10
32.886172507688784
20
0
10
33.86784929859537
20
0
10
34.84952608950195
20
0
10
35.83120288177722
20
0
10
36.81287967268381
20
0
10
37.794556463590396
20
0
10
38.77623325449698
20
0
10
39.75791004677225
20
0
10
40.739586837678836
20
0
10
41.72126362858542
20
0
10
42.702940419492
20
0
10
43.68461721176728
20
0
10
44.666294002673865
20
0
10
45.15713239812715
20
0.49626709026313165
0
LWPOLYLINE
8
TERRAIN_CONTOURS
90
19
70
1
38
148
10
45.15713239812715
20
17.369348154068263
10
45.15713239812715
20
18.361882334594526
10
45.15713239812715
20
19.3544165147253
10
45.15713239812715
20
20.346950694856076
10
45.15713239812715
20
21.33948487498685
10
44.666294002673865
20
21.835751965249983
10
43.68461721176728
20
21.835751965249983
10
42.702940419492
20
21.835751965249983
10
41.72126362858542
20
21.835751965249983
10
41.62164994504916
20
21.33948487498685
10
41.72126362858542
20
21.266338358694696
10
42.614273762738385
20
20.346950694856076
10
42.702940419492
20
20.232242207787436
10
43.37922115650995
20
19.3544165147253
10
43.68461721176728
20
18.81452234105751
10
43.98867253622304
20
18.361882334594526
10
44.49738011157242
20
17.369348154068263
10
44.666294002673865
20
16.811472148755655
10
45.15713239812715
20
17.369348154068263
0
LWPOLYLINE
8
TERRAIN_CONTOURS
90
89
70
1
38
148
10
24.7681963835218
20
0.49626709026313165
10
24.413167718732403
20
1.4888012703939069
10
24.287803558165084
20
2.481335450524682
10
24.051081385423455
20
3.1089956182370315
10
23.955573344714825
20
3.4738696306554573
10
23.734430705269602
20
4.466403811181721
10
23.750135345081556
20
5.458937991312496
10
23.920699600341088
20
6.451472171443271
10
24.051081385423455
20
6.750732897356784
10
24.44182578692124
20
7.444006351969534
10
24.658936391709037
20
8.43654053210031
10
24.668828811051476
20
9.429074712231085
10
24.69516615789359
20
10.42160889236186
10
24.78582633412732
20
11.414143072888123
10
25.032758177698728
20
12.25409413349169
10
25.07524365015658
20
12.406677253018898
10
25.257558811980264
20
13.399211433149674
10
25.032758177698728
20
14.027050588091896
10
24.85906323200733
20
14.391745613280449
10
24.19968347834556
20
15.384279793806712
10
24.051081385423455
20
15.529856048923989
10
23.227374720424923
20
16.376813973937487
10
23.06940459451687
20
16.50166472728344
10
22.087727803610285
20
16.89195453757904
10
21.106051012703702
20
17.121916973631386
10
20.12437422042843
20
17.066403698665624
10
19.142697429521842
20
16.831924617416547
10
18.16102063861526
20
16.723022952600672
10
17.179343847708676
20
16.610666310186986
10
16.650817080913843
20
16.376813973937487
10
16.1976670554334
20
16.162505347495397
10
15.215990264526816
20
15.669297361537957
10
14.691396992154703
20
15.384279793806712
10
14.234313473620231
20
15.192438463134437
10
13.252636682713648
20
14.842864321822447
10
12.270959890438373
20
14.457535211933816
10
12.006184146682745
20
14.391745613280449
10
11.289283099531788
20
14.206276708984262
10
10.307606308625205
20
14.052630216118018
10
9.32592951634993
20
13.78138038401218
10
8.344252725443345
20
13.586273843581722
10
7.362575934536762
20
13.624882779561887
10
6.380899143630177
20
13.664150236031958
10
5.399222351354903
20
13.581634624762273
10
4.417545560448319
20
13.530041751221376
10
3.435868769541735
20
13.638662905038075
10
2.454191978635151
20
13.773538208027816
10
1.4725151863598762
20
13.926727574802555
10
0.49083839545329205
20
13.958496943370307
10
0
20
13.399211433149674
10
0
20
12.406677253018898
10
0
20
11.414143072888123
10
0
20
10.42160889236186
10
0
20
9.429074712231085
10
0
20
8.43654053210031
10
0
20
7.444006351969534
10
0
20
6.451472171443271
10
0
20
5.458937991312496
10
0
20
4.466403811181721
10
0
20
3.4738696306554573
10
0
20
2.481335450524682
10
0
20
1.4888012703939069
10
0
20
0.49626709026313165
10
0.49083839545329205
20
0
10
1.4725151863598762
20
0
10
2.454191978635151
20
0
10
3.435868769541735
20
0
10
4.417545560448319
20
0
10
5.399222351354903
20
0
10
6.380899143630177
20
0
10
7.362575934536762
20
0
10
8.344252725443345
20
0
10
9.32592951634993
20
0
10
10.307606308625205
20
0
10
11.289283099531788
20
0
10
12.270959890438373
20
0
10
13.252636682713648
20
0
10
14.234313473620231
20
0
10
15.215990264526816
20
0
10
16.1976670554334
20
0
10
17.179343847708676
20
0
10
18.16102063861526
20
0
10
19.142697429521842
20
0
10
20.12437422042843
20
0
10
21.106051012703702
20
0
10
22.087727803610285
20
0
10
23.06940459451687
20
0
10
24.051081385423455
20
0
10
24.7681963835218
20
0.49626709026313165
0
LWPOLYLINE
8
TERRAIN_CONTOURS
90
71
70
1
38
148
10
45.15713239812715
20
0.49626709026313165
10
45.15713239812715
20
1.4888012703939069
10
45.15713239812715
20
2.481335450524682
10
45.15713239812715
20
3.4738696306554573
10
44.666294002673865
20
3.781668479662841
10
43.942131391824404
20
4.466403811181721
10
43.68461721176728
20
4.750662388234019
10
43.045917123312215
20
5.458937991312496
10
42.702940419492
20
5.823061584465279
10
41.83377607089755
20
6.451472171443271
10
41.72126362858542
20
6.561838663622694
10
40.75115516915454
20
7.444006351969534
10
40.739586837678836
20
7.466685093862964
10
40.30646485621947
20
8.43654053210031
10
39.87013293441616
20
9.429074712231085
10
39.75791004677225
20
9.637560851137295
10
39.38717587031511
20
10.42160889236186
10
38.90062423375392
20
11.414143072888123
10
38.77623325449698
20
11.66566061460216
10
38.351332146369195
20
12.406677253018898
10
37.82232360328769
20
13.399211433149674
10
37.794556463590396
20
13.458438258592764
10
37.355385267442394
20
14.391745613280449
10
36.94473068122336
20
15.384279793806712
10
36.81287967268381
20
15.541387430325528
10
35.83120288177722
20
15.913820028854389
10
34.99549041763093
20
15.384279793806712
10
34.84952608950195
20
15.08022655512292
10
34.66161971512389
20
14.391745613280449
10
34.00279638612372
20
13.399211433149674
10
33.86784929859537
20
13.164355937413319
10
33.43011837125894
20
12.406677253018898
10
32.886172507688784
20
11.547133678191557
10
32.81400852758927
20
11.414143072888123
10
32.331893454454175
20
10.42160889236186
10
31.904495715413507
20
9.55129264680636
10
31.84703849305976
20
9.429074712231085
10
31.242335018254906
20
8.43654053210031
10
30.922818924506924
20
8.05302328997584
10
30.41638800004179
20
7.444006351969534
10
29.94114213360034
20
6.961447035010053
10
29.499044942883316
20
6.451472171443271
10
28.959465342693758
20
5.5833393475906234
10
28.87719886296089
20
5.458937991312496
10
28.09447514809406
20
4.466403811181721
10
27.97778855041848
20
4.288822987963101
10
27.464014525261092
20
3.4738696306554573
10
27.076372553475608
20
2.481335450524682
10
26.996111759511898
20
2.2150227592049987
10
26.642303237055554
20
1.4888012703939069
10
26.101548380734908
20
0.49626709026313165
10
26.996111759511898
20
0
10
27.97778855041848
20
0
10
28.959465342693758
20
0
10
29.94114213360034
20
0
10
30.922818924506924
20
0
10
31.904495715413507
20
0
10
32.886172507688784
20
0
10
33.86784929859537
20
0
10
34.84952608950195
20
0
10
35.83120288177722
20
0
10
36.81287967268381
20
0
10
37.794556463590396
20
0
10
38.77623325449698
20
0
10
39.75791004677225
20
0
10
40.739586837678836
20
0
10
41.72126362858542
20
0
10
42.702940419492
20
0
10
43.68461721176728
20
0
10
44.666294002673865
20
0
10
45.15713239812715
20
0.49626709026313165
0
LWPOLYLINE
8
TERRAIN_CONTOURS
90
9
70
1
38
149
10
45.15713239812715
20
20.346950694856076
10
45.15713239812715
20
21.33948487498685
10
44.666294002673865
20
21.835751965249983
10
43.68461721176728
20
21.835751965249983
10
43.57247810166332
20
21.33948487498685
10
43.68461721176728
20
21.17477634185562
10
44.22986714713508
20
20.346950694856076
10
44.666294002673865
20
19.827164876060408
10
45.15713239812715
20
20.346950694856076
0
LWPOLYLINE
8
TERRAIN_CONTOURS
90
83
70
1
38
149
10
21.754463842930353
20
0.49626709026313165
10
21.80284649868356
20
1.4888012703939069
10
21.90815718633069
20
2.481335450524682
10
21.904340786109863
20
3.4738696306554573
10
21.90878259298891
20
4.466403811181721
10
21.97673170602875
20
5.458937991312496
10
21.956160859921724
20
6.451472171443271
10
22.087727803610285
20
7.053874726625935
10
22.172395244165116
20
7.444006351969534
10
22.563819980604624
20
8.43654053210031
10
22.86726671823861
20
9.429074712231085
10
22.986899417914014
20
10.42160889236186
10
23.06940459451687
20
10.930004371485893
10
23.144264096776084
20
11.414143072888123
10
23.41846406236503
20
12.406677253018898
10
23.335507241194858
20
13.399211433149674
10
23.06940459451687
20
13.921847621198253
10
22.85595039140975
20
14.391745613280449
10
22.087727803610285
20
15.238068992291858
10
21.590404060269453
20
15.384279793806712
10
21.106051012703702
20
15.490377071978543
10
20.377113614497674
20
15.384279793806712
10
20.12437422042843
20
15.343776034854244
10
19.142697429521842
20
15.060792912418464
10
18.16102063861526
20
14.837253090971387
10
17.179343847708676
20
14.635495015170932
10
16.1976670554334
20
14.403169272032414
10
16.164258610481443
20
14.391745613280449
10
15.215990264526816
20
14.056071886728176
10
14.234313473620231
20
13.838566654659843
10
13.252636682713648
20
13.56499416531534
10
12.857887847569232
20
13.399211433149674
10
12.270959890438373
20
13.139077281753515
10
11.289283099531788
20
12.951609616260953
10
10.307606308625205
20
12.781104785210431
10
9.32592951634993
20
12.504873993029406
10
8.344252725443345
20
12.407118013022398
10
7.362575934536762
20
12.458215520728686
10
6.380899143630177
20
12.495378856394126
10
5.650309250215098
20
12.406677253018898
10
5.399222351354903
20
12.367823601666288
10
4.417545560448319
20
12.207101602291317
10
3.435868769541735
20
12.178482612724792
10
2.454191978635151
20
12.244058658489507
10
1.5775366218193667
20
12.406677253018898
10
1.4725151863598762
20
12.424320553980266
10
0.49083839545329205
20
12.535315840974022
10
0
20
12.406677253018898
10
0
20
11.414143072888123
10
0
20
10.42160889236186
10
0
20
9.429074712231085
10
0
20
8.43654053210031
10
0
20
7.444006351969534
10
0
20
6.451472171443271
10
0
20
5.458937991312496
10
0
20
4.466403811181721
10
0
20
3.4738696306554573
10
0
20
2.481335450524682
10
0
20
1.4888012703939069
10
0
20
0.49626709026313165
10
0.49083839545329205
20
0
10
1.4725151863598762
20
0
10
2.454191978635151
20
0
10
3.435868769541735
20
0
10
4.417545560448319
20
0
10
5.399222351354903
20
0
10
6.380899143630177
20
0
10
7.362575934536762
20
0
10
8.344252725443345
20
0
10
9.32592951634993
20
0
10
10.307606308625205
20
0
10
11.289283099531788
20
0
10
12.270959890438373
20
0
10
13.252636682713648
20
0
10
14.234313473620231
20
0
10
15.215990264526816
20
0
10
16.1976670554334
20
0
10
17.179343847708676
20
0
10
18.16102063861526
20
0
10
19.142697429521842
20
0
10
20.12437422042843
20
0
10
21.106051012703702
20
0
10
21.754463842930353
20
0.49626709026313165
0
LWPOLYLINE
8
TERRAIN_CONTOURS
90
59
70
1
38
149
10
45.15713239812715
20
0.49626709026313165
10
45.15713239812715
20
1.4888012703939069
10
44.666294002673865
20
2.1390436508494304
10
44.273042554529184
20
2.481335450524682
10
43.68461721176728
20
3.0399680743786917
10
43.018532362866694
20
3.4738696306554573
10
42.702940419492
20
3.676077366127828
10
41.72126362858542
20
4.031514347020675
10
40.739586837678836
20
4.42477614390171
10
40.648748255387645
20
4.466403811181721
10
39.75791004677225
20
4.8898984417400015
10
38.818381306445616
20
5.458937991312496
10
38.77623325449698
20
5.632126163550311
10
38.605141775585736
20
6.451472171443271
10
38.13138624328234
20
7.444006351969534
10
37.794556463590396
20
7.866350974754965
10
37.114156039612524
20
8.43654053210031
10
36.81287967268381
20
9.405087581055227
10
36.80640233300385
20
9.429074712231085
10
36.81287967268381
20
9.468202209422145
10
36.899047507251204
20
10.42160889236186
10
36.81287967268381
20
10.660065011698237
10
36.199608026199485
20
11.414143072888123
10
35.83120288177722
20
11.711703334494672
10
35.50680647327343
20
11.414143072888123
10
34.98738590898926
20
10.42160889236186
10
34.84952608950195
20
9.80608381940641
10
34.78261427133732
20
9.429074712231085
10
34.524271731102026
20
8.43654053210031
10
33.86784929859537
20
7.487457413513994
10
33.82598499259285
20
7.444006351969534
10
32.886172507688784
20
6.84868509047277
10
32.54343296233054
20
6.451472171443271
10
31.904495715413507
20
5.539130965513408
10
31.830965085622154
20
5.458937991312496
10
30.922818924506924
20
4.531123588062798
10
30.87551209363264
20
4.466403811181721
10
30.277670739811185
20
3.4738696306554573
10
29.94114213360034
20
2.522118249260643
10
29.926615699447304
20
2.481335450524682
10
29.487863479963927
20
1.4888012703939069
10
29.101116570115018
20
0.49626709026313165
10
29.94114213360034
20
0
10
30.922818924506924
20
0
10
31.904495715413507
20
0
10
32.886172507688784
20
0
10
33.86784929859537
20
0
10
34.84952608950195
20
0
10
35.83120288177722
20
0
10
36.81287967268381
20
0
10
37.794556463590396
20
0
10
38.77623325449698
20
0
10
39.75791004677225
20
0
10
40.739586837678836
20
0
10
41.72126362858542
20
0
10
42.702940419492
20
0
10
43.68461721176728
20
0
10
44.666294002673865
20
0
10
45.15713239812715
20
0.49626709026313165
0
LWPOLYLINE
8
TERRAIN_CONTOURS
90
71
70
1
38
150
10
19.773724638174
20
0.49626709026313165
10
19.74384258710682
20
1.4888012703939069
10
19.59906840646057
20
2.481335450524682
10
19.550071713760374
20
3.4738696306554573
10
19.782526120926704
20
4.466403811181721
10
19.881835326963216
20
5.458937991312496
10
19.62372201636635
20
6.451472171443271
10
19.740558768960653
20
7.444006351969534
10
20.12437422042843
20
8.096052349121265
10
20.280319969731092
20
8.43654053210031
10
20.815223856588048
20
9.429074712231085
10
21.104594125253175
20
10.42160889236186
10
21.106051012703702
20
10.431007351143364
10
21.21226804713983
20
11.414143072888123
10
21.239997290537076
20
12.406677253018898
10
21.106051012703702
20
12.777523435722316
10
20.12437422042843
20
13.212106213505166
10
19.142697429521842
20
12.970394463923043
10
18.16102063861526
20
12.728275385736367
10
17.179343847708676
20
12.514205319290141
10
16.749472152849137
20
12.406677253018898
10
16.1976670554334
20
12.258032828218006
10
15.215990264526816
20
12.04940656392779
10
14.234313473620231
20
11.928909376266006
10
13.252636682713648
20
11.792766465934363
10
12.270959890438373
20
11.5933760420522
10
11.341067841969425
20
11.414143072888123
10
11.289283099531788
20
11.400554240253626
10
10.307606308625205
20
11.099195660835193
10
9.32592951634993
20
10.907263079196667
10
8.344252725443345
20
10.903637824994092
10
7.362575934536762
20
10.891767373463352
10
6.380899143630177
20
10.78605792198303
10
5.399222351354903
20
10.675883650064861
10
4.417545560448319
20
10.60296053194179
10
3.435868769541735
20
10.535731757677667
10
2.454191978635151
20
10.513125690279566
10
1.4725151863598762
20
10.471712781335896
10
1.1903528752646808
20
10.42160889236186
10
0.49083839545329205
20
10.01240620423232
10
0
20
9.429074712231085
10
0
20
8.43654053210031
10
0
20
7.444006351969534
10
0
20
6.451472171443271
10
0
20
5.458937991312496
10
0
20
4.466403811181721
10
0
20
3.4738696306554573
10
0
20
2.481335450524682
10
0
20
1.4888012703939069
10
0
20
0.49626709026313165
10
0.49083839545329205
20
0
10
1.4725151863598762
20
0
10
2.454191978635151
20
0
10
3.435868769541735
20
0
10
4.417545560448319
20
0
10
5.399222351354903
20
0
10
6.380899143630177
20
0
10
7.362575934536762
20
0
10
8.344252725443345
20
0
10
9.32592951634993
20
0
10
10.307606308625205
20
0
10
11.289283099531788
20
0
10
12.270959890438373
20
0
10
13.252636682713648
20
0
10
14.234313473620231
20
0
10
15.215990264526816
20
0
10
16.1976670554334
20
0
10
17.179343847708676
20
0
10
18.16102063861526
20
0
10
19.142697429521842
20
0
10
19.773724638174
20
0.49626709026313165
0
LWPOLYLINE
8
TERRAIN_CONTOURS
90
29
70
1
38
150
10
43.81908697535886
20
0.49626709026313165
10
43.68461721176728
20
0.5428274767724872
10
42.702940419492
20
0.9670017745686721
10
42.06597002038507
20
1.4888012703939069
10
41.72126362858542
20
1.6969096541082251
10
40.739586837678836
20
1.7715143037325731
10
39.75791004677225
20
1.782312800623771
10
38.77623325449698
20
2.0397998644345705
10
37.794556463590396
20
2.176936314796336
10
36.81287967268381
20
2.2669889841779423
10
35.83120288177722
20
2.1936144646534217
10
34.84952608950195
20
2.1525611354556418
10
33.86784929859537
20
2.0308388902242314
10
32.886172507688784
20
1.7039414892404636
10
32.68419933687699
20
1.4888012703939069
10
32.378302672152955
20
0.49626709026313165
10
32.886172507688784
20
0
10
33.86784929859537
20
0
10
34.84952608950195
20
0
10
35.83120288177722
20
0
10
36.81287967268381
20
0
10
37.794556463590396
20
0
10
38.77623325449698
20
0
10
39.75791004677225
20
0
10
40.739586837678836
20
0
10
41.72126362858542
20
0
10
42.702940419492
20
0
10
43.68461721176728
20
0
10
43.81908697535886
20
0.49626709026313165
0
LWPOLYLINE
8
TERRAIN_CONTOURS
90
49
70
1
38
151
10
14.544745107873398
20
0.49626709026313165
10
14.359500615982162
20
1.4888012703939069
10
14.424560913559256
20
2.481335450524682
10
14.40275392512829
20
3.4738696306554573
10
14.234313473620231
20
4.288618922438161
10
14.148777872738817
20
4.466403811181721
10
14.021263466690007
20
5.458937991312496
10
14.00897259122905
20
6.451472171443271
10
13.434537050590597
20
7.444006351969534
10
13.252636682713648
20
7.563739614843001
10
12.270959890438373
20
7.682548406121299
10
11.746530806167753
20
7.444006351969534
10
11.289283099531788
20
7.098007861557818
10
10.307606308625205
20
6.6436506133922535
10
9.752979064656556
20
6.451472171443271
10
9.32592951634993
20
6.340277572691377
10
8.344252725443345
20
6.403443122917878
10
7.362575934536762
20
6.442081859320865
10
6.380899143630177
20
6.351655586185814
10
5.399222351354903
20
6.32451275313457
10
4.417545560448319
20
6.089555869676815
10
3.435868769541735
20
6.116844818174627
10
2.7570263874477785
20
6.451472171443271
10
2.454191978635151
20
6.546725799058066
10
1.4725151863598762
20
6.476498965260902
10
1.4258133002221927
20
6.451472171443271
10
0.49083839545329205
20
5.660773528596081
10
0
20
5.458937991312496
10
0
20
4.466403811181721
10
0
20
3.4738696306554573
10
0
20
2.481335450524682
10
0
20
1.4888012703939069
10
0
20
0.49626709026313165
10
0.49083839545329205
20
0
10
1.4725151863598762
20
0
10
2.454191978635151
20
0
10
3.435868769541735
20
0
10
4.417545560448319
20
0
10
5.399222351354903
20
0
10
6.380899143630177
20
0
10
7.362575934536762
20
0
10
8.344252725443345
20
0
10
9.32592951634993
20
0
10
10.307606308625205
20
0
10
11.289283099531788
20
0
10
12.270959890438373
20
0
10
13.252636682713648
20
0
10
14.234313473620231
20
0
10
14.544745107873398
20
0.49626709026313165
0
ENDSEC
0
EOF
