ISO-10303-21;
HEADER;
FILE_DESCRIPTION(('ViewDefinition [CoordinationView]'),'2;1');
FILE_NAME('','2026-07-25T04:50:28',(''),(''),'IfcOpenShell 0.8.5-1c5b825','IfcOpenShell 0.8.5-1c5b825','');
FILE_SCHEMA(('IFC4'));
ENDSEC;
DATA;
#1=IFCSIUNIT(*,.LENGTHUNIT.,$,.METRE.);
#2=IFCUNITASSIGNMENT((#1));
#3=IFCCARTESIANPOINT((0.,0.,0.));
#4=IFCAXIS2PLACEMENT3D(#3,$,$);
#5=IFCGEOMETRICREPRESENTATIONCONTEXT($,'Model',3,1.0000000000000001E-05,#4,$);
#6=IFCGEOMETRICREPRESENTATIONSUBCONTEXT('Body','Model',*,*,*,*,#5,$,.MODEL_VIEW.,$);
#7=IFCPROJECT('0Yn8ztfb542fXOk8cYDnRO',$,'Parcel terrain','USGS 3DEP parcel terrain export (synthetic-fixture (see manifest))',$,$,$,(#5),#2);
#8=IFCPROJECTEDCRS('local-ENU-metres','local-enu-meters:origin-bbox-sw:equirectangular-coslat; origin WGS84 lon=-98.4712559339156 lat=29.43292619475386 (bbox SW); mesh XYZ are east/north/up metres from that origin; Z=NAVD88 orthometric metres (USGS 3DEP)','WGS84','NAVD88',$,$,#1);
#9=IFCMAPCONVERSION(#5,#8,0.,0.,0.,1.,0.,1.);
#10=IFCCARTESIANPOINT((0.,0.,0.));
#11=IFCAXIS2PLACEMENT3D(#10,$,$);
#12=IFCLOCALPLACEMENT($,#11);
#13=IFCSITE('2V3XiK3ULBZObr17vW_Mtu',$,'Parcel site','Terrain site; georeferenced at DEM bbox southwest origin; elevations are NAVD88 orthometric metres (USGS 3DEP)',$,#12,$,$,.ELEMENT.,(29,25,58,534301),(-98,28,16,521362),0.,$,$);
#14=IFCRELAGGREGATES('2zQL8Zd598PQH_aDMy3rbL',$,$,$,#7,(#13));
#15=IFCCARTESIANPOINTLIST3D(((0.,60.959999084472656,195.39999389648438),(6.0472321510314941,60.959999084472656,195.58000183105469),(0.,48.768001556396484,195.58000183105469),(6.0472321510314941,48.768001556396484,195.75999450683594),(12.094464302062988,60.959999084472656,195.75999450683594),(12.094464302062988,48.768001556396484,195.94000244140625),(18.141696929931641,60.959999084472656,195.94000244140625),(18.141696929931641,48.768001556396484,196.1199951171875),(24.188928604125977,60.959999084472656,196.1199951171875),(24.188928604125977,48.768001556396484,196.30000305175781),(30.236160278320312,60.959999084472656,196.30000305175781),(30.236160278320312,48.768001556396484,196.47999572753906),(0.,36.576000213623047,195.75999450683594),(6.0472321510314941,36.576000213623047,195.94000244140625),(12.094464302062988,36.576000213623047,196.1199951171875),(18.141696929931641,36.576000213623047,196.30000305175781),(24.188928604125977,36.576000213623047,196.47999572753906),(30.236160278320312,36.576000213623047,196.66000366210938),(0.,24.384000778198242,195.94000244140625),(6.0472321510314941,24.384000778198242,196.1199951171875),(12.094464302062988,24.384000778198242,196.44999694824219),(18.141696929931641,24.384000778198242,196.47999572753906),(24.188928604125977,24.384000778198242,196.66000366210938),(30.236160278320312,24.384000778198242,196.83999633789062),(0.,12.192000389099121,196.1199951171875),(6.0472321510314941,12.192000389099121,196.30000305175781),(12.094464302062988,12.192000389099121,196.47999572753906),(18.141696929931641,12.192000389099121,196.66000366210938),(24.188928604125977,12.192000389099121,196.83999633789062),(30.236160278320312,12.192000389099121,197.02000427246094),(0.,0.,196.30000305175781),(6.0472321510314941,0.,196.47999572753906),(12.094464302062988,0.,196.66000366210938),(18.141696929931641,0.,196.83999633789062),(24.188928604125977,0.,197.02000427246094),(30.236160278320312,0.,197.19999694824219),(12.094464302062988,60.959999084472656,194.94279479980469),(18.141696929931641,60.959999084472656,194.94279479980469),(24.188928604125977,60.959999084472656,194.94279479980469),(30.236160278320312,60.959999084472656,194.94279479980469),(30.236160278320312,48.768001556396484,194.94279479980469),(30.236160278320312,36.576000213623047,194.94279479980469),(30.236160278320312,24.384000778198242,194.94279479980469),(30.236160278320312,12.192000389099121,194.94279479980469),(30.236160278320312,0.,194.94279479980469),(24.188928604125977,0.,194.94279479980469),(18.141696929931641,0.,194.94279479980469),(12.094464302062988,0.,194.94279479980469),(6.0472321510314941,0.,194.94279479980469),(0.,0.,194.94279479980469),(0.,12.192000389099121,194.94279479980469),(0.,24.384000778198242,194.94279479980469),(0.,36.576000213623047,194.94279479980469),(0.,48.768001556396484,194.94279479980469),(0.,60.959999084472656,194.94279479980469),(6.0472321510314941,60.959999084472656,194.94279479980469)));
#16=IFCTRIANGULATEDFACESET(#15,$,.T.,((3,4,2),(3,2,1),(4,6,5),(4,5,2),(6,8,7),(6,7,5),(8,10,9),(8,9,7),(10,12,11),(10,11,9),(13,14,4),(13,4,3),(14,15,6),(14,6,4),(15,16,8),(15,8,6),(16,17,10),(16,10,8),(17,18,12),(17,12,10),(19,20,14),(19,14,13),(20,21,15),(20,15,14),(21,22,16),(21,16,15),(22,23,17),(22,17,16),(23,24,18),(23,18,17),(25,26,20),(25,20,19),(26,27,21),(26,21,20),(27,28,22),(27,22,21),(28,29,23),(28,23,22),(29,30,24),(29,24,23),(31,32,26),(31,26,25),(32,33,27),(32,27,26),(33,34,28),(33,28,27),(34,35,29),(34,29,28),(35,36,30),(35,30,29),(5,7,38),(5,38,37),(7,9,39),(7,39,38),(9,11,40),(9,40,39),(11,12,41),(11,41,40),(12,18,42),(12,42,41),(18,24,43),(18,43,42),(24,30,44),(24,44,43),(30,36,45),(30,45,44),(36,35,46),(36,46,45),(35,34,47),(35,47,46),(34,33,48),(34,48,47),(33,32,49),(33,49,48),(32,31,50),(32,50,49),(31,25,51),(31,51,50),(25,19,52),(25,52,51),(19,13,53),(19,53,52),(13,3,54),(13,54,53),(3,1,55),(3,55,54),(1,2,56),(1,56,55),(2,5,37),(2,37,56),(40,45,50),(40,50,55)),$);
#17=IFCSHAPEREPRESENTATION(#6,'Body','Tessellation',(#16));
#18=IFCPRODUCTDEFINITIONSHAPE($,$,(#17));
#19=IFCCARTESIANPOINT((0.,0.,0.));
#20=IFCAXIS2PLACEMENT3D(#19,$,$);
#21=IFCLOCALPLACEMENT(#12,#20);
#22=IFCGEOGRAPHICELEMENT('1NihqMlU9AdOXlbEHzNv1J',$,'Terrain surface (solid mass)','synthetic-fixture (see manifest)',$,#21,#18,$,.TERRAIN.);
#23=IFCRELCONTAINEDINSPATIALSTRUCTURE('0UfJYTC9zEZf74nsAs2LXd',$,$,$,(#22),#13);
#24=IFCCARTESIANPOINT((5.6692799990114686,11.430000000038376,195.39999389648438));
#25=IFCCARTESIANPOINT((24.566880000308924,11.430000000038376,195.39999389648438));
#26=IFCCARTESIANPOINT((24.566880000308924,49.530000000166297,195.39999389648438));
#27=IFCCARTESIANPOINT((5.6692799990114686,49.530000000166297,195.39999389648438));
#28=IFCPOLYLINE((#24,#25,#26,#27,#24));
#29=IFCSHAPEREPRESENTATION(#6,'Annotation','Curve3D',(#28));
#30=IFCPRODUCTDEFINITIONSHAPE($,$,(#29));
#31=IFCCARTESIANPOINT((0.,0.,0.));
#32=IFCAXIS2PLACEMENT3D(#31,$,$);
#33=IFCLOCALPLACEMENT(#12,#32);
#34=IFCANNOTATION('2t$$HUU9bF7h5xkvCZEIZx',$,'Property line','synthetic-fixture:1127-n-pine-st-san-antonio-tx-78202-approx-rect','PROPERTY_LINE',#33,#30);
#35=IFCRELCONTAINEDINSPATIALSTRUCTURE('3avHvzApXF0PPXkmQJENHp',$,$,$,(#34),#13);
#36=IFCPRESENTATIONLAYERASSIGNMENT('PROPERTY_LINE',$,(#29),$);
#37=IFCCARTESIANPOINT((7.1932799990114686,14.478000000038378,195.39999389648438));
#38=IFCCARTESIANPOINT((23.042880000308923,14.478000000038376,195.39999389648438));
#39=IFCCARTESIANPOINT((23.042880000308923,43.434000000166293,195.39999389648438));
#40=IFCCARTESIANPOINT((7.1932799990114695,43.434000000166293,195.39999389648438));
#41=IFCPOLYLINE((#37,#38,#39,#40,#37));
#42=IFCSHAPEREPRESENTATION(#6,'Annotation','Curve3D',(#41));
#43=IFCPRODUCTDEFINITIONSHAPE($,$,(#42));
#44=IFCCARTESIANPOINT((0.,0.,0.));
#45=IFCAXIS2PLACEMENT3D(#44,$,$);
#46=IFCLOCALPLACEMENT(#12,#45);
#47=IFCANNOTATION('2Aerrayzn3Lfdo4u3Jvkfm',$,'Setback boundary','san_antonio_tx/udc/35-310.01/35-310.01 (rule)','SETBACK',#46,#43);
#48=IFCRELCONTAINEDINSPATIALSTRUCTURE('2SPiBjObb27ACcPtOH0qcj',$,$,$,(#47),#13);
#49=IFCPRESENTATIONLAYERASSIGNMENT('SETBACK',$,(#42),$);
#50=IFCCARTESIANPOINT((30.236159999320392,5.0800000001488854,195.5));
#51=IFCCARTESIANPOINT((30.236159999320392,15.240000000051168,195.5));
#52=IFCCARTESIANPOINT((30.236159999320392,25.399999999953451,195.5));
#53=IFCCARTESIANPOINT((30.236159999320392,35.560000000251222,195.5));
#54=IFCCARTESIANPOINT((30.236159999320392,45.720000000153505,195.5));
#55=IFCCARTESIANPOINT((30.236159999320392,55.880000000055787,195.5));
#56=IFCCARTESIANPOINT((27.71647999868814,60.960000000204673,195.5));
#57=IFCCARTESIANPOINT((22.677120000179176,60.960000000204673,195.5));
#58=IFCCARTESIANPOINT((17.637759998914678,60.960000000204673,195.5));
#59=IFCCARTESIANPOINT((12.598400000405714,60.960000000204673,195.5));
#60=IFCCARTESIANPOINT((7.5590399991412136,60.960000000204673,195.5));
#61=IFCCARTESIANPOINT((5.3193719085265743,55.880000000055787,195.5));
#62=IFCCARTESIANPOINT((2.5196800006322504,50.235459862928735,195.5));
#63=IFCCARTESIANPOINT((0.,45.720000000153505,195.5));
#64=IFCCARTESIANPOINT((0.,35.560000000251222,195.5));
#65=IFCCARTESIANPOINT((0.,25.399999999953451,195.5));
#66=IFCCARTESIANPOINT((0.,15.240000000051168,195.5));
#67=IFCCARTESIANPOINT((0.,5.0800000001488854,195.5));
#68=IFCCARTESIANPOINT((2.5196800006322504,0.,195.5));
#69=IFCCARTESIANPOINT((7.5590399991412136,0.,195.5));
#70=IFCCARTESIANPOINT((12.598400000405714,0.,195.5));
#71=IFCCARTESIANPOINT((17.637759998914678,0.,195.5));
#72=IFCCARTESIANPOINT((22.677120000179176,0.,195.5));
#73=IFCCARTESIANPOINT((27.71647999868814,0.,195.5));
#74=IFCCARTESIANPOINT((30.236159999320392,5.0800000001488854,195.5));
#75=IFCPOLYLINE((#50,#51,#52,#53,#54,#55,#56,#57,#58,#59,#60,#61,#62,#63,#64,#65,#66,#67,#68,#69,#70,#71,#72,#73,#74));
#76=IFCSHAPEREPRESENTATION(#6,'Annotation','Curve3D',(#75));
#77=IFCPRODUCTDEFINITIONSHAPE($,$,(#76));
#78=IFCCARTESIANPOINT((0.,0.,0.));
#79=IFCAXIS2PLACEMENT3D(#78,$,$);
#80=IFCLOCALPLACEMENT(#12,#79);
#81=IFCANNOTATION('3HUHUYxCX4rPaO7whr0kZy',$,'Contour 195.50 m','synthetic-fixture (no live USGS 3DEP fetch; sandbox has no network egress)','CONTOUR',#80,#77);
#82=IFCRELCONTAINEDINSPATIALSTRUCTURE('2AsbrCTGnEUAAnD49pXCeA',$,$,$,(#81),#13);
#83=IFCPRESENTATIONLAYERASSIGNMENT('CONTOUR',$,(#76),$);
#84=IFCCARTESIANPOINT((30.236159999320392,5.0800000001488854,195.75));
#85=IFCCARTESIANPOINT((30.236159999320392,15.240000000051168,195.75));
#86=IFCCARTESIANPOINT((30.236159999320392,25.399999999953451,195.75));
#87=IFCCARTESIANPOINT((30.236159999320392,35.560000000251222,195.75));
#88=IFCCARTESIANPOINT((30.236159999320392,45.720000000153505,195.75));
#89=IFCCARTESIANPOINT((30.236159999320392,55.880000000055787,195.75));
#90=IFCCARTESIANPOINT((27.71647999868814,60.960000000204673,195.75));
#91=IFCCARTESIANPOINT((22.677120000179176,60.960000000204673,195.75));
#92=IFCCARTESIANPOINT((17.637759998914678,60.960000000204673,195.75));
#93=IFCCARTESIANPOINT((12.598400000405714,60.960000000204673,195.75));
#94=IFCCARTESIANPOINT((12.318577957910843,55.880000000055787,195.75));
#95=IFCCARTESIANPOINT((7.5590399991412136,46.284157341444114,195.75));
#96=IFCCARTESIANPOINT((7.2792179580241116,45.720000000153505,195.75));
#97=IFCCARTESIANPOINT((2.5196800006322504,36.124157341541832,195.75));
#98=IFCCARTESIANPOINT((0.,35.560000000251222,195.75));
#99=IFCCARTESIANPOINT((0.,25.399999999953451,195.75));
#100=IFCCARTESIANPOINT((0.,15.240000000051168,195.75));
#101=IFCCARTESIANPOINT((0.,5.0800000001488854,195.75));
#102=IFCCARTESIANPOINT((2.5196800006322504,0.,195.75));
#103=IFCCARTESIANPOINT((7.5590399991412136,0.,195.75));
#104=IFCCARTESIANPOINT((12.598400000405714,0.,195.75));
#105=IFCCARTESIANPOINT((17.637759998914678,0.,195.75));
#106=IFCCARTESIANPOINT((22.677120000179176,0.,195.75));
#107=IFCCARTESIANPOINT((27.71647999868814,0.,195.75));
#108=IFCCARTESIANPOINT((30.236159999320392,5.0800000001488854,195.75));
#109=IFCPOLYLINE((#84,#85,#86,#87,#88,#89,#90,#91,#92,#93,#94,#95,#96,#97,#98,#99,#100,#101,#102,#103,#104,#105,#106,#107,#108));
#110=IFCSHAPEREPRESENTATION(#6,'Annotation','Curve3D',(#109));
#111=IFCPRODUCTDEFINITIONSHAPE($,$,(#110));
#112=IFCCARTESIANPOINT((0.,0.,0.));
#113=IFCAXIS2PLACEMENT3D(#112,$,$);
#114=IFCLOCALPLACEMENT(#12,#113);
#115=IFCANNOTATION('2GW8TDDcX3D8TApFYgPPDG',$,'Contour 195.75 m','synthetic-fixture (no live USGS 3DEP fetch; sandbox has no network egress)','CONTOUR',#114,#111);
#116=IFCRELCONTAINEDINSPATIALSTRUCTURE('0puihaLmL5NBAN9yeHSgl8',$,$,$,(#115),#13);
#117=IFCPRESENTATIONLAYERASSIGNMENT('CONTOUR',$,(#110),$);
#118=IFCCARTESIANPOINT((30.236159999320392,5.0800000001488854,196.));
#119=IFCCARTESIANPOINT((30.236159999320392,15.240000000051168,196.));
#120=IFCCARTESIANPOINT((30.236159999320392,25.399999999953451,196.));
#121=IFCCARTESIANPOINT((30.236159999320392,35.560000000251222,196.));
#122=IFCCARTESIANPOINT((30.236159999320392,45.720000000153505,196.));
#123=IFCCARTESIANPOINT((30.236159999320392,55.880000000055787,196.));
#124=IFCCARTESIANPOINT((27.71647999868814,60.960000000204673,196.));
#125=IFCCARTESIANPOINT((22.677120000179176,60.960000000204673,196.));
#126=IFCCARTESIANPOINT((19.317546666002844,55.880000000055787,196.));
#127=IFCCARTESIANPOINT((17.637759998914678,52.493333333553522,196.));
#128=IFCCARTESIANPOINT((14.278186666116113,45.720000000153505,196.));
#129=IFCCARTESIANPOINT((12.598400000405714,42.33333333365124,196.));
#130=IFCCARTESIANPOINT((9.2388266662293805,35.560000000251222,196.));
#131=IFCCARTESIANPOINT((7.5590399991412136,32.173333333353469,196.));
#132=IFCCARTESIANPOINT((4.1994666663426488,25.399999999953451,196.));
#133=IFCCARTESIANPOINT((2.5196800006322504,22.013333333451186,196.));
#134=IFCCARTESIANPOINT((0.,15.240000000051168,196.));
#135=IFCCARTESIANPOINT((0.,5.0800000001488854,196.));
#136=IFCCARTESIANPOINT((2.5196800006322504,0.,196.));
#137=IFCCARTESIANPOINT((7.5590399991412136,0.,196.));
#138=IFCCARTESIANPOINT((12.598400000405714,0.,196.));
#139=IFCCARTESIANPOINT((17.637759998914678,0.,196.));
#140=IFCCARTESIANPOINT((22.677120000179176,0.,196.));
#141=IFCCARTESIANPOINT((27.71647999868814,0.,196.));
#142=IFCCARTESIANPOINT((30.236159999320392,5.0800000001488854,196.));
#143=IFCPOLYLINE((#118,#119,#120,#121,#122,#123,#124,#125,#126,#127,#128,#129,#130,#131,#132,#133,#134,#135,#136,#137,#138,#139,#140,#141,#142));
#144=IFCSHAPEREPRESENTATION(#6,'Annotation','Curve3D',(#143));
#145=IFCPRODUCTDEFINITIONSHAPE($,$,(#144));
#146=IFCCARTESIANPOINT((0.,0.,0.));
#147=IFCAXIS2PLACEMENT3D(#146,$,$);
#148=IFCLOCALPLACEMENT(#12,#147);
#149=IFCANNOTATION('3VX7QRhpvF$R5xZvk6d7q8',$,'Contour 196.00 m','synthetic-fixture (no live USGS 3DEP fetch; sandbox has no network egress)','CONTOUR',#148,#145);
#150=IFCRELCONTAINEDINSPATIALSTRUCTURE('2U6VGiUKT4UwzoFmGkA9c9',$,$,$,(#149),#13);
#151=IFCPRESENTATIONLAYERASSIGNMENT('CONTOUR',$,(#144),$);
#152=IFCCARTESIANPOINT((30.236159999320392,5.0800000001488854,196.25));
#153=IFCCARTESIANPOINT((30.236159999320392,15.240000000051168,196.25));
#154=IFCCARTESIANPOINT((30.236159999320392,25.399999999953451,196.25));
#155=IFCCARTESIANPOINT((30.236159999320392,35.560000000251222,196.25));
#156=IFCCARTESIANPOINT((30.236159999320392,45.720000000153505,196.25));
#157=IFCCARTESIANPOINT((30.236159999320392,55.880000000055787,196.25));
#158=IFCCARTESIANPOINT((27.71647999868814,60.960000000204673,196.25));
#159=IFCCARTESIANPOINT((26.316634045429865,55.880000000055787,196.25));
#160=IFCCARTESIANPOINT((22.677120000179176,48.542270068914775,196.25));
#161=IFCCARTESIANPOINT((21.27727404554313,45.720000000153505,196.25));
#162=IFCCARTESIANPOINT((17.637759998914678,38.382270068617004,196.25));
#163=IFCCARTESIANPOINT((16.2379140456564,35.560000000251222,196.25));
#164=IFCCARTESIANPOINT((12.598400000405714,31.557447634981628,196.25));
#165=IFCCARTESIANPOINT((9.5443059727027588,25.399999999953451,196.25));
#166=IFCCARTESIANPOINT((7.5590399991412136,18.062270068812438,196.25));
#167=IFCCARTESIANPOINT((6.159194045882936,15.240000000051168,196.25));
#168=IFCCARTESIANPOINT((2.5196800006322504,7.9022700685146674,196.25));
#169=IFCCARTESIANPOINT((0.,5.0800000001488854,196.25));
#170=IFCCARTESIANPOINT((2.5196800006322504,0.,196.25));
#171=IFCCARTESIANPOINT((7.5590399991412136,0.,196.25));
#172=IFCCARTESIANPOINT((12.598400000405714,0.,196.25));
#173=IFCCARTESIANPOINT((17.637759998914678,0.,196.25));
#174=IFCCARTESIANPOINT((22.677120000179176,0.,196.25));
#175=IFCCARTESIANPOINT((27.71647999868814,0.,196.25));
#176=IFCCARTESIANPOINT((30.236159999320392,5.0800000001488854,196.25));
#177=IFCPOLYLINE((#152,#153,#154,#155,#156,#157,#158,#159,#160,#161,#162,#163,#164,#165,#166,#167,#168,#169,#170,#171,#172,#173,#174,#175,#176));
#178=IFCSHAPEREPRESENTATION(#6,'Annotation','Curve3D',(#177));
#179=IFCPRODUCTDEFINITIONSHAPE($,$,(#178));
#180=IFCCARTESIANPOINT((0.,0.,0.));
#181=IFCAXIS2PLACEMENT3D(#180,$,$);
#182=IFCLOCALPLACEMENT(#12,#181);
#183=IFCANNOTATION('1SGKG9Sw99HO_SqweMvQJ1',$,'Contour 196.25 m','synthetic-fixture (no live USGS 3DEP fetch; sandbox has no network egress)','CONTOUR',#182,#179);
#184=IFCRELCONTAINEDINSPATIALSTRUCTURE('1FjkecOoHCahrxjtMkxh3J',$,$,$,(#183),#13);
#185=IFCPRESENTATIONLAYERASSIGNMENT('CONTOUR',$,(#178),$);
#186=IFCCARTESIANPOINT((30.236159999320392,5.0800000001488854,196.5));
#187=IFCCARTESIANPOINT((30.236159999320392,15.240000000051168,196.5));
#188=IFCCARTESIANPOINT((30.236159999320392,25.399999999953451,196.5));
#189=IFCCARTESIANPOINT((30.236159999320392,35.560000000251222,196.5));
#190=IFCCARTESIANPOINT((27.71647999868814,44.590919725406195,196.5));
#191=IFCCARTESIANPOINT((23.237143816081094,35.560000000251222,196.5));
#192=IFCCARTESIANPOINT((22.677120000179176,34.430919725503912,196.5));
#193=IFCCARTESIANPOINT((18.197783816194363,25.399999999953451,196.5));
#194=IFCCARTESIANPOINT((17.637759998914678,24.27091972560163,196.5));
#195=IFCCARTESIANPOINT((13.15842381630763,15.240000000051168,196.5));
#196=IFCCARTESIANPOINT((12.598400000405714,14.110919725303859,196.5));
#197=IFCCARTESIANPOINT((8.1190638164208977,5.0800000001488854,196.5));
#198=IFCCARTESIANPOINT((12.598400000405714,0.,196.5));
#199=IFCCARTESIANPOINT((17.637759998914678,0.,196.5));
#200=IFCCARTESIANPOINT((22.677120000179176,0.,196.5));
#201=IFCCARTESIANPOINT((27.71647999868814,0.,196.5));
#202=IFCCARTESIANPOINT((30.236159999320392,5.0800000001488854,196.5));
#203=IFCPOLYLINE((#186,#187,#188,#189,#190,#191,#192,#193,#194,#195,#196,#197,#198,#199,#200,#201,#202));
#204=IFCSHAPEREPRESENTATION(#6,'Annotation','Curve3D',(#203));
#205=IFCPRODUCTDEFINITIONSHAPE($,$,(#204));
#206=IFCCARTESIANPOINT((0.,0.,0.));
#207=IFCAXIS2PLACEMENT3D(#206,$,$);
#208=IFCLOCALPLACEMENT(#12,#207);
#209=IFCANNOTATION('1SFX0Q8b14VA5M4XL7wWqZ',$,'Contour 196.50 m','synthetic-fixture (no live USGS 3DEP fetch; sandbox has no network egress)','CONTOUR',#208,#205);
#210=IFCRELCONTAINEDINSPATIALSTRUCTURE('2ExrnXw1XD6wac6nS_lX1Z',$,$,$,(#209),#13);
#211=IFCPRESENTATIONLAYERASSIGNMENT('CONTOUR',$,(#204),$);
#212=IFCCARTESIANPOINT((30.236159999320392,5.0800000001488854,196.75));
#213=IFCCARTESIANPOINT((30.236159999320392,15.240000000051168,196.75));
#214=IFCCARTESIANPOINT((30.236159999320392,25.399999999953451,196.75));
#215=IFCCARTESIANPOINT((27.71647999868814,30.480000000102336,196.75));
#216=IFCCARTESIANPOINT((25.196799999433658,25.399999999953451,196.75));
#217=IFCCARTESIANPOINT((22.677120000179176,20.320000000200054,196.75));
#218=IFCCARTESIANPOINT((20.157439999546927,15.240000000051168,196.75));
#219=IFCCARTESIANPOINT((17.637759998914678,10.159999999902283,196.75));
#220=IFCCARTESIANPOINT((15.118079999660196,5.0800000001488854,196.75));
#221=IFCCARTESIANPOINT((17.637759998914678,0.,196.75));
#222=IFCCARTESIANPOINT((22.677120000179176,0.,196.75));
#223=IFCCARTESIANPOINT((27.71647999868814,0.,196.75));
#224=IFCCARTESIANPOINT((30.236159999320392,5.0800000001488854,196.75));
#225=IFCPOLYLINE((#212,#213,#214,#215,#216,#217,#218,#219,#220,#221,#222,#223,#224));
#226=IFCSHAPEREPRESENTATION(#6,'Annotation','Curve3D',(#225));
#227=IFCPRODUCTDEFINITIONSHAPE($,$,(#226));
#228=IFCCARTESIANPOINT((0.,0.,0.));
#229=IFCAXIS2PLACEMENT3D(#228,$,$);
#230=IFCLOCALPLACEMENT(#12,#229);
#231=IFCANNOTATION('0wJopUXgH7YuV7mOJaNC9o',$,'Contour 196.75 m','synthetic-fixture (no live USGS 3DEP fetch; sandbox has no network egress)','CONTOUR',#230,#227);
#232=IFCRELCONTAINEDINSPATIALSTRUCTURE('3xncA00Dz50xB$i6qi5KBp',$,$,$,(#231),#13);
#233=IFCPRESENTATIONLAYERASSIGNMENT('CONTOUR',$,(#226),$);
#234=IFCCARTESIANPOINT((30.236159999320392,5.0800000001488854,197.));
#235=IFCCARTESIANPOINT((30.236159999320392,15.240000000051168,197.));
#236=IFCCARTESIANPOINT((27.71647999868814,16.369080274798478,197.));
#237=IFCCARTESIANPOINT((27.156456182786226,15.240000000051168,197.));
#238=IFCCARTESIANPOINT((22.677120000179176,6.2090802745007068,197.));
#239=IFCCARTESIANPOINT((22.117096182899495,5.0800000001488854,197.));
#240=IFCCARTESIANPOINT((22.677120000179176,0.,197.));
#241=IFCCARTESIANPOINT((27.71647999868814,0.,197.));
#242=IFCCARTESIANPOINT((30.236159999320392,5.0800000001488854,197.));
#243=IFCPOLYLINE((#234,#235,#236,#237,#238,#239,#240,#241,#242));
#244=IFCSHAPEREPRESENTATION(#6,'Annotation','Curve3D',(#243));
#245=IFCPRODUCTDEFINITIONSHAPE($,$,(#244));
#246=IFCCARTESIANPOINT((0.,0.,0.));
#247=IFCAXIS2PLACEMENT3D(#246,$,$);
#248=IFCLOCALPLACEMENT(#12,#247);
#249=IFCANNOTATION('07V6q73G1BVAy7VoTxjQUn',$,'Contour 197.00 m','synthetic-fixture (no live USGS 3DEP fetch; sandbox has no network egress)','CONTOUR',#248,#245);
#250=IFCRELCONTAINEDINSPATIALSTRUCTURE('24$IrdKM17RhNNH65RS00a',$,$,$,(#249),#13);
#251=IFCPRESENTATIONLAYERASSIGNMENT('CONTOUR',$,(#244),$);
ENDSEC;
END-ISO-10303-21;
